<?xml version="1.0" encoding="UTF-8" standalone="no"?>
<svg
   width="198.81134mm"
   height="61.919201mm"
   viewBox="0 0 2817.7985 877.59499"
   version="1.2"
   id="svg2595"
   sodipodi:docname="aleluja.svg"
   inkscape:version="1.2.2 (b0a8486541, 2022-12-01)"
   xmlns:inkscape="http://www.inkscape.org/namespaces/inkscape"
   xmlns:sodipodi="http://sodipodi.sourceforge.net/DTD/sodipodi-0.dtd"
   xmlns="http://www.w3.org/2000/svg"
   xmlns:svg="http://www.w3.org/2000/svg">
  <defs
     id="defs2599" />
  <sodipodi:namedview
     id="namedview2597"
     pagecolor="#ffffff"
     bordercolor="#000000"
     borderopacity="0.25"
     inkscape:showpageshadow="2"
     inkscape:pageopacity="0.0"
     inkscape:pagecheckerboard="0"
     inkscape:deskcolor="#d1d1d1"
     inkscape:document-units="mm"
     showgrid="false"
     inkscape:zoom="0.82602653"
     inkscape:cx="283.28388"
     inkscape:cy="561.11999"
     inkscape:window-width="1920"
     inkscape:window-height="1178"
     inkscape:window-x="0"
     inkscape:window-y="22"
     inkscape:window-maximized="1"
     inkscape:current-layer="svg2595" />
  <title
     id="title2427">Aleluja</title>
  <desc
     id="desc2429">Generated by MuseScore Studio 4.6.3</desc>
  <polyline
     class="StaffLines"
     fill="none"
     stroke="#000000"
     stroke-width="4"
     stroke-linejoin="bevel"
     points="340.2,447.782 2818.8,447.782"
     id="polyline2431"
     transform="translate(-159.40152)" />
  <polyline
     class="StaffLines"
     fill="none"
     stroke="#000000"
     stroke-width="4"
     stroke-linejoin="bevel"
     points="340.2,484.142 2818.8,484.142"
     id="polyline2433"
     transform="translate(-159.40152)" />
  <polyline
     class="StaffLines"
     fill="none"
     stroke="#000000"
     stroke-width="4"
     stroke-linejoin="bevel"
     points="340.2,520.502 2818.8,520.502"
     id="polyline2435"
     transform="translate(-159.40152)" />
  <polyline
     class="StaffLines"
     fill="none"
     stroke="#000000"
     stroke-width="4"
     stroke-linejoin="bevel"
     points="340.2,556.862 2818.8,556.862"
     id="polyline2437"
     transform="translate(-159.40152)" />
  <polyline
     class="StaffLines"
     fill="none"
     stroke="#000000"
     stroke-width="4"
     stroke-linejoin="bevel"
     points="340.2,593.222 2818.8,593.222"
     id="polyline2439"
     transform="translate(-159.40152)" />
  <path
     class="Text"
     d="m 1192.2685,159.447 h -4.63 l -25.3,64.125 c -2.96,8.578 -5.82,11.219 -12.09,11.656 h -0.44 v 5.172 h 29.14 v -5.172 h -2.2 c -5.94,0 -8.91,-2.094 -8.91,-6.266 0,-1.437 0.33,-2.75 1,-4.625 l 3.63,-9.671 h 29.16 l 5.93,14.734 c 0.66,1.766 0.88,2.422 0.88,2.969 0,1.765 -2.75,2.859 -6.81,2.859 h -4.63 v 5.172 h 34.09 v -5.172 h -1.53 c -5.72,-0.109 -6.72,-0.766 -9.25,-7.031 l -28.04,-68.75 m -5.39,18.031 12.43,31.234 h -24.64 l 12.21,-31.234 m 65.25,-18.156 -20.35,1.219 v 4.734 h 5.39 c 4.06,0.109 4.61,0.766 4.61,5.5 v 61.266 c -0.11,1.656 -0.22,2.312 -0.65,2.859 -0.77,0.984 -2.86,1.437 -7.6,1.547 h -0.76 v 3.953 h 28.48 v -3.953 h -0.77 c -7.35,-0.235 -8.35,-0.781 -8.35,-4.735 v -72.39 m 63.71,56.328 c 0.11,-16.5 -9.25,-28.156 -22.67,-28.156 -14.08,0 -24.64,12.203 -24.64,28.703 0,15.515 10.02,25.859 24.86,25.859 10.56,0 17.94,-5.172 22.45,-15.625 l -3.86,-2.094 c -4.5,8.469 -9.12,11.766 -16.5,11.766 -5.6,0 -9.67,-2.297 -12.53,-7.25 -1.98,-3.297 -2.86,-7.156 -2.75,-13.203 h 35.64 m -35.53,-4.734 c 0,-7.704 3.52,-18.704 12.75,-18.704 6.61,0 11,5.844 11,14.75 0,3.079 -0.98,3.954 -4.5,3.954 h -19.25 m 58.82,-51.594 -20.35,1.219 v 4.734 h 5.39 c 4.06,0.109 4.61,0.766 4.61,5.5 v 61.266 c -0.11,1.656 -0.22,2.312 -0.65,2.859 -0.77,0.984 -2.86,1.437 -7.6,1.547 h -0.76 v 3.953 h 28.48 v -3.953 h -0.77 c -7.35,-0.235 -8.35,-0.781 -8.35,-4.735 v -72.39 m 57.87,81.844 20.03,-0.766 v -4.734 h -2.75 c -6.39,-0.219 -6.94,-0.875 -6.94,-8.032 v -38.5 l -20.67,1.219 v 4.734 h 5.61 c 4.17,0.11 4.72,0.766 4.72,5.5 v 13.516 c 0,9.578 -2.3,21.234 -14.41,21.234 -3.4,0 -6.26,-1.203 -7.7,-3.406 -1.42,-2.094 -1.64,-3.187 -1.64,-9.234 v -33.563 l -19.25,1.219 v 4.734 h 4.17 c 4.19,0.11 4.74,0.766 4.74,5.5 v 23.75 c 0,5.61 0.43,8.141 2.09,10.672 2.97,4.516 8.25,7.047 14.84,7.047 7.27,0 12.33,-2.969 17.16,-10.015 v 9.125 m 36.28,-79.422 c -3.51,0 -6.37,2.859 -6.37,6.39 0,3.516 2.86,6.375 6.26,6.375 3.64,0 6.5,-2.859 6.5,-6.375 0,-3.531 -2.86,-6.39 -6.39,-6.39 m 5.17,27.39 -21.45,1.219 v 4.734 h 6.39 c 4.17,0.11 4.74,0.766 4.74,5.5 v 37.282 c 0,8.906 -0.57,13.093 -2.1,16.281 -1.11,2.203 -3.64,3.844 -6.05,3.844 -1.54,0 -2.75,-0.657 -2.75,-1.422 0,-0.438 0.11,-0.656 0.55,-1.766 0.55,-1.094 0.77,-1.859 0.77,-2.64 0,-2.75 -2.64,-5.172 -5.72,-5.172 -3.52,0 -6.16,2.75 -6.16,6.609 0,5.391 4.96,9.016 12.31,9.016 6.16,0 11.77,-2.641 14.97,-7.157 3.41,-4.828 4.5,-10.437 4.5,-22.875 v -43.453 m 59.96,15.844 c 0,-6.922 -1.21,-10.453 -4.41,-13.094 -3.62,-2.968 -9.02,-4.39 -16.05,-4.39 -12.43,0 -21.45,5.828 -21.45,13.859 0,4.063 2.53,6.703 6.38,6.703 3.51,0 5.93,-2.312 5.93,-5.609 0,-1.422 -0.54,-2.969 -1.64,-4.5 -0.67,-0.781 -0.78,-1 -0.78,-1.547 0,-2.203 4.41,-4.188 9.69,-4.188 3.51,0 7.37,1.11 9.12,2.75 2.1,1.766 2.86,4.407 2.86,9.36 v 4.281 c -11.43,1.984 -15.06,2.859 -20.45,4.953 -9.58,3.531 -14.08,8.578 -14.08,15.625 0,7.922 6.16,12.875 15.95,12.875 7.58,0 14.41,-3.094 19.15,-8.703 1.75,5.609 4.5,7.813 9.67,7.813 4.95,0 10.12,-3.188 10.12,-6.375 0,-0.766 -0.44,-1.329 -1.11,-1.329 -0.43,0 -0.87,0.125 -1.64,0.454 -1.54,0.656 -2.2,0.765 -3.08,0.765 -3.09,0 -4.18,-1.984 -4.18,-7.594 v -22.109 m -10.35,13.422 c 0,6.594 -0.33,8.141 -2.18,11 -2.75,4.062 -7.71,6.812 -12.55,6.812 -5.06,0 -8.69,-3.625 -8.69,-8.578 0,-4.609 2.31,-7.922 7.14,-10.218 3.42,-1.547 7.7,-2.641 16.28,-4.079 v 5.063"
     id="path2441" />
  <polyline
     class="BarLine"
     fill="none"
     stroke="#000000"
     stroke-width="6.54"
     stroke-linejoin="bevel"
     points="2782.08,445.783 2782.08,595.222"
     id="polyline2443"
     transform="translate(-159.40152)" />
  <polyline
     class="BarLine"
     fill="none"
     stroke="#000000"
     stroke-width="20"
     stroke-linejoin="bevel"
     points="2808.8,445.783 2808.8,595.222"
     id="polyline2445"
     transform="translate(-159.40152)" />
  <path
     class="SlurSegment"
     stroke="#000000"
     stroke-width="1.82"
     stroke-linecap="round"
     stroke-linejoin="round"
     fill-rule="evenodd"
     d="m 2218.1285,601.585 c 28.93,29.41 89.63,32.501 121.4,6.181 -32.32,36.986 -93.02,33.895 -121.4,-6.181"
     id="path2447" />
  <path
     class="SlurSegment"
     stroke="#000000"
     stroke-width="1.82"
     stroke-linecap="round"
     stroke-linejoin="round"
     fill-rule="evenodd"
     d="m 1099.1685,601.585 c 37.18,19.93 97.88,4.84 121.4,-30.179 -20.91,45.521 -81.61,60.61 -121.4,30.179"
     id="path2449" />
  <path
     class="SlurSegment"
     stroke="#000000"
     stroke-width="1.82"
     stroke-linecap="round"
     stroke-linejoin="round"
     fill-rule="evenodd"
     d="m 1584.7685,644.126 c 26.19,32.276 86.89,41.366 121.4,18.18 -36.09,33.796 -96.79,24.706 -121.4,-18.18"
     id="path2451" />
  <path
     class="SlurSegment"
     stroke="#000000"
     stroke-width="1.82"
     stroke-linecap="round"
     stroke-linejoin="round"
     fill-rule="evenodd"
     d="m 1975.3285,601.585 c 37.18,19.93 97.88,4.84 121.4,-30.179 -20.91,45.521 -81.61,60.61 -121.4,30.179"
     id="path2453" />
  <polyline
     class="LedgerLine"
     fill="none"
     stroke="#000000"
     stroke-width="5.82"
     stroke-linejoin="bevel"
     points="1829.95,629.582 1901.19,629.582"
     id="polyline2455"
     transform="translate(-159.40152)" />
  <polyline
     class="Stem"
     fill="none"
     stroke="#000000"
     stroke-width="3.64"
     stroke-linejoin="bevel"
     points="2642.15,569.225 2642.15,447.782"
     id="polyline2457"
     transform="translate(-159.40152)" />
  <polyline
     class="Stem"
     fill="none"
     stroke="#000000"
     stroke-width="3.64"
     stroke-linejoin="bevel"
     points="734.092,569.225 734.092,448.073"
     id="polyline2459"
     transform="translate(-159.40152)" />
  <polyline
     class="Stem"
     fill="none"
     stroke="#000000"
     stroke-width="3.64"
     stroke-linejoin="bevel"
     points="1765.99,605.585 1765.99,511.545"
     id="polyline2461"
     transform="translate(-159.40152)" />
  <polyline
     class="Stem"
     fill="none"
     stroke="#000000"
     stroke-width="3.64"
     stroke-linejoin="bevel"
     points="855.493,551.045 855.493,429.893"
     id="polyline2463"
     transform="translate(-159.40152)" />
  <polyline
     class="Stem"
     fill="none"
     stroke="#000000"
     stroke-width="3.64"
     stroke-linejoin="bevel"
     points="2520.75,569.225 2520.75,456.74"
     id="polyline2465"
     transform="translate(-159.40152)" />
  <polyline
     class="Stem"
     fill="none"
     stroke="#000000"
     stroke-width="3.64"
     stroke-linejoin="bevel"
     points="976.893,532.865 976.893,420.803"
     id="polyline2467"
     transform="translate(-159.40152)" />
  <polyline
     class="Stem"
     fill="none"
     stroke="#000000"
     stroke-width="3.64"
     stroke-linejoin="bevel"
     points="2277.95,532.865 2277.95,438.825"
     id="polyline2469"
     transform="translate(-159.40152)" />
  <polyline
     class="Stem"
     fill="none"
     stroke="#000000"
     stroke-width="3.64"
     stroke-linejoin="bevel"
     points="2156.55,551.045 2156.55,447.65"
     id="polyline2471"
     transform="translate(-159.40152)" />
  <polyline
     class="Stem"
     fill="none"
     stroke="#000000"
     stroke-width="3.64"
     stroke-linejoin="bevel"
     points="1280.39,551.045 1280.39,447.65"
     id="polyline2473"
     transform="translate(-159.40152)" />
  <polyline
     class="Stem"
     fill="none"
     stroke="#000000"
     stroke-width="3.64"
     stroke-linejoin="bevel"
     points="1644.59,569.225 1644.59,448.073"
     id="polyline2475"
     transform="translate(-159.40152)" />
  <polyline
     class="Stem"
     fill="none"
     stroke="#000000"
     stroke-width="3.64"
     stroke-linejoin="bevel"
     points="2035.15,569.225 2035.15,448.073"
     id="polyline2477"
     transform="translate(-159.40152)" />
  <polyline
     class="Stem"
     fill="none"
     stroke="#000000"
     stroke-width="3.64"
     stroke-linejoin="bevel"
     points="1401.79,532.865 1401.79,438.825"
     id="polyline2479"
     transform="translate(-159.40152)" />
  <polyline
     class="Stem"
     fill="none"
     stroke="#000000"
     stroke-width="3.64"
     stroke-linejoin="bevel"
     points="1887.39,623.765 1887.39,520.37"
     id="polyline2481"
     transform="translate(-159.40152)" />
  <polyline
     class="Stem"
     fill="none"
     stroke="#000000"
     stroke-width="3.64"
     stroke-linejoin="bevel"
     points="1523.19,551.045 1523.19,429.893"
     id="polyline2483"
     transform="translate(-159.40152)" />
  <polyline
     class="Stem"
     fill="none"
     stroke="#000000"
     stroke-width="3.64"
     stroke-linejoin="bevel"
     points="1098.29,569.225 1098.29,447.782"
     id="polyline2485"
     transform="translate(-159.40152)" />
  <polyline
     class="Stem"
     fill="none"
     stroke="#000000"
     stroke-width="3.64"
     stroke-linejoin="bevel"
     points="2399.35,551.045 2399.35,447.915"
     id="polyline2487"
     transform="translate(-159.40152)" />
  <path
     class="Hook"
     d="m 572.87248,480.80139 c 0,0.43181 0.13635,1.15901 1.15897,1.59082 6.24938,2.04518 18.77082,9.9081 28.22442,26.04278 2.61341,4.49962 6.84033,10.77172 6.84033,22.83873 0,10.47619 -2.77252,21.22508 -6.5448,31.70127 -0.29553,0.88631 -0.59092,1.61351 -0.4545,2.1816 0,0.88631 0.59078,1.4544 1.4544,1.4544 1.02259,0 1.74979,-0.56809 2.34057,-1.59068 6.5448,-11.6352 9.02193,-25.1793 9.02193,-38.40532 -0.7272,-18.77078 -11.49892,-32.58758 -11.49892,-32.58758 0.43181,0 -13.38499,-17.88461 -17.31645,-23.9976 -5.3631,-8.29466 -7.84012,-16.56656 -8.13555,-17.15741 -0.13635,-0.43177 -1.4544,-5.68125 -1.4544,-5.68125 -0.13635,-0.56813 -0.86355,-1.15898 -1.74982,-1.15898 -1.02263,0 -1.88618,0.88628 -1.88618,1.88618 v 32.88304"
     id="path2489"
     style="stroke-width:1.4544" />
  <path
     class="Hook"
     d="m 694.27348,462.62139 c 0,0.43181 0.13635,1.15901 1.15897,1.59082 6.24938,2.04518 18.77082,9.9081 28.22442,26.04278 2.61341,4.49962 6.84033,10.77172 6.84033,22.83873 0,10.47619 -2.77252,21.22508 -6.5448,31.70127 -0.29553,0.88631 -0.59092,1.61351 -0.4545,2.1816 0,0.88631 0.59078,1.4544 1.4544,1.4544 1.02259,0 1.74979,-0.56809 2.34057,-1.59068 6.5448,-11.6352 9.02193,-25.1793 9.02193,-38.40532 -0.7272,-18.77078 -11.49892,-32.58758 -11.49892,-32.58758 0.43181,0 -13.38499,-17.88461 -17.31645,-23.9976 -5.3631,-8.29466 -7.84012,-16.56656 -8.13555,-17.15741 -0.13635,-0.43177 -1.4544,-5.68125 -1.4544,-5.68125 -0.13635,-0.56813 -0.86355,-1.15898 -1.74982,-1.15898 -1.02263,0 -1.88618,0.88628 -1.88618,1.88618 v 32.88304"
     id="path2491"
     style="stroke-width:1.4544" />
  <path
     class="Hook"
     d="m 815.67348,453.53139 c 0,0.43181 0.13635,1.15901 1.15897,1.59082 6.24938,2.04518 18.77082,9.9081 28.22443,26.04278 2.6134,4.49962 6.8403,10.77172 6.8403,22.83873 0,10.47619 -2.7725,21.22508 -6.5448,31.70127 -0.2955,0.88631 -0.5909,1.61351 -0.4545,2.1816 0,0.88631 0.5908,1.4544 1.4544,1.4544 1.0226,0 1.7498,-0.56809 2.3406,-1.59068 6.5448,-11.6352 9.0219,-25.1793 9.0219,-38.40532 -0.7272,-18.77078 -11.4989,-32.58758 -11.4989,-32.58758 0.4318,0 -13.38499,-17.88461 -17.31645,-23.9976 -5.3631,-8.29466 -7.84012,-16.56656 -8.13555,-17.15741 -0.13635,-0.43177 -1.4544,-5.68125 -1.4544,-5.68125 -0.13635,-0.56813 -0.86355,-1.15898 -1.74982,-1.15898 -1.02263,0 -1.88618,0.88628 -1.88618,1.88618 v 32.88304"
     id="path2493"
     style="stroke-width:1.4544" />
  <path
     class="Hook"
     d="m 1873.9285,480.80139 c 0,0.43181 0.1363,1.15901 1.159,1.59082 6.2493,2.04518 18.7708,9.9081 28.2244,26.04278 2.6134,4.49962 6.8403,10.77172 6.8403,22.83873 0,10.47619 -2.7725,21.22508 -6.5448,31.70127 -0.2955,0.88631 -0.5909,1.61351 -0.4545,2.1816 0,0.88631 0.5908,1.4544 1.4544,1.4544 1.0226,0 1.7498,-0.56809 2.3406,-1.59068 6.5448,-11.6352 9.0219,-25.1793 9.0219,-38.40532 -0.7272,-18.77078 -11.4989,-32.58758 -11.4989,-32.58758 0.4318,0 -13.385,-17.88461 -17.3165,-23.9976 -5.3631,-8.29466 -7.8401,-16.56656 -8.1355,-17.15741 -0.1364,-0.43177 -1.4544,-5.68125 -1.4544,-5.68125 -0.1364,-0.56813 -0.8636,-1.15898 -1.7498,-1.15898 -1.0227,0 -1.8862,0.88628 -1.8862,1.88618 v 32.88304"
     id="path2495"
     style="stroke-width:1.4544" />
  <path
     class="Hook"
     d="m 1361.9785,462.62139 c 0,0.43181 0.1364,1.15901 1.159,1.59082 6.2494,2.04518 18.7708,9.9081 28.2244,26.04278 2.6134,4.49962 6.8403,10.77172 6.8403,22.83873 0,10.47619 -2.7725,21.22508 -6.5448,31.70127 -0.2955,0.88631 -0.5909,1.61351 -0.4545,2.1816 0,0.88631 0.5908,1.4544 1.4544,1.4544 1.0226,0 1.7498,-0.56809 2.3406,-1.59068 6.5448,-11.6352 9.0219,-25.1793 9.0219,-38.40532 -0.7272,-18.77078 -11.4989,-32.58758 -11.4989,-32.58758 0.4318,0 -13.385,-17.88461 -17.3164,-23.9976 -5.3631,-8.29466 -7.8402,-16.56656 -8.1356,-17.15741 -0.1363,-0.43177 -1.4544,-5.68125 -1.4544,-5.68125 -0.1363,-0.56813 -0.8635,-1.15898 -1.7498,-1.15898 -1.0226,0 -1.8862,0.88628 -1.8862,1.88618 v 32.88304"
     id="path2497"
     style="stroke-width:1.4544" />
  <path
     class="Hook"
     d="m 1483.3785,480.80139 c 0,0.43181 0.1364,1.15901 1.159,1.59082 6.2494,2.04518 18.7708,9.9081 28.2244,26.04278 2.6134,4.49962 6.8403,10.77172 6.8403,22.83873 0,10.47619 -2.7725,21.22508 -6.5448,31.70127 -0.2955,0.88631 -0.5909,1.61351 -0.4545,2.1816 0,0.88631 0.5908,1.4544 1.4544,1.4544 1.0226,0 1.7498,-0.56809 2.3406,-1.59068 6.5448,-11.6352 9.0219,-25.1793 9.0219,-38.40532 -0.7272,-18.77078 -11.4989,-32.58758 -11.4989,-32.58758 0.4318,0 -13.385,-17.88461 -17.3164,-23.9976 -5.3631,-8.29466 -7.8402,-16.56656 -8.1356,-17.15741 -0.1363,-0.43177 -1.4544,-5.68125 -1.4544,-5.68125 -0.1363,-0.56813 -0.8635,-1.15898 -1.7498,-1.15898 -1.0226,0 -1.8862,0.88628 -1.8862,1.88618 v 32.88304"
     id="path2499"
     style="stroke-width:1.4544" />
  <path
     class="Note"
     d="m 893.43848,581.15503 c 0,6.24937 4.4996,13.22598 16.2938,13.22598 15.1122,0 30.9742,-12.36243 30.9742,-25.15661 0,-8.59005 -7.272,-13.38499 -16.2938,-13.38499 -14.1122,0 -30.9742,11.93059 -30.9742,25.31562"
     id="path2501"
     style="stroke-width:1.4544" />
  <path
     class="Note"
     d="m 1075.5385,562.97503 c 0,6.24937 4.4996,13.22598 16.2938,13.22598 15.1122,0 30.9742,-12.36243 30.9742,-25.15661 0,-8.59005 -7.272,-13.38499 -16.2938,-13.38499 -14.1122,0 -30.9742,11.93059 -30.9742,25.31562"
     id="path2503"
     style="stroke-width:1.4544" />
  <path
     class="Note"
     d="m 1196.9385,544.79503 c 0,6.24937 4.4996,13.22598 16.2938,13.22598 15.1122,0 30.9742,-12.36243 30.9742,-25.15661 0,-8.59005 -7.272,-13.38499 -16.2938,-13.38499 -14.1122,0 -30.9742,11.93059 -30.9742,25.31562"
     id="path2505"
     style="stroke-width:1.4544" />
  <path
     class="Note"
     d="m 1318.3385,562.97503 c 0,6.24937 4.4995,13.22598 16.2938,13.22598 15.1122,0 30.9742,-12.36243 30.9742,-25.15661 0,-8.59005 -7.272,-13.38499 -16.2938,-13.38499 -14.1122,0 -30.9742,11.93059 -30.9742,25.31562"
     id="path2507"
     style="stroke-width:1.4544" />
  <path
     class="Note"
     d="m 1951.6985,562.97503 c 0,6.24937 4.4996,13.22598 16.2938,13.22598 15.1122,0 30.9742,-12.36243 30.9742,-25.15661 0,-8.59005 -7.272,-13.38499 -16.2938,-13.38499 -14.1122,0 -30.9742,11.93059 -30.9742,25.31562"
     id="path2509"
     style="stroke-width:1.4544" />
  <path
     class="Note"
     d="m 1439.7385,581.15503 c 0,6.24937 4.4995,13.22598 16.2938,13.22598 15.1122,0 30.9742,-12.36243 30.9742,-25.15661 0,-8.59005 -7.272,-13.38499 -16.2938,-13.38499 -14.1122,0 -30.9742,11.93059 -30.9742,25.31562"
     id="path2511"
     style="stroke-width:1.4544" />
  <path
     class="Note"
     d="m 1561.1385,617.51503 c 0,6.24937 4.4995,13.22598 16.2938,13.22598 15.1122,0 30.9742,-12.36243 30.9742,-25.15661 0,-8.59005 -7.272,-13.38499 -16.2938,-13.38499 -14.1122,0 -30.9742,11.93059 -30.9742,25.31562"
     id="path2513"
     style="stroke-width:1.4544" />
  <path
     class="Note"
     d="m 2315.8985,581.15503 c 0,6.24937 4.4996,13.22598 16.2938,13.22598 15.1122,0 30.9742,-12.36243 30.9742,-25.15661 0,-8.59005 -7.272,-13.38499 -16.2938,-13.38499 -14.1122,0 -30.9742,11.93059 -30.9742,25.31562"
     id="path2515"
     style="stroke-width:1.4544" />
  <path
     class="Note"
     d="m 1682.5385,635.69503 c 0,6.24937 4.4996,13.22598 16.2938,13.22598 15.1122,0 30.9742,-12.36243 30.9742,-25.15661 0,-8.59005 -7.272,-13.38499 -16.2938,-13.38499 -14.1122,0 -30.9742,11.93059 -30.9742,25.31562"
     id="path2517"
     style="stroke-width:1.4544" />
  <path
     class="Note"
     d="m 1830.2985,581.15503 c 0,6.24937 4.4996,13.22598 16.2938,13.22598 15.1122,0 30.9742,-12.36243 30.9742,-25.15661 0,-8.59005 -7.272,-13.38499 -16.2938,-13.38499 -14.1122,0 -30.9742,11.93059 -30.9742,25.31562"
     id="path2519"
     style="stroke-width:1.4544" />
  <path
     class="Note"
     d="m 2073.0985,544.79503 c 0,6.24937 4.4995,13.22598 16.2938,13.22598 15.1122,0 30.9742,-12.36243 30.9742,-25.15661 0,-8.59005 -7.272,-13.38499 -16.2938,-13.38499 -14.1122,0 -30.9742,11.93059 -30.9742,25.31562"
     id="path2521"
     style="stroke-width:1.4544" />
  <path
     class="Note"
     d="m 2194.4985,562.97503 c 0,6.24937 4.4996,13.22598 16.2938,13.22598 15.1122,0 30.9742,-12.36243 30.9742,-25.15661 0,-8.59005 -7.272,-13.38499 -16.2938,-13.38499 -14.1122,0 -30.9742,11.93059 -30.9742,25.31562"
     id="path2523"
     style="stroke-width:1.4544" />
  <path
     class="Note"
     d="m 2437.2985,581.15503 c 0,6.24937 4.4995,13.22598 16.2938,13.22598 15.1122,0 30.9742,-12.36243 30.9742,-25.15661 0,-8.59005 -7.272,-13.38499 -16.2938,-13.38499 -14.1122,0 -30.9742,11.93059 -30.9742,25.31562"
     id="path2525"
     style="stroke-width:1.4544" />
  <path
     class="Note"
     d="m 529.24048,581.15503 c 0,6.24937 4.49955,13.22598 16.29379,13.22598 15.11223,0 30.97421,-12.36243 30.97421,-25.15661 0,-8.59005 -7.272,-13.38499 -16.29379,-13.38499 -14.11219,0 -30.97421,11.93059 -30.97421,25.31562"
     id="path2527"
     style="stroke-width:1.4544" />
  <path
     class="Note"
     d="m 650.64148,562.97503 c 0,6.24937 4.49955,13.22598 16.29379,13.22598 15.11223,0 30.97421,-12.36243 30.97421,-25.15661 0,-8.59005 -7.272,-13.38499 -16.29379,-13.38499 -14.11219,0 -30.97421,11.93059 -30.97421,25.31562"
     id="path2529"
     style="stroke-width:1.4544" />
  <path
     class="Note"
     d="m 772.04148,544.79503 c 0,6.24937 4.49955,13.22598 16.29379,13.22598 15.11223,0 30.97421,-12.36243 30.97421,-25.15661 0,-8.59005 -7.272,-13.38499 -16.29379,-13.38499 -14.11219,0 -30.97421,11.93059 -30.97421,25.31562"
     id="path2531"
     style="stroke-width:1.4544" />
  <path
     class="Clef"
     d="m 269.15328,586.81362 c -2.9088,0.59078 -5.65849,0.88617 -8.43101,0.88617 -20.79327,0 -38.54156,-14.544 -38.54156,-36.51904 0,-17.72557 12.49878,-33.58755 25.31568,-44.65466 2.4543,-2.1816 4.79501,-4.20409 6.97661,-6.38569 1.29529,7.84009 2.31788,14.68028 3.34047,20.65699 -13.24857,3.93139 -22.24767,17.88461 -22.24767,31.56506 0,10.1808 7.9992,24.13395 19.6344,24.13395 1.15887,0 2.47699,-0.59078 2.47699,-1.88621 0,-1.31798 -1.4544,-2.04518 -3.20419,-3.20419 -5.68132,-3.49965 -8.88551,-7.272 -8.88551,-14.40765 0,-8.86275 6.5448,-15.99847 15.13478,-18.02096 l 8.43101,47.83623 M 256.35907,437.30581 c 1.31812,-5.8176 7.9992,-21.0888 15.56673,-21.0888 2.1816,0 5.65849,7.11289 5.65849,17.15727 0,15.13492 -11.1807,26.47473 -21.22522,36.36 -0.86348,-5.8176 -1.59068,-11.47609 -1.59068,-17.58908 0,-5.38579 0.43181,-10.33991 1.59068,-14.83939 m 33.4512,122.60134 c 0,10.33988 -4.22678,20.95245 -14.544,25.17937 -3.04508,-17.45287 -6.97647,-40.58692 -7.9992,-46.99544 13.0896,0 22.5432,8.88554 22.5432,21.81607 m -63.9936,71.56106 c 0,9.61271 7.40842,22.2705 27.04282,22.2705 6.84019,0 12.8169,-1.74979 18.04358,-4.95412 7.86292,-5.52207 9.88541,-15.13478 9.88541,-24.29299 0,-5.65849 -0.86348,-12.20329 -2.31788,-20.49788 -0.43181,-2.9088 -1.31812,-7.272 -2.1816,-12.95332 14.24847,-4.65859 24.86108,-19.49798 24.86108,-34.47383 0,-21.95238 -15.56659,-36.79177 -36.79181,-36.79177 -1.4544,-8.7264 -2.9088,-17.31652 -4.22678,-25.452 15.43031,-16.15751 26.04278,-34.33751 26.04278,-57.4488 0,-13.24871 -4.06767,-23.9976 -6.40838,-29.24653 -3.47689,-7.40871 -7.70381,-12.49911 -10.31722,-12.49911 -1.02259,0 -5.52207,1.74964 -10.31708,7.40871 -9.31732,11.06653 -11.93059,29.67834 -11.93059,41.88163 0,7.86278 0.7272,14.9985 3.20419,31.29229 -0.15911,0.13642 -7.7265,7.84009 -10.77172,10.31722 -13.24857,12.3624 -31.56499,29.95148 -31.56499,59.06224 0,27.17917 23.70221,48.56336 50.76772,48.56336 4.20409,0 8.13548,-0.43181 11.47609,-1.02259 2.77238,13.97577 4.3632,24.15657 4.3632,31.86038 0,15.13492 -7.70381,23.13412 -22.38409,23.13412 -3.49972,0 -6.5448,-0.7272 -6.84033,-0.7272 -0.13628,-0.15911 -0.43167,-0.29553 -0.43167,-0.43181 0,-0.29539 0.29539,-0.4545 0.7272,-0.59092 6.84019,-1.02259 13.65769,-6.84019 13.65769,-16.13468 0,-7.86292 -5.95402,-16.15751 -16.86202,-16.15751 -10.1808,0 -16.7256,8.29459 -16.7256,17.88461"
     id="path2533"
     style="stroke-width:1.4544" />
  <path
     class="KeySig"
     d="m 347.60007,514.6844 c 0,11.49885 -5.97664,17.58915 -14.40761,24.29299 l 0.43177,-28.36077 c 0.29543,-1.31805 2.47703,-5.52224 8.29463,-5.52224 5.24954,0 5.68121,4.93139 5.68121,7.99927 v 1.59075 m -1.74979,-16.7256 c -7.272,0 -11.49885,4.49948 -12.22605,5.38579 l 0.59085,-46.69991 c 0,-1.15887 -0.86355,-2.02249 -2.04525,-2.02249 h -1.7271 c -1.1817,0 -2.04525,0.86362 -2.04525,2.02249 l 0.7272,87.42311 c 0,1.15901 0.86355,2.02263 2.04525,2.02263 0.2727,0 0.86355,-0.13642 1.15898,-0.2727 12.49878,-6.2721 25.58838,-18.18007 25.58838,-33.17857 0,-7.54477 -3.47689,-14.68035 -12.06701,-14.68035"
     id="path2535"
     style="stroke-width:1.4544" />
  <path
     class="TimeSig"
     d="m 422.50149,502.61739 v 10.74903 h -12.06701 c -1.02259,0 -2.04518,0.88617 -2.04518,2.04518 v 2.77252 c 0,1.15887 1.02259,2.02249 2.04518,2.02249 h 44.06381 c 1.1817,0 2.04518,-0.86362 2.04518,-2.02249 v -2.77252 c 0,-1.15901 -0.86348,-2.04518 -2.04518,-2.04518 h -13.0896 v -10.74903 h 13.0896 c 1.1817,0 2.04518,-1.02259 2.04518,-2.1816 v -2.77241 c 0,-1.02263 -0.86348,-2.02253 -2.04518,-2.02253 h -13.0896 V 472.5068 c 0,-0.86355 -0.43181,-1.59075 -0.9999,-1.88618 l -1.74979,-0.88627 c -0.29553,-0.13635 -0.43181,-0.13635 -0.7272,-0.13635 -0.59092,0 -1.15901,0 -1.61351,0.43177 l -13.22602,12.06698 c -0.43167,0.4545 -0.59078,1.02262 -0.59078,1.61347 v 11.93063 h -16.86198 c 0,0 16.29389,-17.4528 33.45116,-40.45057 0.59092,-0.7272 0.7272,-1.4544 0.7272,-2.02249 0,-0.7272 -0.29539,-1.31798 -0.43167,-1.4544 l -3.20433,-3.20419 c -0.43167,-0.29539 -0.86348,-0.59092 -1.4544,-0.59092 -0.86348,0 -20.52057,0 -21.67958,0 -1.02259,0 -1.74979,0.88631 -1.88621,1.74993 0,0 -0.7272,10.77158 -4.49955,22.54316 -3.79507,11.79428 -8.15827,19.06628 -11.93062,24.42938 0,0 -0.43178,0.7272 -0.43178,1.61348 0,0.29542 0,0.56819 0.13635,0.86358 0.43178,1.02259 1.4544,2.61341 1.4544,2.61341 0,0 0.29543,0.88617 1.59075,0.88617 h 25.02026"
     id="path2537"
     style="stroke-width:1.4544" />
  <path
     class="TimeSig"
     d="m 422.50149,575.33739 v 10.74903 h -12.06701 c -1.02259,0 -2.04518,0.88617 -2.04518,2.04518 v 2.77252 c 0,1.15887 1.02259,2.02249 2.04518,2.02249 h 44.06381 c 1.1817,0 2.04518,-0.86362 2.04518,-2.02249 v -2.77252 c 0,-1.15901 -0.86348,-2.04518 -2.04518,-2.04518 h -13.0896 v -10.74903 h 13.0896 c 1.1817,0 2.04518,-1.02259 2.04518,-2.1816 v -2.77241 c 0,-1.02263 -0.86348,-2.02253 -2.04518,-2.02253 h -13.0896 V 545.2268 c 0,-0.86355 -0.43181,-1.59075 -0.9999,-1.88618 l -1.74979,-0.88627 c -0.29553,-0.13635 -0.43181,-0.13635 -0.7272,-0.13635 -0.59092,0 -1.15901,0 -1.61351,0.43177 l -13.22602,12.06698 c -0.43167,0.4545 -0.59078,1.02263 -0.59078,1.61347 v 11.93063 h -16.86198 c 0,0 16.29389,-17.4528 33.45116,-40.45057 0.59092,-0.7272 0.7272,-1.4544 0.7272,-2.02249 0,-0.7272 -0.29539,-1.31798 -0.43167,-1.4544 l -3.20433,-3.20419 c -0.43167,-0.29539 -0.86348,-0.59092 -1.4544,-0.59092 -0.86348,0 -20.52057,0 -21.67958,0 -1.02259,0 -1.74979,0.88631 -1.88621,1.74993 0,0 -0.7272,10.77158 -4.49955,22.54316 -3.79507,11.79428 -8.15827,19.06628 -11.93062,24.42938 0,0 -0.43178,0.7272 -0.43178,1.61348 0,0.29542 0,0.56819 0.13635,0.86358 0.43178,1.02259 1.4544,2.61341 1.4544,2.61341 0,0 0.29543,0.88617 1.59075,0.88617 h 25.02026"
     id="path2539"
     style="stroke-width:1.4544" />
  <path
     class="Breath"
     d="m 1019.7031,429.602 c 13.3851,-9.31725 19.4754,-18.47539 19.4754,-28.79261 0,-11.20339 -6.3858,-17.9073 -16.1348,-17.9073 -6.9766,0 -11.6352,4.95412 -11.6352,10.77172 0,6.24927 5.3858,11.06697 11.6352,11.06697 4.2269,0 6.2494,-1.02259 6.6812,-1.1817 0.2954,-0.13628 0.7272,-0.2727 1.0226,-0.2727 1.0226,0 1.159,0.56823 1.159,1.59082 0,6.24941 -5.6586,13.38502 -15.703,20.3616 l 3.4996,4.3632"
     id="path2541"
     style="stroke-width:1.4544" />
  <path
     class="Breath"
     d="m 1774.4631,429.602 c 13.3851,-9.31725 19.4754,-18.47539 19.4754,-28.79261 0,-11.20339 -6.3858,-17.9073 -16.1348,-17.9073 -6.9766,0 -11.6352,4.95412 -11.6352,10.77172 0,6.24927 5.3858,11.06697 11.6352,11.06697 4.2269,0 6.2494,-1.02259 6.6812,-1.1817 0.2954,-0.13628 0.7272,-0.2727 1.0226,-0.2727 1.0226,0 1.159,0.56823 1.159,1.59082 0,6.24941 -5.6586,13.38502 -15.703,20.3616 l 3.4996,4.3632"
     id="path2543"
     style="stroke-width:1.4544" />
  <path
     class="Beam"
     fill-rule="evenodd"
     d="m 1995.3285,438.668 125.04,-9.09 v 18.228 l -125.04,9.09 v -18.228"
     id="path2545" />
  <path
     class="Beam"
     fill-rule="evenodd"
     d="m 1604.7785,502.298 125.03,9.09 v 18.228 l -125.03,-9.09 v -18.228"
     id="path2547" />
  <path
     class="Beam"
     fill-rule="evenodd"
     d="m 2238.1385,438.668 125.03,9.09 v 18.228 l -125.03,-9.09 v -18.228"
     id="path2549" />
  <path
     class="Beam"
     fill-rule="evenodd"
     d="m 1119.1785,438.668 125.03,-9.09 v 18.228 l -125.03,9.09 v -18.228"
     id="path2551" />
  <path
     class="Lyrics"
     d="m 1561.6885,694.828 c -2.78,0 -5.05,2.25 -5.05,5.047 0,2.781 2.27,5.046 4.96,5.046 2.87,0 5.14,-2.265 5.14,-5.046 0,-2.797 -2.27,-5.047 -5.05,-5.047 m 4.09,21.656 -16.97,0.953 v 3.75 h 5.05 c 3.3,0.078 3.74,0.609 3.74,4.344 v 29.5 c 0,7.047 -0.44,10.359 -1.66,12.875 -0.86,1.734 -2.86,3.047 -4.78,3.047 -1.22,0 -2.17,-0.516 -2.17,-1.125 0,-0.36 0.09,-0.532 0.43,-1.407 0.44,-0.859 0.61,-1.468 0.61,-2.078 0,-2.172 -2.09,-4.093 -4.53,-4.093 -2.78,0 -4.87,2.171 -4.87,5.218 0,4.266 3.92,7.141 9.75,7.141 4.87,0 9.31,-2.094 11.82,-5.656 2.71,-3.828 3.58,-8.266 3.58,-18.094 v -34.375 m 47.32,12.531 c 0,-5.484 -0.96,-8.265 -3.49,-10.359 -2.87,-2.344 -7.12,-3.469 -12.7,-3.469 -9.83,0 -16.97,4.609 -16.97,10.953 0,3.219 2,5.313 5.05,5.313 2.79,0 4.7,-1.828 4.7,-4.438 0,-1.125 -0.44,-2.344 -1.31,-3.562 -0.52,-0.61 -0.6,-0.797 -0.6,-1.219 0,-1.75 3.47,-3.313 7.66,-3.313 2.78,0 5.83,0.875 7.22,2.172 1.64,1.391 2.25,3.485 2.25,7.407 v 3.39 c -9.05,1.563 -11.91,2.266 -16.17,3.906 -7.58,2.797 -11.14,6.797 -11.14,12.36 0,6.265 4.87,10.187 12.6,10.187 6.02,0 11.41,-2.437 15.15,-6.875 1.39,4.438 3.57,6.172 7.65,6.172 3.92,0 8.02,-2.531 8.02,-5.047 0,-0.609 -0.36,-1.047 -0.88,-1.047 -0.34,0 -0.7,0.094 -1.31,0.344 -1.22,0.531 -1.73,0.61 -2.44,0.61 -2.42,0 -3.29,-1.563 -3.29,-6 v -17.485 m -8.19,10.61 c 0,5.218 -0.25,6.437 -1.74,8.703 -2.17,3.218 -6.09,5.39 -9.92,5.39 -4,0 -6.87,-2.859 -6.87,-6.781 0,-3.656 1.82,-6.266 5.65,-8.094 2.71,-1.218 6.1,-2.078 12.88,-3.218 v 4 m 24.42,33.421 c 7.84,-5.406 11.41,-10.703 11.41,-16.796 0,-5.219 -2.88,-8.61 -7.14,-8.61 -3.22,0 -5.66,2.25 -5.66,5.219 0,3.125 2.36,5.125 6.01,5.125 0.43,0 1.04,0 1.3,-0.078 h 0.27 c 0.43,0 0.61,0.25 0.61,0.781 0,3.656 -2.97,7.734 -8.8,11.828 l 2,2.531"
     id="path2553" />
  <path
     class="Lyrics"
     d="m 1968.4485,692.906 -16.09,0.953 v 3.75 h 4.26 c 3.22,0.078 3.66,0.609 3.66,4.344 v 48.468 c -0.09,1.297 -0.19,1.829 -0.53,2.266 -0.61,0.781 -2.27,1.125 -6,1.219 h -0.61 v 3.125 h 22.53 v -3.125 h -0.61 c -5.83,-0.188 -6.61,-0.61 -6.61,-3.75 v -57.25 m 49.71,44.547 c 0.09,-13.047 -7.3,-22.266 -17.93,-22.266 -11.14,0 -19.48,9.656 -19.48,22.703 0,12.266 7.92,20.453 19.66,20.453 8.36,0 14.18,-4.093 17.75,-12.359 l -3.05,-1.656 c -3.56,6.703 -7.22,9.312 -13.05,9.312 -4.44,0 -7.65,-1.828 -9.92,-5.75 -1.56,-2.609 -2.25,-5.656 -2.17,-10.437 h 28.19 m -28.1,-3.735 c 0,-6.093 2.78,-14.797 10.1,-14.797 5.21,0 8.68,4.61 8.68,11.657 0,2.437 -0.78,3.14 -3.56,3.14 h -15.22"
     id="path2555" />
  <path
     class="Lyrics"
     d="m 893.98848,694.828 c -2.78,0 -5.05,2.25 -5.05,5.047 0,2.781 2.27,5.046 4.95,5.046 2.88,0 5.14,-2.265 5.14,-5.046 0,-2.797 -2.26,-5.047 -5.04,-5.047 m 4.09,21.656 -16.97,0.953 v 3.75 h 5.05 c 3.3,0.078 3.73,0.609 3.73,4.344 v 29.5 c 0,7.047 -0.43,10.359 -1.65,12.875 -0.86,1.734 -2.86,3.047 -4.78,3.047 -1.22,0 -2.18,-0.516 -2.18,-1.125 0,-0.36 0.1,-0.532 0.44,-1.407 0.44,-0.859 0.61,-1.468 0.61,-2.078 0,-2.172 -2.09,-4.093 -4.53,-4.093 -2.78,0 -4.87,2.171 -4.87,5.218 0,4.266 3.92,7.141 9.75,7.141 4.87,0 9.31,-2.094 11.82,-5.656 2.71,-3.828 3.58,-8.266 3.58,-18.094 v -34.375 m 47.31,12.531 c 0,-5.484 -0.95,-8.265 -3.48,-10.359 -2.88,-2.344 -7.13,-3.469 -12.7,-3.469 -9.83,0 -16.97,4.609 -16.97,10.953 0,3.219 2,5.313 5.04,5.313 2.8,0 4.71,-1.828 4.71,-4.438 0,-1.125 -0.44,-2.344 -1.31,-3.562 -0.52,-0.61 -0.6,-0.797 -0.6,-1.219 0,-1.75 3.47,-3.313 7.66,-3.313 2.78,0 5.83,0.875 7.22,2.172 1.64,1.391 2.25,3.485 2.25,7.407 v 3.39 c -9.05,1.563 -11.91,2.266 -16.18,3.906 -7.57,2.797 -11.14,6.797 -11.14,12.36 0,6.265 4.88,10.187 12.61,10.187 6.02,0 11.41,-2.437 15.14,-6.875 1.39,4.438 3.58,6.172 7.66,6.172 3.92,0 8.02,-2.531 8.02,-5.047 0,-0.609 -0.36,-1.047 -0.88,-1.047 -0.34,0 -0.7,0.094 -1.31,0.344 -1.22,0.531 -1.74,0.61 -2.44,0.61 -2.42,0 -3.3,-1.563 -3.3,-6 v -17.485 m -8.18,10.61 c 0,5.218 -0.25,6.437 -1.74,8.703 -2.17,3.218 -6.09,5.39 -9.92,5.39 -4,0 -6.87,-2.859 -6.87,-6.781 0,-3.656 1.82,-6.266 5.65,-8.094 2.7,-1.218 6.1,-2.078 12.88,-3.218 v 4 m 24.42,33.421 c 7.84,-5.406 11.4,-10.703 11.4,-16.796 0,-5.219 -2.87,-8.61 -7.14,-8.61 -3.21,0 -5.65,2.25 -5.65,5.219 0,3.125 2.36,5.125 6.01,5.125 0.43,0 1.03,0 1.3,-0.078 h 0.27 c 0.43,0 0.61,0.25 0.61,0.781 0,3.656 -2.97,7.734 -8.8,11.828 l 2,2.531"
     id="path2557" />
  <path
     class="Lyrics"
     d="m 773.41448,692.906 -16.094,0.953 v 3.75 h 4.265 c 3.219,0.078 3.657,0.609 3.657,4.344 v 48.468 c -0.094,1.297 -0.188,1.829 -0.532,2.266 -0.609,0.781 -2.265,1.125 -6,1.219 h -0.609 v 3.125 h 22.531 v -3.125 h -0.609 c -5.828,-0.188 -6.609,-0.61 -6.609,-3.75 v -57.25 m 45.093,64.734 15.844,-0.609 v -3.735 h -2.187 c -5.047,-0.187 -5.469,-0.703 -5.469,-6.359 v -30.453 l -16.36,0.953 v 3.75 h 4.438 c 3.297,0.078 3.734,0.609 3.734,4.344 v 10.703 c 0,7.578 -1.828,16.797 -11.39,16.797 -2.703,0 -4.969,-0.953 -6.094,-2.703 -1.125,-1.657 -1.313,-2.516 -1.313,-7.313 v -26.531 l -15.218,0.953 v 3.75 h 3.312 c 3.297,0.078 3.735,0.609 3.735,4.344 v 18.797 c 0,4.437 0.343,6.437 1.656,8.437 2.344,3.563 6.515,5.578 11.75,5.578 5.734,0 9.734,-2.359 13.562,-7.922 v 7.219"
     id="path2559" />
  <path
     class="Lyrics"
     d="m 2211.2485,692.906 -16.09,0.953 v 3.75 h 4.27 c 3.21,0.078 3.65,0.609 3.65,4.344 v 48.468 c -0.09,1.297 -0.19,1.829 -0.53,2.266 -0.61,0.781 -2.27,1.125 -6,1.219 h -0.61 v 3.125 h 22.53 v -3.125 h -0.61 c -5.83,-0.188 -6.61,-0.61 -6.61,-3.75 v -57.25 m 45.1,64.734 15.84,-0.609 v -3.735 h -2.19 c -5.04,-0.187 -5.47,-0.703 -5.47,-6.359 v -30.453 l -16.35,0.953 v 3.75 h 4.43 c 3.3,0.078 3.74,0.609 3.74,4.344 v 10.703 c 0,7.578 -1.83,16.797 -11.39,16.797 -2.71,0 -4.97,-0.953 -6.1,-2.703 -1.12,-1.657 -1.31,-2.516 -1.31,-7.313 v -26.531 l -15.22,0.953 v 3.75 h 3.31 c 3.3,0.078 3.74,0.609 3.74,4.344 v 18.797 c 0,4.437 0.34,6.437 1.65,8.437 2.35,3.563 6.52,5.578 11.75,5.578 5.74,0 9.74,-2.359 13.57,-7.922 v 7.219"
     id="path2561" />
  <path
     class="Lyrics"
     d="m 657.51348,692.906 -16.093,0.953 v 3.75 h 4.265 c 3.219,0.078 3.656,0.609 3.656,4.344 v 48.468 c -0.093,1.297 -0.187,1.829 -0.531,2.266 -0.609,0.781 -2.265,1.125 -6,1.219 h -0.609 v 3.125 h 22.531 v -3.125 h -0.609 c -5.828,-0.188 -6.61,-0.61 -6.61,-3.75 v -57.25 m 49.703,44.547 c 0.094,-13.047 -7.296,-22.266 -17.921,-22.266 -11.141,0 -19.485,9.656 -19.485,22.703 0,12.266 7.922,20.453 19.656,20.453 8.36,0 14.188,-4.093 17.75,-12.359 l -3.046,-1.656 c -3.563,6.703 -7.219,9.312 -13.047,9.312 -4.438,0 -7.657,-1.828 -9.922,-5.75 -1.563,-2.609 -2.25,-5.656 -2.172,-10.437 h 28.187 m -28.093,-3.735 c 0,-6.093 2.781,-14.797 10.093,-14.797 5.219,0 8.688,4.61 8.688,11.657 0,2.437 -0.781,3.14 -3.563,3.14 h -15.218"
     id="path2563" />
  <path
     class="Lyrics"
     d="m 554.25448,693 h -3.657 l -20.015,50.718 c -2.344,6.782 -4.61,8.875 -9.563,9.219 h -0.359 v 4.094 h 23.062 v -4.094 h -1.734 c -4.703,0 -7.047,-1.656 -7.047,-4.953 0,-1.125 0.25,-2.172 0.781,-3.656 l 2.875,-7.657 h 23.047 l 4.703,11.657 c 0.516,1.39 0.688,1.922 0.688,2.359 0,1.391 -2.172,2.25 -5.391,2.25 h -3.656 v 4.094 h 26.969 v -4.094 h -1.203 c -4.532,-0.078 -5.313,-0.609 -7.313,-5.562 L 554.25448,693 m -4.266,14.265 9.828,24.703 h -19.484 l 9.656,-24.703"
     id="path2565" />
  <path
     class="Lyrics"
     d="m 1111.8685,729.015 c 0,-5.484 -0.95,-8.265 -3.48,-10.359 -2.88,-2.344 -7.13,-3.469 -12.71,-3.469 -9.82,0 -16.96,4.609 -16.96,10.953 0,3.219 2,5.313 5.04,5.313 2.8,0 4.71,-1.828 4.71,-4.438 0,-1.125 -0.44,-2.344 -1.32,-3.562 -0.51,-0.61 -0.59,-0.797 -0.59,-1.219 0,-1.75 3.47,-3.313 7.66,-3.313 2.78,0 5.82,0.875 7.21,2.172 1.64,1.391 2.25,3.485 2.25,7.407 v 3.39 c -9.04,1.563 -11.9,2.266 -16.17,3.906 -7.58,2.797 -11.14,6.797 -11.14,12.36 0,6.265 4.88,10.187 12.61,10.187 6.02,0 11.41,-2.437 15.14,-6.875 1.39,4.438 3.58,6.172 7.66,6.172 3.92,0 8.01,-2.531 8.01,-5.047 0,-0.609 -0.36,-1.047 -0.87,-1.047 -0.35,0 -0.7,0.094 -1.31,0.344 -1.22,0.531 -1.74,0.61 -2.44,0.61 -2.42,0 -3.3,-1.563 -3.3,-6 v -17.485 m -8.19,10.61 c 0,5.218 -0.25,6.437 -1.73,8.703 -2.17,3.218 -6.09,5.39 -9.92,5.39 -4,0 -6.88,-2.859 -6.88,-6.781 0,-3.656 1.83,-6.266 5.66,-8.094 2.7,-1.218 6.09,-2.078 12.87,-3.218 v 4"
     id="path2567" />
  <path
     class="Lyrics"
     d="m 2437.8485,694.828 c -2.78,0 -5.05,2.25 -5.05,5.047 0,2.781 2.27,5.046 4.95,5.046 2.88,0 5.15,-2.265 5.15,-5.046 0,-2.797 -2.27,-5.047 -5.05,-5.047 m 4.09,21.656 -16.97,0.953 v 3.75 h 5.05 c 3.3,0.078 3.73,0.609 3.73,4.344 v 29.5 c 0,7.047 -0.43,10.359 -1.65,12.875 -0.86,1.734 -2.86,3.047 -4.78,3.047 -1.22,0 -2.17,-0.516 -2.17,-1.125 0,-0.36 0.09,-0.532 0.43,-1.407 0.44,-0.859 0.61,-1.468 0.61,-2.078 0,-2.172 -2.09,-4.093 -4.53,-4.093 -2.78,0 -4.87,2.171 -4.87,5.218 0,4.266 3.92,7.141 9.75,7.141 4.87,0 9.31,-2.094 11.82,-5.656 2.71,-3.828 3.58,-8.266 3.58,-18.094 v -34.375 m 47.31,12.531 c 0,-5.484 -0.95,-8.265 -3.48,-10.359 -2.87,-2.344 -7.12,-3.469 -12.7,-3.469 -9.83,0 -16.97,4.609 -16.97,10.953 0,3.219 2,5.313 5.05,5.313 2.79,0 4.7,-1.828 4.7,-4.438 0,-1.125 -0.44,-2.344 -1.31,-3.562 -0.52,-0.61 -0.6,-0.797 -0.6,-1.219 0,-1.75 3.47,-3.313 7.66,-3.313 2.78,0 5.83,0.875 7.22,2.172 1.64,1.391 2.25,3.485 2.25,7.407 v 3.39 c -9.05,1.563 -11.91,2.266 -16.17,3.906 -7.58,2.797 -11.15,6.797 -11.15,12.36 0,6.265 4.88,10.187 12.61,10.187 6.02,0 11.41,-2.437 15.14,-6.875 1.4,4.438 3.58,6.172 7.66,6.172 3.92,0 8.02,-2.531 8.02,-5.047 0,-0.609 -0.36,-1.047 -0.88,-1.047 -0.34,0 -0.7,0.094 -1.31,0.344 -1.22,0.531 -1.74,0.61 -2.44,0.61 -2.42,0 -3.3,-1.563 -3.3,-6 v -17.485 m -8.18,10.61 c 0,5.218 -0.25,6.437 -1.74,8.703 -2.17,3.218 -6.09,5.39 -9.92,5.39 -4,0 -6.87,-2.859 -6.87,-6.781 0,-3.656 1.82,-6.266 5.65,-8.094 2.71,-1.218 6.1,-2.078 12.88,-3.218 v 4 m 28.78,7.75 c -3.05,0 -5.49,2.437 -5.49,5.39 0,3.047 2.44,5.485 5.39,5.485 3.05,0 5.49,-2.438 5.49,-5.485 0,-2.953 -2.44,-5.39 -5.39,-5.39"
     id="path2569" />
  <path
     class="Lyrics"
     d="m 1441.1185,692.906 -16.1,0.953 v 3.75 h 4.27 c 3.22,0.078 3.65,0.609 3.65,4.344 v 48.468 c -0.09,1.297 -0.18,1.829 -0.53,2.266 -0.61,0.781 -2.26,1.125 -6,1.219 h -0.61 v 3.125 h 22.54 v -3.125 h -0.61 c -5.83,-0.188 -6.61,-0.61 -6.61,-3.75 v -57.25 m 45.09,64.734 15.84,-0.609 v -3.735 h -2.18 c -5.05,-0.187 -5.47,-0.703 -5.47,-6.359 v -30.453 l -16.36,0.953 v 3.75 h 4.44 c 3.29,0.078 3.73,0.609 3.73,4.344 v 10.703 c 0,7.578 -1.83,16.797 -11.39,16.797 -2.7,0 -4.97,-0.953 -6.09,-2.703 -1.13,-1.657 -1.32,-2.516 -1.32,-7.313 v -26.531 l -15.22,0.953 v 3.75 h 3.32 c 3.29,0.078 3.73,0.609 3.73,4.344 v 18.797 c 0,4.437 0.35,6.437 1.66,8.437 2.34,3.563 6.51,5.578 11.75,5.578 5.73,0 9.73,-2.359 13.56,-7.922 v 7.219"
     id="path2571" />
  <path
     class="Lyrics"
     d="m 1867.7485,729.015 c 0,-5.484 -0.95,-8.265 -3.48,-10.359 -2.88,-2.344 -7.13,-3.469 -12.7,-3.469 -9.83,0 -16.97,4.609 -16.97,10.953 0,3.219 2,5.313 5.04,5.313 2.8,0 4.71,-1.828 4.71,-4.438 0,-1.125 -0.44,-2.344 -1.32,-3.562 -0.51,-0.61 -0.59,-0.797 -0.59,-1.219 0,-1.75 3.47,-3.313 7.66,-3.313 2.78,0 5.83,0.875 7.22,2.172 1.64,1.391 2.25,3.485 2.25,7.407 v 3.39 c -9.05,1.563 -11.91,2.266 -16.18,3.906 -7.57,2.797 -11.14,6.797 -11.14,12.36 0,6.265 4.88,10.187 12.61,10.187 6.02,0 11.41,-2.437 15.14,-6.875 1.39,4.438 3.58,6.172 7.66,6.172 3.92,0 8.02,-2.531 8.02,-5.047 0,-0.609 -0.36,-1.047 -0.88,-1.047 -0.34,0 -0.7,0.094 -1.31,0.344 -1.22,0.531 -1.74,0.61 -2.44,0.61 -2.42,0 -3.3,-1.563 -3.3,-6 v -17.485 m -8.18,10.61 c 0,5.218 -0.25,6.437 -1.74,8.703 -2.17,3.218 -6.09,5.39 -9.92,5.39 -4,0 -6.88,-2.859 -6.88,-6.781 0,-3.656 1.83,-6.266 5.66,-8.094 2.7,-1.218 6.09,-2.078 12.88,-3.218 v 4"
     id="path2573" />
  <path
     class="Lyrics"
     d="m 1325.2185,692.906 -16.1,0.953 v 3.75 h 4.27 c 3.22,0.078 3.65,0.609 3.65,4.344 v 48.468 c -0.09,1.297 -0.18,1.829 -0.53,2.266 -0.61,0.781 -2.26,1.125 -6,1.219 h -0.61 v 3.125 h 22.54 v -3.125 h -0.61 c -5.83,-0.188 -6.61,-0.61 -6.61,-3.75 v -57.25 m 49.7,44.547 c 0.09,-13.047 -7.3,-22.266 -17.92,-22.266 -11.14,0 -19.49,9.656 -19.49,22.703 0,12.266 7.93,20.453 19.66,20.453 8.36,0 14.19,-4.093 17.75,-12.359 l -3.05,-1.656 c -3.56,6.703 -7.22,9.312 -13.04,9.312 -4.44,0 -7.66,-1.828 -9.93,-5.75 -1.56,-2.609 -2.25,-5.656 -2.17,-10.437 h 28.19 m -28.09,-3.735 c 0,-6.093 2.78,-14.797 10.09,-14.797 5.22,0 8.69,4.61 8.69,11.657 0,2.437 -0.78,3.14 -3.57,3.14 h -15.21"
     id="path2575" />
  <polyline
     class="LyricsLineSegment"
     fill="none"
     stroke="#000000"
     stroke-width="3.64"
     stroke-linejoin="bevel"
     points="1548.41,736.759 1570.22,736.759"
     id="polyline2577"
     transform="translate(-159.40152)" />
  <polyline
     class="LyricsLineSegment"
     fill="none"
     stroke="#000000"
     stroke-width="3.64"
     stroke-linejoin="bevel"
     points="2492.71,736.759 2514.52,736.759"
     id="polyline2579"
     transform="translate(-159.40152)" />
  <polyline
     class="LyricsLineSegment"
     fill="none"
     stroke="#000000"
     stroke-width="3.64"
     stroke-linejoin="bevel"
     points="2255.09,736.759 2276.91,736.759"
     id="polyline2581"
     transform="translate(-159.40152)" />
  <polyline
     class="LyricsLineSegment"
     fill="none"
     stroke="#000000"
     stroke-width="3.64"
     stroke-linejoin="bevel"
     points="1363,736.759 1384.81,736.759"
     id="polyline2583"
     transform="translate(-159.40152)" />
  <polyline
     class="LyricsLineSegment"
     fill="none"
     stroke="#000000"
     stroke-width="3.64"
     stroke-linejoin="bevel"
     points="1669.56,736.759 1691.37,736.759"
     id="polyline2585"
     transform="translate(-159.40152)" />
  <polyline
     class="LyricsLineSegment"
     fill="none"
     stroke="#000000"
     stroke-width="3.64"
     stroke-linejoin="bevel"
     points="880.707,736.759 902.523,736.759"
     id="polyline2587"
     transform="translate(-159.40152)" />
  <polyline
     class="LyricsLineSegment"
     fill="none"
     stroke="#000000"
     stroke-width="3.64"
     stroke-linejoin="bevel"
     points="2062.56,736.759 2084.37,736.759"
     id="polyline2589"
     transform="translate(-159.40152)" />
  <polyline
     class="LyricsLineSegment"
     fill="none"
     stroke="#000000"
     stroke-width="3.64"
     stroke-linejoin="bevel"
     points="761.557,736.759 783.373,736.759"
     id="polyline2591"
     transform="translate(-159.40152)" />
  <polyline
     class="LyricsLineSegment"
     fill="none"
     stroke="#000000"
     stroke-width="3.64"
     stroke-linejoin="bevel"
     points="1001.86,736.759 1023.67,736.759"
     id="polyline2593"
     transform="translate(-159.40152)" />
</svg>
