<?xml version="1.0" encoding="UTF-8" standalone="no"?>
<svg
   width="210.058mm"
   height="99.418884mm"
   viewBox="0 0 2977.2 1409.0867"
   version="1.2"
   id="svg1231"
   sodipodi:docname="Alleluia.svg"
   inkscape:version="1.2.2 (b0a8486541, 2022-12-01)"
   xmlns:inkscape="http://www.inkscape.org/namespaces/inkscape"
   xmlns:sodipodi="http://sodipodi.sourceforge.net/DTD/sodipodi-0.dtd"
   xmlns="http://www.w3.org/2000/svg"
   xmlns:svg="http://www.w3.org/2000/svg">
  <defs
     id="defs1235" />
  <sodipodi:namedview
     id="namedview1233"
     pagecolor="#ffffff"
     bordercolor="#000000"
     borderopacity="0.25"
     inkscape:showpageshadow="2"
     inkscape:pageopacity="0.0"
     inkscape:pagecheckerboard="0"
     inkscape:deskcolor="#d1d1d1"
     inkscape:document-units="mm"
     showgrid="false"
     inkscape:zoom="0.82602653"
     inkscape:cx="397.08168"
     inkscape:cy="418.26744"
     inkscape:window-width="1920"
     inkscape:window-height="1178"
     inkscape:window-x="0"
     inkscape:window-y="22"
     inkscape:window-maximized="1"
     inkscape:current-layer="svg1231" />
  <title
     id="title903">Alleluia</title>
  <desc
     id="desc905">Generated by MuseScore Studio 4.6.3</desc>
  <polyline
     class="StaffLines"
     fill="none"
     stroke="#000000"
     stroke-width="4"
     stroke-linejoin="bevel"
     points="340.2,538.721 2818.8,538.721"
     id="polyline907" />
  <polyline
     class="StaffLines"
     fill="none"
     stroke="#000000"
     stroke-width="4"
     stroke-linejoin="bevel"
     points="340.2,575.081 2818.8,575.081"
     id="polyline909" />
  <polyline
     class="StaffLines"
     fill="none"
     stroke="#000000"
     stroke-width="4"
     stroke-linejoin="bevel"
     points="340.2,611.441 2818.8,611.441"
     id="polyline911" />
  <polyline
     class="StaffLines"
     fill="none"
     stroke="#000000"
     stroke-width="4"
     stroke-linejoin="bevel"
     points="340.2,647.801 2818.8,647.801"
     id="polyline913" />
  <polyline
     class="StaffLines"
     fill="none"
     stroke="#000000"
     stroke-width="4"
     stroke-linejoin="bevel"
     points="340.2,684.161 2818.8,684.161"
     id="polyline915" />
  <polyline
     class="StaffLines"
     fill="none"
     stroke="#000000"
     stroke-width="4"
     stroke-linejoin="bevel"
     points="158.4,1000.44 2818.8,1000.44"
     id="polyline917" />
  <polyline
     class="StaffLines"
     fill="none"
     stroke="#000000"
     stroke-width="4"
     stroke-linejoin="bevel"
     points="158.4,1036.8 2818.8,1036.8"
     id="polyline919" />
  <polyline
     class="StaffLines"
     fill="none"
     stroke="#000000"
     stroke-width="4"
     stroke-linejoin="bevel"
     points="158.4,1073.16 2818.8,1073.16"
     id="polyline921" />
  <polyline
     class="StaffLines"
     fill="none"
     stroke="#000000"
     stroke-width="4"
     stroke-linejoin="bevel"
     points="158.4,1109.52 2818.8,1109.52"
     id="polyline923" />
  <polyline
     class="StaffLines"
     fill="none"
     stroke="#000000"
     stroke-width="4"
     stroke-linejoin="bevel"
     points="158.4,1145.88 2818.8,1145.88"
     id="polyline925" />
  <path
     class="Text"
     d="m 1331.67,159.447 h -4.63 l -25.3,64.125 c -2.96,8.578 -5.82,11.219 -12.09,11.656 h -0.44 v 5.172 h 29.14 v -5.172 h -2.2 c -5.94,0 -8.91,-2.094 -8.91,-6.266 0,-1.437 0.33,-2.75 1,-4.625 l 3.63,-9.671 h 29.16 l 5.93,14.734 c 0.66,1.766 0.88,2.422 0.88,2.969 0,1.765 -2.75,2.859 -6.81,2.859 h -4.63 v 5.172 h 34.09 v -5.172 h -1.53 c -5.72,-0.109 -6.72,-0.766 -9.25,-7.031 l -28.04,-68.75 m -5.39,18.031 12.43,31.234 h -24.64 l 12.21,-31.234 m 65.25,-18.156 -20.35,1.219 v 4.734 h 5.39 c 4.06,0.109 4.61,0.766 4.61,5.5 v 61.266 c -0.11,1.656 -0.22,2.312 -0.65,2.859 -0.77,0.984 -2.86,1.437 -7.6,1.547 h -0.76 v 3.953 h 28.48 v -3.953 h -0.77 c -7.35,-0.235 -8.35,-0.781 -8.35,-4.735 v -72.39 m 35,0 -20.35,1.219 v 4.734 h 5.39 c 4.06,0.109 4.61,0.766 4.61,5.5 v 61.266 c -0.11,1.656 -0.22,2.312 -0.65,2.859 -0.77,0.984 -2.86,1.437 -7.6,1.547 h -0.76 v 3.953 h 28.48 v -3.953 h -0.77 c -7.35,-0.235 -8.35,-0.781 -8.35,-4.735 v -72.39 m 63.71,56.328 c 0.11,-16.5 -9.25,-28.156 -22.67,-28.156 -14.08,0 -24.64,12.203 -24.64,28.703 0,15.515 10.02,25.859 24.86,25.859 10.56,0 17.94,-5.172 22.45,-15.625 l -3.86,-2.094 c -4.5,8.469 -9.12,11.766 -16.5,11.766 -5.6,0 -9.67,-2.297 -12.53,-7.25 -1.98,-3.297 -2.86,-7.156 -2.75,-13.203 h 35.64 m -35.53,-4.734 c 0,-7.704 3.52,-18.704 12.75,-18.704 6.61,0 11,5.844 11,14.75 0,3.079 -0.98,3.954 -4.5,3.954 h -19.25 m 58.82,-51.594 -20.35,1.219 v 4.734 h 5.39 c 4.06,0.109 4.61,0.766 4.61,5.5 v 61.266 c -0.11,1.656 -0.22,2.312 -0.65,2.859 -0.77,0.984 -2.86,1.437 -7.6,1.547 h -0.76 v 3.953 h 28.48 v -3.953 h -0.77 c -7.35,-0.235 -8.35,-0.781 -8.35,-4.735 v -72.39 m 57.87,81.844 20.03,-0.766 v -4.734 h -2.75 c -6.39,-0.219 -6.94,-0.875 -6.94,-8.032 v -38.5 l -20.67,1.219 v 4.734 h 5.61 c 4.17,0.11 4.72,0.766 4.72,5.5 v 13.516 c 0,9.578 -2.3,21.234 -14.41,21.234 -3.4,0 -6.26,-1.203 -7.7,-3.406 -1.42,-2.094 -1.64,-3.187 -1.64,-9.234 v -33.563 l -19.25,1.219 v 4.734 h 4.17 c 4.19,0.11 4.74,0.766 4.74,5.5 v 23.75 c 0,5.61 0.43,8.141 2.09,10.672 2.97,4.516 8.25,7.047 14.84,7.047 7.27,0 12.33,-2.969 17.16,-10.015 v 9.125 m 39.17,-79.422 c -3.51,0 -6.37,2.859 -6.37,6.39 0,3.516 2.86,6.375 6.26,6.375 3.64,0 6.5,-2.859 6.5,-6.375 0,-3.531 -2.86,-6.39 -6.39,-6.39 m 5.17,27.39 -20.67,1.219 v 4.734 h 5.61 c 4.17,0.11 4.72,0.766 4.72,5.5 v 31.454 c -0.11,1.656 -0.22,2.312 -0.66,2.859 -0.76,0.984 -2.86,1.437 -7.59,1.547 h -0.77 v 3.953 h 28.5 v -3.953 h -0.78 c -7.36,-0.235 -8.36,-0.781 -8.36,-4.735 v -42.578 m 62.07,15.844 c 0,-6.922 -1.21,-10.453 -4.41,-13.094 -3.62,-2.968 -9.02,-4.39 -16.05,-4.39 -12.43,0 -21.45,5.828 -21.45,13.859 0,4.063 2.53,6.703 6.38,6.703 3.51,0 5.93,-2.312 5.93,-5.609 0,-1.422 -0.54,-2.969 -1.64,-4.5 -0.67,-0.781 -0.78,-1 -0.78,-1.547 0,-2.203 4.41,-4.188 9.69,-4.188 3.51,0 7.37,1.11 9.12,2.75 2.1,1.766 2.86,4.407 2.86,9.36 v 4.281 c -11.43,1.984 -15.06,2.859 -20.45,4.953 -9.58,3.531 -14.08,8.578 -14.08,15.625 0,7.922 6.16,12.875 15.95,12.875 7.58,0 14.41,-3.094 19.15,-8.703 1.75,5.609 4.5,7.813 9.67,7.813 4.95,0 10.12,-3.188 10.12,-6.375 0,-0.766 -0.44,-1.329 -1.11,-1.329 -0.43,0 -0.87,0.125 -1.64,0.454 -1.54,0.656 -2.2,0.765 -3.08,0.765 -3.09,0 -4.18,-1.984 -4.18,-7.594 v -22.109 m -10.35,13.422 c 0,6.594 -0.33,8.141 -2.18,11 -2.75,4.062 -7.71,6.812 -12.55,6.812 -5.06,0 -8.69,-3.625 -8.69,-8.578 0,-4.609 2.31,-7.922 7.14,-10.218 3.42,-1.547 7.7,-2.641 16.28,-4.079 v 5.063"
     id="path927" />
  <polyline
     class="BarLine"
     fill="none"
     stroke="#000000"
     stroke-width="6.54"
     stroke-linejoin="bevel"
     points="2218.9,998.44 2218.9,1147.88"
     id="polyline929" />
  <polyline
     class="BarLine"
     fill="none"
     stroke="#000000"
     stroke-width="6.54"
     stroke-linejoin="bevel"
     points="1252.66,536.721 1252.66,686.16"
     id="polyline931" />
  <polyline
     class="BarLine"
     fill="none"
     stroke="#000000"
     stroke-width="6.54"
     stroke-linejoin="bevel"
     points="1600.36,998.44 1600.36,1147.88"
     id="polyline933" />
  <polyline
     class="BarLine"
     fill="none"
     stroke="#000000"
     stroke-width="6.54"
     stroke-linejoin="bevel"
     points="2815.53,536.721 2815.53,686.16"
     id="polyline935" />
  <polyline
     class="BarLine"
     fill="none"
     stroke="#000000"
     stroke-width="6.54"
     stroke-linejoin="bevel"
     points="1751.46,536.721 1751.46,686.16"
     id="polyline937" />
  <polyline
     class="BarLine"
     fill="none"
     stroke="#000000"
     stroke-width="6.54"
     stroke-linejoin="bevel"
     points="2315.49,536.721 2315.49,686.16"
     id="polyline939" />
  <polyline
     class="BarLine"
     fill="none"
     stroke="#000000"
     stroke-width="6.54"
     stroke-linejoin="bevel"
     points="1044.01,998.44 1044.01,1147.88"
     id="polyline941" />
  <polyline
     class="BarLine"
     fill="none"
     stroke="#000000"
     stroke-width="6.54"
     stroke-linejoin="bevel"
     points="2782.08,998.44 2782.08,1147.88"
     id="polyline943" />
  <polyline
     class="BarLine"
     fill="none"
     stroke="#000000"
     stroke-width="20"
     stroke-linejoin="bevel"
     points="2808.8,998.44 2808.8,1147.88"
     id="polyline945" />
  <path
     class="SlurSegment"
     stroke="#000000"
     stroke-width="1.82"
     stroke-linecap="round"
     stroke-linejoin="round"
     fill-rule="evenodd"
     d="m 1825.62,530.358 c 44.84,-31.086 113.12,-12.906 136.56,36.36 -26.39,-38.182 -94.67,-56.362 -136.56,-36.36"
     id="path947" />
  <path
     class="SlurSegment"
     stroke="#000000"
     stroke-width="1.82"
     stroke-linecap="round"
     stroke-linejoin="round"
     fill-rule="evenodd"
     d="m 1071.02,587.807 c 17.75,-39.979 67.85,-50.524 100.21,-21.089 -30.32,-19.733 -80.42,-9.189 -100.21,21.089"
     id="path949" />
  <path
     class="SlurSegment"
     stroke="#000000"
     stroke-width="1.82"
     stroke-linecap="round"
     stroke-linejoin="round"
     fill-rule="evenodd"
     d="m 2389.65,656.163 c 37.46,45.116 128.5,66.387 182.08,42.542 -56.23,35.175 -147.26,13.904 -182.08,-42.542"
     id="path951" />
  <path
     class="SlurSegment"
     stroke="#000000"
     stroke-width="1.82"
     stroke-linecap="round"
     stroke-linejoin="round"
     fill-rule="evenodd"
     d="m 1326.83,560.537 c 54.42,-36.758 144.84,-18.578 180.83,36.36 -38.29,-43.531 -128.7,-61.711 -180.83,-36.36"
     id="path953" />
  <path
     class="SlurSegment"
     stroke="#000000"
     stroke-width="1.82"
     stroke-linecap="round"
     stroke-linejoin="round"
     fill-rule="evenodd"
     d="m 2053.22,560.537 c 54.43,-36.758 144.84,-18.578 180.83,36.36 -38.28,-43.531 -128.7,-61.711 -180.83,-36.36"
     id="path955" />
  <path
     class="SlurSegment"
     stroke="#000000"
     stroke-width="1.82"
     stroke-linecap="round"
     stroke-linejoin="round"
     fill-rule="evenodd"
     d="m 799.734,716.885 c 45.542,14.914 113.821,-12.356 136.558,-54.54 -18.421,52.99 -86.701,80.26 -136.558,54.54"
     id="path957" />
  <path
     class="SlurSegment"
     stroke="#000000"
     stroke-width="1.82"
     stroke-linecap="round"
     stroke-linejoin="round"
     fill-rule="evenodd"
     d="m 2293.07,1124.06 c 46.51,45.03 150.43,60.12 207.83,30.18 -59.07,41.45 -162.99,26.37 -207.83,-30.18"
     id="path959" />
  <path
     class="SlurSegment"
     stroke="#000000"
     stroke-width="1.82"
     stroke-linecap="round"
     stroke-linejoin="round"
     fill-rule="evenodd"
     d="m 544.759,1178.6 c 49.844,17.45 127.784,-9.82 155.879,-54.54 -24.253,55.7 -102.192,82.97 -155.879,54.54"
     id="path961" />
  <path
     class="SlurSegment"
     stroke="#000000"
     stroke-width="1.82"
     stroke-linecap="round"
     stroke-linejoin="round"
     fill-rule="evenodd"
     d="m 840.906,1049.53 c 23.184,-43.24 82.95,-53.787 119.531,-21.09 -34.727,-22.19 -94.492,-11.64 -119.531,21.09"
     id="path963" />
  <path
     class="SlurSegment"
     stroke="#000000"
     stroke-width="1.82"
     stroke-linecap="round"
     stroke-linejoin="round"
     fill-rule="evenodd"
     d="m 1118.17,1022.26 c 58.96,-39.042 159.47,-20.86 201.01,36.36 -43.62,-45.77 -144.12,-63.953 -201.01,-36.36"
     id="path965" />
  <path
     class="SlurSegment"
     stroke="#000000"
     stroke-width="1.82"
     stroke-linecap="round"
     stroke-linejoin="round"
     fill-rule="evenodd"
     d="m 1674.52,992.077 c 48.96,-33.722 126.9,-15.542 155.88,36.363 -31.63,-40.574 -109.57,-58.754 -155.88,-36.363"
     id="path967" />
  <path
     class="SlurSegment"
     stroke="#000000"
     stroke-width="1.82"
     stroke-linecap="round"
     stroke-linejoin="round"
     fill-rule="evenodd"
     d="m 1934.32,1022.26 c 58.96,-39.042 159.46,-20.86 201.01,36.36 -43.62,-45.77 -144.12,-63.953 -201.01,-36.36"
     id="path969" />
  <polyline
     class="Stem"
     fill="none"
     stroke="#000000"
     stroke-width="3.64"
     stroke-linejoin="bevel"
     points="1652.71,1042.91 1652.71,1164.06"
     id="polyline971" />
  <polyline
     class="Stem"
     fill="none"
     stroke="#000000"
     stroke-width="3.64"
     stroke-linejoin="bevel"
     points="1420.43,617.549 1420.43,722.984"
     id="polyline973" />
  <polyline
     class="Stem"
     fill="none"
     stroke="#000000"
     stroke-width="3.64"
     stroke-linejoin="bevel"
     points="1485.85,635.729 1485.85,729.431"
     id="polyline975" />
  <polyline
     class="Stem"
     fill="none"
     stroke="#000000"
     stroke-width="3.64"
     stroke-linejoin="bevel"
     points="1576.89,617.549 1576.89,720.521"
     id="polyline977" />
  <polyline
     class="Stem"
     fill="none"
     stroke="#000000"
     stroke-width="3.64"
     stroke-linejoin="bevel"
     points="1803.82,581.189 1803.82,702.341"
     id="polyline979" />
  <polyline
     class="Stem"
     fill="none"
     stroke="#000000"
     stroke-width="3.64"
     stroke-linejoin="bevel"
     points="1401.3,1079.27 1401.3,1182.24"
     id="polyline981" />
  <polyline
     class="Stem"
     fill="none"
     stroke="#000000"
     stroke-width="3.64"
     stroke-linejoin="bevel"
     points="1940.37,617.549 1940.37,729.465"
     id="polyline983" />
  <polyline
     class="Stem"
     fill="none"
     stroke="#000000"
     stroke-width="3.64"
     stroke-linejoin="bevel"
     points="2031.41,599.369 2031.41,711.61"
     id="polyline985" />
  <polyline
     class="Stem"
     fill="none"
     stroke="#000000"
     stroke-width="3.64"
     stroke-linejoin="bevel"
     points="1297.38,1097.45 1297.38,1191.17"
     id="polyline987" />
  <polyline
     class="Stem"
     fill="none"
     stroke="#000000"
     stroke-width="3.64"
     stroke-linejoin="bevel"
     points="1228.1,1079.27 1228.1,1185.01"
     id="polyline989" />
  <polyline
     class="Stem"
     fill="none"
     stroke="#000000"
     stroke-width="3.64"
     stroke-linejoin="bevel"
     points="1096.36,1061.09 1096.36,1173.31"
     id="polyline991" />
  <polyline
     class="Stem"
     fill="none"
     stroke="#000000"
     stroke-width="3.64"
     stroke-linejoin="bevel"
     points="2146.82,617.549 2146.82,722.984"
     id="polyline993" />
  <polyline
     class="Stem"
     fill="none"
     stroke="#000000"
     stroke-width="3.64"
     stroke-linejoin="bevel"
     points="2212.25,635.729 2212.25,729.431"
     id="polyline995" />
  <polyline
     class="Stem"
     fill="none"
     stroke="#000000"
     stroke-width="3.64"
     stroke-linejoin="bevel"
     points="826.385,1085.52 826.385,973.17"
     id="polyline997" />
  <polyline
     class="Stem"
     fill="none"
     stroke="#000000"
     stroke-width="3.64"
     stroke-linejoin="bevel"
     points="2113.53,1097.45 2113.53,1191.17"
     id="polyline999" />
  <polyline
     class="Stem"
     fill="none"
     stroke="#000000"
     stroke-width="3.64"
     stroke-linejoin="bevel"
     points="2044.25,1079.27 2044.25,1185.01"
     id="polyline1001" />
  <polyline
     class="Stem"
     fill="none"
     stroke="#000000"
     stroke-width="3.64"
     stroke-linejoin="bevel"
     points="821.561,678.343 821.561,556.901"
     id="polyline1003" />
  <polyline
     class="Stem"
     fill="none"
     stroke="#000000"
     stroke-width="3.64"
     stroke-linejoin="bevel"
     points="2411.48,605.623 2411.48,511.54"
     id="polyline1005" />
  <polyline
     class="Stem"
     fill="none"
     stroke="#000000"
     stroke-width="3.64"
     stroke-linejoin="bevel"
     points="566.586,1140.06 566.586,1018.62"
     id="polyline1007" />
  <polyline
     class="Stem"
     fill="none"
     stroke="#000000"
     stroke-width="3.64"
     stroke-linejoin="bevel"
     points="1912.51,1061.09 1912.51,1173.31"
     id="polyline1009" />
  <polyline
     class="Stem"
     fill="none"
     stroke="#000000"
     stroke-width="3.64"
     stroke-linejoin="bevel"
     points="958.119,623.803 958.119,511.741"
     id="polyline1011" />
  <polyline
     class="Stem"
     fill="none"
     stroke="#000000"
     stroke-width="3.64"
     stroke-linejoin="bevel"
     points="2502.52,623.803 2502.52,515.996"
     id="polyline1013" />
  <polyline
     class="Stem"
     fill="none"
     stroke="#000000"
     stroke-width="3.64"
     stroke-linejoin="bevel"
     points="2593.55,660.163 2593.55,520.452"
     id="polyline1015" />
  <polyline
     class="Stem"
     fill="none"
     stroke="#000000"
     stroke-width="3.64"
     stroke-linejoin="bevel"
     points="2684.59,678.343 2684.59,556.901"
     id="polyline1017" />
  <polyline
     class="Stem"
     fill="none"
     stroke="#000000"
     stroke-width="3.64"
     stroke-linejoin="bevel"
     points="2314.89,1085.52 2314.89,973.17"
     id="polyline1019" />
  <polyline
     class="Stem"
     fill="none"
     stroke="#000000"
     stroke-width="3.64"
     stroke-linejoin="bevel"
     points="722.465,1085.52 722.465,973.461"
     id="polyline1021" />
  <polyline
     class="Stem"
     fill="none"
     stroke="#000000"
     stroke-width="3.64"
     stroke-linejoin="bevel"
     points="2626.65,1085.52 2626.65,973.17"
     id="polyline1023" />
  <polyline
     class="Stem"
     fill="none"
     stroke="#000000"
     stroke-width="3.64"
     stroke-linejoin="bevel"
     points="1056.5,623.803 1056.5,511.451"
     id="polyline1025" />
  <polyline
     class="Stem"
     fill="none"
     stroke="#000000"
     stroke-width="3.64"
     stroke-linejoin="bevel"
     points="2522.73,1103.7 2522.73,973.17"
     id="polyline1027" />
  <polyline
     class="Stem"
     fill="none"
     stroke="#000000"
     stroke-width="3.64"
     stroke-linejoin="bevel"
     points="1149.42,617.549 1149.42,729.465"
     id="polyline1029" />
  <polyline
     class="Stem"
     fill="none"
     stroke="#000000"
     stroke-width="3.64"
     stroke-linejoin="bevel"
     points="938.632,1079.27 938.632,1191.18"
     id="polyline1031" />
  <polyline
     class="Stem"
     fill="none"
     stroke="#000000"
     stroke-width="3.64"
     stroke-linejoin="bevel"
     points="1305.02,599.369 1305.02,711.61"
     id="polyline1033" />
  <polyline
     class="Stem"
     fill="none"
     stroke="#000000"
     stroke-width="3.64"
     stroke-linejoin="bevel"
     points="1808.59,1079.27 1808.59,1191.18"
     id="polyline1035" />
  <polyline
     class="Stem"
     fill="none"
     stroke="#000000"
     stroke-width="3.64"
     stroke-linejoin="bevel"
     points="2418.81,1067.34 2418.81,973.17"
     id="polyline1037" />
  <path
     class="Hook"
     d="m 1806.78,1191.1937 c 0,0.9999 0.8635,1.8861 1.8862,1.8861 0.7272,0 1.6134,-0.5908 1.7498,-1.1589 0,-0.1591 1.318,-5.2495 1.4544,-5.6813 0.1363,-0.5909 1.4544,-6.113 6.6811,-14.6804 5.6813,-9.4536 14.4077,-16.2938 21.6797,-26.4746 7.1357,-10.1808 11.4989,-19.7935 11.4989,-32.5876 0,-13.226 -3.0679,-24.2931 -10.7717,-38.4053 -0.4318,-1.0226 -1.318,-1.5907 -2.1816,-1.5907 -0.2954,0 -0.5908,0 -0.7272,0.1363 -0.7272,0.2954 -1.0226,0.8863 -1.0226,1.7498 0,0.4318 0.1591,1.159 0.4318,1.7499 5.8176,13.5213 8.1582,21.2251 8.1582,31.7013 0,12.067 -4.2268,18.3391 -6.8402,22.8387 -9.4536,16.1347 -24.7248,23.9976 -30.8378,26.0428 -1.0227,0.4318 -1.159,1.159 -1.159,1.5908 v 32.8831"
     id="path1039"
     style="stroke-width:1.4544" />
  <path
     class="Hook"
     d="m 936.814,1191.1937 c 0,0.9999 0.86355,1.8861 1.88618,1.8861 0.7272,0 1.61347,-0.5908 1.74982,-1.1589 0,-0.1591 1.31805,-5.2495 1.4544,-5.6813 0.13635,-0.5909 1.4544,-6.113 6.68115,-14.6804 5.68125,-9.4536 14.40765,-16.2938 21.67965,-26.4746 7.13572,-10.1808 11.49892,-19.7935 11.49892,-32.5876 0,-13.226 -3.06791,-24.2931 -10.77172,-38.4053 -0.43181,-1.0226 -1.31798,-1.5907 -2.1816,-1.5907 -0.29539,0 -0.59078,0 -0.7272,0.1363 -0.7272,0.2954 -1.02259,0.8863 -1.02259,1.7498 0,0.4318 0.15911,1.159 0.43181,1.7499 5.8176,13.5213 8.15817,21.2251 8.15817,31.7013 0,12.067 -4.22678,18.3391 -6.84019,22.8387 -9.4536,16.1347 -24.7248,23.9976 -30.83782,26.0428 -1.02263,0.4318 -1.15898,1.159 -1.15898,1.5908 v 32.8831"
     id="path1041"
     style="stroke-width:1.4544" />
  <path
     class="Hook"
     d="m 1938.56,729.47465 c 0,0.9999 0.8636,1.88618 1.8862,1.88618 0.7272,0 1.6135,-0.59086 1.7498,-1.15898 0,-0.15908 1.3181,-5.24948 1.4544,-5.68125 0.1364,-0.59085 1.4544,-6.11303 6.6811,-14.68042 5.6813,-9.4536 14.4077,-16.29379 21.6797,-26.47459 7.1357,-10.1808 11.4989,-19.79351 11.4989,-32.58758 0,-13.22602 -3.0679,-24.29313 -10.7717,-38.40532 -0.4318,-1.02259 -1.318,-1.59068 -2.1816,-1.59068 -0.2954,0 -0.5908,0 -0.7272,0.13628 -0.7272,0.29539 -1.0226,0.88631 -1.0226,1.74979 0,0.43181 0.1591,1.15901 0.4318,1.74993 5.8176,13.52127 8.1582,21.22508 8.1582,31.70127 0,12.06701 -4.2268,18.33911 -6.8402,22.83873 -9.4536,16.13468 -24.7248,23.9976 -30.8378,26.04278 -1.0226,0.43181 -1.159,1.15901 -1.159,1.59082 v 32.88304"
     id="path1043"
     style="stroke-width:1.4544" />
  <path
     class="Hook"
     d="m 1147.6,729.47465 c 0,0.9999 0.8636,1.88618 1.8862,1.88618 0.7272,0 1.6134,-0.59086 1.7498,-1.15898 0,-0.15908 1.3181,-5.24948 1.4544,-5.68125 0.1364,-0.59085 1.4544,-6.11303 6.6811,-14.68042 5.6813,-9.4536 14.4077,-16.29379 21.6797,-26.47459 7.1357,-10.1808 11.4989,-19.79351 11.4989,-32.58758 0,-13.22602 -3.0679,-24.29313 -10.7717,-38.40532 -0.4318,-1.02259 -1.318,-1.59068 -2.1816,-1.59068 -0.2954,0 -0.5908,0 -0.7272,0.13628 -0.7272,0.29539 -1.0226,0.88631 -1.0226,1.74979 0,0.43181 0.1591,1.15901 0.4318,1.74993 5.8176,13.52127 8.1582,21.22508 8.1582,31.70127 0,12.06701 -4.2268,18.33911 -6.8402,22.83873 -9.4536,16.13468 -24.7248,23.9976 -30.8378,26.04278 -1.0226,0.43181 -1.159,1.15901 -1.159,1.59082 v 32.88304"
     id="path1045"
     style="stroke-width:1.4544" />
  <path
     class="Hook"
     d="m 956.301,544.47039 c 0,0.43181 0.13635,1.15901 1.15897,1.59082 6.24938,2.04518 18.77082,9.9081 28.22442,26.04278 2.61341,4.49962 6.84033,10.77172 6.84033,22.83873 0,10.47619 -2.77252,21.22508 -6.5448,31.70127 -0.29553,0.88631 -0.59092,1.61351 -0.4545,2.1816 0,0.88631 0.59078,1.4544 1.4544,1.4544 1.02259,0 1.74979,-0.56809 2.34057,-1.59068 6.5448,-11.6352 9.02193,-25.1793 9.02193,-38.40532 -0.7272,-18.77078 -11.49892,-32.58758 -11.49892,-32.58758 0.43181,0 -13.38499,-17.88461 -17.31645,-23.9976 -5.3631,-8.29466 -7.84012,-16.56656 -8.13555,-17.15741 -0.13635,-0.43177 -1.4544,-5.68125 -1.4544,-5.68125 -0.13635,-0.56812 -0.86355,-1.15898 -1.74982,-1.15898 -1.02263,0 -1.88618,0.88628 -1.88618,1.88618 v 32.88304"
     id="path1047"
     style="stroke-width:1.4544" />
  <path
     class="Hook"
     d="m 720.647,1006.1894 c 0,0.4318 0.13635,1.159 1.15897,1.5908 6.24938,2.0452 18.77082,9.9081 28.22442,26.0428 2.61341,4.4996 6.84033,10.7717 6.84033,22.8387 0,10.4762 -2.77252,21.2251 -6.5448,31.7013 -0.29553,0.8863 -0.59092,1.6135 -0.4545,2.1816 0,0.8863 0.59078,1.4544 1.4544,1.4544 1.02259,0 1.74979,-0.5681 2.34057,-1.5907 6.5448,-11.6352 9.02193,-25.1793 9.02193,-38.4053 -0.7272,-18.7708 -11.49892,-32.5876 -11.49892,-32.5876 0.43181,0 -13.38499,-17.8846 -17.31645,-23.99759 -5.3631,-8.29466 -7.84012,-16.56656 -8.13555,-17.15741 -0.13635,-0.43177 -1.4544,-5.68125 -1.4544,-5.68125 -0.13635,-0.56813 -0.86355,-1.15898 -1.74982,-1.15898 -1.02263,0 -1.88618,0.88628 -1.88618,1.88618 v 32.88305"
     id="path1049"
     style="stroke-width:1.4544" />
  <path
     class="Note"
     d="m 2145,617.55403 c 0,6.24937 4.4996,13.22598 16.2938,13.22598 15.1122,0 30.9742,-12.36243 30.9742,-25.15661 0,-8.59005 -7.272,-13.38499 -16.2938,-13.38499 -14.1122,0 -30.9742,11.93059 -30.9742,25.31562"
     id="path1051"
     style="stroke-width:1.4544" />
  <path
     class="Note"
     d="m 2210.43,635.73403 c 0,6.24937 4.4995,13.22598 16.2938,13.22598 15.1122,0 30.9742,-12.36243 30.9742,-25.15661 0,-8.59005 -7.272,-13.38499 -16.2938,-13.38499 -14.1122,0 -30.9742,11.93059 -30.9742,25.31562"
     id="path1053"
     style="stroke-width:1.4544" />
  <path
     class="Note"
     d="m 2366.03,617.55403 c 0,6.24937 4.4996,13.22598 16.2938,13.22598 15.1122,0 30.9742,-12.36243 30.9742,-25.15661 0,-8.59005 -7.272,-13.38499 -16.2938,-13.38499 -14.1122,0 -30.9742,11.93059 -30.9742,25.31562"
     id="path1055"
     style="stroke-width:1.4544" />
  <path
     class="Note"
     d="m 2457.07,635.73403 c 0,6.24937 4.4996,13.22598 16.2938,13.22598 15.1122,0 30.9742,-12.36243 30.9742,-25.15661 0,-8.59005 -7.272,-13.38499 -16.2938,-13.38499 -14.1122,0 -30.9742,11.93059 -30.9742,25.31562"
     id="path1057"
     style="stroke-width:1.4544" />
  <path
     class="Note"
     d="m 2548.1,672.09403 c 0,6.24937 4.4996,13.22598 16.2938,13.22598 15.1122,0 30.9742,-12.36243 30.9742,-25.15661 0,-8.59005 -7.272,-13.38499 -16.2938,-13.38499 -14.1122,0 -30.9742,11.93059 -30.9742,25.31562"
     id="path1059"
     style="stroke-width:1.4544" />
  <path
     class="Note"
     d="m 2639.14,690.27403 c 0,6.24937 4.4995,13.22598 16.2938,13.22598 15.1122,0 30.9742,-12.36243 30.9742,-25.15661 0,-8.59005 -7.272,-13.38499 -16.2938,-13.38499 -14.1122,0 -30.9742,11.93059 -30.9742,25.31562"
     id="path1061"
     style="stroke-width:1.4544" />
  <path
     class="Note"
     d="m 1094.55,1061.093 c 0,6.2494 4.4996,13.226 16.2938,13.226 15.1122,0 30.9742,-12.3624 30.9742,-25.1566 0,-8.59 -7.272,-13.385 -16.2938,-13.385 -14.1122,0 -30.9742,11.9306 -30.9742,25.3156"
     id="path1063"
     style="stroke-width:1.4544" />
  <path
     class="Note"
     d="m 521.136,1151.993 c 0,6.2494 4.49955,13.226 16.29379,13.226 15.11223,0 30.97421,-12.3624 30.97421,-25.1566 0,-8.59 -7.272,-13.385 -16.29379,-13.385 -14.11219,0 -30.97421,11.9306 -30.97421,25.3156"
     id="path1065"
     style="stroke-width:1.4544" />
  <path
     class="Note"
     d="m 677.015,1097.453 c 0,6.2494 4.49955,13.226 16.29379,13.226 15.11223,0 30.97421,-12.3624 30.97421,-25.1566 0,-8.5901 -7.272,-13.385 -16.29379,-13.385 -14.11219,0 -30.97421,11.9306 -30.97421,25.3156"
     id="path1067"
     style="stroke-width:1.4544" />
  <path
     class="Note"
     d="m 780.935,1097.453 c 0,6.2494 4.49955,13.226 16.29379,13.226 15.11223,0 30.97421,-12.3624 30.97421,-25.1566 0,-8.5901 -7.272,-13.385 -16.29379,-13.385 -14.11219,0 -30.97421,11.9306 -30.97421,25.3156"
     id="path1069"
     style="stroke-width:1.4544" />
  <path
     class="Note"
     d="m 936.814,1079.273 c 0,6.2494 4.49955,13.226 16.29379,13.226 15.11223,0 30.97421,-12.3624 30.97421,-25.1566 0,-8.59 -7.272,-13.385 -16.29379,-13.385 -14.11219,0 -30.97421,11.9306 -30.97421,25.3156"
     id="path1071"
     style="stroke-width:1.4544" />
  <path
     class="Note"
     d="m 1226.28,1079.273 c 0,6.2494 4.4996,13.226 16.2938,13.226 15.1122,0 30.9742,-12.3624 30.9742,-25.1566 0,-8.59 -7.272,-13.385 -16.2938,-13.385 -14.1122,0 -30.9742,11.9306 -30.9742,25.3156"
     id="path1073"
     style="stroke-width:1.4544" />
  <path
     class="Note"
     d="m 1295.56,1097.453 c 0,6.2494 4.4995,13.226 16.2938,13.226 15.1122,0 30.9742,-12.3624 30.9742,-25.1566 0,-8.5901 -7.272,-13.385 -16.2938,-13.385 -14.1122,0 -30.9742,11.9306 -30.9742,25.3156"
     id="path1075"
     style="stroke-width:1.4544" />
  <path
     class="Note"
     d="m 1399.48,1079.273 c 0,6.2494 4.4996,13.226 16.2938,13.226 15.1122,0 30.9742,-12.3624 30.9742,-25.1566 0,-8.59 -7.272,-13.385 -16.2938,-13.385 -14.1122,0 -30.9742,11.9306 -30.9742,25.3156"
     id="path1077"
     style="stroke-width:1.4544" />
  <path
     class="Note"
     d="m 1650.9,1042.913 c 0,6.2494 4.4996,13.226 16.2938,13.226 15.1122,0 30.9742,-12.3624 30.9742,-25.1566 0,-8.5901 -7.272,-13.385 -16.2938,-13.385 -14.1122,0 -30.9742,11.9306 -30.9742,25.3156"
     id="path1079"
     style="stroke-width:1.4544" />
  <path
     class="Note"
     d="m 1910.7,1061.093 c 0,6.2494 4.4996,13.226 16.2938,13.226 15.1122,0 30.9742,-12.3624 30.9742,-25.1566 0,-8.59 -7.272,-13.385 -16.2938,-13.385 -14.1122,0 -30.9742,11.9306 -30.9742,25.3156"
     id="path1081"
     style="stroke-width:1.4544" />
  <path
     class="Note"
     d="m 2042.43,1079.273 c 0,6.2494 4.4995,13.226 16.2938,13.226 15.1122,0 30.9742,-12.3624 30.9742,-25.1566 0,-8.59 -7.272,-13.385 -16.2938,-13.385 -14.1122,0 -30.9742,11.9306 -30.9742,25.3156"
     id="path1083"
     style="stroke-width:1.4544" />
  <path
     class="Note"
     d="m 2111.71,1097.453 c 0,6.2494 4.4995,13.226 16.2938,13.226 15.1122,0 30.9742,-12.3624 30.9742,-25.1566 0,-8.5901 -7.272,-13.385 -16.2938,-13.385 -14.1122,0 -30.9742,11.9306 -30.9742,25.3156"
     id="path1085"
     style="stroke-width:1.4544" />
  <path
     class="Note"
     d="m 776.111,690.27403 c 0,6.24937 4.49955,13.22598 16.29379,13.22598 15.11223,0 30.97421,-12.36243 30.97421,-25.15661 0,-8.59005 -7.272,-13.38499 -16.29379,-13.38499 -14.11219,0 -30.97421,11.93059 -30.97421,25.31562"
     id="path1087"
     style="stroke-width:1.4544" />
  <path
     class="Note"
     d="m 912.669,635.73403 c 0,6.24937 4.49955,13.22598 16.29379,13.22598 15.11223,0 30.97421,-12.36243 30.97421,-25.15661 0,-8.59005 -7.272,-13.38499 -16.29379,-13.38499 -14.11219,0 -30.97421,11.93059 -30.97421,25.31562"
     id="path1089"
     style="stroke-width:1.4544" />
  <path
     class="Note"
     d="m 2269.44,1097.453 c 0,6.2494 4.4996,13.226 16.2938,13.226 15.1122,0 30.9742,-12.3624 30.9742,-25.1566 0,-8.5901 -7.272,-13.385 -16.2938,-13.385 -14.1122,0 -30.9742,11.9306 -30.9742,25.3156"
     id="path1091"
     style="stroke-width:1.4544" />
  <path
     class="Note"
     d="m 1011.05,635.73403 c 0,6.24937 4.4995,13.22598 16.2938,13.22598 15.1122,0 30.9742,-12.36243 30.9742,-25.15661 0,-8.59005 -7.272,-13.38499 -16.2938,-13.38499 -14.1122,0 -30.9742,11.93059 -30.9742,25.31562"
     id="path1093"
     style="stroke-width:1.4544" />
  <path
     class="Note"
     d="m 2373.36,1079.273 c 0,6.2494 4.4996,13.226 16.2938,13.226 15.1122,0 30.9742,-12.3624 30.9742,-25.1566 0,-8.59 -7.272,-13.385 -16.2938,-13.385 -14.1122,0 -30.9742,11.9306 -30.9742,25.3156"
     id="path1095"
     style="stroke-width:1.4544" />
  <path
     class="Note"
     d="m 1806.78,1079.273 c 0,6.2494 4.4995,13.226 16.2938,13.226 15.1122,0 30.9742,-12.3624 30.9742,-25.1566 0,-8.59 -7.272,-13.385 -16.2938,-13.385 -14.1122,0 -30.9742,11.9306 -30.9742,25.3156"
     id="path1097"
     style="stroke-width:1.4544" />
  <path
     class="Note"
     d="m 2477.28,1115.633 c 0,6.2494 4.4995,13.226 16.2938,13.226 15.1122,0 30.9742,-12.3624 30.9742,-25.1566 0,-8.5901 -7.272,-13.385 -16.2938,-13.385 -14.1122,0 -30.9742,11.9306 -30.9742,25.3156"
     id="path1099"
     style="stroke-width:1.4544" />
  <path
     class="Note"
     d="m 1147.6,617.55403 c 0,6.24937 4.4996,13.22598 16.2938,13.22598 15.1122,0 30.9742,-12.36243 30.9742,-25.15661 0,-8.59005 -7.272,-13.38499 -16.2938,-13.38499 -14.1122,0 -30.9742,11.93059 -30.9742,25.31562"
     id="path1101"
     style="stroke-width:1.4544" />
  <path
     class="Note"
     d="m 2581.2,1097.453 c 0,6.2494 4.4995,13.226 16.2938,13.226 15.1122,0 30.9742,-12.3624 30.9742,-25.1566 0,-8.5901 -7.272,-13.385 -16.2938,-13.385 -14.1122,0 -30.9742,11.9306 -30.9742,25.3156"
     id="path1103"
     style="stroke-width:1.4544" />
  <path
     class="Note"
     d="m 1303.2,599.37403 c 0,6.24937 4.4995,13.22598 16.2938,13.22598 15.1122,0 30.9742,-12.36243 30.9742,-25.15661 0,-8.59005 -7.272,-13.38499 -16.2938,-13.38499 -14.1122,0 -30.9742,11.93059 -30.9742,25.31562"
     id="path1105"
     style="stroke-width:1.4544" />
  <path
     class="Note"
     d="m 1418.61,617.55403 c 0,6.24937 4.4996,13.22598 16.2938,13.22598 15.1122,0 30.9742,-12.36243 30.9742,-25.15661 0,-8.59005 -7.272,-13.38499 -16.2938,-13.38499 -14.1122,0 -30.9742,11.93059 -30.9742,25.31562"
     id="path1107"
     style="stroke-width:1.4544" />
  <path
     class="Note"
     d="m 1484.04,635.73403 c 0,6.24937 4.4995,13.22598 16.2938,13.22598 15.1122,0 30.9742,-12.36243 30.9742,-25.15661 0,-8.59005 -7.272,-13.38499 -16.2938,-13.38499 -14.1122,0 -30.9742,11.93059 -30.9742,25.31562"
     id="path1109"
     style="stroke-width:1.4544" />
  <path
     class="Note"
     d="m 1575.07,617.55403 c 0,6.24937 4.4995,13.22598 16.2938,13.22598 15.1122,0 30.9742,-12.36243 30.9742,-25.15661 0,-8.59005 -7.272,-13.38499 -16.2938,-13.38499 -14.1122,0 -30.9742,11.93059 -30.9742,25.31562"
     id="path1111"
     style="stroke-width:1.4544" />
  <path
     class="Note"
     d="m 1802,581.19403 c 0,6.24937 4.4996,13.22598 16.2938,13.22598 15.1122,0 30.9742,-12.36243 30.9742,-25.15661 0,-8.59005 -7.272,-13.38499 -16.2938,-13.38499 -14.1122,0 -30.9742,11.93059 -30.9742,25.31562"
     id="path1113"
     style="stroke-width:1.4544" />
  <path
     class="Note"
     d="m 1938.56,617.55403 c 0,6.24937 4.4996,13.22598 16.2938,13.22598 15.1122,0 30.9742,-12.36243 30.9742,-25.15661 0,-8.59005 -7.272,-13.38499 -16.2938,-13.38499 -14.1122,0 -30.9742,11.93059 -30.9742,25.31562"
     id="path1115"
     style="stroke-width:1.4544" />
  <path
     class="Note"
     d="m 2029.6,599.37403 c 0,6.24937 4.4996,13.22598 16.2938,13.22598 15.1122,0 30.9742,-12.36243 30.9742,-25.15661 0,-8.59005 -7.272,-13.38499 -16.2938,-13.38499 -14.1122,0 -30.9742,11.93059 -30.9742,25.31562"
     id="path1117"
     style="stroke-width:1.4544" />
  <path
     class="Clef"
     d="m 246.7548,1139.4716 c -2.9088,0.5908 -5.65849,0.8862 -8.43101,0.8862 -20.79327,0 -38.54156,-14.544 -38.54156,-36.5191 0,-17.7255 12.49878,-33.5875 25.31568,-44.6546 2.4543,-2.1816 4.79501,-4.2041 6.97661,-6.3857 1.29529,7.8401 2.31788,14.6803 3.34047,20.657 -13.24857,3.9314 -22.24767,17.8846 -22.24767,31.565 0,10.1808 7.9992,24.134 19.6344,24.134 1.15887,0 2.47699,-0.5908 2.47699,-1.8862 0,-1.318 -1.4544,-2.0452 -3.20419,-3.2042 -5.68132,-3.4997 -8.88551,-7.272 -8.88551,-14.4077 0,-8.8627 6.5448,-15.9984 15.13478,-18.0209 l 8.43101,47.8362 M 233.96059,989.96381 c 1.31812,-5.8176 7.9992,-21.0888 15.56673,-21.0888 2.1816,0 5.65849,7.11289 5.65849,17.15727 0,15.13492 -11.1807,26.47472 -21.22522,36.36002 -0.86348,-5.8176 -1.59068,-11.4761 -1.59068,-17.5891 0,-5.38579 0.43181,-10.33991 1.59068,-14.83939 m 33.4512,122.60129 c 0,10.3399 -4.22678,20.9525 -14.544,25.1794 -3.04508,-17.4529 -6.97647,-40.5869 -7.9992,-46.9954 13.0896,0 22.5432,8.8855 22.5432,21.816 m -63.9936,71.5611 c 0,9.6127 7.40842,22.2705 27.04282,22.2705 6.84019,0 12.8169,-1.7498 18.04358,-4.9541 7.86292,-5.5221 9.88541,-15.1348 9.88541,-24.293 0,-5.6585 -0.86348,-12.2033 -2.31788,-20.4979 -0.43181,-2.9088 -1.31812,-7.272 -2.1816,-12.9533 14.24847,-4.6586 24.86108,-19.498 24.86108,-34.4738 0,-21.9524 -15.56659,-36.7918 -36.79181,-36.7918 -1.4544,-8.7264 -2.9088,-17.3165 -4.22678,-25.452 15.43031,-16.1575 26.04278,-34.3375 26.04278,-57.4488 0,-13.24871 -4.06767,-23.9976 -6.40838,-29.24653 -3.47689,-7.40871 -7.70381,-12.49911 -10.31722,-12.49911 -1.02259,0 -5.52207,1.74964 -10.31708,7.40871 -9.31732,11.06653 -11.93059,29.67834 -11.93059,41.88163 0,7.8628 0.7272,14.9985 3.20419,31.2923 -0.15911,0.1364 -7.7265,7.8401 -10.77172,10.3172 -13.24857,12.3624 -31.56499,29.9515 -31.56499,59.0622 0,27.1792 23.70221,48.5634 50.76772,48.5634 4.20409,0 8.13548,-0.4318 11.47609,-1.0226 2.77238,13.9758 4.3632,24.1566 4.3632,31.8604 0,15.1349 -7.70381,23.1341 -22.38409,23.1341 -3.49972,0 -6.5448,-0.7272 -6.84033,-0.7272 -0.13628,-0.1591 -0.43167,-0.2955 -0.43167,-0.4318 0,-0.2954 0.29539,-0.4545 0.7272,-0.5909 6.84019,-1.0226 13.65769,-6.8402 13.65769,-16.1347 0,-7.8629 -5.95402,-16.1575 -16.86202,-16.1575 -10.1808,0 -16.7256,8.2946 -16.7256,17.8846"
     id="path1119"
     style="stroke-width:1.4544" />
  <path
     class="Clef"
     d="m 428.5548,677.75262 c -2.9088,0.59078 -5.65849,0.88617 -8.43101,0.88617 -20.79327,0 -38.54156,-14.544 -38.54156,-36.51904 0,-17.72557 12.49878,-33.58755 25.31568,-44.65466 2.4543,-2.1816 4.79501,-4.20409 6.97661,-6.38569 1.29529,7.84009 2.31788,14.68028 3.34047,20.65699 -13.24857,3.93139 -22.24767,17.88461 -22.24767,31.56506 0,10.1808 7.9992,24.13395 19.6344,24.13395 1.15887,0 2.47699,-0.59078 2.47699,-1.88621 0,-1.31798 -1.4544,-2.04518 -3.20419,-3.20419 -5.68132,-3.49965 -8.88551,-7.272 -8.88551,-14.40765 0,-8.86275 6.5448,-15.99847 15.13478,-18.02096 l 8.43101,47.83623 M 415.76059,528.24481 c 1.31812,-5.8176 7.9992,-21.0888 15.56673,-21.0888 2.1816,0 5.65849,7.11289 5.65849,17.15727 0,15.13492 -11.1807,26.47473 -21.22522,36.36 -0.86348,-5.8176 -1.59068,-11.47609 -1.59068,-17.58908 0,-5.38579 0.43181,-10.33991 1.59068,-14.83939 m 33.4512,122.60134 c 0,10.33988 -4.22678,20.95245 -14.544,25.17937 -3.04508,-17.45287 -6.97647,-40.58692 -7.9992,-46.99544 13.0896,0 22.5432,8.88554 22.5432,21.81607 m -63.9936,71.56106 c 0,9.61271 7.40842,22.2705 27.04282,22.2705 6.84019,0 12.8169,-1.74979 18.04358,-4.95412 7.86292,-5.52207 9.88541,-15.13478 9.88541,-24.29299 0,-5.65849 -0.86348,-12.20329 -2.31788,-20.49788 -0.43181,-2.9088 -1.31812,-7.272 -2.1816,-12.95332 14.24847,-4.65859 24.86108,-19.49798 24.86108,-34.47382 0,-21.95239 -15.56659,-36.79178 -36.79181,-36.79178 -1.4544,-8.7264 -2.9088,-17.31652 -4.22678,-25.452 15.43031,-16.15751 26.04278,-34.33751 26.04278,-57.4488 0,-13.24871 -4.06767,-23.9976 -6.40838,-29.24653 -3.47689,-7.40871 -7.70381,-12.49911 -10.31722,-12.49911 -1.02259,0 -5.52207,1.74964 -10.31708,7.40871 -9.31732,11.06653 -11.93059,29.67834 -11.93059,41.88163 0,7.86278 0.7272,14.9985 3.20419,31.29229 -0.15911,0.13642 -7.7265,7.84009 -10.77172,10.31722 -13.24857,12.3624 -31.56499,29.95148 -31.56499,59.06224 0,27.17917 23.70221,48.56336 50.76772,48.56336 4.20409,0 8.13548,-0.43181 11.47609,-1.02259 2.77238,13.97577 4.3632,24.15657 4.3632,31.86038 0,15.13492 -7.70381,23.13412 -22.38409,23.13412 -3.49972,0 -6.5448,-0.7272 -6.84033,-0.7272 -0.13628,-0.15911 -0.43167,-0.29553 -0.43167,-0.43181 0,-0.29539 0.29539,-0.4545 0.7272,-0.59092 6.84019,-1.02259 13.65769,-6.84019 13.65769,-16.13468 0,-7.86292 -5.95402,-16.15751 -16.86202,-16.15751 -10.1808,0 -16.7256,8.29459 -16.7256,17.88461"
     id="path1121"
     style="stroke-width:1.4544" />
  <path
     class="KeySig"
     d="m 508.22878,527.94935 12.95321,-2.61338 v 23.99761 l -12.95321,2.77245 v -24.15668 m 22.54323,-4.49955 c 0.88631,-0.13642 1.61351,-1.15901 1.61351,-2.04532 v -8.56729 c 0,-1.15901 -0.88631,-2.04518 -2.04532,-2.04518 h -0.29539 l -4.79501,1.02259 v -21.67972 h -4.06781 v 22.5432 l -12.95321,2.6361 V 494.79361 H 504.161 v 21.38419 l -5.68125,1.15901 c -0.86355,0.15897 -1.59075,1.15887 -1.59075,2.04518 v 8.43101 c 0,1.15897 0.86355,2.04525 2.04525,2.04525 h 0.43178 l 4.79497,-1.02263 v 23.99761 l -5.68125,1.15897 c -0.86355,0.13642 -1.59075,1.15901 -1.59075,2.04532 v 8.43087 c 0,1.15901 0.86355,2.02263 2.04525,2.02263 h 0.43178 l 4.79497,-0.9999 v 21.65689 h 4.06778 v -22.5432 l 12.95321,-2.61341 v 20.52071 h 4.06781 v -21.38419 l 5.52221,-1.02273 c 0.88631,-0.15897 1.61351,-1.15887 1.61351,-2.04518 v -8.56736 c 0,-1.1817 -0.88631,-2.04525 -2.04532,-2.04525 h -0.29539 l -4.79501,1.02263 v -23.99761 l 5.52221,-1.02262"
     id="path1123"
     style="stroke-width:1.4544" />
  <path
     class="KeySig"
     d="m 548.04278,582.48935 12.95321,-2.61338 v 23.99761 l -12.95321,2.77245 v -24.15668 m 22.54323,-4.49955 c 0.88631,-0.13642 1.61351,-1.15901 1.61351,-2.04532 v -8.56729 c 0,-1.15901 -0.88631,-2.04518 -2.04532,-2.04518 h -0.29539 l -4.79501,1.02259 v -21.67972 h -4.06781 v 22.5432 l -12.95321,2.6361 V 549.33361 H 543.975 v 21.38419 l -5.68125,1.15901 c -0.86355,0.15897 -1.59075,1.15887 -1.59075,2.04518 v 8.43101 c 0,1.15897 0.86355,2.04525 2.04525,2.04525 h 0.43178 l 4.79497,-1.02263 v 23.99761 l -5.68125,1.15897 c -0.86355,0.13642 -1.59075,1.15901 -1.59075,2.04532 v 8.43087 c 0,1.15901 0.86355,2.02263 2.04525,2.02263 h 0.43178 l 4.79497,-0.9999 v 21.65689 h 4.06778 v -22.5432 l 12.95321,-2.61341 v 20.52071 h 4.06781 v -21.38419 l 5.52221,-1.02273 c 0.88631,-0.15897 1.61351,-1.15887 1.61351,-2.04518 v -8.56736 c 0,-1.1817 -0.88631,-2.04525 -2.04532,-2.04525 h -0.29539 l -4.79501,1.02263 v -23.99761 l 5.52221,-1.02262"
     id="path1125"
     style="stroke-width:1.4544" />
  <path
     class="KeySig"
     d="m 587.87978,509.76935 12.95321,-2.61338 v 23.99761 l -12.95321,2.77245 v -24.15668 m 22.54323,-4.49955 c 0.88631,-0.13642 1.61351,-1.15901 1.61351,-2.04532 v -8.56729 c 0,-1.15901 -0.88631,-2.04518 -2.04532,-2.04518 h -0.29539 l -4.79501,1.02259 v -21.67972 h -4.06781 v 22.5432 l -12.95321,2.6361 V 476.61361 H 583.812 v 21.38419 l -5.68125,1.15901 c -0.86355,0.15897 -1.59075,1.15887 -1.59075,2.04518 v 8.43101 c 0,1.15897 0.86355,2.04525 2.04525,2.04525 h 0.43178 l 4.79497,-1.02263 v 23.99761 l -5.68125,1.15897 c -0.86355,0.13642 -1.59075,1.15901 -1.59075,2.04532 v 8.43087 c 0,1.15901 0.86355,2.02263 2.04525,2.02263 h 0.43178 l 4.79497,-0.9999 v 21.65689 h 4.06778 v -22.5432 l 12.95321,-2.61341 v 20.52071 h 4.06781 v -21.38419 l 5.52221,-1.02273 c 0.88631,-0.15897 1.61351,-1.15887 1.61351,-2.04518 v -8.56736 c 0,-1.1817 -0.88631,-2.04525 -2.04532,-2.04525 h -0.29539 l -4.79501,1.02263 v -23.99761 l 5.52221,-1.02262"
     id="path1127"
     style="stroke-width:1.4544" />
  <path
     class="KeySig"
     d="m 326.42878,989.66835 12.95321,-2.61338 v 23.99763 l -12.95321,2.7724 v -24.15665 m 22.54323,-4.49955 c 0.88631,-0.13642 1.61351,-1.15901 1.61351,-2.04532 v -8.56729 c 0,-1.15901 -0.88631,-2.04518 -2.04532,-2.04518 h -0.29539 l -4.79501,1.02259 v -21.67972 h -4.06781 v 22.5432 l -12.95321,2.6361 V 956.51261 H 322.361 v 21.38419 l -5.68125,1.15901 c -0.86355,0.15897 -1.59075,1.15887 -1.59075,2.04518 v 8.43101 c 0,1.15897 0.86355,2.04525 2.04525,2.04525 h 0.43178 l 4.79497,-1.02263 v 23.99758 l -5.68125,1.159 c -0.86355,0.1364 -1.59075,1.159 -1.59075,2.0453 v 8.4309 c 0,1.159 0.86355,2.0226 2.04525,2.0226 h 0.43178 l 4.79497,-0.9999 v 21.6569 h 4.06778 v -22.5432 l 12.95321,-2.6134 v 20.5207 h 4.06781 v -21.3842 l 5.52221,-1.0227 c 0.88631,-0.159 1.61351,-1.1589 1.61351,-2.0452 v -8.5674 c 0,-1.1817 -0.88631,-2.0452 -2.04532,-2.0452 h -0.29539 l -4.79501,1.0226 v -23.99758 l 5.52221,-1.02262"
     id="path1129"
     style="stroke-width:1.4544" />
  <path
     class="KeySig"
     d="m 366.24278,1044.2084 12.95321,-2.6134 v 23.9976 l -12.95321,2.7724 v -24.1566 m 22.54323,-4.4996 c 0.88631,-0.1364 1.61351,-1.159 1.61351,-2.0453 v -8.5673 c 0,-1.159 -0.88631,-2.0452 -2.04532,-2.0452 h -0.29539 l -4.79501,1.0226 v -21.6797 h -4.06781 v 22.5432 l -12.95321,2.6361 v -20.5206 H 362.175 v 21.3842 l -5.68125,1.159 c -0.86355,0.159 -1.59075,1.1589 -1.59075,2.0452 v 8.431 c 0,1.159 0.86355,2.0453 2.04525,2.0453 h 0.43178 l 4.79497,-1.0227 v 23.9976 l -5.68125,1.159 c -0.86355,0.1364 -1.59075,1.159 -1.59075,2.0453 v 8.4309 c 0,1.159 0.86355,2.0226 2.04525,2.0226 h 0.43178 l 4.79497,-0.9999 v 21.6569 h 4.06778 v -22.5432 l 12.95321,-2.6134 v 20.5207 h 4.06781 v -21.3842 l 5.52221,-1.0227 c 0.88631,-0.159 1.61351,-1.1589 1.61351,-2.0452 v -8.5673 c 0,-1.1817 -0.88631,-2.0453 -2.04532,-2.0453 h -0.29539 l -4.79501,1.0226 v -23.9976 l 5.52221,-1.0226"
     id="path1131"
     style="stroke-width:1.4544" />
  <path
     class="KeySig"
     d="m 406.07978,971.48835 12.95321,-2.61338 v 23.99761 l -12.95321,2.77245 v -24.15668 m 22.54323,-4.49955 c 0.88631,-0.13642 1.61351,-1.15901 1.61351,-2.04532 v -8.56729 c 0,-1.15901 -0.88631,-2.04518 -2.04532,-2.04518 h -0.29539 l -4.79501,1.02259 v -21.67972 h -4.06781 v 22.5432 l -12.95321,2.6361 V 938.33261 H 402.012 v 21.38419 l -5.68125,1.15901 c -0.86355,0.15897 -1.59075,1.15887 -1.59075,2.04518 v 8.43101 c 0,1.15897 0.86355,2.04525 2.04525,2.04525 h 0.43178 l 4.79497,-1.02263 v 23.99761 l -5.68125,1.15897 c -0.86355,0.13642 -1.59075,1.15901 -1.59075,2.04532 v 8.43088 c 0,1.159 0.86355,2.0226 2.04525,2.0226 h 0.43178 l 4.79497,-0.9999 v 21.6569 h 4.06778 v -22.5432 l 12.95321,-2.6134 v 20.5207 h 4.06781 v -21.3842 l 5.52221,-1.0227 c 0.88631,-0.159 1.61351,-1.1589 1.61351,-2.0452 v -8.56735 c 0,-1.1817 -0.88631,-2.04525 -2.04532,-2.04525 h -0.29539 l -4.79501,1.02263 v -23.99761 l 5.52221,-1.02262"
     id="path1133"
     style="stroke-width:1.4544" />
  <path
     class="TimeSig"
     d="m 677.2114,605.19139 c -4.79501,0 -8.7264,-6.5448 -8.7264,-14.70297 0,-8.13562 3.93139,-14.81677 8.7264,-14.81677 4.79501,0 8.88551,6.68115 8.88551,14.81677 0,8.15817 -4.0905,14.70297 -8.88551,14.70297 m 5.38579,-36.35997 c -8.88537,0 -12.06687,2.61338 -14.11219,4.79498 -0.43181,-3.04515 -0.7272,-5.38583 -0.7272,-7.70378 0,-8.29462 2.9088,-19.06634 13.0896,-19.06634 3.636,0 5.8176,1.1817 7.272,2.77252 -3.04508,1.31798 -5.52221,5.22668 -5.52221,8.58998 0,5.22682 4.06781,9.29459 9.31732,9.29459 5.22668,0 9.4536,-4.06777 9.4536,-9.29459 v -0.4545 c 0,-1.29529 -0.29539,-3.47689 -0.88631,-4.6359 -1.88621,-5.24937 -7.9992,-12.95318 -22.5432,-12.95318 -13.0896,0 -22.5432,12.49868 -25.452,19.20259 -1.4544,3.47696 -3.636,10.61261 -3.636,18.74816 0,8.88548 2.47703,18.90727 11.04435,26.47466 8.45377,6.40838 13.81687,6.70391 18.90727,6.70391 5.11309,0 24.15657,-5.97671 24.15657,-22.83869 0,-14.24858 -11.20339,-19.63441 -20.3616,-19.63441"
     id="path1135"
     style="stroke-width:1.4544" />
  <path
     class="TimeSig"
     d="M 685.21141,640.8922 C 675.326,637.68797 664.418,632.893 664.418,626.3482 c 0,-5.68132 5.22682,-7.9992 11.49892,-7.9992 9.02179,0 15.11209,4.22678 15.11209,10.908 0,6.97657 -3.1815,10.31715 -5.8176,11.6352 m -9.29449,34.47379 c -9.31732,0 -17.31652,-5.0904 -17.31652,-13.24857 0,-9.72637 7.56739,-12.06704 7.56739,-12.06704 9.88541,3.34057 23.9976,8.29462 23.9976,16.29382 0,3.93139 -5.0904,9.02179 -14.24847,9.02179 m 17.4528,-30.54237 c 4.79487,-3.636 8.13548,-8.29462 8.13548,-14.11222 0,-10.47619 -11.47609,-19.04362 -25.58828,-19.04362 -14.11233,0 -25.61114,8.56743 -25.61114,19.04362 0,5.8176 1.4544,11.04435 8.29462,15.40755 -6.5448,3.79508 -10.1808,9.1809 -10.1808,16.15744 0,11.77162 12.3624,21.22522 27.49732,21.22522 15.11209,0 27.47449,-9.4536 27.47449,-21.22522 0,-6.97654 -2.4543,-13.52134 -10.02169,-17.45277"
     id="path1137"
     style="stroke-width:1.4544" />
  <path
     class="Beam"
     fill-rule="evenodd"
     d="m 2409.66,502.35 185.71,9.09 v 18.201 l -185.71,-9.09 V 502.35"
     id="path1139" />
  <path
     class="Beam"
     fill-rule="evenodd"
     d="m 1303.2,702.297 184.47,18.18 v 18.268 l -184.47,-18.18 v -18.268"
     id="path1141" />
  <path
     class="Beam"
     fill-rule="evenodd"
     d="m 1422.25,686.759 -40,-3.942 v 18.268 l 40,3.942 v -18.268"
     id="path1143" />
  <path
     class="Beam"
     fill-rule="evenodd"
     d="m 1910.7,1164.02 204.65,18.18 v 18.26 l -204.65,-18.18 v -18.26"
     id="path1145" />
  <path
     class="Beam"
     fill-rule="evenodd"
     d="m 2046.07,1148.78 -40,-3.55 v 18.25 l 40,3.55 v -18.25"
     id="path1147" />
  <path
     class="Beam"
     fill-rule="evenodd"
     d="m 2313.07,964.08 h 211.48 v 18.18 h -211.48 v -18.18"
     id="path1149" />
  <path
     class="Beam"
     fill-rule="evenodd"
     d="m 1094.55,1164.02 204.65,18.18 v 18.26 l -204.65,-18.18 v -18.26"
     id="path1151" />
  <path
     class="Beam"
     fill-rule="evenodd"
     d="m 1229.92,1148.78 -40,-3.55 v 18.25 l 40,3.55 v -18.25"
     id="path1153" />
  <path
     class="Beam"
     fill-rule="evenodd"
     d="m 2029.6,702.297 184.46,18.18 v 18.268 l -184.46,-18.18 v -18.268"
     id="path1155" />
  <path
     class="Beam"
     fill-rule="evenodd"
     d="m 2148.64,686.759 -40,-3.942 v 18.268 l 40,3.942 v -18.268"
     id="path1157" />
  <path
     class="Lyrics"
     d="m 2581.15,1229.31 c -2.78,0 -5.05,2.25 -5.05,5.05 0,2.78 2.27,5.05 4.97,5.05 2.88,0 5.13,-2.27 5.13,-5.05 0,-2.8 -2.25,-5.05 -5.05,-5.05 m 4.1,21.66 -16.36,0.95 v 3.75 h 4.43 c 3.32,0.08 3.75,0.61 3.75,4.34 v 24.9 c -0.09,1.29 -0.17,1.82 -0.53,2.26 -0.61,0.78 -2.26,1.13 -6,1.22 h -0.61 v 3.12 h 22.53 v -3.12 h -0.61 c -5.82,-0.19 -6.6,-0.61 -6.6,-3.75 v -33.67 m 48.4,12.53 c 0,-5.49 -0.95,-8.27 -3.48,-10.36 -2.88,-2.34 -7.13,-3.47 -12.71,-3.47 -9.82,0 -16.96,4.61 -16.96,10.95 0,3.22 2,5.32 5.04,5.32 2.8,0 4.71,-1.83 4.71,-4.44 0,-1.13 -0.44,-2.34 -1.32,-3.56 -0.51,-0.61 -0.59,-0.8 -0.59,-1.22 0,-1.75 3.47,-3.31 7.66,-3.31 2.78,0 5.82,0.87 7.21,2.17 1.64,1.39 2.25,3.48 2.25,7.4 v 3.39 c -9.04,1.57 -11.9,2.27 -16.17,3.91 -7.58,2.8 -11.14,6.8 -11.14,12.36 0,6.27 4.88,10.19 12.61,10.19 6.02,0 11.41,-2.44 15.14,-6.88 1.39,4.44 3.58,6.17 7.66,6.17 3.92,0 8.01,-2.53 8.01,-5.04 0,-0.61 -0.36,-1.05 -0.87,-1.05 -0.35,0 -0.7,0.09 -1.31,0.34 -1.22,0.54 -1.74,0.61 -2.44,0.61 -2.42,0 -3.3,-1.56 -3.3,-6 v -17.48 m -8.19,10.61 c 0,5.22 -0.25,6.44 -1.73,8.7 -2.17,3.22 -6.09,5.39 -9.92,5.39 -4,0 -6.88,-2.86 -6.88,-6.78 0,-3.66 1.83,-6.26 5.66,-8.09 2.7,-1.22 6.09,-2.08 12.87,-3.22 v 4 m 28.79,7.75 c -3.05,0 -5.49,2.44 -5.49,5.39 0,3.05 2.44,5.48 5.39,5.48 3.05,0 5.49,-2.43 5.49,-5.48 0,-2.95 -2.44,-5.39 -5.39,-5.39"
     id="path1159" />
  <path
     class="Lyrics"
     d="m 1399.43,1229.31 c -2.78,0 -5.05,2.25 -5.05,5.05 0,2.78 2.27,5.05 4.97,5.05 2.88,0 5.13,-2.27 5.13,-5.05 0,-2.8 -2.25,-5.05 -5.05,-5.05 m 4.1,21.66 -16.36,0.95 v 3.75 h 4.43 c 3.32,0.08 3.75,0.61 3.75,4.34 v 24.9 c -0.09,1.29 -0.17,1.82 -0.53,2.26 -0.61,0.78 -2.26,1.13 -6,1.22 h -0.61 v 3.12 h 22.53 v -3.12 h -0.61 c -5.82,-0.19 -6.6,-0.61 -6.6,-3.75 v -33.67 m 48.4,12.53 c 0,-5.49 -0.95,-8.27 -3.48,-10.36 -2.88,-2.34 -7.13,-3.47 -12.71,-3.47 -9.82,0 -16.96,4.61 -16.96,10.95 0,3.22 2,5.32 5.04,5.32 2.8,0 4.71,-1.83 4.71,-4.44 0,-1.13 -0.44,-2.34 -1.32,-3.56 -0.51,-0.61 -0.59,-0.8 -0.59,-1.22 0,-1.75 3.47,-3.31 7.66,-3.31 2.78,0 5.82,0.87 7.21,2.17 1.64,1.39 2.25,3.48 2.25,7.4 v 3.39 c -9.04,1.57 -11.9,2.27 -16.17,3.91 -7.58,2.8 -11.14,6.8 -11.14,12.36 0,6.27 4.88,10.19 12.61,10.19 6.02,0 11.41,-2.44 15.14,-6.88 1.39,4.44 3.58,6.17 7.66,6.17 3.92,0 8.01,-2.53 8.01,-5.04 0,-0.61 -0.36,-1.05 -0.87,-1.05 -0.35,0 -0.7,0.09 -1.31,0.34 -1.22,0.54 -1.74,0.61 -2.44,0.61 -2.42,0 -3.3,-1.56 -3.3,-6 v -17.48 m -8.19,10.61 c 0,5.22 -0.25,6.44 -1.73,8.7 -2.17,3.22 -6.09,5.39 -9.92,5.39 -4,0 -6.88,-2.86 -6.88,-6.78 0,-3.66 1.83,-6.26 5.66,-8.09 2.7,-1.22 6.09,-2.08 12.87,-3.22 v 4 m 24.43,33.42 c 7.84,-5.41 11.4,-10.7 11.4,-16.8 0,-5.22 -2.87,-8.61 -7.14,-8.61 -3.22,0 -5.65,2.25 -5.65,5.22 0,3.13 2.35,5.13 6.01,5.13 0.42,0 1.03,0 1.3,-0.08 h 0.26 c 0.44,0 0.61,0.25 0.61,0.78 0,3.66 -2.97,7.74 -8.79,11.83 l 2,2.53"
     id="path1161" />
  <path
     class="Lyrics"
     d="m 1575.03,765.91 c -2.79,0 -5.05,2.25 -5.05,5.047 0,2.781 2.26,5.047 4.97,5.047 2.87,0 5.12,-2.266 5.12,-5.047 0,-2.797 -2.25,-5.047 -5.04,-5.047 m 4.09,21.656 -16.36,0.953 v 3.75 h 4.44 c 3.31,0.078 3.75,0.61 3.75,4.344 v 24.891 c -0.1,1.297 -0.17,1.828 -0.53,2.265 -0.61,0.782 -2.27,1.125 -6,1.219 h -0.61 v 3.125 h 22.53 v -3.125 h -0.61 c -5.83,-0.187 -6.61,-0.609 -6.61,-3.75 v -33.672 m 48.41,12.531 c 0,-5.484 -0.96,-8.265 -3.49,-10.359 -2.87,-2.344 -7.12,-3.469 -12.7,-3.469 -9.83,0 -16.97,4.61 -16.97,10.953 0,3.219 2,5.313 5.05,5.313 2.79,0 4.7,-1.828 4.7,-4.438 0,-1.125 -0.44,-2.343 -1.31,-3.562 -0.52,-0.609 -0.6,-0.797 -0.6,-1.219 0,-1.75 3.47,-3.312 7.66,-3.312 2.78,0 5.83,0.875 7.22,2.172 1.64,1.39 2.25,3.484 2.25,7.406 v 3.39 c -9.05,1.563 -11.91,2.266 -16.17,3.907 -7.58,2.797 -11.14,6.797 -11.14,12.359 0,6.266 4.87,10.188 12.6,10.188 6.02,0 11.41,-2.438 15.15,-6.875 1.39,4.437 3.57,6.171 7.65,6.171 3.92,0 8.02,-2.531 8.02,-5.046 0,-0.61 -0.36,-1.047 -0.88,-1.047 -0.34,0 -0.7,0.093 -1.31,0.343 -1.22,0.532 -1.73,0.61 -2.44,0.61 -2.42,0 -3.29,-1.563 -3.29,-6 v -17.485 m -8.19,10.61 c 0,5.219 -0.25,6.437 -1.74,8.703 -2.17,3.219 -6.09,5.391 -9.92,5.391 -4,0 -6.87,-2.86 -6.87,-6.782 0,-3.656 1.82,-6.265 5.65,-8.093 2.71,-1.219 6.1,-2.079 12.88,-3.219 v 4 m 24.42,33.422 c 7.84,-5.407 11.41,-10.703 11.41,-16.797 0,-5.219 -2.88,-8.61 -7.14,-8.61 -3.22,0 -5.66,2.25 -5.66,5.219 0,3.125 2.36,5.125 6.01,5.125 0.43,0 1.04,0 1.3,-0.078 h 0.27 c 0.43,0 0.61,0.25 0.61,0.781 0,3.657 -2.97,7.735 -8.8,11.828 l 2,2.532"
     id="path1163" />
  <path
     class="Lyrics"
     d="m 1319.95,763.988 -16.09,0.953 v 3.75 h 4.26 c 3.22,0.078 3.66,0.61 3.66,4.344 v 48.469 c -0.09,1.297 -0.19,1.828 -0.53,2.265 -0.61,0.782 -2.27,1.125 -6,1.219 h -0.61 v 3.125 h 22.53 v -3.125 h -0.61 c -5.83,-0.187 -6.61,-0.609 -6.61,-3.75 v -57.25 m 45.1,64.734 15.84,-0.609 v -3.734 h -2.19 c -5.04,-0.188 -5.47,-0.703 -5.47,-6.36 v -30.453 l -16.36,0.953 v 3.75 h 4.44 c 3.3,0.078 3.74,0.61 3.74,4.344 v 10.703 c 0,7.578 -1.83,16.797 -11.39,16.797 -2.71,0 -4.97,-0.953 -6.1,-2.703 -1.12,-1.656 -1.31,-2.516 -1.31,-7.313 v -26.531 l -15.22,0.953 v 3.75 h 3.31 c 3.3,0.078 3.74,0.61 3.74,4.344 v 18.797 c 0,4.437 0.34,6.437 1.65,8.437 2.35,3.563 6.52,5.579 11.75,5.579 5.74,0 9.74,-2.36 13.57,-7.922 v 7.218"
     id="path1165" />
  <path
     class="Lyrics"
     d="m 2046.35,763.988 -16.1,0.953 v 3.75 h 4.27 c 3.22,0.078 3.65,0.61 3.65,4.344 v 48.469 c -0.09,1.297 -0.18,1.828 -0.53,2.265 -0.61,0.782 -2.26,1.125 -6,1.219 h -0.61 v 3.125 h 22.53 v -3.125 h -0.6 c -5.83,-0.187 -6.61,-0.609 -6.61,-3.75 v -57.25 m 49.7,44.547 c 0.09,-13.047 -7.3,-22.266 -17.92,-22.266 -11.14,0 -19.49,9.657 -19.49,22.703 0,12.266 7.92,20.454 19.66,20.454 8.36,0 14.19,-4.094 17.75,-12.36 L 2093,815.41 c -3.56,6.703 -7.22,9.312 -13.04,9.312 -4.44,0 -7.66,-1.828 -9.93,-5.75 -1.56,-2.609 -2.25,-5.656 -2.17,-10.437 h 28.19 m -28.09,-3.734 c 0,-6.094 2.78,-14.797 10.09,-14.797 5.22,0 8.69,4.609 8.69,11.656 0,2.437 -0.78,3.141 -3.57,3.141 h -15.21"
     id="path1167" />
  <path
     class="Lyrics"
     d="m 1687.22,1263.5 c 0,-5.49 -0.95,-8.27 -3.48,-10.36 -2.87,-2.34 -7.12,-3.47 -12.7,-3.47 -9.83,0 -16.97,4.61 -16.97,10.95 0,3.22 2,5.32 5.05,5.32 2.79,0 4.7,-1.83 4.7,-4.44 0,-1.13 -0.44,-2.34 -1.31,-3.56 -0.52,-0.61 -0.6,-0.8 -0.6,-1.22 0,-1.75 3.47,-3.31 7.66,-3.31 2.78,0 5.83,0.87 7.22,2.17 1.64,1.39 2.25,3.48 2.25,7.4 v 3.39 c -9.05,1.57 -11.91,2.27 -16.17,3.91 -7.58,2.8 -11.15,6.8 -11.15,12.36 0,6.27 4.88,10.19 12.61,10.19 6.02,0 11.41,-2.44 15.14,-6.88 1.4,4.44 3.58,6.17 7.66,6.17 3.92,0 8.02,-2.53 8.02,-5.04 0,-0.61 -0.36,-1.05 -0.88,-1.05 -0.34,0 -0.7,0.09 -1.31,0.34 -1.22,0.54 -1.74,0.61 -2.44,0.61 -2.42,0 -3.3,-1.56 -3.3,-6 v -17.48 m -8.18,10.61 c 0,5.22 -0.25,6.44 -1.74,8.7 -2.17,3.22 -6.09,5.39 -9.92,5.39 -4,0 -6.87,-2.86 -6.87,-6.78 0,-3.66 1.82,-6.26 5.65,-8.09 2.71,-1.22 6.1,-2.08 12.88,-3.22 v 4 m 34.61,-46.72 -16.1,0.95 v 3.75 h 4.27 c 3.22,0.08 3.65,0.61 3.65,4.35 v 48.47 c -0.09,1.29 -0.18,1.82 -0.53,2.26 -0.61,0.78 -2.26,1.13 -6,1.22 h -0.61 v 3.12 h 22.54 v -3.12 h -0.61 c -5.83,-0.19 -6.61,-0.61 -6.61,-3.75 v -57.25"
     id="path1169" />
  <path
     class="Lyrics"
     d="m 2382.78,763.988 -16.1,0.953 v 3.75 h 4.27 c 3.22,0.078 3.66,0.61 3.66,4.344 v 48.469 c -0.1,1.297 -0.19,1.828 -0.54,2.265 -0.61,0.782 -2.26,1.125 -6,1.219 h -0.61 v 3.125 H 2390 v -3.125 h -0.61 c -5.83,-0.187 -6.61,-0.609 -6.61,-3.75 v -57.25 m 45.09,64.734 15.84,-0.609 v -3.734 h -2.18 c -5.05,-0.188 -5.47,-0.703 -5.47,-6.36 v -30.453 l -16.36,0.953 v 3.75 h 4.44 c 3.29,0.078 3.73,0.61 3.73,4.344 v 10.703 c 0,7.578 -1.83,16.797 -11.39,16.797 -2.7,0 -4.97,-0.953 -6.09,-2.703 -1.13,-1.656 -1.32,-2.516 -1.32,-7.313 v -26.531 l -15.21,0.953 v 3.75 h 3.31 c 3.29,0.078 3.73,0.61 3.73,4.344 v 18.797 c 0,4.437 0.35,6.437 1.66,8.437 2.34,3.563 6.51,5.579 11.75,5.579 5.73,0 9.73,-2.36 13.56,-7.922 v 7.218"
     id="path1171" />
  <path
     class="Lyrics"
     d="m 1027.8,763.988 -16.1,0.953 v 3.75 h 4.27 c 3.22,0.078 3.65,0.61 3.65,4.344 v 48.469 c -0.09,1.297 -0.18,1.828 -0.53,2.265 -0.61,0.782 -2.26,1.125 -6,1.219 h -0.61 v 3.125 h 22.53 v -3.125 h -0.6 c -5.83,-0.187 -6.61,-0.609 -6.61,-3.75 v -57.25 m 49.7,44.547 c 0.09,-13.047 -7.3,-22.266 -17.92,-22.266 -11.14,0 -19.49,9.657 -19.49,22.703 0,12.266 7.92,20.454 19.66,20.454 8.36,0 14.19,-4.094 17.75,-12.36 l -3.05,-1.656 c -3.56,6.703 -7.22,9.312 -13.04,9.312 -4.44,0 -7.66,-1.828 -9.93,-5.75 -1.56,-2.609 -2.25,-5.656 -2.17,-10.437 h 28.19 m -28.09,-3.734 c 0,-6.094 2.78,-14.797 10.09,-14.797 5.22,0 8.69,4.609 8.69,11.656 0,2.437 -0.78,3.141 -3.57,3.141 h -15.21"
     id="path1173" />
  <path
     class="Lyrics"
     d="m 810.002,764.082 h -3.657 l -20.015,50.719 c -2.344,6.781 -4.61,8.875 -9.563,9.218 h -0.359 v 4.094 h 23.062 v -4.094 h -1.734 c -4.703,0 -7.047,-1.656 -7.047,-4.953 0,-1.125 0.25,-2.172 0.781,-3.656 l 2.875,-7.656 h 23.047 l 4.703,11.656 c 0.516,1.391 0.688,1.922 0.688,2.359 0,1.391 -2.172,2.25 -5.391,2.25 h -3.656 v 4.094 h 26.969 v -4.094 h -1.203 c -4.532,-0.078 -5.313,-0.609 -7.313,-5.562 l -22.187,-54.375 m -4.266,14.265 9.828,24.704 H 796.08 l 9.656,-24.704 m 52.125,-14.359 -16.094,0.953 v 3.75 h 4.266 c 3.219,0.078 3.656,0.61 3.656,4.344 v 48.469 c -0.094,1.297 -0.187,1.828 -0.531,2.265 -0.61,0.782 -2.266,1.125 -6,1.219 h -0.61 v 3.125 h 22.532 v -3.125 h -0.61 c -5.828,-0.187 -6.609,-0.609 -6.609,-3.75 v -57.25"
     id="path1175" />
  <path
     class="Lyrics"
     d="m 797.685,1227.39 -16.094,0.95 v 3.75 h 4.266 c 3.218,0.08 3.656,0.61 3.656,4.35 v 48.47 c -0.094,1.29 -0.188,1.82 -0.531,2.26 -0.61,0.78 -2.266,1.13 -6,1.22 h -0.61 v 3.12 h 22.532 v -3.12 h -0.61 c -5.828,-0.19 -6.609,-0.61 -6.609,-3.75 v -57.25 m 49.703,44.55 c 0.094,-13.05 -7.297,-22.27 -17.922,-22.27 -11.141,0 -19.484,9.66 -19.484,22.7 0,12.27 7.922,20.46 19.656,20.46 8.359,0 14.187,-4.1 17.75,-12.36 l -3.047,-1.66 c -3.562,6.7 -7.219,9.31 -13.047,9.31 -4.437,0 -7.656,-1.82 -9.922,-5.75 -1.562,-2.61 -2.25,-5.65 -2.172,-10.43 h 28.188 m -28.094,-3.74 c 0,-6.09 2.781,-14.79 10.094,-14.79 5.219,0 8.687,4.6 8.687,11.65 0,2.44 -0.781,3.14 -3.562,3.14 h -15.219"
     id="path1177" />
  <path
     class="Lyrics"
     d="m 2286.19,1227.39 -16.09,0.95 v 3.75 h 4.26 c 3.22,0.08 3.66,0.61 3.66,4.35 v 48.47 c -0.09,1.29 -0.19,1.82 -0.53,2.26 -0.61,0.78 -2.27,1.13 -6,1.22 h -0.61 v 3.12 h 22.53 v -3.12 h -0.61 c -5.83,-0.19 -6.61,-0.61 -6.61,-3.75 v -57.25 m 45.1,64.73 15.84,-0.61 v -3.73 h -2.19 c -5.04,-0.19 -5.47,-0.7 -5.47,-6.36 v -30.45 l -16.36,0.95 v 3.75 h 4.44 c 3.3,0.08 3.74,0.61 3.74,4.34 v 10.71 c 0,7.58 -1.83,16.79 -11.39,16.79 -2.71,0 -4.97,-0.95 -6.1,-2.7 -1.12,-1.65 -1.31,-2.51 -1.31,-7.31 v -26.53 l -15.22,0.95 v 3.75 h 3.31 c 3.3,0.08 3.74,0.61 3.74,4.34 v 18.8 c 0,4.44 0.34,6.44 1.65,8.44 2.35,3.56 6.52,5.58 11.75,5.58 5.74,0 9.74,-2.36 13.57,-7.92 v 7.21"
     id="path1179" />
  <path
     class="Lyrics"
     d="m 1927.45,1227.39 -16.1,0.95 v 3.75 h 4.27 c 3.22,0.08 3.65,0.61 3.65,4.35 v 48.47 c -0.09,1.29 -0.18,1.82 -0.53,2.26 -0.61,0.78 -2.26,1.13 -6,1.22 h -0.61 v 3.12 h 22.53 v -3.12 h -0.61 c -5.82,-0.19 -6.6,-0.61 -6.6,-3.75 v -57.25 m 49.7,44.55 c 0.09,-13.05 -7.3,-22.27 -17.92,-22.27 -11.14,0 -19.49,9.66 -19.49,22.7 0,12.27 7.92,20.46 19.66,20.46 8.36,0 14.19,-4.1 17.75,-12.36 l -3.05,-1.66 c -3.56,6.7 -7.22,9.31 -13.05,9.31 -4.43,0 -7.65,-1.82 -9.92,-5.75 -1.56,-2.61 -2.25,-5.65 -2.17,-10.43 h 28.19 m -28.1,-3.74 c 0,-6.09 2.79,-14.79 10.1,-14.79 5.22,0 8.69,4.6 8.69,11.65 0,2.44 -0.79,3.14 -3.57,3.14 h -15.22"
     id="path1181" />
  <path
     class="Lyrics"
     d="m 2639.09,765.91 c -2.78,0 -5.04,2.25 -5.04,5.047 0,2.781 2.26,5.047 4.97,5.047 2.87,0 5.12,-2.266 5.12,-5.047 0,-2.797 -2.25,-5.047 -5.05,-5.047 m 4.1,21.656 -16.36,0.953 v 3.75 h 4.44 c 3.31,0.078 3.75,0.61 3.75,4.344 v 24.891 c -0.1,1.297 -0.18,1.828 -0.53,2.265 -0.61,0.782 -2.27,1.125 -6,1.219 h -0.61 v 3.125 h 22.53 v -3.125 h -0.61 c -5.83,-0.187 -6.61,-0.609 -6.61,-3.75 v -33.672 m 48.4,12.531 c 0,-5.484 -0.95,-8.265 -3.48,-10.359 -2.87,-2.344 -7.12,-3.469 -12.7,-3.469 -9.83,0 -16.97,4.61 -16.97,10.953 0,3.219 2,5.313 5.05,5.313 2.79,0 4.7,-1.828 4.7,-4.438 0,-1.125 -0.44,-2.343 -1.31,-3.562 -0.52,-0.609 -0.6,-0.797 -0.6,-1.219 0,-1.75 3.47,-3.312 7.66,-3.312 2.78,0 5.83,0.875 7.22,2.172 1.64,1.39 2.25,3.484 2.25,7.406 v 3.39 c -9.05,1.563 -11.91,2.266 -16.17,3.907 -7.58,2.797 -11.15,6.797 -11.15,12.359 0,6.266 4.88,10.188 12.61,10.188 6.02,0 11.41,-2.438 15.14,-6.875 1.4,4.437 3.58,6.171 7.66,6.171 3.92,0 8.02,-2.531 8.02,-5.046 0,-0.61 -0.36,-1.047 -0.88,-1.047 -0.34,0 -0.7,0.093 -1.31,0.343 -1.22,0.532 -1.74,0.61 -2.44,0.61 -2.42,0 -3.3,-1.563 -3.3,-6 v -17.485 m -8.18,10.61 c 0,5.219 -0.25,6.437 -1.74,8.703 -2.17,3.219 -6.09,5.391 -9.92,5.391 -4,0 -6.87,-2.86 -6.87,-6.782 0,-3.656 1.82,-6.265 5.65,-8.093 2.71,-1.219 6.1,-2.079 12.88,-3.219 v 4 m 24.42,33.422 c 7.84,-5.407 11.41,-10.703 11.41,-16.797 0,-5.219 -2.88,-8.61 -7.15,-8.61 -3.21,0 -5.65,2.25 -5.65,5.219 0,3.125 2.36,5.125 6.01,5.125 0.43,0 1.04,0 1.3,-0.078 h 0.27 c 0.43,0 0.61,0.25 0.61,0.781 0,3.657 -2.97,7.735 -8.8,11.828 l 2,2.532"
     id="path1183" />
  <path
     class="Lyrics"
     d="m 1111.3,1227.39 -16.1,0.95 v 3.75 h 4.27 c 3.22,0.08 3.65,0.61 3.65,4.35 v 48.47 c -0.09,1.29 -0.18,1.82 -0.53,2.26 -0.61,0.78 -2.26,1.13 -6,1.22 h -0.61 v 3.12 h 22.53 v -3.12 h -0.6 c -5.83,-0.19 -6.61,-0.61 -6.61,-3.75 v -57.25 m 45.09,64.73 15.84,-0.61 v -3.73 h -2.18 c -5.05,-0.19 -5.47,-0.7 -5.47,-6.36 v -30.45 l -16.36,0.95 v 3.75 h 4.44 c 3.29,0.08 3.73,0.61 3.73,4.34 v 10.71 c 0,7.58 -1.83,16.79 -11.39,16.79 -2.7,0 -4.97,-0.95 -6.09,-2.7 -1.13,-1.65 -1.32,-2.51 -1.32,-7.31 v -26.53 l -15.22,0.95 v 3.75 h 3.32 c 3.29,0.08 3.73,0.61 3.73,4.34 v 18.8 c 0,4.44 0.34,6.44 1.66,8.44 2.34,3.56 6.51,5.58 11.75,5.58 5.73,0 9.73,-2.36 13.56,-7.92 v 7.21"
     id="path1185" />
  <path
     class="Lyrics"
     d="m 557.465,1263.5 c 0,-5.49 -0.954,-8.27 -3.485,-10.36 -2.875,-2.34 -7.125,-3.47 -12.703,-3.47 -9.828,0 -16.969,4.61 -16.969,10.95 0,3.22 2,5.32 5.047,5.32 2.797,0 4.703,-1.83 4.703,-4.44 0,-1.13 -0.437,-2.34 -1.312,-3.56 -0.516,-0.61 -0.594,-0.8 -0.594,-1.22 0,-1.75 3.469,-3.31 7.656,-3.31 2.782,0 5.828,0.87 7.219,2.17 1.641,1.39 2.25,3.48 2.25,7.4 v 3.39 c -9.047,1.57 -11.906,2.27 -16.172,3.91 -7.578,2.8 -11.14,6.8 -11.14,12.36 0,6.27 4.875,10.19 12.609,10.19 6.016,0 11.406,-2.44 15.141,-6.88 1.39,4.44 3.578,6.17 7.656,6.17 3.922,0 8.015,-2.53 8.015,-5.04 0,-0.61 -0.359,-1.05 -0.875,-1.05 -0.343,0 -0.703,0.09 -1.312,0.34 -1.219,0.54 -1.734,0.61 -2.438,0.61 -2.421,0 -3.296,-1.56 -3.296,-6 v -17.48 m -8.188,10.61 c 0,5.22 -0.25,6.44 -1.734,8.7 -2.172,3.22 -6.094,5.39 -9.922,5.39 -4,0 -6.875,-2.86 -6.875,-6.78 0,-3.66 1.828,-6.26 5.656,-8.09 2.703,-1.22 6.094,-2.08 12.875,-3.22 v 4 m 34.609,-46.72 -16.093,0.95 v 3.75 h 4.265 c 3.219,0.08 3.657,0.61 3.657,4.35 v 48.47 c -0.094,1.29 -0.188,1.82 -0.532,2.26 -0.609,0.78 -2.265,1.13 -6,1.22 h -0.609 v 3.12 h 22.531 v -3.12 h -0.609 c -5.828,-0.19 -6.61,-0.61 -6.61,-3.75 v -57.25"
     id="path1187" />
  <path
     class="Lyrics"
     d="m 1838.33,800.097 c 0,-5.484 -0.96,-8.265 -3.49,-10.359 -2.87,-2.344 -7.12,-3.469 -12.7,-3.469 -9.83,0 -16.97,4.61 -16.97,10.953 0,3.219 2,5.313 5.05,5.313 2.79,0 4.7,-1.828 4.7,-4.438 0,-1.125 -0.44,-2.343 -1.31,-3.562 -0.52,-0.609 -0.6,-0.797 -0.6,-1.219 0,-1.75 3.47,-3.312 7.66,-3.312 2.78,0 5.83,0.875 7.22,2.172 1.64,1.39 2.25,3.484 2.25,7.406 v 3.39 c -9.05,1.563 -11.91,2.266 -16.17,3.907 -7.58,2.797 -11.14,6.797 -11.14,12.359 0,6.266 4.87,10.188 12.61,10.188 6.01,0 11.4,-2.438 15.14,-6.875 1.39,4.437 3.57,6.171 7.65,6.171 3.92,0 8.02,-2.531 8.02,-5.046 0,-0.61 -0.36,-1.047 -0.88,-1.047 -0.34,0 -0.7,0.093 -1.31,0.343 -1.22,0.532 -1.73,0.61 -2.44,0.61 -2.42,0 -3.29,-1.563 -3.29,-6 v -17.485 m -8.19,10.61 c 0,5.219 -0.25,6.437 -1.74,8.703 -2.17,3.219 -6.09,5.391 -9.92,5.391 -4,0 -6.87,-2.86 -6.87,-6.782 0,-3.656 1.83,-6.265 5.65,-8.093 2.71,-1.219 6.1,-2.079 12.88,-3.219 v 4 m 34.61,-46.719 -16.1,0.953 v 3.75 h 4.27 c 3.22,0.078 3.66,0.61 3.66,4.344 v 48.469 c -0.1,1.297 -0.19,1.828 -0.53,2.265 -0.61,0.782 -2.27,1.125 -6,1.219 h -0.61 v 3.125 h 22.53 v -3.125 h -0.61 c -5.83,-0.187 -6.61,-0.609 -6.61,-3.75 v -57.25"
     id="path1189" />
  <polyline
     class="LyricsLineSegment"
     fill="none"
     stroke="#000000"
     stroke-width="3.64"
     stroke-linejoin="bevel"
     points="2520.6,803.787 2549.69,803.787"
     id="polyline1191" />
  <polyline
     class="LyricsLineSegment"
     fill="none"
     stroke="#000000"
     stroke-width="3.64"
     stroke-linejoin="bevel"
     points="923.534,803.787 952.622,803.787"
     id="polyline1193" />
  <polyline
     class="LyricsLineSegment"
     fill="none"
     stroke="#000000"
     stroke-width="3.64"
     stroke-linejoin="bevel"
     points="1936.25,803.787 1965.34,803.787"
     id="polyline1195" />
  <polyline
     class="LyricsLineSegment"
     fill="none"
     stroke="#000000"
     stroke-width="3.64"
     stroke-linejoin="bevel"
     points="2216.77,803.787 2245.86,803.787"
     id="polyline1197" />
  <polyline
     class="LyricsLineSegment"
     fill="none"
     stroke="#000000"
     stroke-width="3.64"
     stroke-linejoin="bevel"
     points="1457.16,803.787 1486.24,803.787"
     id="polyline1199" />
  <polyline
     class="LyricsLineSegment"
     fill="none"
     stroke="#000000"
     stroke-width="3.64"
     stroke-linejoin="bevel"
     points="1176.08,803.787 1205.17,803.787"
     id="polyline1201" />
  <polyline
     class="LyricsLineSegment"
     fill="none"
     stroke="#000000"
     stroke-width="3.64"
     stroke-linejoin="bevel"
     points="1801.25,1267.19 1830.34,1267.19"
     id="polyline1203" />
  <polyline
     class="LyricsLineSegment"
     fill="none"
     stroke="#000000"
     stroke-width="3.64"
     stroke-linejoin="bevel"
     points="2109.02,1267.19 2138.11,1267.19"
     id="polyline1205" />
  <polyline
     class="LyricsLineSegment"
     fill="none"
     stroke="#000000"
     stroke-width="3.64"
     stroke-linejoin="bevel"
     points="671.492,1267.19 700.58,1267.19"
     id="polyline1207" />
  <polyline
     class="LyricsLineSegment"
     fill="none"
     stroke="#000000"
     stroke-width="3.64"
     stroke-linejoin="bevel"
     points="956.696,1267.19 985.784,1267.19"
     id="polyline1209" />
  <polyline
     class="LyricsLineSegment"
     fill="none"
     stroke="#000000"
     stroke-width="3.64"
     stroke-linejoin="bevel"
     points="2443.34,1267.19 2472.43,1267.19"
     id="polyline1211" />
  <polyline
     class="LyricsLineSegment"
     fill="none"
     stroke="#000000"
     stroke-width="3.64"
     stroke-linejoin="bevel"
     points="1265.03,1267.19 1294.12,1267.19"
     id="polyline1213" />
  <path
     class="NoteDot"
     d="m 2095.02,593.261 c 0,4.06778 3.2042,7.272 7.272,7.272 4.0678,0 7.272,-3.20422 7.272,-7.272 0,-4.06778 -3.2042,-7.272 -7.272,-7.272 -4.0678,0 -7.272,3.20422 -7.272,7.272"
     id="path1215"
     style="stroke-width:1.4544" />
  <path
     class="NoteDot"
     d="m 1976.12,1054.98 c 0,4.0678 3.2042,7.272 7.272,7.272 4.0678,0 7.272,-3.2042 7.272,-7.272 0,-4.0678 -3.2042,-7.272 -7.272,-7.272 -4.0678,0 -7.272,3.2042 -7.272,7.272"
     id="path1217"
     style="stroke-width:1.4544" />
  <path
     class="NoteDot"
     d="m 1159.97,1054.98 c 0,4.0678 3.2042,7.272 7.272,7.272 4.0678,0 7.272,-3.2042 7.272,-7.272 0,-4.0678 -3.2042,-7.272 -7.272,-7.272 -4.0678,0 -7.272,3.2042 -7.272,7.272"
     id="path1219"
     style="stroke-width:1.4544" />
  <path
     class="NoteDot"
     d="m 2646.63,1091.34 c 0,4.0678 3.2042,7.272 7.272,7.272 4.0678,0 7.272,-3.2042 7.272,-7.272 0,-4.0678 -3.2042,-7.272 -7.272,-7.272 -4.0678,0 -7.272,3.2042 -7.272,7.272"
     id="path1221"
     style="stroke-width:1.4544" />
  <path
     class="NoteDot"
     d="m 1464.91,1054.98 c 0,4.0678 3.2042,7.272 7.272,7.272 4.0678,0 7.272,-3.2042 7.272,-7.272 0,-4.0678 -3.2042,-7.272 -7.272,-7.272 -4.0678,0 -7.272,3.2042 -7.272,7.272"
     id="path1223"
     style="stroke-width:1.4544" />
  <path
     class="NoteDot"
     d="m 1368.63,593.261 c 0,4.06778 3.2042,7.272 7.272,7.272 4.0678,0 7.272,-3.20422 7.272,-7.272 0,-4.06778 -3.2042,-7.272 -7.272,-7.272 -4.0678,0 -7.272,3.20422 -7.272,7.272"
     id="path1225"
     style="stroke-width:1.4544" />
  <path
     class="NoteDot"
     d="m 1640.5,593.261 c 0,4.06778 3.2042,7.272 7.272,7.272 4.0678,0 7.272,-3.20422 7.272,-7.272 0,-4.06778 -3.2042,-7.272 -7.272,-7.272 -4.0678,0 -7.272,3.20422 -7.272,7.272"
     id="path1227"
     style="stroke-width:1.4544" />
  <path
     class="NoteDot"
     d="m 2704.57,665.981 c 0,4.06778 3.2042,7.272 7.272,7.272 4.0678,0 7.272,-3.20422 7.272,-7.272 0,-4.06778 -3.2042,-7.272 -7.272,-7.272 -4.0678,0 -7.272,3.20422 -7.272,7.272"
     id="path1229"
     style="stroke-width:1.4544" />
</svg>
