<?xml version="1.0" encoding="UTF-8" standalone="no"?>
<svg
   width="210.058mm"
   height="87.635689mm"
   viewBox="0 0 2977.2 1242.0807"
   version="1.2"
   id="svg175"
   sodipodi:docname="la_lu_la_lej.svg"
   inkscape:version="1.4.2 (2aeb623e1d, 2025-05-12)"
   xmlns:inkscape="http://www.inkscape.org/namespaces/inkscape"
   xmlns:sodipodi="http://sodipodi.sourceforge.net/DTD/sodipodi-0.dtd"
   xmlns="http://www.w3.org/2000/svg"
   xmlns:svg="http://www.w3.org/2000/svg">
  <defs
     id="defs175" />
  <sodipodi:namedview
     id="namedview175"
     pagecolor="#ffffff"
     bordercolor="#000000"
     borderopacity="0.25"
     inkscape:showpageshadow="2"
     inkscape:pageopacity="0.0"
     inkscape:pagecheckerboard="0"
     inkscape:deskcolor="#d1d1d1"
     inkscape:document-units="mm"
     inkscape:zoom="0.71553323"
     inkscape:cx="397.60557"
     inkscape:cy="524.78345"
     inkscape:window-width="1920"
     inkscape:window-height="1011"
     inkscape:window-x="0"
     inkscape:window-y="0"
     inkscape:window-maximized="1"
     inkscape:current-layer="svg175" />
  <title
     id="title1">La lů la lej</title>
  <desc
     id="desc1">Generated by MuseScore Studio 4.6.3</desc>
  <polyline
     class="StaffLines"
     fill="none"
     stroke="#000000"
     stroke-width="4"
     stroke-linejoin="bevel"
     points="340.2,499.438 2818.8,499.438"
     id="polyline1"
     transform="translate(0,-136.26202)" />
  <polyline
     class="StaffLines"
     fill="none"
     stroke="#000000"
     stroke-width="4"
     stroke-linejoin="bevel"
     points="340.2,535.798 2818.8,535.798"
     id="polyline2"
     transform="translate(0,-136.26202)" />
  <polyline
     class="StaffLines"
     fill="none"
     stroke="#000000"
     stroke-width="4"
     stroke-linejoin="bevel"
     points="340.2,572.158 2818.8,572.158"
     id="polyline3"
     transform="translate(0,-136.26202)" />
  <polyline
     class="StaffLines"
     fill="none"
     stroke="#000000"
     stroke-width="4"
     stroke-linejoin="bevel"
     points="340.2,608.518 2818.8,608.518"
     id="polyline4"
     transform="translate(0,-136.26202)" />
  <polyline
     class="StaffLines"
     fill="none"
     stroke="#000000"
     stroke-width="4"
     stroke-linejoin="bevel"
     points="340.2,644.878 2818.8,644.878"
     id="polyline5"
     transform="translate(0,-136.26202)" />
  <polyline
     class="StaffLines"
     fill="none"
     stroke="#000000"
     stroke-width="4"
     stroke-linejoin="bevel"
     points="158.4,964.44 2818.8,964.44"
     id="polyline6"
     transform="translate(0,-136.26202)" />
  <polyline
     class="StaffLines"
     fill="none"
     stroke="#000000"
     stroke-width="4"
     stroke-linejoin="bevel"
     points="158.4,1000.8 2818.8,1000.8"
     id="polyline7"
     transform="translate(0,-136.26202)" />
  <polyline
     class="StaffLines"
     fill="none"
     stroke="#000000"
     stroke-width="4"
     stroke-linejoin="bevel"
     points="158.4,1037.16 2818.8,1037.16"
     id="polyline8"
     transform="translate(0,-136.26202)" />
  <polyline
     class="StaffLines"
     fill="none"
     stroke="#000000"
     stroke-width="4"
     stroke-linejoin="bevel"
     points="158.4,1073.52 2818.8,1073.52"
     id="polyline9"
     transform="translate(0,-136.26202)" />
  <polyline
     class="StaffLines"
     fill="none"
     stroke="#000000"
     stroke-width="4"
     stroke-linejoin="bevel"
     points="158.4,1109.88 2818.8,1109.88"
     id="polyline10"
     transform="translate(0,-136.26202)" />
  <path
     class="Text"
     d="m 1289.65,128.19598 h -4.84 c -3.63,19.797 -8.58,24.64 -25.63,24.969 h -4.62 c -6.6,-0.219 -8.25,-1.313 -7.93,-5.282 V 92.445982 c 0,-5.5 0,-5.828 0.66,-6.813 0.89,-1.109 2.99,-1.437 9.25,-1.547 h 1.99 v -5.171 h -36.1 v 5.171 h 1.99 c 6.26,0.11 8.36,0.438 9.23,1.547 0.67,0.985 0.67,1.203 0.67,6.813 v 52.358998 c 0,5.61 0,5.828 -0.67,6.828 -0.87,1.094 -2.97,1.532 -9.23,1.532 h -1.99 v 5.171 h 64.91 l 2.31,-30.14 m 51.66,-5.281 c 0,-6.922 -1.21,-10.454 -4.41,-13.094 -3.62,-2.969 -9.02,-4.391 -16.05,-4.391 -12.43,0 -21.45,5.828 -21.45,13.86 0,4.062 2.53,6.703 6.38,6.703 3.51,0 5.93,-2.313 5.93,-5.61 0,-1.422 -0.54,-2.968 -1.64,-4.5 -0.67,-0.781 -0.78,-1 -0.78,-1.547 0,-2.203 4.41,-4.187 9.69,-4.187 3.51,0 7.37,1.109 9.12,2.75 2.1,1.766 2.86,4.406 2.86,9.359 v 4.282 c -11.43,1.984 -15.06,2.859 -20.45,4.953 -9.58,3.531 -14.08,8.578 -14.08,15.625 0,7.922 6.16,12.875 15.95,12.875 7.58,0 14.41,-3.094 19.15,-8.703 1.75,5.609 4.5,7.812 9.67,7.812 4.95,0 10.12,-3.187 10.12,-6.375 0,-0.766 -0.44,-1.328 -1.11,-1.328 -0.43,0 -0.87,0.125 -1.64,0.453 -1.54,0.656 -2.2,0.766 -3.08,0.766 -3.09,0 -4.18,-1.985 -4.18,-7.594 v -22.109 m -10.35,13.421 c 0,6.594 -0.33,8.141 -2.18,11 -2.75,4.063 -7.71,6.813 -12.55,6.813 -5.06,0 -8.69,-3.625 -8.69,-8.578 0,-4.61 2.31,-7.922 7.14,-10.219 3.42,-1.547 7.7,-2.641 16.28,-4.078 v 5.062 m 75.07,-59.077998 -20.35,1.219 v 4.734 h 5.39 c 4.06,0.11 4.61,0.766 4.61,5.5 v 61.265998 c -0.11,1.656 -0.22,2.313 -0.65,2.859 -0.77,0.985 -2.86,1.438 -7.6,1.547 h -0.76 v 3.953 h 28.48 v -3.953 h -0.77 c -7.35,-0.234 -8.35,-0.781 -8.35,-4.734 V 77.257982 m 46.21,0.891 c -6.04,0 -11,4.953 -11,11 0,5.937 4.96,10.890998 10.79,10.890998 6.26,0 11.1,-4.843998 11.1,-10.999998 0,-5.938 -4.95,-10.891 -10.89,-10.891 m -0.11,3.953 c 3.97,0 7.05,3.078 7.05,6.938 0,3.953 -3.08,7.031 -7.05,7.031 -3.84,0 -6.92,-3.188 -6.92,-7.031 0,-3.86 3.08,-6.938 6.92,-6.938 m 11.77,76.999998 20.03,-0.766 v -4.734 h -2.75 c -6.39,-0.219 -6.94,-0.875 -6.94,-8.031 v -38.5 l -20.67,1.219 v 4.734 h 5.61 c 4.17,0.109 4.72,0.766 4.72,5.5 v 13.516 c 0,9.578 -2.3,21.234 -14.41,21.234 -3.4,0 -6.26,-1.203 -7.7,-3.406 -1.42,-2.094 -1.64,-3.188 -1.64,-9.235 v -33.562 l -19.25,1.219 v 4.734 h 4.17 c 4.19,0.109 4.74,0.766 4.74,5.5 v 23.75 c 0,5.609 0.43,8.141 2.09,10.672 2.97,4.515 8.25,7.047 14.84,7.047 7.27,0 12.33,-2.969 17.16,-10.016 v 9.125 m 75.13,-81.843998 -20.35,1.219 v 4.734 h 5.39 c 4.06,0.11 4.61,0.766 4.61,5.5 v 61.265998 c -0.11,1.656 -0.22,2.313 -0.65,2.859 -0.77,0.985 -2.86,1.438 -7.6,1.547 h -0.76 v 3.953 h 28.48 v -3.953 h -0.77 c -7.35,-0.234 -8.35,-0.781 -8.35,-4.734 V 77.257982 m 62.28,45.656998 c 0,-6.922 -1.21,-10.454 -4.41,-13.094 -3.62,-2.969 -9.02,-4.391 -16.05,-4.391 -12.43,0 -21.45,5.828 -21.45,13.86 0,4.062 2.53,6.703 6.38,6.703 3.51,0 5.93,-2.313 5.93,-5.61 0,-1.422 -0.54,-2.968 -1.64,-4.5 -0.67,-0.781 -0.78,-1 -0.78,-1.547 0,-2.203 4.41,-4.187 9.69,-4.187 3.51,0 7.37,1.109 9.12,2.75 2.1,1.766 2.86,4.406 2.86,9.359 v 4.282 c -11.43,1.984 -15.06,2.859 -20.45,4.953 -9.58,3.531 -14.08,8.578 -14.08,15.625 0,7.922 6.16,12.875 15.95,12.875 7.58,0 14.41,-3.094 19.15,-8.703 1.75,5.609 4.5,7.812 9.67,7.812 4.95,0 10.12,-3.187 10.12,-6.375 0,-0.766 -0.44,-1.328 -1.11,-1.328 -0.43,0 -0.87,0.125 -1.64,0.453 -1.54,0.656 -2.2,0.766 -3.08,0.766 -3.09,0 -4.18,-1.985 -4.18,-7.594 v -22.109 m -10.35,13.421 c 0,6.594 -0.33,8.141 -2.18,11 -2.75,4.063 -7.71,6.813 -12.55,6.813 -5.06,0 -8.69,-3.625 -8.69,-8.578 0,-4.61 2.31,-7.922 7.14,-10.219 3.42,-1.547 7.7,-2.641 16.28,-4.078 v 5.062 m 75.07,-59.077998 -20.35,1.219 v 4.734 h 5.39 c 4.06,0.11 4.61,0.766 4.61,5.5 v 61.265998 c -0.11,1.656 -0.22,2.313 -0.65,2.859 -0.77,0.985 -2.86,1.438 -7.6,1.547 h -0.76 v 3.953 h 28.48 v -3.953 h -0.77 c -7.35,-0.234 -8.35,-0.781 -8.35,-4.734 V 77.257982 m 63.71,56.327998 c 0.11,-16.5 -9.25,-28.156 -22.67,-28.156 -14.08,0 -24.64,12.203 -24.64,28.703 0,15.516 10.02,25.86 24.86,25.86 10.56,0 17.94,-5.172 22.45,-15.625 l -3.86,-2.094 c -4.5,8.469 -9.12,11.766 -16.5,11.766 -5.6,0 -9.67,-2.297 -12.53,-7.25 -1.98,-3.297 -2.86,-7.157 -2.75,-13.204 h 35.64 m -35.53,-4.734 c 0,-7.703 3.52,-18.703 12.75,-18.703 6.61,0 11,5.844 11,14.75 0,3.078 -0.98,3.953 -4.5,3.953 h -19.25 m 54.97,-49.171998 c -3.51,0 -6.37,2.86 -6.37,6.391 0,3.515 2.86,6.375 6.26,6.375 3.64,0 6.5,-2.86 6.5,-6.375 0,-3.531 -2.86,-6.391 -6.39,-6.391 m 5.17,27.390998 -21.45,1.219 v 4.734 h 6.39 c 4.17,0.109 4.74,0.766 4.74,5.5 v 37.281 c 0,8.906 -0.57,13.094 -2.1,16.281 -1.11,2.204 -3.64,3.844 -6.05,3.844 -1.54,0 -2.75,-0.656 -2.75,-1.422 0,-0.437 0.11,-0.656 0.55,-1.765 0.55,-1.094 0.77,-1.86 0.77,-2.641 0,-2.75 -2.64,-5.172 -5.72,-5.172 -3.52,0 -6.16,2.75 -6.16,6.61 0,5.39 4.96,9.015 12.31,9.015 6.16,0 11.77,-2.64 14.97,-7.156 3.41,-4.828 4.5,-10.438 4.5,-22.875 v -43.453"
     id="path10" />
  <polyline
     class="BarLine"
     fill="none"
     stroke="#000000"
     stroke-width="6.54"
     stroke-linejoin="bevel"
     points="774.204,962.44 774.204,1111.88"
     id="polyline11"
     transform="translate(0,-136.26202)" />
  <polyline
     class="BarLine"
     fill="none"
     stroke="#000000"
     stroke-width="6.54"
     stroke-linejoin="bevel"
     points="1509.85,497.438 1509.85,646.878"
     id="polyline12"
     transform="translate(0,-136.26202)" />
  <polyline
     class="BarLine"
     fill="none"
     stroke="#000000"
     stroke-width="6.54"
     stroke-linejoin="bevel"
     points="887.532,497.438 887.532,646.878"
     id="polyline13"
     transform="translate(0,-136.26202)" />
  <polyline
     class="BarLine"
     fill="none"
     stroke="#000000"
     stroke-width="6.54"
     stroke-linejoin="bevel"
     points="2782.08,962.44 2782.08,1111.88"
     id="polyline14"
     transform="translate(0,-136.26202)" />
  <polyline
     class="BarLine"
     fill="none"
     stroke="#000000"
     stroke-width="20"
     stroke-linejoin="bevel"
     points="2808.8,962.44 2808.8,1111.88"
     id="polyline15"
     transform="translate(0,-136.26202)" />
  <polyline
     class="BarLine"
     fill="none"
     stroke="#000000"
     stroke-width="6.54"
     stroke-linejoin="bevel"
     points="2485.79,962.44 2485.79,1111.88"
     id="polyline16"
     transform="translate(0,-136.26202)" />
  <polyline
     class="BarLine"
     fill="none"
     stroke="#000000"
     stroke-width="6.54"
     stroke-linejoin="bevel"
     points="1957.05,962.44 1957.05,1111.88"
     id="polyline17"
     transform="translate(0,-136.26202)" />
  <polyline
     class="BarLine"
     fill="none"
     stroke="#000000"
     stroke-width="6.54"
     stroke-linejoin="bevel"
     points="1311,962.44 1311,1111.88"
     id="polyline18"
     transform="translate(0,-136.26202)" />
  <polyline
     class="BarLine"
     fill="none"
     stroke="#000000"
     stroke-width="6.54"
     stroke-linejoin="bevel"
     points="2815.53,497.438 2815.53,646.878"
     id="polyline19"
     transform="translate(0,-136.26202)" />
  <polyline
     class="BarLine"
     fill="none"
     stroke="#000000"
     stroke-width="6.54"
     stroke-linejoin="bevel"
     points="2206.4,497.438 2206.4,646.878"
     id="polyline20"
     transform="translate(0,-136.26202)" />
  <path
     class="SlurSegment"
     stroke="#000000"
     stroke-width="1.82"
     stroke-linecap="round"
     stroke-linejoin="round"
     fill-rule="evenodd"
     d="m 846.549,849.99398 c 20.672,-28.421 56.903,-25.33 72.462,6.181 -16.301,-22.816 -52.532,-25.907 -72.462,-6.181"
     id="path20" />
  <path
     class="SlurSegment"
     stroke="#000000"
     stroke-width="1.82"
     stroke-linecap="round"
     stroke-linejoin="round"
     fill-rule="evenodd"
     d="m 1233.66,516.97898 c 20.95,25.46 66.12,28.551 90.34,6.181 -24.87,31.788 -70.04,28.697 -90.34,-6.181"
     id="path21" />
  <path
     class="SlurSegment"
     stroke="#000000"
     stroke-width="1.82"
     stroke-linecap="round"
     stroke-linejoin="round"
     fill-rule="evenodd"
     d="m 2278.74,541.33998 c 27.36,19.171 72.54,10.081 90.35,-18.18 -15.94,37.578 -61.11,46.668 -90.35,18.18"
     id="path22" />
  <path
     class="SlurSegment"
     stroke="#000000"
     stroke-width="1.82"
     stroke-linecap="round"
     stroke-linejoin="round"
     fill-rule="evenodd"
     d="m 2259.41,988.15798 c 7.97,29.31002 44.2,47.49002 72.46,36.36002 -32.32,19.23 -68.55,1.05 -72.46,-36.36002"
     id="path23" />
  <path
     class="SlurSegment"
     stroke="#000000"
     stroke-width="1.82"
     stroke-linecap="round"
     stroke-linejoin="round"
     fill-rule="evenodd"
     d="m 959.877,541.33998 c 13.291,32.186 58.463,50.366 90.343,36.36 -35.51,23.017 -80.679,4.837 -90.343,-36.36"
     id="path24" />
  <path
     class="SlurSegment"
     stroke="#000000"
     stroke-width="1.82"
     stroke-linecap="round"
     stroke-linejoin="round"
     fill-rule="evenodd"
     d="m 2553.38,486.79998 c 13.29,32.186 58.46,50.366 90.34,36.36 -35.5,23.017 -80.68,4.837 -90.34,-36.36"
     id="path25" />
  <path
     class="SlurSegment"
     stroke="#000000"
     stroke-width="1.82"
     stroke-linecap="round"
     stroke-linejoin="round"
     fill-rule="evenodd"
     d="m 2029.39,1006.338 c 7.97,29.31 44.21,47.49 72.46,36.36 -32.32,19.23 -68.55,1.05 -72.46,-36.36"
     id="path26" />
  <path
     class="SlurSegment"
     stroke="#000000"
     stroke-width="1.82"
     stroke-linecap="round"
     stroke-linejoin="round"
     fill-rule="evenodd"
     d="m 1069.19,981.97798 c 16.3,22.82002 52.53,25.91002 72.46,6.18 -20.67,28.42002 -56.9,25.33002 -72.46,-6.18"
     id="path27" />
  <path
     class="TieSegment"
     stroke="#000000"
     stroke-width="1.82"
     stroke-linecap="round"
     stroke-linejoin="round"
     fill-rule="evenodd"
     d="m 2560.47,1036.658 c 23.01,21.74 92.01,21.74 115.01,0 -23,32.16 -92,32.16 -115.01,0"
     id="path28" />
  <path
     class="TieSegment"
     stroke="#000000"
     stroke-width="1.82"
     stroke-linecap="round"
     stroke-linejoin="round"
     fill-rule="evenodd"
     d="m 537.38,874.21798 c 18.926,-31.325 75.703,-31.325 94.629,0 -18.926,-21.722 -75.703,-21.722 -94.629,0"
     id="path29" />
  <path
     class="Accidental"
     d="m 2499.8778,468.18821 v -23.86126 l 16.8847,-4.79497 v 23.9976 l -16.8847,4.65863 m 20.0662,-40.72324 c -0.2727,-0.29539 -0.7272,-0.43181 -1.159,-0.43181 -0.1364,0 -0.4318,0.13642 -0.5681,0.13642 l -18.3391,5.0904 v -25.452 h -4.0678 v 71.9928 c 0,1.15901 0.8636,1.88621 2.0453,1.88621 h 0.5681 l 18.3391,-5.0904 v 25.452 h 3.9087 v -71.9928 c 0,-0.56823 -0.2727,-1.29543 -0.7272,-1.59082"
     id="path30"
     style="stroke-width:1.4544" />
  <polyline
     class="LedgerLine"
     fill="none"
     stroke="#000000"
     stroke-width="5.82"
     stroke-linejoin="bevel"
     points="2368.71,1146.24 2439.95,1146.24"
     id="polyline30"
     transform="translate(0,-136.26202)" />
  <polyline
     class="LedgerLine"
     fill="none"
     stroke="#000000"
     stroke-width="5.82"
     stroke-linejoin="bevel"
     points="1927.03,681.238 1998.27,681.238"
     id="polyline31"
     transform="translate(0,-136.26202)" />
  <polyline
     class="LedgerLine"
     fill="none"
     stroke="#000000"
     stroke-width="5.82"
     stroke-linejoin="bevel"
     points="1675.18,1146.24 1746.42,1146.24"
     id="polyline32"
     transform="translate(0,-136.26202)" />
  <polyline
     class="LedgerLine"
     fill="none"
     stroke="#000000"
     stroke-width="5.82"
     stroke-linejoin="bevel"
     points="1014.6,681.238 1085.84,681.238"
     id="polyline33"
     transform="translate(0,-136.26202)" />
  <polyline
     class="LedgerLine"
     fill="none"
     stroke="#000000"
     stroke-width="5.82"
     stroke-linejoin="bevel"
     points="2066.23,1146.24 2137.48,1146.24"
     id="polyline34"
     transform="translate(0,-136.26202)" />
  <polyline
     class="LedgerLine"
     fill="none"
     stroke="#000000"
     stroke-width="5.82"
     stroke-linejoin="bevel"
     points="2522.51,1146.24 2593.76,1146.24"
     id="polyline35"
     transform="translate(0,-136.26202)" />
  <polyline
     class="LedgerLine"
     fill="none"
     stroke="#000000"
     stroke-width="5.82"
     stroke-linejoin="bevel"
     points="2644.79,1146.24 2716.04,1146.24"
     id="polyline36"
     transform="translate(0,-136.26202)" />
  <polyline
     class="Stem"
     fill="none"
     stroke="#000000"
     stroke-width="3.64"
     stroke-linejoin="bevel"
     points="1984.48,693.601 1984.48,572.158"
     id="polyline37"
     transform="translate(0,-136.26202)" />
  <polyline
     class="Stem"
     fill="none"
     stroke="#000000"
     stroke-width="3.64"
     stroke-linejoin="bevel"
     points="2123.68,1140.42 2123.68,1000.8"
     id="polyline38"
     transform="translate(0,-136.26202)" />
  <polyline
     class="Stem"
     fill="none"
     stroke="#000000"
     stroke-width="3.64"
     stroke-linejoin="bevel"
     points="2051.22,1104.06 2051.22,1000.8"
     id="polyline39"
     transform="translate(0,-136.26202)" />
  <polyline
     class="Stem"
     fill="none"
     stroke="#000000"
     stroke-width="3.64"
     stroke-linejoin="bevel"
     points="2665.55,620.881 2665.55,490.348"
     id="polyline40"
     transform="translate(0,-136.26202)" />
  <polyline
     class="Stem"
     fill="none"
     stroke="#000000"
     stroke-width="3.64"
     stroke-linejoin="bevel"
     points="807.699,639.061 807.699,517.909"
     id="polyline41"
     transform="translate(0,-136.26202)" />
  <polyline
     class="Stem"
     fill="none"
     stroke="#000000"
     stroke-width="3.64"
     stroke-linejoin="bevel"
     points="969.669,1025.09 969.669,1137.15"
     id="polyline42"
     transform="translate(0,-136.26202)" />
  <polyline
     class="Stem"
     fill="none"
     stroke="#000000"
     stroke-width="3.64"
     stroke-linejoin="bevel"
     points="981.704,639.061 981.704,535.798"
     id="polyline43"
     transform="translate(0,-136.26202)" />
  <polyline
     class="Stem"
     fill="none"
     stroke="#000000"
     stroke-width="3.64"
     stroke-linejoin="bevel"
     points="1592.53,1122.24 1592.53,964.44"
     id="polyline44"
     transform="translate(0,-136.26202)" />
  <polyline
     class="Stem"
     fill="none"
     stroke="#000000"
     stroke-width="3.64"
     stroke-linejoin="bevel"
     points="2481.26,602.701 2481.26,499.528"
     id="polyline45"
     transform="translate(0,-136.26202)" />
  <polyline
     class="Stem"
     fill="none"
     stroke="#000000"
     stroke-width="3.64"
     stroke-linejoin="bevel"
     points="1072.05,675.421 1072.05,535.798"
     id="polyline46"
     transform="translate(0,-136.26202)" />
  <polyline
     class="Stem"
     fill="none"
     stroke="#000000"
     stroke-width="3.64"
     stroke-linejoin="bevel"
     points="2300.57,639.061 2300.57,508.438"
     id="polyline47"
     transform="translate(0,-136.26202)" />
  <polyline
     class="Stem"
     fill="none"
     stroke="#000000"
     stroke-width="3.64"
     stroke-linejoin="bevel"
     points="1162.39,639.061 1162.39,535.798"
     id="polyline48"
     transform="translate(0,-136.26202)" />
  <polyline
     class="Stem"
     fill="none"
     stroke="#000000"
     stroke-width="3.64"
     stroke-linejoin="bevel"
     points="2126.57,657.241 2126.57,536.089"
     id="polyline49"
     transform="translate(0,-136.26202)" />
  <polyline
     class="Stem"
     fill="none"
     stroke="#000000"
     stroke-width="3.64"
     stroke-linejoin="bevel"
     points="1877.21,1122.24 1877.21,1001.09"
     id="polyline50"
     transform="translate(0,-136.26202)" />
  <polyline
     class="Stem"
     fill="none"
     stroke="#000000"
     stroke-width="3.64"
     stroke-linejoin="bevel"
     points="1255.48,602.701 1255.48,499.438"
     id="polyline51"
     transform="translate(0,-136.26202)" />
  <polyline
     class="Stem"
     fill="none"
     stroke="#000000"
     stroke-width="3.64"
     stroke-linejoin="bevel"
     points="1251.37,1104.06 1251.37,973.429"
     id="polyline52"
     transform="translate(0,-136.26202)" />
  <polyline
     class="Stem"
     fill="none"
     stroke="#000000"
     stroke-width="3.64"
     stroke-linejoin="bevel"
     points="509.092,1043.27 509.092,1146.24"
     id="polyline53"
     transform="translate(0,-136.26202)" />
  <polyline
     class="Stem"
     fill="none"
     stroke="#000000"
     stroke-width="3.64"
     stroke-linejoin="bevel"
     points="1345.83,620.881 1345.83,499.438"
     id="polyline54"
     transform="translate(0,-136.26202)" />
  <polyline
     class="Stem"
     fill="none"
     stroke="#000000"
     stroke-width="3.64"
     stroke-linejoin="bevel"
     points="1474.35,1067.7 1474.35,964.44"
     id="polyline55"
     transform="translate(0,-136.26202)" />
  <polyline
     class="Stem"
     fill="none"
     stroke="#000000"
     stroke-width="3.64"
     stroke-linejoin="bevel"
     points="1450.22,602.701 1450.22,499.438"
     id="polyline56"
     transform="translate(0,-136.26202)" />
  <polyline
     class="Stem"
     fill="none"
     stroke="#000000"
     stroke-width="3.64"
     stroke-linejoin="bevel"
     points="824.744,1025.09 824.744,1137.15"
     id="polyline57"
     transform="translate(0,-136.26202)" />
  <polyline
     class="Stem"
     fill="none"
     stroke="#000000"
     stroke-width="3.64"
     stroke-linejoin="bevel"
     points="2575.21,584.521 2575.21,490.348"
     id="polyline58"
     transform="translate(0,-136.26202)" />
  <polyline
     class="Stem"
     fill="none"
     stroke="#000000"
     stroke-width="3.64"
     stroke-linejoin="bevel"
     points="1604.03,620.881 1604.03,508.528"
     id="polyline59"
     transform="translate(0,-136.26202)" />
  <polyline
     class="Stem"
     fill="none"
     stroke="#000000"
     stroke-width="3.64"
     stroke-linejoin="bevel"
     points="1405.17,1085.88 1405.17,964.44"
     id="polyline60"
     transform="translate(0,-136.26202)" />
  <polyline
     class="Stem"
     fill="none"
     stroke="#000000"
     stroke-width="3.64"
     stroke-linejoin="bevel"
     points="2755.9,584.521 2755.9,490.348"
     id="polyline61"
     transform="translate(0,-136.26202)" />
  <polyline
     class="Stem"
     fill="none"
     stroke="#000000"
     stroke-width="3.64"
     stroke-linejoin="bevel"
     points="670.964,1043.27 670.964,1137.15"
     id="polyline62"
     transform="translate(0,-136.26202)" />
  <polyline
     class="Stem"
     fill="none"
     stroke="#000000"
     stroke-width="3.64"
     stroke-linejoin="bevel"
     points="1731.71,639.061 1731.71,508.528"
     id="polyline63"
     transform="translate(0,-136.26202)" />
  <polyline
     class="Stem"
     fill="none"
     stroke="#000000"
     stroke-width="3.64"
     stroke-linejoin="bevel"
     points="897.207,1043.27 897.207,1137.15"
     id="polyline64"
     transform="translate(0,-136.26202)" />
  <polyline
     class="Stem"
     fill="none"
     stroke="#000000"
     stroke-width="3.64"
     stroke-linejoin="bevel"
     points="1869.89,620.881 1869.89,508.528"
     id="polyline65"
     transform="translate(0,-136.26202)" />
  <polyline
     class="Stem"
     fill="none"
     stroke="#000000"
     stroke-width="3.64"
     stroke-linejoin="bevel"
     points="1091.01,1067.7 1091.01,964.541"
     id="polyline66"
     transform="translate(0,-136.26202)" />
  <polyline
     class="Stem"
     fill="none"
     stroke="#000000"
     stroke-width="3.64"
     stroke-linejoin="bevel"
     points="1732.62,1158.6 1732.62,1037.16"
     id="polyline67"
     transform="translate(0,-136.26202)" />
  <polyline
     class="Stem"
     fill="none"
     stroke="#000000"
     stroke-width="3.64"
     stroke-linejoin="bevel"
     points="2196.14,1104.06 2196.14,1000.8"
     id="polyline68"
     transform="translate(0,-136.26202)" />
  <polyline
     class="Stem"
     fill="none"
     stroke="#000000"
     stroke-width="3.64"
     stroke-linejoin="bevel"
     points="610.993,1043.27 610.993,1137.15"
     id="polyline69"
     transform="translate(0,-136.26202)" />
  <polyline
     class="Stem"
     fill="none"
     stroke="#000000"
     stroke-width="3.64"
     stroke-linejoin="bevel"
     points="2281.23,1085.88 2281.23,991.932"
     id="polyline70"
     transform="translate(0,-136.26202)" />
  <polyline
     class="Stem"
     fill="none"
     stroke="#000000"
     stroke-width="3.64"
     stroke-linejoin="bevel"
     points="2353.7,1122.24 2353.7,1000.8"
     id="polyline71"
     transform="translate(0,-136.26202)" />
  <polyline
     class="Stem"
     fill="none"
     stroke="#000000"
     stroke-width="3.64"
     stroke-linejoin="bevel"
     points="2426.16,1158.6 2426.16,1009.67"
     id="polyline72"
     transform="translate(0,-136.26202)" />
  <polyline
     class="Stem"
     fill="none"
     stroke="#000000"
     stroke-width="3.64"
     stroke-linejoin="bevel"
     points="1163.48,1085.88 1163.48,968.557"
     id="polyline73"
     transform="translate(0,-136.26202)" />
  <polyline
     class="Stem"
     fill="none"
     stroke="#000000"
     stroke-width="3.64"
     stroke-linejoin="bevel"
     points="2390.92,620.881 2390.92,503.983"
     id="polyline74"
     transform="translate(0,-136.26202)" />
  <polyline
     class="Stem"
     fill="none"
     stroke="#000000"
     stroke-width="3.64"
     stroke-linejoin="bevel"
     points="2579.96,1140.42 2579.96,1018.98"
     id="polyline75"
     transform="translate(0,-136.26202)" />
  <polyline
     class="Stem"
     fill="none"
     stroke="#000000"
     stroke-width="3.64"
     stroke-linejoin="bevel"
     points="2702.24,1140.42 2702.24,1019.27"
     id="polyline76"
     transform="translate(0,-136.26202)" />
  <path
     class="Hook"
     d="m 805.881,414.37537 c 0,0.43181 0.13635,1.15901 1.15897,1.59082 6.24938,2.04518 18.77082,9.9081 28.22442,26.04278 2.61341,4.49962 6.84033,10.77172 6.84033,22.83873 0,10.47619 -2.77252,21.22508 -6.5448,31.70127 -0.29553,0.88631 -0.59092,1.61351 -0.4545,2.1816 0,0.88631 0.59078,1.4544 1.4544,1.4544 1.02259,0 1.74979,-0.56809 2.34057,-1.59068 6.5448,-11.6352 9.02193,-25.1793 9.02193,-38.40532 -0.7272,-18.77078 -11.49892,-32.58758 -11.49892,-32.58758 0.43181,0 -13.38499,-17.88461 -17.31645,-23.9976 -5.3631,-8.29466 -7.84012,-16.56656 -8.13555,-17.15741 -0.13635,-0.43177 -1.4544,-5.68125 -1.4544,-5.68125 -0.13635,-0.56813 -0.86355,-1.15898 -1.74982,-1.15898 -1.02263,0 -1.88618,0.88628 -1.88618,1.88618 v 32.88304"
     id="path76"
     style="stroke-width:1.4544" />
  <path
     class="Hook"
     d="m 2124.75,432.55537 c 0,0.43181 0.1364,1.15901 1.159,1.59082 6.2494,2.04518 18.7708,9.9081 28.2244,26.04278 2.6134,4.49962 6.8403,10.77172 6.8403,22.83873 0,10.47619 -2.7725,21.22508 -6.5448,31.70127 -0.2955,0.88631 -0.5909,1.61351 -0.4545,2.1816 0,0.88631 0.5908,1.4544 1.4544,1.4544 1.0226,0 1.7498,-0.56809 2.3406,-1.59068 6.5448,-11.6352 9.0219,-25.1793 9.0219,-38.40532 -0.7272,-18.77078 -11.4989,-32.58758 -11.4989,-32.58758 0.4318,0 -13.385,-17.88461 -17.3164,-23.9976 -5.3631,-8.29466 -7.8402,-16.56656 -8.1356,-17.15741 -0.1364,-0.43177 -1.4544,-5.68125 -1.4544,-5.68125 -0.1363,-0.56813 -0.8635,-1.15898 -1.7498,-1.15898 -1.0226,0 -1.8862,0.88628 -1.8862,1.88618 v 32.88304"
     id="path77"
     style="stroke-width:1.4544" />
  <path
     class="Hook"
     d="m 1875.4,897.55738 c 0,0.4318 0.1363,1.159 1.159,1.5908 6.2493,2.0452 18.7708,9.9081 28.2244,26.0428 2.6134,4.4996 6.8403,10.7717 6.8403,22.8387 0,10.4762 -2.7725,21.2251 -6.5448,31.7013 -0.2955,0.8863 -0.5909,1.6135 -0.4545,2.1816 0,0.8863 0.5908,1.4544 1.4544,1.4544 1.0226,0 1.7498,-0.5681 2.3406,-1.5907 6.5448,-11.6352 9.0219,-25.1793 9.0219,-38.4053 -0.7272,-18.7708 -11.4989,-32.5876 -11.4989,-32.5876 0.4318,0 -13.385,-17.8846 -17.3165,-23.9976 -5.3631,-8.2947 -7.8401,-16.5666 -8.1355,-17.1574 -0.1363,-0.4318 -1.4544,-5.6813 -1.4544,-5.6813 -0.1364,-0.56808 -0.8636,-1.15893 -1.7498,-1.15893 -1.0227,0 -1.8862,0.88628 -1.8862,1.88613 v 32.8831"
     id="path78"
     style="stroke-width:1.4544" />
  <path
     class="Hook"
     d="m 2700.43,915.73738 c 0,0.4318 0.1363,1.159 1.159,1.5908 6.2493,2.0452 18.7708,9.9081 28.2244,26.0428 2.6134,4.4996 6.8403,10.7717 6.8403,22.8387 0,10.4762 -2.7725,21.2251 -6.5448,31.7013 -0.2955,0.8863 -0.5909,1.6135 -0.4545,2.18162 0,0.8863 0.5908,1.4544 1.4544,1.4544 1.0226,0 1.7498,-0.5681 2.3406,-1.59072 6.5448,-11.6352 9.0219,-25.1793 9.0219,-38.4053 -0.7272,-18.7708 -11.4989,-32.5876 -11.4989,-32.5876 0.4318,0 -13.385,-17.8846 -17.3165,-23.9976 -5.3631,-8.2947 -7.8401,-16.5666 -8.1355,-17.1574 -0.1364,-0.4318 -1.4544,-5.6813 -1.4544,-5.6813 -0.1364,-0.5681 -0.8636,-1.1589 -1.7498,-1.1589 -1.0227,0 -1.8862,0.8862 -1.8862,1.8861 v 32.8831"
     id="path79"
     style="stroke-width:1.4544" />
  <path
     class="Note"
     d="m 822.926,888.83098 c 0,6.2494 4.49955,13.226 16.29379,13.226 15.11223,0 30.97421,-12.3624 30.97421,-25.1566 0,-8.5901 -7.272,-13.38499 -16.29379,-13.38499 -14.11219,0 -30.97421,11.93059 -30.97421,25.31559"
     id="path80"
     style="stroke-width:1.4544" />
  <path
     class="Note"
     d="m 895.389,907.01098 c 0,6.2494 4.49955,13.226 16.29379,13.226 15.11223,0 30.97421,-12.3624 30.97421,-25.1566 0,-8.5901 -7.272,-13.385 -16.29379,-13.385 -14.11219,0 -30.97421,11.9306 -30.97421,25.3156"
     id="path81"
     style="stroke-width:1.4544" />
  <path
     class="Note"
     d="m 967.851,888.83098 c 0,6.2494 4.49955,13.226 16.29379,13.226 15.11223,0 30.97421,-12.3624 30.97421,-25.1566 0,-8.5901 -7.272,-13.38499 -16.29379,-13.38499 -14.11219,0 -30.97421,11.93059 -30.97421,25.31559"
     id="path82"
     style="stroke-width:1.4544" />
  <path
     class="Note"
     d="m 1045.56,943.37098 c 0,6.2494 4.4995,13.226 16.2938,13.226 15.1122,0 30.9742,-12.3624 30.9742,-25.1566 0,-8.5901 -7.272,-13.385 -16.2938,-13.385 -14.1122,0 -30.9742,11.9306 -30.9742,25.3156"
     id="path83"
     style="stroke-width:1.4544" />
  <path
     class="Note"
     d="m 2620.1,496.54901 c 0,6.24937 4.4996,13.22598 16.2938,13.22598 15.1122,0 30.9742,-12.36243 30.9742,-25.15661 0,-8.59005 -7.272,-13.38499 -16.2938,-13.38499 -14.1122,0 -30.9742,11.93059 -30.9742,25.31562"
     id="path84"
     style="stroke-width:1.4544" />
  <path
     class="Note"
     d="m 1118.03,961.55098 c 0,6.2494 4.4996,13.226 16.2938,13.226 15.1122,0 30.9742,-12.3624 30.9742,-25.1566 0,-8.59 -7.272,-13.385 -16.2938,-13.385 -14.1122,0 -30.9742,11.9306 -30.9742,25.3156"
     id="path85"
     style="stroke-width:1.4544" />
  <path
     class="Note"
     d="m 2150.69,979.73098 c 0,6.2494 4.4996,13.226 16.2938,13.226 15.1122,0 30.9742,-12.3624 30.9742,-25.1566 0,-8.59 -7.272,-13.385 -16.2938,-13.385 -14.1122,0 -30.9742,11.9306 -30.9742,25.3156"
     id="path86"
     style="stroke-width:1.4544" />
  <path
     class="Note"
     d="m 2529.76,460.18901 c 0,6.24937 4.4996,13.22598 16.2938,13.22598 15.1122,0 30.9742,-12.36243 30.9742,-25.15661 0,-8.59005 -7.272,-13.38499 -16.2938,-13.38499 -14.1122,0 -30.9742,11.93059 -30.9742,25.31562"
     id="path87"
     style="stroke-width:1.4544" />
  <path
     class="Note"
     d="m 1359.72,961.55098 c 0,6.2494 4.4996,13.226 16.2938,13.226 15.1122,0 30.9742,-12.3624 30.9742,-25.1566 0,-8.59 -7.272,-13.385 -16.2938,-13.385 -14.1122,0 -30.9742,11.9306 -30.9742,25.3156"
     id="path88"
     style="stroke-width:1.4544" />
  <path
     class="Note"
     d="m 1428.9,943.37098 c 0,6.2494 4.4996,13.226 16.2938,13.226 15.1122,0 30.9742,-12.3624 30.9742,-25.1566 0,-8.5901 -7.272,-13.385 -16.2938,-13.385 -14.1122,0 -30.9742,11.9306 -30.9742,25.3156"
     id="path89"
     style="stroke-width:1.4544" />
  <path
     class="Note"
     d="m 1547.08,997.91098 c 0,6.24942 4.4996,13.22602 16.2938,13.22602 15.1122,0 30.9742,-12.36242 30.9742,-25.15662 0,-8.5901 -7.272,-13.385 -16.2938,-13.385 -14.1122,0 -30.9742,11.9306 -30.9742,25.3156"
     id="path90"
     style="stroke-width:1.4544" />
  <path
     class="Note"
     d="m 1687.17,1034.271 c 0,6.2494 4.4996,13.226 16.2938,13.226 15.1122,0 30.9742,-12.3624 30.9742,-25.1566 0,-8.5901 -7.272,-13.385 -16.2938,-13.385 -14.1122,0 -30.9742,11.9306 -30.9742,25.3156"
     id="path91"
     style="stroke-width:1.4544" />
  <path
     class="Note"
     d="m 609.175,907.01098 c 0,6.2494 4.49955,13.226 16.29379,13.226 15.11223,0 30.97421,-12.3624 30.97421,-25.1566 0,-8.5901 -7.272,-13.385 -16.29379,-13.385 -14.11219,0 -30.97421,11.9306 -30.97421,25.3156"
     id="path92"
     style="stroke-width:1.4544" />
  <path
     class="Note"
     d="m 2435.81,478.36901 c 0,6.24937 4.4996,13.22598 16.2938,13.22598 15.1122,0 30.9742,-12.36243 30.9742,-25.15661 0,-8.59005 -7.272,-13.38499 -16.2938,-13.38499 -14.1122,0 -30.9742,11.93059 -30.9742,25.31562"
     id="path93"
     style="stroke-width:1.4544" />
  <path
     class="Note"
     d="m 2005.77,979.73098 c 0,6.2494 4.4995,13.226 16.2938,13.226 15.1122,0 30.9742,-12.3624 30.9742,-25.1566 0,-8.59 -7.272,-13.385 -16.2938,-13.385 -14.1122,0 -30.9742,11.9306 -30.9742,25.3156"
     id="path94"
     style="stroke-width:1.4544" />
  <path
     class="Note"
     d="m 2710.45,460.18901 c 0,6.24937 4.4995,13.22598 16.2938,13.22598 15.1122,0 30.9742,-12.36243 30.9742,-25.15661 0,-8.59005 -7.272,-13.38499 -16.2938,-13.38499 -14.1122,0 -30.9742,11.93059 -30.9742,25.31562"
     id="path95"
     style="stroke-width:1.4544" />
  <path
     class="Note"
     d="m 2078.23,1016.091 c 0,6.2494 4.4996,13.226 16.2938,13.226 15.1122,0 30.9742,-12.3624 30.9742,-25.1566 0,-8.59012 -7.272,-13.38502 -16.2938,-13.38502 -14.1122,0 -30.9742,11.93062 -30.9742,25.31562"
     id="path96"
     style="stroke-width:1.4544" />
  <path
     class="Note"
     d="m 1116.94,514.72901 c 0,6.24937 4.4996,13.22598 16.2938,13.22598 15.1122,0 30.9742,-12.36243 30.9742,-25.15661 0,-8.59005 -7.272,-13.38499 -16.2938,-13.38499 -14.1122,0 -30.9742,11.93059 -30.9742,25.31562"
     id="path97"
     style="stroke-width:1.4544" />
  <path
     class="Note"
     d="m 762.249,514.72901 c 0,6.24937 4.49955,13.22598 16.29379,13.22598 15.11223,0 30.97421,-12.36243 30.97421,-25.15661 0,-8.59005 -7.272,-13.38499 -16.29379,-13.38499 -14.11219,0 -30.97421,11.93059 -30.97421,25.31562"
     id="path98"
     style="stroke-width:1.4544" />
  <path
     class="Note"
     d="m 936.254,514.72901 c 0,6.24937 4.49955,13.22598 16.29379,13.22598 15.11223,0 30.97421,-12.36243 30.97421,-25.15661 0,-8.59005 -7.272,-13.38499 -16.29379,-13.38499 -14.11219,0 -30.97421,11.93059 -30.97421,25.31562"
     id="path99"
     style="stroke-width:1.4544" />
  <path
     class="Note"
     d="m 2235.78,961.55098 c 0,6.2494 4.4995,13.226 16.2938,13.226 15.1122,0 30.9742,-12.3624 30.9742,-25.1566 0,-8.59 -7.272,-13.385 -16.2938,-13.385 -14.1122,0 -30.9742,11.9306 -30.9742,25.3156"
     id="path100"
     style="stroke-width:1.4544" />
  <path
     class="Note"
     d="m 1026.6,551.08901 c 0,6.24937 4.4996,13.22598 16.2938,13.22598 15.1122,0 30.9742,-12.36243 30.9742,-25.15661 0,-8.59005 -7.272,-13.38499 -16.2938,-13.38499 -14.1122,0 -30.9742,11.93059 -30.9742,25.31562"
     id="path101"
     style="stroke-width:1.4544" />
  <path
     class="Note"
     d="m 2308.25,997.91098 c 0,6.24942 4.4995,13.22602 16.2938,13.22602 15.1122,0 30.9742,-12.36242 30.9742,-25.15662 0,-8.5901 -7.272,-13.385 -16.2938,-13.385 -14.1122,0 -30.9742,11.9306 -30.9742,25.3156"
     id="path102"
     style="stroke-width:1.4544" />
  <path
     class="Note"
     d="m 1205.92,979.73098 c 0,6.2494 4.4996,13.226 16.2938,13.226 15.1122,0 30.9742,-12.3624 30.9742,-25.1566 0,-8.59 -7.272,-13.385 -16.2938,-13.385 -14.1122,0 -30.9742,11.9306 -30.9742,25.3156"
     id="path103"
     style="stroke-width:1.4544" />
  <path
     class="Note"
     d="m 1210.03,478.36901 c 0,6.24937 4.4996,13.22598 16.2938,13.22598 15.1122,0 30.9742,-12.36243 30.9742,-25.15661 0,-8.59005 -7.272,-13.38499 -16.2938,-13.38499 -14.1122,0 -30.9742,11.93059 -30.9742,25.31562"
     id="path104"
     style="stroke-width:1.4544" />
  <path
     class="Note"
     d="m 2380.71,1034.271 c 0,6.2494 4.4995,13.226 16.2938,13.226 15.1122,0 30.9742,-12.3624 30.9742,-25.1566 0,-8.5901 -7.272,-13.385 -16.2938,-13.385 -14.1122,0 -30.9742,11.9306 -30.9742,25.3156"
     id="path105"
     style="stroke-width:1.4544" />
  <path
     class="Note"
     d="m 2345.47,496.54901 c 0,6.24937 4.4995,13.22598 16.2938,13.22598 15.1122,0 30.9742,-12.36243 30.9742,-25.15661 0,-8.59005 -7.272,-13.38499 -16.2938,-13.38499 -14.1122,0 -30.9742,11.93059 -30.9742,25.31562"
     id="path106"
     style="stroke-width:1.4544" />
  <path
     class="Note"
     d="m 1300.38,496.54901 c 0,6.24937 4.4996,13.22598 16.2938,13.22598 15.1122,0 30.9742,-12.36243 30.9742,-25.15661 0,-8.59005 -7.272,-13.38499 -16.2938,-13.38499 -14.1122,0 -30.9742,11.93059 -30.9742,25.31562"
     id="path107"
     style="stroke-width:1.4544" />
  <path
     class="Note"
     d="m 1404.77,478.36901 c 0,6.24937 4.4995,13.22598 16.2938,13.22598 15.1122,0 30.9742,-12.36243 30.9742,-25.15661 0,-8.59005 -7.272,-13.38499 -16.2938,-13.38499 -14.1122,0 -30.9742,11.93059 -30.9742,25.31562"
     id="path108"
     style="stroke-width:1.4544" />
  <path
     class="Note"
     d="m 669.146,907.01098 c 0,6.2494 4.49955,13.226 16.29379,13.226 15.11223,0 30.97421,-12.3624 30.97421,-25.1566 0,-8.5901 -7.272,-13.385 -16.29379,-13.385 -14.11219,0 -30.97421,11.9306 -30.97421,25.3156"
     id="path109"
     style="stroke-width:1.4544" />
  <path
     class="Note"
     d="m 1558.58,496.54901 c 0,6.24937 4.4995,13.22598 16.2938,13.22598 15.1122,0 30.9742,-12.36243 30.9742,-25.15661 0,-8.59005 -7.272,-13.38499 -16.2938,-13.38499 -14.1122,0 -30.9742,11.93059 -30.9742,25.31562"
     id="path110"
     style="stroke-width:1.4544" />
  <path
     class="Note"
     d="m 1686.26,514.72901 c 0,6.24937 4.4996,13.22598 16.2938,13.22598 15.1122,0 30.9742,-12.36243 30.9742,-25.15661 0,-8.59005 -7.272,-13.38499 -16.2938,-13.38499 -14.1122,0 -30.9742,11.93059 -30.9742,25.31562"
     id="path111"
     style="stroke-width:1.4544" />
  <path
     class="Note"
     d="m 2656.79,1016.091 c 0,6.2494 4.4996,13.226 16.2938,13.226 15.1122,0 30.9742,-12.3624 30.9742,-25.1566 0,-8.59012 -7.272,-13.38502 -16.2938,-13.38502 -14.1122,0 -30.9742,11.93062 -30.9742,25.31562"
     id="path112"
     style="stroke-width:1.4544" />
  <path
     class="Note"
     d="m 518.182,913.39668 c -4.79497,0 -5.8176,-3.9087 -5.8176,-5.2267 0,-7.1357 24.42941,-19.6344 31.2696,-19.6344 3.49972,0 5.8176,2.0452 5.8176,5.2268 0,7.2719 -24.58838,19.6343 -31.2696,19.6343 m 20.06621,-31.7013 c -14.11219,0 -30.97421,11.7943 -30.97421,25.3156 0,6.2494 4.49955,13.226 16.29379,13.226 15.11223,0 30.97421,-12.3624 30.97421,-25.1566 0,-8.5901 -7.272,-13.385 -16.29379,-13.385"
     id="path113"
     style="stroke-width:1.4544" />
  <path
     class="Note"
     d="m 2255.12,514.72901 c 0,6.24937 4.4995,13.22598 16.2938,13.22598 15.1122,0 30.9742,-12.36243 30.9742,-25.15661 0,-8.59005 -7.272,-13.38499 -16.2938,-13.38499 -14.1122,0 -30.9742,11.93059 -30.9742,25.31562"
     id="path114"
     style="stroke-width:1.4544" />
  <path
     class="Note"
     d="m 1824.44,496.54901 c 0,6.24937 4.4996,13.22598 16.2938,13.22598 15.1122,0 30.9742,-12.36243 30.9742,-25.15661 0,-8.59005 -7.272,-13.38499 -16.2938,-13.38499 -14.1122,0 -30.9742,11.93059 -30.9742,25.31562"
     id="path115"
     style="stroke-width:1.4544" />
  <path
     class="Note"
     d="m 1939.03,569.26901 c 0,6.24937 4.4996,13.22598 16.2938,13.22598 15.1122,0 30.9742,-12.36243 30.9742,-25.15661 0,-8.59005 -7.272,-13.38499 -16.2938,-13.38499 -14.1122,0 -30.9742,11.93059 -30.9742,25.31562"
     id="path116"
     style="stroke-width:1.4544" />
  <path
     class="Note"
     d="m 2081.12,532.90901 c 0,6.24937 4.4995,13.22598 16.2938,13.22598 15.1122,0 30.9742,-12.36243 30.9742,-25.15661 0,-8.59005 -7.272,-13.38499 -16.2938,-13.38499 -14.1122,0 -30.9742,11.93059 -30.9742,25.31562"
     id="path117"
     style="stroke-width:1.4544" />
  <path
     class="Note"
     d="m 1831.76,997.91098 c 0,6.24942 4.4995,13.22602 16.2938,13.22602 15.1122,0 30.9742,-12.36242 30.9742,-25.15662 0,-8.5901 -7.272,-13.385 -16.2938,-13.385 -14.1122,0 -30.9742,11.9306 -30.9742,25.3156"
     id="path118"
     style="stroke-width:1.4544" />
  <path
     class="Note"
     d="m 2545.418,1022.4767 c -4.795,0 -5.8176,-3.9087 -5.8176,-5.2267 0,-7.1357 24.4294,-19.63442 31.2696,-19.63442 3.4997,0 5.8176,2.0452 5.8176,5.22672 0,7.272 -24.5884,19.6344 -31.2696,19.6344 m 20.0662,-31.70132 c -14.1122,0 -30.9742,11.79422 -30.9742,25.31562 0,6.2494 4.4995,13.226 16.2938,13.226 15.1122,0 30.9742,-12.3624 30.9742,-25.1566 0,-8.59012 -7.272,-13.38502 -16.2938,-13.38502"
     id="path119"
     style="stroke-width:1.4544" />
  <path
     class="Clef"
     d="m 428.5548,502.2076 c -2.9088,0.59078 -5.65849,0.88617 -8.43101,0.88617 -20.79327,0 -38.54156,-14.544 -38.54156,-36.51904 0,-17.72557 12.49878,-33.58755 25.31568,-44.65466 2.4543,-2.1816 4.79501,-4.20409 6.97661,-6.38569 1.29529,7.84009 2.31788,14.68028 3.34047,20.65699 -13.24857,3.93139 -22.24767,17.88461 -22.24767,31.56506 0,10.1808 7.9992,24.13395 19.6344,24.13395 1.15887,0 2.47699,-0.59078 2.47699,-1.88621 0,-1.31798 -1.4544,-2.04518 -3.20419,-3.20419 -5.68132,-3.49965 -8.88551,-7.272 -8.88551,-14.40765 0,-8.86275 6.5448,-15.99847 15.13478,-18.02096 l 8.43101,47.83623 M 415.76059,352.69979 c 1.31812,-5.8176 7.9992,-21.0888 15.56673,-21.0888 2.1816,0 5.65849,7.11289 5.65849,17.15727 0,15.13492 -11.1807,26.47473 -21.22522,36.36 -0.86348,-5.8176 -1.59068,-11.47609 -1.59068,-17.58908 0,-5.38579 0.43181,-10.33991 1.59068,-14.83939 m 33.4512,122.60134 c 0,10.33988 -4.22678,20.95245 -14.544,25.17937 -3.04508,-17.45287 -6.97647,-40.58692 -7.9992,-46.99544 13.0896,0 22.5432,8.88554 22.5432,21.81607 m -63.9936,71.56106 c 0,9.61271 7.40842,22.2705 27.04282,22.2705 6.84019,0 12.8169,-1.74979 18.04358,-4.95412 7.86292,-5.52207 9.88541,-15.13478 9.88541,-24.29299 0,-5.65849 -0.86348,-12.20329 -2.31788,-20.49788 -0.43181,-2.9088 -1.31812,-7.272 -2.1816,-12.95332 14.24847,-4.65859 24.86108,-19.49798 24.86108,-34.47383 0,-21.95238 -15.56659,-36.79177 -36.79181,-36.79177 -1.4544,-8.7264 -2.9088,-17.31652 -4.22678,-25.452 15.43031,-16.15751 26.04278,-34.33751 26.04278,-57.4488 0,-13.24871 -4.06767,-23.9976 -6.40838,-29.24653 -3.47689,-7.40871 -7.70381,-12.49911 -10.31722,-12.49911 -1.02259,0 -5.52207,1.74964 -10.31708,7.40871 -9.31732,11.06653 -11.93059,29.67834 -11.93059,41.88163 0,7.86278 0.7272,14.9985 3.20419,31.29229 -0.15911,0.13642 -7.7265,7.84009 -10.77172,10.31722 -13.24857,12.3624 -31.56499,29.95148 -31.56499,59.06224 0,27.17917 23.70221,48.56336 50.76772,48.56336 4.20409,0 8.13548,-0.43181 11.47609,-1.02259 2.77238,13.97577 4.3632,24.15657 4.3632,31.86038 0,15.13492 -7.70381,23.13412 -22.38409,23.13412 -3.49972,0 -6.5448,-0.7272 -6.84033,-0.7272 -0.13628,-0.15911 -0.43167,-0.29553 -0.43167,-0.43181 0,-0.29539 0.29539,-0.4545 0.7272,-0.59092 6.84019,-1.02259 13.65769,-6.84019 13.65769,-16.13468 0,-7.86292 -5.95402,-16.15751 -16.86202,-16.15751 -10.1808,0 -16.7256,8.29459 -16.7256,17.88461"
     id="path120"
     style="stroke-width:1.4544" />
  <path
     class="Clef"
     d="m 246.7548,967.20958 c -2.9088,0.5908 -5.65849,0.8862 -8.43101,0.8862 -20.79327,0 -38.54156,-14.544 -38.54156,-36.5191 0,-17.7255 12.49878,-33.5875 25.31568,-44.6546 2.4543,-2.1816 4.79501,-4.2041 6.97661,-6.3857 1.29529,7.8401 2.31788,14.6803 3.34047,20.657 -13.24857,3.9314 -22.24767,17.8846 -22.24767,31.5651 0,10.1808 7.9992,24.1339 19.6344,24.1339 1.15887,0 2.47699,-0.5908 2.47699,-1.8862 0,-1.318 -1.4544,-2.0452 -3.20419,-3.2042 -5.68132,-3.4997 -8.88551,-7.272 -8.88551,-14.4076 0,-8.8628 6.5448,-15.9985 15.13478,-18.021 l 8.43101,47.8362 M 233.96059,817.70179 c 1.31812,-5.8176 7.9992,-21.0888 15.56673,-21.0888 2.1816,0 5.65849,7.11289 5.65849,17.15727 0,15.13492 -11.1807,26.47473 -21.22522,36.36 -0.86348,-5.8176 -1.59068,-11.47609 -1.59068,-17.58908 0,-5.38579 0.43181,-10.33991 1.59068,-14.83939 m 33.4512,122.60139 c 0,10.3398 -4.22678,20.9524 -14.544,25.1793 -3.04508,-17.4529 -6.97647,-40.5869 -7.9992,-46.9954 13.0896,0 22.5432,8.8855 22.5432,21.8161 m -63.9936,71.56102 c 0,9.6127 7.40842,22.2705 27.04282,22.2705 6.84019,0 12.8169,-1.7498 18.04358,-4.9541 7.86292,-5.5221 9.88541,-15.1348 9.88541,-24.293 0,-5.65852 -0.86348,-12.20332 -2.31788,-20.49792 -0.43181,-2.9088 -1.31812,-7.272 -2.1816,-12.9533 14.24847,-4.6586 24.86108,-19.498 24.86108,-34.4738 0,-21.9524 -15.56659,-36.7918 -36.79181,-36.7918 -1.4544,-8.7264 -2.9088,-17.3165 -4.22678,-25.452 15.43031,-16.15751 26.04278,-34.33751 26.04278,-57.4488 0,-13.24871 -4.06767,-23.9976 -6.40838,-29.24653 -3.47689,-7.40871 -7.70381,-12.49911 -10.31722,-12.49911 -1.02259,0 -5.52207,1.74964 -10.31708,7.40871 -9.31732,11.06653 -11.93059,29.67834 -11.93059,41.88163 0,7.86278 0.7272,14.9985 3.20419,31.29229 -0.15911,0.13642 -7.7265,7.84011 -10.77172,10.31721 -13.24857,12.3624 -31.56499,29.9515 -31.56499,59.0623 0,27.1791 23.70221,48.5633 50.76772,48.5633 4.20409,0 8.13548,-0.4318 11.47609,-1.0226 2.77238,13.9758 4.3632,24.1566 4.3632,31.86042 0,15.1349 -7.70381,23.1341 -22.38409,23.1341 -3.49972,0 -6.5448,-0.7272 -6.84033,-0.7272 -0.13628,-0.1591 -0.43167,-0.2955 -0.43167,-0.4318 0,-0.2954 0.29539,-0.4545 0.7272,-0.5909 6.84019,-1.0226 13.65769,-6.8402 13.65769,-16.1347 0,-7.8629 -5.95402,-16.15752 -16.86202,-16.15752 -10.1808,0 -16.7256,8.29462 -16.7256,17.88462"
     id="path121"
     style="stroke-width:1.4544" />
  <path
     class="KeySig"
     d="m 325.20159,895.08038 c 0,11.4989 -5.97664,17.5891 -14.40761,24.293 l 0.43177,-28.3608 c 0.29543,-1.318 2.47703,-5.5222 8.29463,-5.5222 5.24954,0 5.68121,4.9314 5.68121,7.9993 v 1.5907 m -1.74979,-16.7256 c -7.272,0 -11.49885,4.4995 -12.22605,5.3858 l 0.59085,-46.69992 c 0,-1.15887 -0.86355,-2.02249 -2.04525,-2.02249 h -1.7271 c -1.1817,0 -2.04525,0.86362 -2.04525,2.02249 l 0.7272,87.42312 c 0,1.159 0.86355,2.0226 2.04525,2.0226 0.2727,0 0.86355,-0.1364 1.15898,-0.2727 12.49878,-6.2721 25.58838,-18.1801 25.58838,-33.1786 0,-7.5447 -3.47689,-14.6803 -12.06701,-14.6803"
     id="path122"
     style="stroke-width:1.4544" />
  <path
     class="KeySig"
     d="m 365.62959,840.54038 c 0,11.49885 -5.97664,17.58915 -14.40761,24.293 l 0.43177,-28.36078 c 0.29543,-1.31805 2.47703,-5.52224 8.29463,-5.52224 5.24954,0 5.68121,4.93139 5.68121,7.99927 v 1.59075 m -1.74979,-16.7256 c -7.272,0 -11.49885,4.49948 -12.22605,5.38579 l 0.59085,-46.69991 c 0,-1.15887 -0.86355,-2.02249 -2.04525,-2.02249 h -1.7271 c -1.1817,0 -2.04525,0.86362 -2.04525,2.02249 l 0.7272,87.42312 c 0,1.159 0.86355,2.0226 2.04525,2.0226 0.2727,0 0.86355,-0.1364 1.15898,-0.2727 12.49878,-6.2721 25.58838,-18.18005 25.58838,-33.17855 0,-7.54477 -3.47689,-14.68035 -12.06701,-14.68035"
     id="path123"
     style="stroke-width:1.4544" />
  <path
     class="KeySig"
     d="m 406.05659,913.26038 c 0,11.4989 -5.97664,17.5891 -14.40761,24.293 l 0.43177,-28.3608 c 0.29543,-1.318 2.47703,-5.5222 8.29463,-5.5222 5.24954,0 5.68121,4.9314 5.68121,7.9993 v 1.5907 m -1.74979,-16.7256 c -7.272,0 -11.49885,4.4995 -12.22605,5.3858 l 0.59085,-46.69992 c 0,-1.15887 -0.86355,-2.02249 -2.04525,-2.02249 h -1.7271 c -1.1817,0 -2.04525,0.86362 -2.04525,2.02249 l 0.7272,87.42312 c 0,1.159 0.86355,2.0226 2.04525,2.0226 0.2727,0 0.86355,-0.1364 1.15898,-0.2727 12.49878,-6.2721 25.58838,-18.1801 25.58838,-33.1785 0,-7.5448 -3.47689,-14.6804 -12.06701,-14.6804"
     id="path124"
     style="stroke-width:1.4544" />
  <path
     class="KeySig"
     d="m 507.00159,430.07838 c 0,11.49885 -5.97664,17.58915 -14.40761,24.29299 l 0.43177,-28.36077 c 0.29543,-1.31805 2.47703,-5.52224 8.29463,-5.52224 5.24954,0 5.68121,4.93139 5.68121,7.99927 v 1.59075 m -1.74979,-16.7256 c -7.272,0 -11.49885,4.49948 -12.22605,5.38579 l 0.59085,-46.69991 c 0,-1.15887 -0.86355,-2.02249 -2.04525,-2.02249 h -1.7271 c -1.1817,0 -2.04525,0.86362 -2.04525,2.02249 l 0.7272,87.42311 c 0,1.15901 0.86355,2.02263 2.04525,2.02263 0.2727,0 0.86355,-0.13642 1.15898,-0.2727 12.49878,-6.2721 25.58838,-18.18007 25.58838,-33.17857 0,-7.54477 -3.47689,-14.68035 -12.06701,-14.68035"
     id="path125"
     style="stroke-width:1.4544" />
  <path
     class="KeySig"
     d="m 547.42959,375.53838 c 0,11.49885 -5.97664,17.58915 -14.40761,24.29299 l 0.43177,-28.36077 c 0.29543,-1.31805 2.47703,-5.52224 8.29463,-5.52224 5.24954,0 5.68121,4.93139 5.68121,7.99927 v 1.59075 m -1.74979,-16.7256 c -7.272,0 -11.49885,4.49948 -12.22605,5.38579 l 0.59085,-46.69991 c 0,-1.15887 -0.86355,-2.02249 -2.04525,-2.02249 h -1.7271 c -1.1817,0 -2.04525,0.86362 -2.04525,2.02249 l 0.7272,87.42311 c 0,1.15901 0.86355,2.02263 2.04525,2.02263 0.2727,0 0.86355,-0.13642 1.15898,-0.2727 12.49878,-6.2721 25.58838,-18.18007 25.58838,-33.17857 0,-7.54477 -3.47689,-14.68035 -12.06701,-14.68035"
     id="path126"
     style="stroke-width:1.4544" />
  <path
     class="KeySig"
     d="m 587.85659,448.25838 c 0,11.49885 -5.97664,17.58915 -14.40761,24.29299 l 0.43177,-28.36077 c 0.29543,-1.31805 2.47703,-5.52224 8.29463,-5.52224 5.24954,0 5.68121,4.93139 5.68121,7.99927 v 1.59075 m -1.74979,-16.7256 c -7.272,0 -11.49885,4.49948 -12.22605,5.38579 l 0.59085,-46.69991 c 0,-1.15887 -0.86355,-2.02249 -2.04525,-2.02249 h -1.7271 c -1.1817,0 -2.04525,0.86362 -2.04525,2.02249 l 0.7272,87.42311 c 0,1.15901 0.86355,2.02263 2.04525,2.02263 0.2727,0 0.86355,-0.13642 1.15898,-0.2727 12.49878,-6.2721 25.58838,-18.18007 25.58838,-33.17857 0,-7.54477 -3.47689,-14.68035 -12.06701,-14.68035"
     id="path127"
     style="stroke-width:1.4544" />
  <path
     class="TimeSig"
     d="m 663.3494,429.64637 c -4.79501,0 -8.7264,-6.5448 -8.7264,-14.70297 0,-8.13562 3.93139,-14.81677 8.7264,-14.81677 4.79501,0 8.88551,6.68115 8.88551,14.81677 0,8.15817 -4.0905,14.70297 -8.88551,14.70297 m 5.38579,-36.35997 c -8.88537,0 -12.06687,2.61338 -14.11219,4.79498 -0.43181,-3.04515 -0.7272,-5.38583 -0.7272,-7.70378 0,-8.29462 2.9088,-19.06634 13.0896,-19.06634 3.636,0 5.8176,1.1817 7.272,2.77252 -3.04508,1.31798 -5.52221,5.22668 -5.52221,8.58998 0,5.22682 4.06781,9.29459 9.31732,9.29459 5.22668,0 9.4536,-4.06777 9.4536,-9.29459 v -0.4545 c 0,-1.29529 -0.29539,-3.47689 -0.88631,-4.6359 -1.88621,-5.24937 -7.9992,-12.95318 -22.5432,-12.95318 -13.0896,0 -22.5432,12.49868 -25.452,19.20259 -1.4544,3.47696 -3.636,10.61261 -3.636,18.74816 0,8.88548 2.47703,18.90727 11.04435,26.47466 8.45377,6.40838 13.81687,6.70391 18.90727,6.70391 5.11309,0 24.15657,-5.97671 24.15657,-22.83869 0,-14.24858 -11.20339,-19.63441 -20.3616,-19.63441"
     id="path128"
     style="stroke-width:1.4544" />
  <path
     class="TimeSig"
     d="m 671.34841,465.34818 c -9.88541,-3.20423 -20.79341,-7.9992 -20.79341,-14.544 0,-5.68132 5.22682,-7.9992 11.49892,-7.9992 9.02179,0 15.11209,4.22678 15.11209,10.908 0,6.97657 -3.1815,10.31715 -5.8176,11.6352 m -9.29449,34.47379 c -9.31732,0 -17.31652,-5.0904 -17.31652,-13.24857 0,-9.72637 7.56739,-12.06704 7.56739,-12.06704 9.88541,3.34057 23.9976,8.29462 23.9976,16.29382 0,3.93139 -5.0904,9.02179 -14.24847,9.02179 m 17.4528,-30.54237 c 4.79487,-3.636 8.13548,-8.29462 8.13548,-14.11222 0,-10.47619 -11.47609,-19.04362 -25.58828,-19.04362 -14.11233,0 -25.61114,8.56743 -25.61114,19.04362 0,5.8176 1.4544,11.04435 8.29462,15.40755 -6.5448,3.79508 -10.1808,9.1809 -10.1808,16.15744 0,11.77162 12.3624,21.22522 27.49732,21.22522 15.11209,0 27.47449,-9.4536 27.47449,-21.22522 0,-6.97654 -2.4543,-13.52134 -10.02169,-17.45277"
     id="path129"
     style="stroke-width:1.4544" />
  <path
     class="Beam"
     fill-rule="evenodd"
     d="m 2049.4,855.44798 h 148.56 v 18.18 H 2049.4 v -18.18"
     id="path130" />
  <path
     class="Beam"
     fill-rule="evenodd"
     d="m 1089.2,819.07398 163.99,9.09 v 18.208 l -163.99,-9.09 v -18.208"
     id="path131" />
  <path
     class="Beam"
     fill-rule="evenodd"
     d="m 1602.21,363.17598 h 269.49 v 18.18 h -269.49 v -18.18"
     id="path132" />
  <path
     class="Beam"
     fill-rule="evenodd"
     d="m 1403.36,819.08798 h 190.99 v 18.18 h -190.99 v -18.18"
     id="path133" />
  <path
     class="Beam"
     fill-rule="evenodd"
     d="m 1253.67,354.08598 h 198.37 v 18.18 h -198.37 v -18.18"
     id="path134" />
  <path
     class="Beam"
     fill-rule="evenodd"
     d="m 609.175,991.79798 h 63.607 v 18.18002 h -63.607 v -18.18002"
     id="path135" />
  <path
     class="Beam"
     fill-rule="evenodd"
     d="m 2298.75,363.16498 184.33,-9.09 v 18.202 l -184.33,9.09 v -18.202"
     id="path136" />
  <path
     class="Beam"
     fill-rule="evenodd"
     d="m 2279.42,846.28998 148.56,18.178 v 18.32 l -148.56,-18.18 v -18.318"
     id="path137" />
  <path
     class="Beam"
     fill-rule="evenodd"
     d="m 2573.39,344.99598 h 184.33 v 18.18 h -184.33 v -18.18"
     id="path138" />
  <path
     class="Beam"
     fill-rule="evenodd"
     d="M 822.926,991.79798 H 971.487 V 1009.978 H 822.926 v -18.18002"
     id="path139" />
  <path
     class="Beam"
     fill-rule="evenodd"
     d="m 979.886,390.44598 h 184.324 v 18.18 H 979.886 v -18.18"
     id="path140" />
  <path
     class="Lyrics"
     d="m 1203.41,621.89498 -16.1,0.953 v 3.75 h 4.27 c 3.22,0.079 3.65,0.61 3.65,4.344 v 48.469 c -0.09,1.297 -0.18,1.828 -0.53,2.266 -0.61,0.781 -2.26,1.125 -6,1.218 h -0.61 v 3.125 h 22.54 v -3.125 h -0.61 c -5.83,-0.187 -6.61,-0.609 -6.61,-3.75 v -57.25 m 49.7,44.547 c 0.09,-13.047 -7.3,-22.265 -17.92,-22.265 -11.14,0 -19.49,9.656 -19.49,22.703 0,12.265 7.93,20.453 19.66,20.453 8.36,0 14.19,-4.094 17.75,-12.36 l -3.05,-1.656 c -3.56,6.703 -7.22,9.313 -13.04,9.313 -4.44,0 -7.66,-1.828 -9.93,-5.75 -1.56,-2.61 -2.25,-5.657 -2.17,-10.438 h 28.19 m -28.09,-3.734 c 0,-6.094 2.78,-14.797 10.09,-14.797 5.22,0 8.69,4.609 8.69,11.656 0,2.438 -0.78,3.141 -3.57,3.141 h -15.21 m 44.56,-38.891 c -2.78,0 -5.05,2.25 -5.05,5.047 0,2.781 2.27,5.047 4.95,5.047 2.88,0 5.15,-2.266 5.15,-5.047 0,-2.797 -2.27,-5.047 -5.05,-5.047 m 4.09,21.656 -16.97,0.954 v 3.75 h 5.05 c 3.3,0.078 3.73,0.609 3.73,4.343 v 29.5 c 0,7.047 -0.43,10.36 -1.65,12.875 -0.86,1.735 -2.86,3.047 -4.78,3.047 -1.22,0 -2.17,-0.515 -2.17,-1.125 0,-0.359 0.09,-0.531 0.43,-1.406 0.44,-0.859 0.61,-1.469 0.61,-2.078 0,-2.172 -2.09,-4.094 -4.53,-4.094 -2.78,0 -4.87,2.172 -4.87,5.219 0,4.265 3.92,7.14 9.75,7.14 4.87,0 9.31,-2.093 11.82,-5.656 2.71,-3.828 3.58,-8.265 3.58,-18.094 v -34.375 m 15.55,56.563 c 7.84,-5.406 11.41,-10.703 11.41,-16.797 0,-5.219 -2.88,-8.609 -7.15,-8.609 -3.21,0 -5.65,2.25 -5.65,5.218 0,3.125 2.36,5.125 6.01,5.125 0.43,0 1.04,0 1.3,-0.078 h 0.27 c 0.43,0 0.61,0.25 0.61,0.782 0,3.656 -2.97,7.734 -8.8,11.828 l 2,2.531"
     id="path141" />
  <path
     class="Lyrics"
     d="m 1370.38,645.47298 -15.48,0.954 v 3.75 h 3.56 c 3.31,0.078 3.75,0.609 3.75,4.343 v 24.891 c -0.09,1.297 -0.17,1.828 -0.53,2.266 -0.61,0.781 -2.25,1.125 -6,1.218 h -0.35 v 3.125 h 21.93 v -3.125 h -0.35 c -5.75,-0.187 -6.53,-0.609 -6.53,-3.828 v -16.109 c 0,-7.735 4.27,-13.485 9.92,-13.485 4.96,0 7.49,3.579 7.49,10.625 v 19.391 c -0.1,1.141 -0.17,1.75 -0.61,2.188 -0.52,0.781 -2.27,1.125 -6,1.218 h -0.36 v 3.125 h 22.01 v -3.125 h -0.34 c -5.75,-0.187 -6.53,-0.609 -6.53,-3.75 v -15.406 c 0,-8.687 3.92,-14.266 10.01,-14.266 4.96,0 7.4,3.75 7.4,11.579 v 18.359 c -0.1,1.219 -0.18,1.828 -0.61,2.266 -0.52,0.781 -2.27,1.125 -6,1.218 h -0.35 v 3.125 h 22 v -3.125 h -0.34 c -5.74,-0.187 -6.53,-0.609 -6.53,-3.828 v -19.75 c 0,-5.406 -0.52,-7.234 -2.78,-10.187 -2.52,-3.219 -6.1,-4.953 -10.27,-4.953 -5.66,0 -9.83,2.687 -13.56,8.687 -1.49,-5.219 -6.19,-8.687 -12.02,-8.687 -5.31,0 -9.14,2.515 -12.53,8 v -6.704 m 86.14,-22.875 c -4.78,0 -8.7,3.907 -8.7,8.704 0,4.687 3.92,8.609 8.53,8.609 4.95,0 8.78,-3.828 8.78,-8.703 0,-4.703 -3.91,-8.61 -8.61,-8.61 m -0.09,3.125 c 3.14,0 5.58,2.438 5.58,5.485 0,3.125 -2.44,5.562 -5.58,5.562 -3.05,0 -5.47,-2.515 -5.47,-5.562 0,-3.047 2.42,-5.485 5.47,-5.485 m 9.31,60.907 15.84,-0.61 v -3.734 h -2.18 c -5.05,-0.188 -5.47,-0.703 -5.47,-6.359 v -30.454 l -16.36,0.954 v 3.75 h 4.44 c 3.29,0.078 3.73,0.609 3.73,4.343 v 10.703 c 0,7.579 -1.83,16.797 -11.39,16.797 -2.7,0 -4.97,-0.953 -6.09,-2.703 -1.13,-1.656 -1.32,-2.515 -1.32,-7.312 v -26.532 l -15.22,0.954 v 3.75 h 3.32 c 3.29,0.078 3.73,0.609 3.73,4.343 v 18.797 c 0,4.438 0.35,6.438 1.66,8.438 2.34,3.562 6.51,5.578 11.75,5.578 5.73,0 9.73,-2.36 13.56,-7.922 v 7.219 m 31.08,-62.813 c -2.78,0 -5.05,2.25 -5.05,5.047 0,2.781 2.27,5.047 4.95,5.047 2.88,0 5.15,-2.266 5.15,-5.047 0,-2.797 -2.27,-5.047 -5.05,-5.047 m 4.09,21.656 -16.97,0.954 v 3.75 h 5.05 c 3.3,0.078 3.73,0.609 3.73,4.343 v 29.5 c 0,7.047 -0.43,10.36 -1.65,12.875 -0.86,1.735 -2.86,3.047 -4.78,3.047 -1.22,0 -2.17,-0.515 -2.17,-1.125 0,-0.359 0.09,-0.531 0.43,-1.406 0.44,-0.859 0.61,-1.469 0.61,-2.078 0,-2.172 -2.09,-4.094 -4.53,-4.094 -2.78,0 -4.87,2.172 -4.87,5.219 0,4.265 3.92,7.14 9.75,7.14 4.87,0 9.31,-2.093 11.82,-5.656 2.71,-3.828 3.58,-8.265 3.58,-18.094 v -34.375"
     id="path142" />
  <path
     class="Lyrics"
     d="m 2154.07,1095.288 -16.1,0.95 v 3.75 h 4.27 c 3.22,0.08 3.66,0.61 3.66,4.35 v 48.46 c -0.1,1.3 -0.19,1.83 -0.54,2.27 -0.61,0.78 -2.26,1.13 -6,1.22 h -0.61 v 3.12 h 22.54 v -3.12 h -0.61 c -5.83,-0.19 -6.61,-0.61 -6.61,-3.75 v -57.25 m 48.58,36.11 c 0,-5.49 -0.96,-8.27 -3.49,-10.36 -2.87,-2.34 -7.12,-3.47 -12.7,-3.47 -9.83,0 -16.97,4.61 -16.97,10.95 0,3.22 2,5.32 5.05,5.32 2.79,0 4.7,-1.83 4.7,-4.44 0,-1.13 -0.44,-2.35 -1.31,-3.56 -0.52,-0.61 -0.6,-0.8 -0.6,-1.22 0,-1.75 3.47,-3.32 7.66,-3.32 2.78,0 5.83,0.88 7.22,2.18 1.64,1.39 2.25,3.48 2.25,7.4 v 3.39 c -9.05,1.57 -11.91,2.27 -16.17,3.91 -7.58,2.8 -11.14,6.8 -11.14,12.36 0,6.26 4.87,10.19 12.6,10.19 6.02,0 11.41,-2.44 15.15,-6.88 1.39,4.44 3.57,6.17 7.65,6.17 3.92,0 8.02,-2.53 8.02,-5.04 0,-0.61 -0.36,-1.05 -0.88,-1.05 -0.34,0 -0.7,0.09 -1.31,0.34 -1.22,0.53 -1.73,0.61 -2.44,0.61 -2.42,0 -3.29,-1.56 -3.29,-6 v -17.48 m -8.19,10.61 c 0,5.22 -0.25,6.44 -1.74,8.7 -2.17,3.22 -6.09,5.39 -9.92,5.39 -4,0 -6.87,-2.86 -6.87,-6.78 0,-3.66 1.82,-6.27 5.65,-8.09 2.71,-1.22 6.1,-2.08 12.88,-3.22 v 4"
     id="path143" />
  <path
     class="Lyrics"
     d="m 1383.77,1117.568 c -10.7,0 -18.97,9.48 -18.97,21.66 0,11.92 8.36,21.5 18.8,21.5 10.43,0 18.79,-9.58 18.79,-21.58 0,-11.92 -8.36,-21.58 -18.62,-21.58 m 0,3.73 c 6.09,0 9.48,6.36 9.48,17.85 0,11.56 -3.39,17.83 -9.65,17.83 -6.27,0 -9.66,-6.27 -9.66,-17.75 0,-11.83 3.31,-17.93 9.83,-17.93"
     id="path144" />
  <path
     class="Lyrics"
     d="m 816.299,1095.288 -16.094,0.95 v 3.75 h 4.266 c 3.218,0.08 3.656,0.61 3.656,4.35 v 48.46 c -0.094,1.3 -0.188,1.83 -0.531,2.27 -0.61,0.78 -2.266,1.13 -6,1.22 h -0.61 v 3.12 h 22.532 v -3.12 h -0.61 c -5.828,-0.19 -6.609,-0.61 -6.609,-3.75 v -57.25 m 49.703,44.55 c 0.094,-13.05 -7.297,-22.27 -17.922,-22.27 -11.141,0 -19.484,9.66 -19.484,22.7 0,12.27 7.922,20.46 19.656,20.46 8.359,0 14.187,-4.1 17.75,-12.36 l -3.047,-1.66 c -3.562,6.7 -7.219,9.31 -13.047,9.31 -4.437,0 -7.656,-1.82 -9.922,-5.75 -1.562,-2.61 -2.25,-5.65 -2.172,-10.43 h 28.188 m -28.094,-3.74 c 0,-6.09 2.781,-14.8 10.094,-14.8 5.219,0 8.687,4.61 8.687,11.66 0,2.44 -0.781,3.14 -3.562,3.14 h -15.219 m 44.563,-38.89 c -2.782,0 -5.047,2.25 -5.047,5.05 0,2.78 2.265,5.04 4.953,5.04 2.875,0 5.141,-2.26 5.141,-5.04 0,-2.8 -2.266,-5.05 -5.047,-5.05 m 4.093,21.66 -16.968,0.95 v 3.75 h 5.047 c 3.296,0.08 3.734,0.61 3.734,4.34 v 29.5 c 0,7.05 -0.438,10.36 -1.656,12.88 -0.86,1.73 -2.86,3.05 -4.782,3.05 -1.218,0 -2.171,-0.52 -2.171,-1.13 0,-0.36 0.093,-0.53 0.437,-1.41 0.438,-0.85 0.609,-1.46 0.609,-2.07 0,-2.18 -2.093,-4.1 -4.531,-4.1 -2.781,0 -4.875,2.17 -4.875,5.22 0,4.27 3.922,7.14 9.75,7.14 4.875,0 9.313,-2.09 11.828,-5.65 2.703,-3.83 3.578,-8.27 3.578,-18.1 v -34.37 m 15.547,56.56 c 7.844,-5.41 11.407,-10.7 11.407,-16.8 0,-5.22 -2.875,-8.61 -7.141,-8.61 -3.219,0 -5.656,2.25 -5.656,5.22 0,3.13 2.359,5.13 6.015,5.13 0.422,0 1.032,0 1.297,-0.08 h 0.266 c 0.437,0 0.609,0.25 0.609,0.78 0,3.66 -2.969,7.73 -8.797,11.83 l 2,2.53"
     id="path145" />
  <path
     class="Lyrics"
     d="m 1571.14,644.51998 h -3.05 l -2.53,3.125 c -3.13,-2.437 -6.27,-3.468 -10.61,-3.468 -7.66,0 -12.7,4.953 -12.7,12.609 0,8.172 5.31,10.266 12.26,11.922 l 4.61,1.047 c 6.88,1.656 9.31,3.39 9.31,6.875 0,4.078 -3.56,6.953 -8.61,6.953 -7.4,0 -12.62,-4.703 -14.7,-13.391 h -3.48 v 16.438 h 3.04 l 3.05,-3.563 c 3.56,2.86 7.48,4.266 11.92,4.266 8.52,0 14.17,-5.313 14.17,-13.406 0,-3.829 -1.21,-6.782 -3.65,-8.782 -2.08,-1.828 -3.83,-2.531 -9.13,-3.656 l -4.36,-0.969 c -4.78,-1.031 -4.78,-1.031 -6.34,-1.906 -1.92,-0.875 -3.05,-2.703 -3.05,-4.609 0,-3.563 3.32,-6 8.1,-6 7.12,0 10.61,5.047 12.7,11.125 h 3.05 v -14.61 m 31.17,30.453 -9.58,-22.359 c -0.34,-0.875 -0.52,-1.312 -0.52,-1.75 0,-1.641 1.04,-2.25 4,-2.25 h 1.83 v -3.141 h -20.72 v 3.141 h 0.97 c 2.96,0.078 4.08,0.953 5.91,4.688 l 14.19,32.109 -1.49,3.047 c -3.12,6.609 -7.22,11.219 -10,11.219 -0.78,0 -1.39,-0.344 -1.39,-0.86 0,-0.187 0.08,-0.437 0.17,-0.797 0.27,-0.781 0.44,-1.562 0.44,-2.25 0,-2.265 -1.83,-3.922 -4.44,-3.922 -3.04,0 -5.22,2.266 -5.22,5.391 0,3.922 3.3,6.703 7.91,6.703 4.63,0 8.53,-2.265 12.02,-6.953 2.68,-3.578 4.43,-7.234 8.26,-16.719 l 9.92,-24.609 c 2,-5.047 3.91,-6.969 7.3,-7.047 h 0.53 v -3.141 H 1605 v 3.141 h 1.39 c 3.31,0 4.7,0.953 4.7,3.219 0,0.953 -0.27,2 -0.88,3.469 l -7.9,19.671"
     id="path146" />
  <path
     class="Lyrics"
     d="m 2237.16,1095.288 -16.1,0.95 v 3.75 h 4.27 c 3.22,0.08 3.66,0.61 3.66,4.35 v 48.46 c -0.1,1.3 -0.19,1.83 -0.54,2.27 -0.61,0.78 -2.26,1.13 -6,1.22 h -0.61 v 3.12 h 22.54 v -3.12 h -0.61 c -5.83,-0.19 -6.61,-0.61 -6.61,-3.75 v -57.25 m 35.87,0.7 c -4.78,0 -8.7,3.91 -8.7,8.71 0,4.68 3.92,8.6 8.53,8.6 4.95,0 8.78,-3.82 8.78,-8.7 0,-4.7 -3.9,-8.61 -8.61,-8.61 m -0.09,3.13 c 3.14,0 5.58,2.43 5.58,5.48 0,3.13 -2.44,5.56 -5.58,5.56 -3.05,0 -5.47,-2.51 -5.47,-5.56 0,-3.05 2.42,-5.48 5.47,-5.48 m 9.31,60.9 15.84,-0.61 v -3.73 h -2.18 c -5.05,-0.19 -5.47,-0.7 -5.47,-6.36 v -30.45 l -16.36,0.95 v 3.75 h 4.44 c 3.29,0.08 3.73,0.61 3.73,4.34 v 10.71 c 0,7.58 -1.83,16.79 -11.39,16.79 -2.7,0 -4.97,-0.95 -6.09,-2.7 -1.13,-1.66 -1.32,-2.51 -1.32,-7.31 v -26.53 l -15.21,0.95 v 3.75 h 3.31 c 3.29,0.08 3.73,0.61 3.73,4.34 v 18.8 c 0,4.44 0.35,6.44 1.66,8.44 2.34,3.56 6.51,5.58 11.75,5.58 5.73,0 9.73,-2.36 13.56,-7.93 v 7.22"
     id="path147" />
  <path
     class="Lyrics"
     d="m 1438.26,1112.868 h 5.56 l 10.88,-14.44 h -3.13 l -10.53,8.78 -10.53,-8.78 h -3.05 l 10.8,14.44 m 14.44,33.75 c -2.78,6.26 -5.75,8.79 -10.27,8.79 -6.97,0 -11.31,-6.36 -11.31,-16.53 0,-10.61 4.27,-17.58 10.7,-17.58 2.61,0 4.88,1.22 4.88,2.61 0,0.27 -0.1,0.54 -0.53,1.05 -1.39,1.66 -1.74,2.52 -1.74,4 0,2.88 2.17,4.88 5.22,4.88 3.14,0 5.31,-2.44 5.31,-5.93 0,-5.9 -5.82,-10.34 -13.57,-10.34 -11.32,0 -19.41,9.22 -19.41,22.27 0,12.36 7.41,20.89 18.19,20.89 7.75,0 12.18,-3.58 15.92,-12.8 l -3.39,-1.31 m 19.15,-49.41 c -2.78,0 -5.04,2.25 -5.04,5.05 0,2.78 2.26,5.04 4.97,5.04 2.87,0 5.12,-2.26 5.12,-5.04 0,-2.8 -2.25,-5.05 -5.05,-5.05 m 4.1,21.66 -16.36,0.95 v 3.75 h 4.44 c 3.31,0.08 3.75,0.61 3.75,4.34 v 24.89 c -0.1,1.3 -0.18,1.83 -0.53,2.27 -0.61,0.78 -2.27,1.13 -6,1.22 h -0.61 v 3.12 h 22.53 v -3.12 h -0.61 c -5.83,-0.19 -6.61,-0.61 -6.61,-3.75 v -33.67"
     id="path148" />
  <path
     class="Lyrics"
     d="m 1656.79,645.47298 -15.07,0.954 v 3.75 h 3.14 c 3.3,0.078 3.74,0.609 3.74,4.343 v 24.891 c -0.08,1.297 -0.17,1.828 -0.52,2.266 -0.61,0.781 -2.26,1.125 -6,1.218 h -0.36 v 3.125 h 22.02 v -3.125 h -0.35 c -5.82,-0.187 -6.6,-0.609 -6.6,-3.75 v -12.875 c 0,-4.265 0.6,-8.172 1.56,-10.187 1.83,-3.906 5.73,-6.61 9.48,-6.61 2.27,0 4.88,1.219 6.17,3.047 1.32,1.922 1.93,4.532 1.93,8.703 v 18.188 c -0.1,1.297 -0.18,1.828 -0.54,2.266 -0.6,0.781 -2.34,1.125 -6.07,1.218 h -0.36 v 3.125 h 22.01 v -3.125 h -0.34 c -5.75,-0.187 -6.53,-0.609 -6.53,-3.75 v -17.484 c 0,-6.266 -0.27,-7.828 -1.83,-10.797 -2.17,-4.172 -6.52,-6.687 -11.75,-6.687 -5.64,0 -9.91,2.609 -13.73,8.343 v -7.047 m 53.07,-6 h 3.58 l 13.83,-8.437 c 1.3,-0.875 2.17,-2.172 2.17,-3.391 0,-1.75 -1.3,-3.047 -3.05,-3.047 -1.29,0 -2.07,0.438 -4.26,2.688 l -12.27,12.187 m 21.85,18.532 c 0,-5.485 -0.96,-8.266 -3.49,-10.36 -2.87,-2.343 -7.12,-3.468 -12.7,-3.468 -9.83,0 -16.97,4.609 -16.97,10.953 0,3.218 2,5.312 5.05,5.312 2.79,0 4.7,-1.828 4.7,-4.437 0,-1.125 -0.44,-2.344 -1.31,-3.563 -0.52,-0.609 -0.6,-0.797 -0.6,-1.219 0,-1.75 3.47,-3.312 7.66,-3.312 2.78,0 5.83,0.875 7.22,2.172 1.64,1.39 2.25,3.484 2.25,7.406 v 3.391 c -9.05,1.562 -11.91,2.265 -16.17,3.906 -7.58,2.797 -11.14,6.797 -11.14,12.359 0,6.266 4.87,10.188 12.61,10.188 6.01,0 11.4,-2.438 15.14,-6.875 1.39,4.437 3.58,6.172 7.65,6.172 3.93,0 8.02,-2.532 8.02,-5.047 0,-0.61 -0.36,-1.047 -0.88,-1.047 -0.34,0 -0.7,0.094 -1.31,0.344 -1.22,0.531 -1.73,0.609 -2.44,0.609 -2.42,0 -3.29,-1.562 -3.29,-6 v -17.484 m -8.19,10.609 c 0,5.219 -0.25,6.438 -1.73,8.703 -2.18,3.219 -6.1,5.391 -9.93,5.391 -4,0 -6.87,-2.86 -6.87,-6.781 0,-3.657 1.83,-6.266 5.65,-8.094 2.71,-1.219 6.1,-2.078 12.88,-3.219 v 4 m 36.09,-29.141 h 5.57 l 10.87,-14.437 h -3.12 l -10.54,8.781 -10.53,-8.781 h -3.04 l 10.79,14.437 m 14.44,33.75 c -2.78,6.266 -5.75,8.797 -10.26,8.797 -6.97,0 -11.32,-6.359 -11.32,-16.531 0,-10.609 4.27,-17.578 10.71,-17.578 2.61,0 4.87,1.219 4.87,2.609 0,0.266 -0.09,0.532 -0.53,1.047 -1.39,1.656 -1.73,2.516 -1.73,4 0,2.875 2.17,4.875 5.21,4.875 3.14,0 5.32,-2.437 5.32,-5.922 0,-5.906 -5.83,-10.343 -13.58,-10.343 -11.31,0 -19.41,9.218 -19.41,22.265 0,12.36 7.41,20.891 18.19,20.891 7.75,0 12.19,-3.578 15.92,-12.797 l -3.39,-1.313"
     id="path149" />
  <path
     class="Lyrics"
     d="m 1812.87,664.95798 v -43.063 l -16.09,0.953 v 3.75 h 4.17 c 3.31,0.079 3.75,0.61 3.75,4.344 v 48.547 c -0.09,1.219 -0.17,1.75 -0.53,2.188 -0.61,0.781 -2.27,1.125 -6,1.218 h -0.35 v 3.125 h 22.02 v -3.125 h -0.36 c -5.83,-0.187 -6.61,-0.609 -6.61,-3.75 v -8.781 l 5.31,-5.047 10.35,14.531 c 0.44,0.688 0.61,1.125 0.61,1.469 0,1.219 -0.96,1.578 -3.83,1.578 h -1.64 v 3.125 h 22.97 v -3.125 c -4.88,-0.437 -6.63,-1.484 -10.19,-6.015 l -12.36,-16.875 3.92,-3.828 c 5.14,-4.954 8.78,-6.875 14.71,-7.563 v -3.141 h -22.88 v 3.141 h 2.69 c 2.78,0 4.09,0.516 4.09,1.641 0,0.968 -0.61,2 -2,3.406 l -11.75,11.297 m 70.53,21.672 15.85,-0.61 v -3.734 h -2.19 c -5.05,-0.188 -5.47,-0.703 -5.47,-6.359 v -30.454 l -16.36,0.954 v 3.75 h 4.44 c 3.3,0.078 3.73,0.609 3.73,4.343 v 10.703 c 0,7.579 -1.83,16.797 -11.39,16.797 -2.7,0 -4.97,-0.953 -6.09,-2.703 -1.13,-1.656 -1.31,-2.515 -1.31,-7.312 v -26.532 l -15.22,0.954 v 3.75 h 3.31 c 3.3,0.078 3.73,0.609 3.73,4.343 v 18.797 c 0,4.438 0.35,6.438 1.66,8.438 2.34,3.562 6.52,5.578 11.75,5.578 5.73,0 9.73,-2.36 13.56,-7.922 v 7.219"
     id="path150" />
  <path
     class="Lyrics"
     d="m 1519.44,1112.868 h 5.56 l 10.88,-14.44 h -3.13 l -10.53,8.78 -10.53,-8.78 h -3.05 l 10.8,14.44 m 14.44,33.75 c -2.78,6.26 -5.75,8.79 -10.27,8.79 -6.97,0 -11.31,-6.36 -11.31,-16.53 0,-10.61 4.27,-17.58 10.7,-17.58 2.61,0 4.88,1.22 4.88,2.61 0,0.27 -0.1,0.54 -0.53,1.05 -1.39,1.66 -1.74,2.52 -1.74,4 0,2.88 2.17,4.88 5.22,4.88 3.14,0 5.31,-2.44 5.31,-5.93 0,-5.9 -5.82,-10.34 -13.57,-10.34 -11.32,0 -19.41,9.22 -19.41,22.27 0,12.36 7.41,20.89 18.19,20.89 7.75,0 12.18,-3.58 15.92,-12.8 l -3.39,-1.31 m 22.64,-8.27 v -43.06 l -16.09,0.95 v 3.75 h 4.17 c 3.31,0.08 3.75,0.61 3.75,4.35 v 48.54 c -0.1,1.22 -0.17,1.75 -0.53,2.19 -0.61,0.78 -2.27,1.13 -6,1.22 h -0.35 v 3.12 h 22.02 v -3.12 h -0.36 c -5.83,-0.19 -6.61,-0.61 -6.61,-3.75 v -8.78 l 5.31,-5.05 10.35,14.53 c 0.43,0.69 0.6,1.13 0.6,1.47 0,1.22 -0.95,1.58 -3.82,1.58 h -1.64 v 3.12 h 22.96 v -3.12 c -4.87,-0.44 -6.62,-1.49 -10.18,-6.02 l -12.36,-16.87 3.92,-3.83 c 5.14,-4.95 8.78,-6.87 14.7,-7.56 v -3.14 h -22.87 v 3.14 h 2.69 c 2.78,0 4.09,0.51 4.09,1.64 0,0.97 -0.61,2 -2,3.4 l -11.75,11.3 m 74.01,-6.95 c 0,-5.49 -0.95,-8.27 -3.48,-10.36 -2.87,-2.34 -7.12,-3.47 -12.7,-3.47 -9.83,0 -16.97,4.61 -16.97,10.95 0,3.22 2,5.32 5.05,5.32 2.79,0 4.7,-1.83 4.7,-4.44 0,-1.13 -0.44,-2.35 -1.31,-3.56 -0.52,-0.61 -0.6,-0.8 -0.6,-1.22 0,-1.75 3.47,-3.32 7.66,-3.32 2.78,0 5.83,0.88 7.22,2.18 1.64,1.39 2.25,3.48 2.25,7.4 v 3.39 c -9.05,1.57 -11.91,2.27 -16.17,3.91 -7.58,2.8 -11.15,6.8 -11.15,12.36 0,6.26 4.88,10.19 12.61,10.19 6.02,0 11.41,-2.44 15.14,-6.88 1.4,4.44 3.58,6.17 7.66,6.17 3.92,0 8.02,-2.53 8.02,-5.04 0,-0.61 -0.36,-1.05 -0.88,-1.05 -0.34,0 -0.7,0.09 -1.31,0.34 -1.22,0.53 -1.74,0.61 -2.44,0.61 -2.42,0 -3.3,-1.56 -3.3,-6 v -17.48 m -8.18,10.61 c 0,5.22 -0.25,6.44 -1.74,8.7 -2.17,3.22 -6.09,5.39 -9.92,5.39 -4,0 -6.87,-2.86 -6.87,-6.78 0,-3.66 1.82,-6.27 5.65,-8.09 2.71,-1.22 6.1,-2.08 12.88,-3.22 v 4"
     id="path151" />
  <path
     class="Lyrics"
     d="m 1938.59,644.51998 h -3.05 l -2.53,3.125 c -3.13,-2.437 -6.27,-3.468 -10.61,-3.468 -7.66,0 -12.7,4.953 -12.7,12.609 0,8.172 5.31,10.266 12.26,11.922 l 4.61,1.047 c 6.88,1.656 9.31,3.39 9.31,6.875 0,4.078 -3.56,6.953 -8.61,6.953 -7.4,0 -12.62,-4.703 -14.7,-13.391 h -3.48 v 16.438 h 3.04 l 3.05,-3.563 c 3.56,2.86 7.48,4.266 11.92,4.266 8.52,0 14.17,-5.313 14.17,-13.406 0,-3.829 -1.21,-6.782 -3.65,-8.782 -2.08,-1.828 -3.83,-2.531 -9.13,-3.656 l -4.36,-0.969 c -4.78,-1.031 -4.78,-1.031 -6.34,-1.906 -1.92,-0.875 -3.05,-2.703 -3.05,-4.609 0,-3.563 3.32,-6 8.1,-6 7.12,0 10.61,5.047 12.7,11.125 h 3.05 v -14.61 m 22.54,0.953 -15.04,0.954 v 3.75 h 3.12 c 3.31,0.078 3.75,0.609 3.75,4.343 v 42.547 c -0.09,1.219 -0.17,1.75 -0.53,2.172 -0.61,0.797 -2.25,1.141 -6,1.219 h -0.34 v 3.14 h 22.62 v -3.14 h -0.97 c -5.83,-0.172 -6.61,-0.61 -6.61,-3.735 v -16.453 c 2.88,5.047 6.1,7.063 11.49,7.063 11.58,0 17.58,-11.406 17.58,-21.766 0,-9.828 -6,-21.39 -17.05,-21.39 -5.41,0 -8.97,2.25 -12.02,7.468 v -6.172 m 10.44,3.391 c 6.02,0 9.49,6.016 9.49,16.188 0,11.218 -3.47,17.578 -9.74,17.578 -6.26,0 -10.26,-6.438 -10.26,-16.453 0,-10.875 3.9,-17.313 10.51,-17.313 m 35.91,-25.047 c -2.78,0 -5.05,2.25 -5.05,5.047 0,2.781 2.27,5.047 4.97,5.047 2.87,0 5.12,-2.266 5.12,-5.047 0,-2.797 -2.25,-5.047 -5.04,-5.047 m 4.09,21.656 -16.36,0.954 v 3.75 h 4.44 c 3.31,0.078 3.75,0.609 3.75,4.343 v 24.891 c -0.09,1.297 -0.17,1.828 -0.53,2.266 -0.61,0.781 -2.27,1.125 -6,1.218 h -0.61 v 3.125 h 22.53 v -3.125 h -0.61 c -5.83,-0.187 -6.61,-0.609 -6.61,-3.75 v -33.672 m 16.64,56.563 c 7.85,-5.406 11.41,-10.703 11.41,-16.797 0,-5.219 -2.88,-8.609 -7.14,-8.609 -3.22,0 -5.66,2.25 -5.66,5.218 0,3.125 2.36,5.125 6.02,5.125 0.42,0 1.03,0 1.29,-0.078 h 0.27 c 0.44,0 0.61,0.25 0.61,0.782 0,3.656 -2.97,7.734 -8.8,11.828 l 2,2.531"
     id="path152" />
  <path
     class="Lyrics"
     d="m 2384.08,1095.288 -16.09,0.95 v 3.75 h 4.26 c 3.22,0.08 3.66,0.61 3.66,4.35 v 48.46 c -0.09,1.3 -0.19,1.83 -0.53,2.27 -0.61,0.78 -2.27,1.13 -6,1.22 h -0.61 v 3.12 h 22.53 v -3.12 h -0.61 c -5.83,-0.19 -6.61,-0.61 -6.61,-3.75 v -57.25 m 48.58,36.11 c 0,-5.49 -0.95,-8.27 -3.48,-10.36 -2.88,-2.34 -7.13,-3.47 -12.71,-3.47 -9.82,0 -16.97,4.61 -16.97,10.95 0,3.22 2,5.32 5.05,5.32 2.8,0 4.7,-1.83 4.7,-4.44 0,-1.13 -0.43,-2.35 -1.31,-3.56 -0.51,-0.61 -0.59,-0.8 -0.59,-1.22 0,-1.75 3.47,-3.32 7.65,-3.32 2.79,0 5.83,0.88 7.22,2.18 1.64,1.39 2.25,3.48 2.25,7.4 v 3.39 c -9.04,1.57 -11.9,2.27 -16.17,3.91 -7.58,2.8 -11.14,6.8 -11.14,12.36 0,6.26 4.88,10.19 12.61,10.19 6.02,0 11.41,-2.44 15.14,-6.88 1.39,4.44 3.58,6.17 7.66,6.17 3.92,0 8.01,-2.53 8.01,-5.04 0,-0.61 -0.36,-1.05 -0.87,-1.05 -0.35,0 -0.71,0.09 -1.31,0.34 -1.22,0.53 -1.74,0.61 -2.44,0.61 -2.42,0 -3.3,-1.56 -3.3,-6 v -17.48 m -8.19,10.61 c 0,5.22 -0.25,6.44 -1.73,8.7 -2.17,3.22 -6.09,5.39 -9.92,5.39 -4,0 -6.88,-2.86 -6.88,-6.78 0,-3.66 1.83,-6.27 5.66,-8.09 2.7,-1.22 6.09,-2.08 12.87,-3.22 v 4"
     id="path153" />
  <path
     class="Lyrics"
     d="m 981.318,1160.018 15.844,-0.61 v -3.73 h -2.188 c -5.047,-0.19 -5.469,-0.7 -5.469,-6.36 v -30.45 l -16.359,0.95 v 3.75 h 4.437 c 3.297,0.08 3.735,0.61 3.735,4.34 v 10.71 c 0,7.58 -1.828,16.79 -11.391,16.79 -2.703,0 -4.969,-0.95 -6.094,-2.7 -1.125,-1.66 -1.312,-2.51 -1.312,-7.31 v -26.53 l -15.219,0.95 v 3.75 h 3.313 c 3.297,0.08 3.734,0.61 3.734,4.34 v 18.8 c 0,4.44 0.344,6.44 1.656,8.44 2.344,3.56 6.516,5.58 11.75,5.58 5.735,0 9.735,-2.36 13.563,-7.93 v 7.22 m 35.862,-47.15 h 5.58 l 10.87,-14.44 h -3.14 l -10.53,8.78 -10.52,-8.78 h -3.04 l 10.78,14.44 m 18.53,6 h -31.41 l -0.78,14.7 h 3.49 c 0.68,-7.73 4.07,-11.05 11.04,-10.95 h 7.56 l -23.75,33.67 v 3.12 h 33.85 l 0.61,-15.57 h -3.47 c -0.88,8.53 -4.27,11.92 -12.02,11.84 h -8.87 l 23.75,-33.67 v -3.14"
     id="path154" />
  <path
     class="Lyrics"
     d="m 2064.4,621.89498 -14.96,0.953 v 3.75 h 3.03 c 3.32,0.079 3.75,0.61 3.75,4.344 v 33.844 c 0,12.094 -0.53,18.719 -1.56,22.453 h 3.3 l 4.26,-6.781 c 3.57,4.687 7.66,6.875 13.05,6.875 10.8,0 18.72,-9.235 18.72,-21.844 0,-12.531 -7.31,-21.312 -17.75,-21.312 -5.31,0 -8.53,1.828 -11.84,6.781 v -29.063 m 10.26,26.719 c 6.53,0 10.19,6.344 10.19,17.75 0,11.047 -3.56,17.219 -9.92,17.219 -6.88,0 -10.97,-6.344 -10.97,-17.047 0,-11.656 3.75,-17.922 10.7,-17.922 m 61.41,9.391 c 0,-5.485 -0.96,-8.266 -3.49,-10.36 -2.87,-2.343 -7.12,-3.468 -12.7,-3.468 -9.83,0 -16.97,4.609 -16.97,10.953 0,3.218 2,5.312 5.05,5.312 2.79,0 4.7,-1.828 4.7,-4.437 0,-1.125 -0.44,-2.344 -1.31,-3.563 -0.52,-0.609 -0.6,-0.797 -0.6,-1.219 0,-1.75 3.47,-3.312 7.66,-3.312 2.78,0 5.83,0.875 7.22,2.172 1.64,1.39 2.25,3.484 2.25,7.406 v 3.391 c -9.05,1.562 -11.91,2.265 -16.17,3.906 -7.58,2.797 -11.14,6.797 -11.14,12.359 0,6.266 4.87,10.188 12.61,10.188 6.01,0 11.4,-2.438 15.14,-6.875 1.39,4.437 3.58,6.172 7.65,6.172 3.93,0 8.02,-2.532 8.02,-5.047 0,-0.61 -0.36,-1.047 -0.88,-1.047 -0.34,0 -0.7,0.094 -1.31,0.344 -1.22,0.531 -1.73,0.609 -2.44,0.609 -2.42,0 -3.29,-1.562 -3.29,-6 v -17.484 m -8.19,10.609 c 0,5.219 -0.25,6.438 -1.73,8.703 -2.18,3.219 -6.1,5.391 -9.93,5.391 -4,0 -6.87,-2.86 -6.87,-6.781 0,-3.657 1.83,-6.266 5.65,-8.094 2.71,-1.219 6.1,-2.078 12.88,-3.219 v 4 m 27.78,-44.797 c -2.78,0 -5.05,2.25 -5.05,5.047 0,2.781 2.27,5.047 4.96,5.047 2.87,0 5.14,-2.266 5.14,-5.047 0,-2.797 -2.27,-5.047 -5.05,-5.047 m 4.09,21.656 -16.96,0.954 v 3.75 h 5.04 c 3.3,0.078 3.74,0.609 3.74,4.343 v 29.5 c 0,7.047 -0.44,10.36 -1.66,12.875 -0.86,1.735 -2.86,3.047 -4.78,3.047 -1.22,0 -2.17,-0.515 -2.17,-1.125 0,-0.359 0.09,-0.531 0.44,-1.406 0.43,-0.859 0.6,-1.469 0.6,-2.078 0,-2.172 -2.09,-4.094 -4.53,-4.094 -2.78,0 -4.87,2.172 -4.87,5.219 0,4.265 3.92,7.14 9.75,7.14 4.87,0 9.31,-2.093 11.83,-5.656 2.7,-3.828 3.57,-8.265 3.57,-18.094 v -34.375"
     id="path155" />
  <path
     class="Lyrics"
     d="m 1678.23,1117.908 h -3.04 l -2.53,3.13 c -3.13,-2.44 -6.27,-3.47 -10.61,-3.47 -7.66,0 -12.71,4.95 -12.71,12.61 0,8.17 5.32,10.27 12.27,11.92 l 4.61,1.05 c 6.87,1.65 9.31,3.39 9.31,6.87 0,4.08 -3.56,6.96 -8.61,6.96 -7.4,0 -12.62,-4.71 -14.7,-13.39 h -3.49 v 16.43 h 3.05 l 3.05,-3.56 c 3.56,2.86 7.48,4.27 11.92,4.27 8.52,0 14.17,-5.32 14.17,-13.41 0,-3.83 -1.22,-6.78 -3.65,-8.78 -2.08,-1.83 -3.83,-2.53 -9.13,-3.66 l -4.36,-0.97 c -4.78,-1.03 -4.78,-1.03 -6.34,-1.9 -1.92,-0.88 -3.05,-2.71 -3.05,-4.61 0,-3.56 3.31,-6 8.09,-6 7.13,0 10.61,5.05 12.71,11.12 h 3.04 v -14.61 m 30.74,30.97 -9.92,-22.97 c -0.27,-0.68 -0.44,-1.39 -0.44,-1.9 0,-1.49 1.12,-2 4.7,-2 h 1.22 v -3.14 H 1684 v 3.14 h 0.69 c 3.31,0 4.53,0.86 5.75,3.73 l 14.95,34.99 h 3.05 l 12.36,-30.55 c 2.43,-5.92 4.53,-7.92 8.09,-8.17 h 0.34 v -3.14 h -17.4 v 3.14 h 1.22 c 3.04,0 4.7,1.03 4.7,3.03 0,1.05 -0.27,2.36 -0.78,3.66 l -8,20.18 m 38.12,-36.01 h 3.57 l 13.82,-8.44 c 1.32,-0.88 2.19,-2.17 2.19,-3.39 0,-1.75 -1.31,-3.05 -3.05,-3.05 -1.39,0 -2.18,0.52 -4.35,2.69 l -12.18,12.19 m 9.32,35.5 -9.58,-22.36 c -0.35,-0.88 -0.52,-1.31 -0.52,-1.75 0,-1.64 1.03,-2.25 4,-2.25 h 1.83 v -3.14 h -20.72 v 3.14 h 0.97 c 2.95,0.08 4.08,0.95 5.91,4.69 l 14.18,32.1 -1.48,3.05 c -3.13,6.61 -7.22,11.22 -10,11.22 -0.78,0 -1.39,-0.34 -1.39,-0.86 0,-0.19 0.08,-0.44 0.17,-0.8 0.27,-0.78 0.44,-1.56 0.44,-2.25 0,-2.26 -1.83,-3.92 -4.44,-3.92 -3.05,0 -5.22,2.27 -5.22,5.39 0,3.92 3.3,6.71 7.91,6.71 4.62,0 8.53,-2.27 12.01,-6.96 2.69,-3.58 4.44,-7.23 8.27,-16.72 l 9.92,-24.61 c 2,-5.04 3.91,-6.96 7.3,-7.04 h 0.53 v -3.14 h -17.41 v 3.14 h 1.39 c 3.32,0 4.71,0.95 4.71,3.22 0,0.95 -0.27,2 -0.88,3.47 l -7.9,19.67 m 22.45,27.06 c 7.84,-5.41 11.41,-10.7 11.41,-16.8 0,-5.22 -2.88,-8.61 -7.15,-8.61 -3.21,0 -5.65,2.25 -5.65,5.22 0,3.13 2.36,5.13 6.01,5.13 0.43,0 1.04,0 1.3,-0.08 h 0.27 c 0.43,0 0.61,0.25 0.61,0.78 0,3.66 -2.97,7.73 -8.8,11.83 l 2,2.53"
     id="path156" />
  <path
     class="Lyrics"
     d="m 2234.9,621.89498 -14.95,0.953 v 3.75 h 3.03 c 3.31,0.079 3.75,0.61 3.75,4.344 v 33.844 c 0,12.094 -0.53,18.719 -1.56,22.453 h 3.29 l 4.27,-6.781 c 3.56,4.687 7.66,6.875 13.05,6.875 10.79,0 18.71,-9.235 18.71,-21.844 0,-12.531 -7.31,-21.312 -17.75,-21.312 -5.31,0 -8.53,1.828 -11.84,6.781 v -29.063 m 10.27,26.719 c 6.53,0 10.18,6.344 10.18,17.75 0,11.047 -3.56,17.219 -9.92,17.219 -6.87,0 -10.97,-6.344 -10.97,-17.047 0,-11.656 3.75,-17.922 10.71,-17.922 m 61.4,9.391 c 0,-5.485 -0.95,-8.266 -3.48,-10.36 -2.88,-2.343 -7.13,-3.468 -12.7,-3.468 -9.83,0 -16.97,4.609 -16.97,10.953 0,3.218 2,5.312 5.04,5.312 2.8,0 4.71,-1.828 4.71,-4.437 0,-1.125 -0.44,-2.344 -1.32,-3.563 -0.51,-0.609 -0.59,-0.797 -0.59,-1.219 0,-1.75 3.47,-3.312 7.66,-3.312 2.78,0 5.82,0.875 7.22,2.172 1.64,1.39 2.25,3.484 2.25,7.406 v 3.391 c -9.05,1.562 -11.91,2.265 -16.18,3.906 -7.57,2.797 -11.14,6.797 -11.14,12.359 0,6.266 4.88,10.188 12.61,10.188 6.02,0 11.41,-2.438 15.14,-6.875 1.39,4.437 3.58,6.172 7.66,6.172 3.92,0 8.01,-2.532 8.01,-5.047 0,-0.61 -0.35,-1.047 -0.87,-1.047 -0.34,0 -0.7,0.094 -1.31,0.344 -1.22,0.531 -1.74,0.609 -2.44,0.609 -2.42,0 -3.3,-1.562 -3.3,-6 v -17.484 m -8.18,10.609 c 0,5.219 -0.25,6.438 -1.74,8.703 -2.17,3.219 -6.09,5.391 -9.92,5.391 -4,0 -6.88,-2.86 -6.88,-6.781 0,-3.657 1.83,-6.266 5.66,-8.094 2.7,-1.219 6.09,-2.078 12.88,-3.219 v 4 m 27.78,-44.797 c -2.78,0 -5.05,2.25 -5.05,5.047 0,2.781 2.27,5.047 4.95,5.047 2.88,0 5.14,-2.266 5.14,-5.047 0,-2.797 -2.26,-5.047 -5.04,-5.047 m 4.09,21.656 -16.97,0.954 v 3.75 h 5.05 c 3.3,0.078 3.73,0.609 3.73,4.343 v 29.5 c 0,7.047 -0.43,10.36 -1.65,12.875 -0.86,1.735 -2.86,3.047 -4.78,3.047 -1.22,0 -2.18,-0.515 -2.18,-1.125 0,-0.359 0.1,-0.531 0.44,-1.406 0.44,-0.859 0.61,-1.469 0.61,-2.078 0,-2.172 -2.09,-4.094 -4.53,-4.094 -2.78,0 -4.88,2.172 -4.88,5.219 0,4.265 3.93,7.14 9.75,7.14 4.88,0 9.32,-2.093 11.83,-5.656 2.71,-3.828 3.58,-8.265 3.58,-18.094 v -34.375 m 15.55,56.563 c 7.84,-5.406 11.4,-10.703 11.4,-16.797 0,-5.219 -2.87,-8.609 -7.14,-8.609 -3.22,0 -5.65,2.25 -5.65,5.218 0,3.125 2.36,5.125 6.01,5.125 0.42,0 1.03,0 1.3,-0.078 h 0.26 c 0.44,0 0.61,0.25 0.61,0.782 0,3.656 -2.96,7.734 -8.79,11.828 l 2,2.531"
     id="path157" />
  <path
     class="Lyrics"
     d="m 2439.18,621.89498 -16.09,0.953 v 3.75 h 4.27 c 3.22,0.079 3.65,0.61 3.65,4.344 v 48.469 c -0.09,1.297 -0.18,1.828 -0.53,2.266 -0.61,0.781 -2.26,1.125 -6,1.218 h -0.61 v 3.125 h 22.53 v -3.125 h -0.61 c -5.82,-0.187 -6.61,-0.609 -6.61,-3.75 v -57.25 m 48.58,36.11 c 0,-5.485 -0.95,-8.266 -3.48,-10.36 -2.88,-2.343 -7.13,-3.468 -12.7,-3.468 -9.83,0 -16.97,4.609 -16.97,10.953 0,3.218 2,5.312 5.04,5.312 2.8,0 4.71,-1.828 4.71,-4.437 0,-1.125 -0.44,-2.344 -1.32,-3.563 -0.51,-0.609 -0.59,-0.797 -0.59,-1.219 0,-1.75 3.47,-3.312 7.66,-3.312 2.78,0 5.82,0.875 7.22,2.172 1.64,1.39 2.25,3.484 2.25,7.406 v 3.391 c -9.05,1.562 -11.91,2.265 -16.18,3.906 -7.57,2.797 -11.14,6.797 -11.14,12.359 0,6.266 4.88,10.188 12.61,10.188 6.02,0 11.41,-2.438 15.14,-6.875 1.39,4.437 3.58,6.172 7.66,6.172 3.92,0 8.01,-2.532 8.01,-5.047 0,-0.61 -0.35,-1.047 -0.87,-1.047 -0.34,0 -0.7,0.094 -1.31,0.344 -1.22,0.531 -1.74,0.609 -2.44,0.609 -2.42,0 -3.3,-1.562 -3.3,-6 v -17.484 m -8.18,10.609 c 0,5.219 -0.25,6.438 -1.74,8.703 -2.17,3.219 -6.09,5.391 -9.92,5.391 -4,0 -6.88,-2.86 -6.88,-6.781 0,-3.657 1.83,-6.266 5.66,-8.094 2.7,-1.219 6.09,-2.078 12.88,-3.219 v 4"
     id="path158" />
  <path
     class="Lyrics"
     d="m 2527.89,1095.288 -16.1,0.95 v 3.75 h 4.27 c 3.22,0.08 3.65,0.61 3.65,4.35 v 48.46 c -0.09,1.3 -0.18,1.83 -0.53,2.27 -0.61,0.78 -2.26,1.13 -6,1.22 h -0.61 v 3.12 h 22.53 v -3.12 h -0.61 c -5.82,-0.19 -6.6,-0.61 -6.6,-3.75 v -57.25 m 49.7,44.55 c 0.09,-13.05 -7.3,-22.27 -17.92,-22.27 -11.14,0 -19.49,9.66 -19.49,22.7 0,12.27 7.92,20.46 19.66,20.46 8.36,0 14.19,-4.1 17.75,-12.36 l -3.05,-1.66 c -3.56,6.7 -7.22,9.31 -13.05,9.31 -4.43,0 -7.65,-1.82 -9.92,-5.75 -1.56,-2.61 -2.25,-5.65 -2.17,-10.43 h 28.19 m -28.1,-3.74 c 0,-6.09 2.79,-14.8 10.1,-14.8 5.22,0 8.69,4.61 8.69,11.66 0,2.44 -0.79,3.14 -3.57,3.14 h -15.22 m 44.57,-38.89 c -2.78,0 -5.05,2.25 -5.05,5.05 0,2.78 2.27,5.04 4.95,5.04 2.88,0 5.14,-2.26 5.14,-5.04 0,-2.8 -2.26,-5.05 -5.04,-5.05 m 4.09,21.66 -16.97,0.95 v 3.75 h 5.05 c 3.3,0.08 3.73,0.61 3.73,4.34 v 29.5 c 0,7.05 -0.43,10.36 -1.65,12.88 -0.86,1.73 -2.86,3.05 -4.78,3.05 -1.22,0 -2.18,-0.52 -2.18,-1.13 0,-0.36 0.1,-0.53 0.44,-1.41 0.44,-0.85 0.61,-1.46 0.61,-2.07 0,-2.18 -2.09,-4.1 -4.53,-4.1 -2.78,0 -4.88,2.17 -4.88,5.22 0,4.27 3.93,7.14 9.75,7.14 4.88,0 9.32,-2.09 11.83,-5.65 2.71,-3.83 3.58,-8.27 3.58,-18.1 v -34.37 m 19.91,30.89 c -3.05,0 -5.49,2.44 -5.49,5.39 0,3.05 2.44,5.48 5.39,5.48 3.05,0 5.49,-2.43 5.49,-5.48 0,-2.95 -2.44,-5.39 -5.39,-5.39"
     id="path159" />
  <path
     class="Lyrics"
     d="m 1079.8,1118.868 h -31.41 l -0.78,14.7 h 3.49 c 0.68,-7.73 4.07,-11.05 11.04,-10.95 h 7.56 l -23.75,33.67 v 3.12 h 33.85 l 0.61,-15.57 h -3.47 c -0.88,8.53 -4.27,11.92 -12.02,11.84 h -8.87 l 23.75,-33.67 v -3.14 m 43.09,12.53 c 0,-5.49 -0.95,-8.27 -3.48,-10.36 -2.88,-2.34 -7.13,-3.47 -12.71,-3.47 -9.82,0 -16.96,4.61 -16.96,10.95 0,3.22 2,5.32 5.04,5.32 2.8,0 4.71,-1.83 4.71,-4.44 0,-1.13 -0.44,-2.35 -1.32,-3.56 -0.51,-0.61 -0.59,-0.8 -0.59,-1.22 0,-1.75 3.47,-3.32 7.66,-3.32 2.78,0 5.82,0.88 7.21,2.18 1.65,1.39 2.25,3.48 2.25,7.4 v 3.39 c -9.04,1.57 -11.9,2.27 -16.17,3.91 -7.58,2.8 -11.14,6.8 -11.14,12.36 0,6.26 4.88,10.19 12.61,10.19 6.02,0 11.41,-2.44 15.14,-6.88 1.39,4.44 3.58,6.17 7.66,6.17 3.92,0 8.01,-2.53 8.01,-5.04 0,-0.61 -0.36,-1.05 -0.87,-1.05 -0.34,0 -0.7,0.09 -1.31,0.34 -1.22,0.53 -1.74,0.61 -2.44,0.61 -2.42,0 -3.3,-1.56 -3.3,-6 v -17.48 m -8.19,10.61 c 0,5.22 -0.25,6.44 -1.73,8.7 -2.17,3.22 -6.09,5.39 -9.92,5.39 -4,0 -6.88,-2.86 -6.88,-6.78 0,-3.66 1.83,-6.27 5.66,-8.09 2.7,-1.22 6.09,-2.08 12.87,-3.22 v 4"
     id="path160" />
  <path
     class="Lyrics"
     d="m 1815.04,1095.288 -14.95,0.95 v 3.75 h 3.03 c 3.31,0.08 3.75,0.61 3.75,4.35 v 33.84 c 0,12.09 -0.53,18.72 -1.56,22.45 h 3.3 l 4.26,-6.78 c 3.56,4.69 7.66,6.88 13.05,6.88 10.79,0 18.72,-9.24 18.72,-21.85 0,-12.53 -7.32,-21.31 -17.75,-21.31 -5.32,0 -8.53,1.83 -11.85,6.78 v -29.06 m 10.27,26.72 c 6.53,0 10.19,6.34 10.19,17.75 0,11.04 -3.57,17.22 -9.93,17.22 -6.87,0 -10.96,-6.35 -10.96,-17.05 0,-11.66 3.75,-17.92 10.7,-17.92 m 61.4,9.39 c 0,-5.49 -0.95,-8.27 -3.48,-10.36 -2.87,-2.34 -7.12,-3.47 -12.7,-3.47 -9.83,0 -16.97,4.61 -16.97,10.95 0,3.22 2,5.32 5.05,5.32 2.79,0 4.7,-1.83 4.7,-4.44 0,-1.13 -0.44,-2.35 -1.31,-3.56 -0.52,-0.61 -0.6,-0.8 -0.6,-1.22 0,-1.75 3.47,-3.32 7.66,-3.32 2.78,0 5.83,0.88 7.22,2.18 1.64,1.39 2.25,3.48 2.25,7.4 v 3.39 c -9.05,1.57 -11.91,2.27 -16.17,3.91 -7.58,2.8 -11.15,6.8 -11.15,12.36 0,6.26 4.88,10.19 12.61,10.19 6.02,0 11.41,-2.44 15.14,-6.88 1.4,4.44 3.58,6.17 7.66,6.17 3.92,0 8.02,-2.53 8.02,-5.04 0,-0.61 -0.36,-1.05 -0.88,-1.05 -0.34,0 -0.7,0.09 -1.31,0.34 -1.22,0.53 -1.74,0.61 -2.44,0.61 -2.42,0 -3.3,-1.56 -3.3,-6 v -17.48 m -8.18,10.61 c 0,5.22 -0.25,6.44 -1.74,8.7 -2.17,3.22 -6.09,5.39 -9.92,5.39 -4,0 -6.87,-2.86 -6.87,-6.78 0,-3.66 1.82,-6.27 5.65,-8.09 2.71,-1.22 6.1,-2.08 12.88,-3.22 v 4 m 27.78,-44.8 c -2.78,0 -5.05,2.25 -5.05,5.05 0,2.78 2.27,5.04 4.95,5.04 2.88,0 5.15,-2.26 5.15,-5.04 0,-2.8 -2.27,-5.05 -5.05,-5.05 m 4.09,21.66 -16.97,0.95 v 3.75 h 5.05 c 3.3,0.08 3.73,0.61 3.73,4.34 v 29.5 c 0,7.05 -0.43,10.36 -1.65,12.88 -0.86,1.73 -2.86,3.05 -4.78,3.05 -1.22,0 -2.17,-0.52 -2.17,-1.13 0,-0.36 0.09,-0.53 0.43,-1.41 0.44,-0.85 0.61,-1.46 0.61,-2.07 0,-2.18 -2.09,-4.1 -4.53,-4.1 -2.78,0 -4.87,2.17 -4.87,5.22 0,4.27 3.92,7.14 9.75,7.14 4.87,0 9.31,-2.09 11.82,-5.65 2.71,-3.83 3.58,-8.27 3.58,-18.1 v -34.37"
     id="path161" />
  <path
     class="Lyrics"
     d="m 2713.82,621.89498 -16.09,0.953 v 3.75 h 4.26 c 3.22,0.079 3.66,0.61 3.66,4.344 v 48.469 c -0.1,1.297 -0.19,1.828 -0.53,2.266 -0.61,0.781 -2.27,1.125 -6,1.218 h -0.61 v 3.125 h 22.53 v -3.125 h -0.61 c -5.83,-0.187 -6.61,-0.609 -6.61,-3.75 v -57.25 m 48.58,36.11 c 0,-5.485 -0.96,-8.266 -3.49,-10.36 -2.87,-2.343 -7.12,-3.468 -12.7,-3.468 -9.83,0 -16.97,4.609 -16.97,10.953 0,3.218 2,5.312 5.05,5.312 2.8,0 4.7,-1.828 4.7,-4.437 0,-1.125 -0.44,-2.344 -1.31,-3.563 -0.52,-0.609 -0.59,-0.797 -0.59,-1.219 0,-1.75 3.46,-3.312 7.65,-3.312 2.78,0 5.83,0.875 7.22,2.172 1.64,1.39 2.25,3.484 2.25,7.406 v 3.391 c -9.05,1.562 -11.91,2.265 -16.17,3.906 -7.58,2.797 -11.14,6.797 -11.14,12.359 0,6.266 4.87,10.188 12.61,10.188 6.01,0 11.4,-2.438 15.14,-6.875 1.39,4.437 3.58,6.172 7.65,6.172 3.93,0 8.02,-2.532 8.02,-5.047 0,-0.61 -0.36,-1.047 -0.88,-1.047 -0.34,0 -0.7,0.094 -1.31,0.344 -1.22,0.531 -1.73,0.609 -2.44,0.609 -2.42,0 -3.29,-1.562 -3.29,-6 v -17.484 m -8.19,10.609 c 0,5.219 -0.25,6.438 -1.73,8.703 -2.18,3.219 -6.1,5.391 -9.93,5.391 -4,0 -6.87,-2.86 -6.87,-6.781 0,-3.657 1.83,-6.266 5.66,-8.094 2.7,-1.219 6.09,-2.078 12.87,-3.219 v 4"
     id="path162" />
  <path
     class="Lyrics"
     d="m 500.647,1095.288 -16.094,0.95 v 3.75 h 4.266 c 3.218,0.08 3.656,0.61 3.656,4.35 v 48.46 c -0.094,1.3 -0.188,1.83 -0.531,2.27 -0.61,0.78 -2.266,1.13 -6,1.22 h -0.61 v 3.12 h 22.532 v -3.12 h -0.61 c -5.828,-0.19 -6.609,-0.61 -6.609,-3.75 v -57.25 m 49.703,44.55 c 0.094,-13.05 -7.297,-22.27 -17.922,-22.27 -11.141,0 -19.484,9.66 -19.484,22.7 0,12.27 7.922,20.46 19.656,20.46 8.359,0 14.187,-4.1 17.75,-12.36 l -3.047,-1.66 c -3.562,6.7 -7.219,9.31 -13.047,9.31 -4.437,0 -7.656,-1.82 -9.922,-5.75 -1.562,-2.61 -2.25,-5.65 -2.172,-10.43 h 28.188 m -28.094,-3.74 c 0,-6.09 2.781,-14.8 10.094,-14.8 5.219,0 8.687,4.61 8.687,11.66 0,2.44 -0.781,3.14 -3.562,3.14 h -15.219 m 44.563,-38.89 c -2.782,0 -5.047,2.25 -5.047,5.05 0,2.78 2.265,5.04 4.953,5.04 2.875,0 5.141,-2.26 5.141,-5.04 0,-2.8 -2.266,-5.05 -5.047,-5.05 m 4.093,21.66 -16.968,0.95 v 3.75 h 5.047 c 3.296,0.08 3.734,0.61 3.734,4.34 v 29.5 c 0,7.05 -0.438,10.36 -1.656,12.88 -0.86,1.73 -2.86,3.05 -4.782,3.05 -1.218,0 -2.171,-0.52 -2.171,-1.13 0,-0.36 0.093,-0.53 0.437,-1.41 0.438,-0.85 0.609,-1.46 0.609,-2.07 0,-2.18 -2.093,-4.1 -4.531,-4.1 -2.781,0 -4.875,2.17 -4.875,5.22 0,4.27 3.922,7.14 9.75,7.14 4.875,0 9.313,-2.09 11.828,-5.65 2.703,-3.83 3.578,-8.27 3.578,-18.1 v -34.37 m 15.547,56.56 c 7.844,-5.41 11.407,-10.7 11.407,-16.8 0,-5.22 -2.875,-8.61 -7.141,-8.61 -3.219,0 -5.656,2.25 -5.656,5.22 0,3.13 2.359,5.13 6.015,5.13 0.422,0 1.032,0 1.297,-0.08 h 0.266 c 0.437,0 0.609,0.25 0.609,0.78 0,3.66 -2.969,7.73 -8.797,11.83 l 2,2.53"
     id="path163" />
  <path
     class="Lyrics"
     d="m 2531.13,621.89498 -16.09,0.953 v 3.75 h 4.26 c 3.22,0.079 3.66,0.61 3.66,4.344 v 48.469 c -0.1,1.297 -0.19,1.828 -0.53,2.266 -0.61,0.781 -2.27,1.125 -6,1.218 h -0.61 v 3.125 h 22.53 v -3.125 h -0.61 c -5.83,-0.187 -6.61,-0.609 -6.61,-3.75 v -57.25 m 35.87,0.703 c -4.78,0 -8.7,3.907 -8.7,8.704 0,4.687 3.92,8.609 8.53,8.609 4.96,0 8.78,-3.828 8.78,-8.703 0,-4.703 -3.9,-8.61 -8.61,-8.61 m -0.09,3.125 c 3.14,0 5.58,2.438 5.58,5.485 0,3.125 -2.44,5.562 -5.58,5.562 -3.05,0 -5.47,-2.515 -5.47,-5.562 0,-3.047 2.42,-5.485 5.47,-5.485 m 9.31,60.907 15.85,-0.61 v -3.734 h -2.19 c -5.05,-0.188 -5.47,-0.703 -5.47,-6.359 v -30.454 l -16.36,0.954 v 3.75 h 4.44 c 3.3,0.078 3.73,0.609 3.73,4.343 v 10.703 c 0,7.579 -1.82,16.797 -11.39,16.797 -2.7,0 -4.97,-0.953 -6.09,-2.703 -1.13,-1.656 -1.31,-2.515 -1.31,-7.312 v -26.532 l -15.22,0.954 v 3.75 h 3.31 c 3.3,0.078 3.73,0.609 3.73,4.343 v 18.797 c 0,4.438 0.35,6.438 1.66,8.438 2.34,3.562 6.52,5.578 11.75,5.578 5.74,0 9.74,-2.36 13.56,-7.922 v 7.219"
     id="path164" />
  <path
     class="Lyrics"
     d="m 1120.32,621.89498 -16.1,0.953 v 3.75 h 4.27 c 3.22,0.079 3.65,0.61 3.65,4.344 v 48.469 c -0.09,1.297 -0.18,1.828 -0.53,2.266 -0.61,0.781 -2.26,1.125 -6,1.218 H 1105 v 3.125 h 22.54 v -3.125 h -0.61 c -5.83,-0.187 -6.61,-0.609 -6.61,-3.75 v -57.25 m 48.57,36.11 c 0,-5.485 -0.95,-8.266 -3.48,-10.36 -2.87,-2.343 -7.12,-3.468 -12.7,-3.468 -9.83,0 -16.97,4.609 -16.97,10.953 0,3.218 2,5.312 5.05,5.312 2.79,0 4.7,-1.828 4.7,-4.437 0,-1.125 -0.44,-2.344 -1.31,-3.563 -0.52,-0.609 -0.6,-0.797 -0.6,-1.219 0,-1.75 3.47,-3.312 7.66,-3.312 2.78,0 5.83,0.875 7.22,2.172 1.64,1.39 2.25,3.484 2.25,7.406 v 3.391 c -9.05,1.562 -11.91,2.265 -16.17,3.906 -7.58,2.797 -11.15,6.797 -11.15,12.359 0,6.266 4.88,10.188 12.61,10.188 6.02,0 11.41,-2.438 15.14,-6.875 1.4,4.437 3.58,6.172 7.66,6.172 3.92,0 8.02,-2.532 8.02,-5.047 0,-0.61 -0.36,-1.047 -0.88,-1.047 -0.34,0 -0.7,0.094 -1.31,0.344 -1.22,0.531 -1.74,0.609 -2.44,0.609 -2.42,0 -3.3,-1.562 -3.3,-6 v -17.484 m -8.18,10.609 c 0,5.219 -0.25,6.438 -1.74,8.703 -2.17,3.219 -6.09,5.391 -9.92,5.391 -4,0 -6.87,-2.86 -6.87,-6.781 0,-3.657 1.82,-6.266 5.65,-8.094 2.71,-1.219 6.1,-2.078 12.88,-3.219 v 4"
     id="path165" />
  <path
     class="Lyrics"
     d="m 1198.22,1148.878 -9.93,-22.97 c -0.26,-0.68 -0.43,-1.39 -0.43,-1.9 0,-1.49 1.12,-2 4.7,-2 h 1.22 v -3.14 h -20.53 v 3.14 h 0.68 c 3.32,0 4.54,0.86 5.75,3.73 l 14.96,34.99 h 3.04 l 12.36,-30.55 c 2.44,-5.92 4.54,-7.92 8.1,-8.17 h 0.34 v -3.14 h -17.4 v 3.14 h 1.21 c 3.05,0 4.71,1.03 4.71,3.03 0,1.05 -0.27,2.36 -0.78,3.66 l -8,20.18 m 37.86,-36.01 h 5.56 l 10.87,-14.44 h -3.12 l -10.53,8.78 -10.53,-8.78 h -3.04 l 10.79,14.44 m 0.7,6 -15.41,0.95 v 3.75 h 3.56 c 3.32,0.08 3.75,0.61 3.75,4.34 v 24.89 c -0.09,1.3 -0.17,1.83 -0.53,2.27 -0.61,0.78 -2.34,1.13 -6.09,1.22 h -0.34 v 3.12 h 23.23 v -3.12 h -1.56 c -5.83,-0.19 -6.61,-0.61 -6.61,-3.75 v -4.7 c 0.08,-14.61 5.3,-25.75 12.09,-26.1 -1.22,1.39 -1.58,2.27 -1.58,3.91 0,2.8 2,4.8 4.8,4.8 3.22,0 5.3,-2.36 5.3,-5.83 0,-4.27 -2.96,-7.05 -7.56,-7.05 -5.49,0 -10.19,4.34 -13.05,12.09 v -10.79 m 37.59,-21.66 c -2.78,0 -5.04,2.25 -5.04,5.05 0,2.78 2.26,5.04 4.96,5.04 2.88,0 5.13,-2.26 5.13,-5.04 0,-2.8 -2.25,-5.05 -5.05,-5.05 m 4.1,21.66 -16.36,0.95 v 3.75 h 4.43 c 3.32,0.08 3.75,0.61 3.75,4.34 v 24.89 c -0.09,1.3 -0.17,1.83 -0.53,2.27 -0.61,0.78 -2.26,1.13 -6,1.22 h -0.61 v 3.12 h 22.53 v -3.12 h -0.6 c -5.83,-0.19 -6.61,-0.61 -6.61,-3.75 v -33.67"
     id="path166" />
  <path
     class="Lyrics"
     d="m 1985.55,1095.288 -14.95,0.95 v 3.75 h 3.03 c 3.31,0.08 3.75,0.61 3.75,4.35 v 33.84 c 0,12.09 -0.53,18.72 -1.57,22.45 h 3.3 l 4.27,-6.78 c 3.56,4.69 7.65,6.88 13.04,6.88 10.8,0 18.72,-9.24 18.72,-21.85 0,-12.53 -7.31,-21.31 -17.75,-21.31 -5.31,0 -8.53,1.83 -11.84,6.78 v -29.06 m 10.26,26.72 c 6.54,0 10.19,6.34 10.19,17.75 0,11.04 -3.56,17.22 -9.92,17.22 -6.88,0 -10.97,-6.35 -10.97,-17.05 0,-11.66 3.75,-17.92 10.7,-17.92 m 61.41,9.39 c 0,-5.49 -0.95,-8.27 -3.48,-10.36 -2.88,-2.34 -7.13,-3.47 -12.71,-3.47 -9.83,0 -16.97,4.61 -16.97,10.95 0,3.22 2,5.32 5.05,5.32 2.8,0 4.7,-1.83 4.7,-4.44 0,-1.13 -0.43,-2.35 -1.31,-3.56 -0.51,-0.61 -0.59,-0.8 -0.59,-1.22 0,-1.75 3.47,-3.32 7.65,-3.32 2.79,0 5.83,0.88 7.22,2.18 1.64,1.39 2.25,3.48 2.25,7.4 v 3.39 c -9.04,1.57 -11.9,2.27 -16.17,3.91 -7.58,2.8 -11.14,6.8 -11.14,12.36 0,6.26 4.88,10.19 12.61,10.19 6.02,0 11.41,-2.44 15.14,-6.88 1.39,4.44 3.58,6.17 7.66,6.17 3.92,0 8.01,-2.53 8.01,-5.04 0,-0.61 -0.36,-1.05 -0.87,-1.05 -0.35,0 -0.71,0.09 -1.32,0.34 -1.21,0.53 -1.73,0.61 -2.43,0.61 -2.42,0 -3.3,-1.56 -3.3,-6 v -17.48 m -8.19,10.61 c 0,5.22 -0.25,6.44 -1.73,8.7 -2.17,3.22 -6.1,5.39 -9.92,5.39 -4,0 -6.88,-2.86 -6.88,-6.78 0,-3.66 1.83,-6.27 5.66,-8.09 2.7,-1.22 6.09,-2.08 12.87,-3.22 v 4 m 27.78,-44.8 c -2.78,0 -5.04,2.25 -5.04,5.05 0,2.78 2.26,5.04 4.95,5.04 2.88,0 5.14,-2.26 5.14,-5.04 0,-2.8 -2.26,-5.05 -5.05,-5.05 m 4.1,21.66 -16.97,0.95 v 3.75 h 5.05 c 3.29,0.08 3.73,0.61 3.73,4.34 v 29.5 c 0,7.05 -0.44,10.36 -1.66,12.88 -0.86,1.73 -2.86,3.05 -4.78,3.05 -1.22,0 -2.17,-0.52 -2.17,-1.13 0,-0.36 0.09,-0.53 0.44,-1.41 0.44,-0.85 0.61,-1.46 0.61,-2.07 0,-2.18 -2.1,-4.1 -4.53,-4.1 -2.78,0 -4.88,2.17 -4.88,5.22 0,4.27 3.92,7.14 9.75,7.14 4.88,0 9.31,-2.09 11.83,-5.65 2.7,-3.83 3.58,-8.27 3.58,-18.1 v -34.37 m 15.54,56.56 c 7.85,-5.41 11.41,-10.7 11.41,-16.8 0,-5.22 -2.87,-8.61 -7.14,-8.61 -3.22,0 -5.66,2.25 -5.66,5.22 0,3.13 2.36,5.13 6.02,5.13 0.42,0 1.03,0 1.3,-0.08 h 0.26 c 0.44,0 0.61,0.25 0.61,0.78 0,3.66 -2.97,7.73 -8.8,11.83 l 2,2.53"
     id="path167" />
  <path
     class="Lyrics"
     d="m 672.519,1095.288 -16.094,0.95 v 3.75 h 4.266 c 3.218,0.08 3.656,0.61 3.656,4.35 v 48.46 c -0.094,1.3 -0.188,1.83 -0.531,2.27 -0.61,0.78 -2.266,1.13 -6,1.22 h -0.61 v 3.12 h 22.531 v -3.12 h -0.609 c -5.828,-0.19 -6.609,-0.61 -6.609,-3.75 v -57.25 m 48.578,36.11 c 0,-5.49 -0.953,-8.27 -3.485,-10.36 -2.875,-2.34 -7.125,-3.47 -12.703,-3.47 -9.828,0 -16.968,4.61 -16.968,10.95 0,3.22 2,5.32 5.046,5.32 2.797,0 4.704,-1.83 4.704,-4.44 0,-1.13 -0.438,-2.35 -1.313,-3.56 -0.516,-0.61 -0.594,-0.8 -0.594,-1.22 0,-1.75 3.469,-3.32 7.657,-3.32 2.781,0 5.828,0.88 7.218,2.18 1.641,1.39 2.25,3.48 2.25,7.4 v 3.39 c -9.047,1.57 -11.906,2.27 -16.172,3.91 -7.578,2.8 -11.14,6.8 -11.14,12.36 0,6.26 4.875,10.19 12.609,10.19 6.016,0 11.406,-2.44 15.141,-6.88 1.39,4.44 3.578,6.17 7.656,6.17 3.922,0 8.016,-2.53 8.016,-5.04 0,-0.61 -0.36,-1.05 -0.875,-1.05 -0.344,0 -0.703,0.09 -1.313,0.34 -1.219,0.53 -1.734,0.61 -2.437,0.61 -2.422,0 -3.297,-1.56 -3.297,-6 v -17.48 m -8.188,10.61 c 0,5.22 -0.25,6.44 -1.734,8.7 -2.172,3.22 -6.094,5.39 -9.922,5.39 -4,0 -6.875,-2.86 -6.875,-6.78 0,-3.66 1.828,-6.27 5.656,-8.09 2.703,-1.22 6.094,-2.08 12.875,-3.22 v 4"
     id="path168" />
  <path
     class="Lyrics"
     d="m 695.53,624.42698 h -3.047 c -5.484,4.078 -11.656,5.828 -22.016,6 v 4.875 h 3.657 c 7.75,0 7.828,0.171 7.75,7.296 v 30.891 c 0,5.391 0,5.656 -0.61,6.531 -0.781,0.953 -2.531,1.297 -7.234,1.297 h -2.781 v 4.703 h 34.718 v -4.703 h -2.781 c -4.609,0 -6.265,-0.344 -7.047,-1.297 -0.609,-0.875 -0.609,-1.218 -0.609,-6.531 v -49.062 m 29.812,46.546 c -4.531,0 -8.171,3.657 -8.171,8.172 0,4.438 3.64,8.188 8.078,8.188 4.625,0 8.265,-3.656 8.265,-8.188 0,-4.515 -3.64,-8.172 -8.172,-8.172"
     id="path169" />
  <path
     class="Lyrics"
     d="m 818.452,662.17698 h -3.828 c -2.875,15.671 -6.782,19.5 -20.266,19.75 h -3.656 c -5.219,-0.172 -6.531,-1.047 -6.266,-4.172 v -43.844 c 0,-4.359 0,-4.625 0.516,-5.406 0.703,-0.86 2.359,-1.125 7.312,-1.219 h 1.563 v -4.078 h -28.531 v 4.078 h 1.562 c 4.969,0.094 6.609,0.359 7.313,1.219 0.515,0.781 0.515,0.968 0.515,5.406 v 41.406 c 0,4.438 0,4.61 -0.515,5.391 -0.704,0.875 -2.344,1.219 -7.313,1.219 h -1.562 v 4.093 h 51.328 l 1.828,-23.843 m 41.125,-4.172 c 0,-5.485 -0.953,-8.266 -3.485,-10.36 -2.875,-2.343 -7.125,-3.468 -12.703,-3.468 -9.828,0 -16.968,4.609 -16.968,10.953 0,3.218 2,5.312 5.046,5.312 2.797,0 4.704,-1.828 4.704,-4.437 0,-1.125 -0.438,-2.344 -1.313,-3.563 -0.516,-0.609 -0.594,-0.797 -0.594,-1.219 0,-1.75 3.469,-3.312 7.657,-3.312 2.781,0 5.828,0.875 7.218,2.172 1.641,1.39 2.25,3.484 2.25,7.406 v 3.391 c -9.047,1.562 -11.906,2.265 -16.172,3.906 -7.578,2.797 -11.14,6.797 -11.14,12.359 0,6.266 4.875,10.188 12.609,10.188 6.016,0 11.406,-2.438 15.141,-6.875 1.39,4.437 3.578,6.172 7.656,6.172 3.922,0 8.016,-2.532 8.016,-5.047 0,-0.61 -0.36,-1.047 -0.875,-1.047 -0.344,0 -0.703,0.094 -1.313,0.344 -1.219,0.531 -1.734,0.609 -2.437,0.609 -2.422,0 -3.297,-1.562 -3.297,-6 v -17.484 m -8.188,10.609 c 0,5.219 -0.25,6.438 -1.734,8.703 -2.172,3.219 -6.094,5.391 -9.922,5.391 -4,0 -6.875,-2.86 -6.875,-6.781 0,-3.657 1.828,-6.266 5.656,-8.094 2.703,-1.219 6.094,-2.078 12.875,-3.219 v 4"
     id="path170" />
  <path
     class="Lyrics"
     d="m 937.627,621.89498 -16.094,0.953 v 3.75 h 4.266 c 3.218,0.079 3.656,0.61 3.656,4.344 v 48.469 c -0.094,1.297 -0.188,1.828 -0.531,2.266 -0.61,0.781 -2.266,1.125 -6,1.218 h -0.61 v 3.125 h 22.531 v -3.125 h -0.609 c -5.828,-0.187 -6.609,-0.609 -6.609,-3.75 v -57.25 m 35.875,0.703 c -4.782,0 -8.703,3.907 -8.703,8.704 0,4.687 3.921,8.609 8.531,8.609 4.953,0 8.781,-3.828 8.781,-8.703 0,-4.703 -3.906,-8.61 -8.609,-8.61 m -0.094,3.125 c 3.141,0 5.578,2.438 5.578,5.485 0,3.125 -2.437,5.562 -5.578,5.562 -3.047,0 -5.469,-2.515 -5.469,-5.562 0,-3.047 2.422,-5.485 5.469,-5.485 m 9.312,60.907 15.844,-0.61 v -3.734 h -2.187 c -5.047,-0.188 -5.469,-0.703 -5.469,-6.359 v -30.454 l -16.359,0.954 v 3.75 h 4.437 c 3.297,0.078 3.734,0.609 3.734,4.343 v 10.703 c 0,7.579 -1.828,16.797 -11.39,16.797 -2.703,0 -4.969,-0.953 -6.094,-2.703 -1.125,-1.656 -1.312,-2.515 -1.312,-7.312 v -26.532 l -15.219,0.954 v 3.75 h 3.312 c 3.297,0.078 3.735,0.609 3.735,4.343 v 18.797 c 0,4.438 0.343,6.438 1.656,8.438 2.344,3.562 6.516,5.578 11.75,5.578 5.734,0 9.734,-2.36 13.562,-7.922 v 7.219"
     id="path171" />
  <polyline
     class="LyricsLineSegment"
     fill="none"
     stroke="#000000"
     stroke-width="3.64"
     stroke-linejoin="bevel"
     points="1625.02,802.011 1639.56,802.011"
     id="polyline171"
     transform="translate(0,-136.26202)" />
  <polyline
     class="LyricsLineSegment"
     fill="none"
     stroke="#000000"
     stroke-width="3.64"
     stroke-linejoin="bevel"
     points="1780.2,802.011 1794.74,802.011"
     id="polyline172"
     transform="translate(0,-136.26202)" />
  <polyline
     class="LyricsLineSegment"
     fill="none"
     stroke="#000000"
     stroke-width="3.64"
     stroke-linejoin="bevel"
     points="1485.84,1275.4 1500.39,1275.4"
     id="polyline173"
     transform="translate(0,-136.26202)" />
  <polyline
     class="LyricsLineSegment"
     fill="none"
     stroke="#000000"
     stroke-width="3.64"
     stroke-linejoin="bevel"
     points="1141.15,1275.4 1162.96,1275.4"
     id="polyline174"
     transform="translate(0,-136.26202)" />
  <polyline
     class="LyricsLineSegment"
     fill="none"
     stroke="#000000"
     stroke-width="3.64"
     stroke-linejoin="bevel"
     points="1404.66,1275.4 1419.21,1275.4"
     id="polyline175"
     transform="translate(0,-136.26202)" />
</svg>
