<?xml version="1.0" encoding="UTF-8" standalone="no"?>
<svg
   width="210.058mm"
   height="134.77927mm"
   viewBox="0 0 2977.2 1910.2574"
   version="1.2"
   id="svg12146"
   sodipodi:docname="Stante se soli zeme.svg"
   inkscape:version="1.2.2 (b0a8486541, 2022-12-01)"
   xmlns:inkscape="http://www.inkscape.org/namespaces/inkscape"
   xmlns:sodipodi="http://sodipodi.sourceforge.net/DTD/sodipodi-0.dtd"
   xmlns="http://www.w3.org/2000/svg"
   xmlns:svg="http://www.w3.org/2000/svg">
  <defs
     id="defs12150" />
  <sodipodi:namedview
     id="namedview12148"
     pagecolor="#ffffff"
     bordercolor="#000000"
     borderopacity="0.25"
     inkscape:showpageshadow="2"
     inkscape:pageopacity="0.0"
     inkscape:pagecheckerboard="0"
     inkscape:deskcolor="#d1d1d1"
     inkscape:document-units="mm"
     showgrid="false"
     inkscape:zoom="0.84117481"
     inkscape:cx="-19.021017"
     inkscape:cy="549.82626"
     inkscape:window-width="2560"
     inkscape:window-height="1440"
     inkscape:window-x="0"
     inkscape:window-y="0"
     inkscape:window-maximized="1"
     inkscape:current-layer="svg12146" />
  <title
     id="title11820">Staňte se solí země</title>
  <desc
     id="desc11822">Generated by MuseScore Studio 4.6.3</desc>
  <polyline
     class="StaffLines"
     fill="none"
     stroke="#000000"
     stroke-width="4"
     stroke-linejoin="bevel"
     points="340.2,590.603 2818.8,590.603"
     id="polyline11824" />
  <polyline
     class="StaffLines"
     fill="none"
     stroke="#000000"
     stroke-width="4"
     stroke-linejoin="bevel"
     points="340.2,626.963 2818.8,626.963"
     id="polyline11826" />
  <polyline
     class="StaffLines"
     fill="none"
     stroke="#000000"
     stroke-width="4"
     stroke-linejoin="bevel"
     points="340.2,663.323 2818.8,663.323"
     id="polyline11828" />
  <polyline
     class="StaffLines"
     fill="none"
     stroke="#000000"
     stroke-width="4"
     stroke-linejoin="bevel"
     points="340.2,699.683 2818.8,699.683"
     id="polyline11830" />
  <polyline
     class="StaffLines"
     fill="none"
     stroke="#000000"
     stroke-width="4"
     stroke-linejoin="bevel"
     points="340.2,736.043 2818.8,736.043"
     id="polyline11832" />
  <polyline
     class="StaffLines"
     fill="none"
     stroke="#000000"
     stroke-width="4"
     stroke-linejoin="bevel"
     points="158.4,1047.52 2818.8,1047.52"
     id="polyline11834" />
  <polyline
     class="StaffLines"
     fill="none"
     stroke="#000000"
     stroke-width="4"
     stroke-linejoin="bevel"
     points="158.4,1083.88 2818.8,1083.88"
     id="polyline11836" />
  <polyline
     class="StaffLines"
     fill="none"
     stroke="#000000"
     stroke-width="4"
     stroke-linejoin="bevel"
     points="158.4,1120.24 2818.8,1120.24"
     id="polyline11838" />
  <polyline
     class="StaffLines"
     fill="none"
     stroke="#000000"
     stroke-width="4"
     stroke-linejoin="bevel"
     points="158.4,1156.6 2818.8,1156.6"
     id="polyline11840" />
  <polyline
     class="StaffLines"
     fill="none"
     stroke="#000000"
     stroke-width="4"
     stroke-linejoin="bevel"
     points="158.4,1192.96 2818.8,1192.96"
     id="polyline11842" />
  <polyline
     class="StaffLines"
     fill="none"
     stroke="#000000"
     stroke-width="4"
     stroke-linejoin="bevel"
     points="158.4,1504.44 2818.8,1504.44"
     id="polyline11844" />
  <polyline
     class="StaffLines"
     fill="none"
     stroke="#000000"
     stroke-width="4"
     stroke-linejoin="bevel"
     points="158.4,1540.8 2818.8,1540.8"
     id="polyline11846" />
  <polyline
     class="StaffLines"
     fill="none"
     stroke="#000000"
     stroke-width="4"
     stroke-linejoin="bevel"
     points="158.4,1577.16 2818.8,1577.16"
     id="polyline11848" />
  <polyline
     class="StaffLines"
     fill="none"
     stroke="#000000"
     stroke-width="4"
     stroke-linejoin="bevel"
     points="158.4,1613.52 2818.8,1613.52"
     id="polyline11850" />
  <polyline
     class="StaffLines"
     fill="none"
     stroke="#000000"
     stroke-width="4"
     stroke-linejoin="bevel"
     points="158.4,1649.88 2818.8,1649.88"
     id="polyline11852" />
  <path
     class="Text"
     d="m 1061.15,214.52 h -4.08 l -4.39,6.594 c -5.28,-4.953 -12.22,-7.594 -20.03,-7.594 -14.52,0 -24.08,9.141 -24.08,23 0,11.985 5.94,17.922 22.11,22.11 l 10.45,2.64 c 8.15,2.094 8.91,2.313 11.22,4.063 3.3,2.531 5.07,6.172 5.07,10.453 0,4.406 -1.66,8.031 -4.96,11.109 -3.64,3.078 -7.26,4.297 -13.31,4.297 -16.61,0 -24.86,-12.219 -27.72,-27.062 h -4.73 l 0.43,31.343 h 4.3 l 4.95,-7.468 c 7.36,6.046 13.41,8.25 23.1,8.25 16.17,0 26.51,-9.469 26.51,-24.204 0,-6.937 -2.2,-12.656 -6.61,-16.828 -2.96,-2.859 -7.25,-4.734 -16.06,-6.937 l -11.76,-2.969 c -9.79,-2.531 -14.41,-6.812 -14.41,-13.531 0,-7.703 6.27,-12.985 15.63,-12.985 14.18,0 22,11.782 24.96,24.313 h 4.72 l -1.31,-28.594 m 29.28,28.813 v -21.782 h -4.51 c -1.1,14.313 -5.94,21.563 -14.85,22.235 v 4.281 h 9.02 v 28.047 c 0,7.703 0.22,10.453 1.31,12.984 1.77,4.625 6.17,7.157 12.55,7.157 9.9,0 16.28,-7.485 16.28,-19.141 0,-0.672 0,-1.438 -0.11,-2.531 h -4.63 c -0.32,9.89 -3.18,14.953 -8.57,14.953 -2.54,0 -4.74,-1.313 -5.5,-3.188 -0.66,-1.547 -0.99,-4.297 -0.99,-8.25 v -30.031 h 16.17 v -4.734 h -16.17 m 71.38,15.843 c 0,-6.921 -1.21,-10.453 -4.41,-13.093 -3.62,-2.969 -9.02,-4.391 -16.05,-4.391 -12.43,0 -21.45,5.828 -21.45,13.859 0,4.063 2.53,6.704 6.38,6.704 3.51,0 5.93,-2.313 5.93,-5.61 0,-1.422 -0.54,-2.969 -1.64,-4.5 -0.67,-0.781 -0.78,-1 -0.78,-1.547 0,-2.203 4.41,-4.187 9.69,-4.187 3.51,0 7.37,1.109 9.12,2.75 2.1,1.765 2.86,4.406 2.86,9.359 v 4.281 c -11.43,1.985 -15.06,2.86 -20.45,4.954 -9.58,3.531 -14.08,8.578 -14.08,15.625 0,7.921 6.16,12.875 15.95,12.875 7.58,0 14.41,-3.094 19.15,-8.704 1.75,5.61 4.5,7.813 9.67,7.813 4.95,0 10.12,-3.188 10.12,-6.375 0,-0.766 -0.44,-1.328 -1.11,-1.328 -0.43,0 -0.87,0.125 -1.64,0.453 -1.54,0.656 -2.2,0.766 -3.08,0.766 -3.09,0 -4.18,-1.985 -4.18,-7.594 v -22.11 m -10.35,13.422 c 0,6.594 -0.33,8.141 -2.18,11 -2.75,4.063 -7.71,6.813 -12.55,6.813 -5.06,0 -8.69,-3.625 -8.69,-8.578 0,-4.61 2.31,-7.922 7.14,-10.219 3.42,-1.547 7.7,-2.641 16.28,-4.078 v 5.062 m 51.77,-36.843 h 6.92 l 13.75,-18.266 h -3.95 l -13.32,11.109 -13.2,-11.109 h -3.95 l 13.75,18.266 m -8.14,7.578 -19.03,1.218 v 4.735 h 3.97 c 4.17,0.109 4.71,0.765 4.71,5.5 v 31.453 c -0.11,1.656 -0.21,2.312 -0.65,2.859 -0.77,0.985 -2.86,1.438 -7.6,1.547 h -0.43 v 3.953 h 27.82 v -3.953 h -0.43 c -7.38,-0.234 -8.36,-0.781 -8.36,-4.734 V 269.63 c 0,-5.391 0.76,-10.344 1.98,-12.875 2.31,-4.954 7.25,-8.36 11.99,-8.36 2.86,0 6.15,1.547 7.81,3.86 1.66,2.406 2.42,5.718 2.42,11 v 22.984 c -0.11,1.656 -0.22,2.312 -0.66,2.859 -0.78,0.985 -2.98,1.438 -7.7,1.547 h -0.44 v 3.953 h 27.83 v -3.953 h -0.44 c -7.26,-0.234 -8.25,-0.781 -8.25,-4.734 v -22.11 c 0,-7.921 -0.34,-9.906 -2.31,-13.64 -2.75,-5.281 -8.25,-8.469 -14.86,-8.469 -7.14,0 -12.53,3.297 -17.37,10.563 v -8.922 m 66.34,0 v -21.782 h -4.51 c -1.1,14.313 -5.94,21.563 -14.85,22.235 v 4.281 h 9.02 v 28.047 c 0,7.703 0.22,10.453 1.31,12.984 1.77,4.625 6.17,7.157 12.55,7.157 9.9,0 16.28,-7.485 16.28,-19.141 0,-0.672 0,-1.438 -0.11,-2.531 h -4.63 c -0.32,9.89 -3.18,14.953 -8.57,14.953 -2.54,0 -4.74,-1.313 -5.5,-3.188 -0.66,-1.547 -0.99,-4.297 -0.99,-8.25 v -30.031 h 16.17 v -4.734 h -16.17 m 73.81,26.515 c 0.11,-16.5 -9.25,-28.156 -22.67,-28.156 -14.08,0 -24.64,12.203 -24.64,28.703 0,15.516 10.02,25.86 24.86,25.86 10.56,0 17.94,-5.172 22.45,-15.625 l -3.86,-2.094 c -4.5,8.469 -9.12,11.765 -16.5,11.765 -5.6,0 -9.67,-2.296 -12.53,-7.25 -1.98,-3.296 -2.86,-7.156 -2.75,-13.203 h 35.64 m -35.53,-4.734 c 0,-7.703 3.52,-18.703 12.75,-18.703 6.61,0 11,5.844 11,14.75 0,3.078 -0.98,3.953 -4.5,3.953 h -19.25 m 113.28,-22.984 h -3.86 l -3.18,3.953 c -3.96,-3.078 -7.92,-4.391 -13.42,-4.391 -9.68,0 -16.07,6.266 -16.07,15.953 0,10.328 6.72,12.969 15.52,15.063 l 5.83,1.328 c 8.68,2.078 11.76,4.281 11.76,8.687 0,5.172 -4.5,8.797 -10.89,8.797 -9.34,0 -15.94,-5.937 -18.58,-16.937 h -4.4 v 20.781 h 3.84 l 3.86,-4.5 c 4.5,3.625 9.45,5.391 15.06,5.391 10.78,0 17.94,-6.719 17.94,-16.954 0,-4.828 -1.55,-8.578 -4.62,-11.109 -2.65,-2.297 -4.85,-3.187 -11.55,-4.609 l -5.5,-1.219 c -6.05,-1.313 -6.05,-1.313 -8.03,-2.422 -2.42,-1.094 -3.85,-3.406 -3.85,-5.828 0,-4.5 4.18,-7.578 10.22,-7.578 9.03,0 13.42,6.375 16.06,14.078 h 3.86 V 242.13 m 59.25,27.718 c 0.11,-16.5 -9.25,-28.156 -22.67,-28.156 -14.08,0 -24.64,12.203 -24.64,28.703 0,15.516 10.02,25.86 24.86,25.86 10.56,0 17.94,-5.172 22.45,-15.625 l -3.86,-2.094 c -4.5,8.469 -9.12,11.765 -16.5,11.765 -5.6,0 -9.67,-2.296 -12.53,-7.25 -1.98,-3.296 -2.86,-7.156 -2.75,-13.203 h 35.64 m -35.53,-4.734 c 0,-7.703 3.52,-18.703 12.75,-18.703 6.61,0 11,5.844 11,14.75 0,3.078 -0.98,3.953 -4.5,3.953 h -19.25 m 113.28,-22.984 h -3.86 l -3.18,3.953 c -3.96,-3.078 -7.92,-4.391 -13.42,-4.391 -9.68,0 -16.07,6.266 -16.07,15.953 0,10.328 6.72,12.969 15.52,15.063 l 5.83,1.328 c 8.68,2.078 11.76,4.281 11.76,8.687 0,5.172 -4.5,8.797 -10.89,8.797 -9.34,0 -15.94,-5.937 -18.58,-16.937 h -4.4 v 20.781 h 3.84 l 3.86,-4.5 c 4.5,3.625 9.45,5.391 15.06,5.391 10.78,0 17.94,-6.719 17.94,-16.954 0,-4.828 -1.55,-8.578 -4.62,-11.109 -2.65,-2.297 -4.85,-3.187 -11.55,-4.609 l -5.5,-1.219 c -6.05,-1.313 -6.05,-1.313 -8.03,-2.422 -2.42,-1.094 -3.85,-3.406 -3.85,-5.828 0,-4.5 4.18,-7.578 10.22,-7.578 9.03,0 13.42,6.375 16.06,14.078 h 3.86 V 242.13 m 35.82,-0.438 c -13.53,0 -23.99,11.984 -23.99,27.391 0,15.062 10.56,27.172 23.77,27.172 13.2,0 23.76,-12.11 23.76,-27.282 0,-15.078 -10.56,-27.281 -23.54,-27.281 m 0,4.719 c 7.7,0 11.98,8.031 11.98,22.562 0,14.625 -4.28,22.547 -12.2,22.547 -7.92,0 -12.21,-7.922 -12.21,-22.437 0,-14.969 4.18,-22.672 12.43,-22.672 m 49.72,-32.891 -20.35,1.219 v 4.734 h 5.39 c 4.06,0.11 4.61,0.766 4.61,5.5 v 61.266 c -0.11,1.656 -0.22,2.312 -0.65,2.859 -0.77,0.985 -2.86,1.438 -7.6,1.547 h -0.76 v 3.953 h 28.48 v -3.953 h -0.77 c -7.35,-0.234 -8.35,-0.781 -8.35,-4.734 V 213.52 m 21.57,22.235 h 4.52 l 17.48,-10.672 c 1.66,-1.11 2.75,-2.75 2.75,-4.297 0,-2.203 -1.64,-3.844 -3.84,-3.844 -1.77,0 -2.64,0.547 -5.5,3.406 l -15.41,15.407 m 13.64,7.578 -20.67,1.218 v 4.735 h 5.61 c 4.17,0.109 4.72,0.765 4.72,5.5 v 31.453 c -0.11,1.547 -0.22,2.312 -0.66,2.859 -0.76,0.985 -2.86,1.438 -7.59,1.547 h -0.77 v 3.953 h 28.5 v -3.953 h -0.78 c -7.36,-0.234 -8.36,-0.781 -8.36,-4.734 v -42.578 m 90.43,0 h -39.71 l -1,18.593 h 4.41 c 0.87,-9.781 5.17,-13.968 13.97,-13.859 h 9.56 l -30.02,42.578 v 3.953 h 42.79 l 0.76,-19.687 h -4.39 c -1.11,10.781 -5.39,15.062 -15.19,14.953 h -11.22 l 30.04,-42.563 v -3.968 m 56.07,26.515 c 0.11,-16.5 -9.25,-28.156 -22.67,-28.156 -14.08,0 -24.64,12.203 -24.64,28.703 0,15.516 10.02,25.86 24.86,25.86 10.56,0 17.94,-5.172 22.45,-15.625 l -3.86,-2.094 c -4.5,8.469 -9.12,11.765 -16.5,11.765 -5.6,0 -9.67,-2.296 -12.53,-7.25 -1.98,-3.296 -2.86,-7.156 -2.75,-13.203 h 35.64 m -35.53,-4.734 c 0,-7.703 3.52,-18.703 12.75,-18.703 6.61,0 11,5.844 11,14.75 0,3.078 -0.98,3.953 -4.5,3.953 h -19.25 m 61.49,-21.781 -19.58,1.218 v 4.735 h 4.51 c 4.18,0.109 4.72,0.765 4.72,5.5 v 31.453 c -0.11,1.656 -0.22,2.312 -0.65,2.859 -0.77,0.985 -2.86,1.438 -7.6,1.547 h -0.43 v 3.953 h 27.71 v -3.953 h -0.43 c -7.27,-0.234 -8.25,-0.781 -8.25,-4.844 v -20.359 c 0,-9.781 5.39,-17.047 12.54,-17.047 6.27,0 9.46,4.516 9.46,13.422 v 24.531 c -0.11,1.438 -0.22,2.203 -0.77,2.75 -0.65,0.985 -2.86,1.438 -7.59,1.547 h -0.44 v 3.953 h 27.83 v -3.953 h -0.44 c -7.26,-0.234 -8.25,-0.781 -8.25,-4.734 v -19.469 c 0,-11 4.95,-18.047 12.64,-18.047 6.28,0 9.36,4.735 9.36,14.641 v 23.203 c -0.11,1.547 -0.22,2.312 -0.76,2.859 -0.68,0.985 -2.86,1.438 -7.6,1.547 h -0.44 v 3.953 h 27.83 v -3.953 h -0.44 c -7.26,-0.234 -8.25,-0.781 -8.25,-4.844 v -24.968 c 0,-6.828 -0.67,-9.141 -3.53,-12.875 -3.18,-4.063 -7.68,-6.266 -12.97,-6.266 -7.15,0 -12.43,3.406 -17.17,11 -1.86,-6.609 -7.81,-11 -15.17,-11 -6.72,0 -11.55,3.188 -15.84,10.109 v -8.468 m 99.87,-7.578 h 7.03 l 13.75,-18.266 h -3.95 l -13.31,11.109 -13.31,-11.109 h -3.85 l 13.64,18.266 m 27.17,34.093 c 0.11,-16.5 -9.25,-28.156 -22.67,-28.156 -14.08,0 -24.64,12.203 -24.64,28.703 0,15.516 10.02,25.86 24.86,25.86 10.56,0 17.94,-5.172 22.45,-15.625 l -3.86,-2.094 c -4.5,8.469 -9.12,11.765 -16.5,11.765 -5.6,0 -9.67,-2.296 -12.53,-7.25 -1.98,-3.296 -2.86,-7.156 -2.75,-13.203 h 35.64 m -35.53,-4.734 c 0,-7.703 3.52,-18.703 12.75,-18.703 6.61,0 11,5.844 11,14.75 0,3.078 -0.98,3.953 -4.5,3.953 h -19.25"
     id="path11854" />
  <polyline
     class="BarLine"
     fill="none"
     stroke="#000000"
     stroke-width="6.54"
     stroke-linejoin="bevel"
     points="2233.07,1502.44 2233.07,1651.88"
     id="polyline11856" />
  <polyline
     class="BarLine"
     fill="none"
     stroke="#000000"
     stroke-width="6.54"
     stroke-linejoin="bevel"
     points="1172.29,1045.52 1172.29,1194.96"
     id="polyline11858" />
  <polyline
     class="BarLine"
     fill="none"
     stroke="#000000"
     stroke-width="6.54"
     stroke-linejoin="bevel"
     points="1976.96,1045.52 1976.96,1194.96"
     id="polyline11860" />
  <path
     class="BarLine"
     d="m 2765.3749,1558.98 c 0,-4.2269 -3.3634,-7.7038 -7.5675,-7.7038 -4.2268,0 -7.5674,3.4769 -7.5674,7.7038 0,4.2268 3.3406,7.7038 7.5674,7.7038 4.2041,0 7.5675,-3.477 7.5675,-7.7038"
     id="path11862"
     style="stroke-width:1.4544" />
  <path
     class="BarLine"
     d="m 2765.3749,1595.34 c 0,-4.2268 -3.3634,-7.7038 -7.5675,-7.7038 -4.2268,0 -7.5674,3.477 -7.5674,7.7038 0,4.2269 3.3406,7.7038 7.5674,7.7038 4.2041,0 7.5675,-3.4769 7.5675,-7.7038"
     id="path11864"
     style="stroke-width:1.4544" />
  <polyline
     class="BarLine"
     fill="none"
     stroke="#000000"
     stroke-width="6.54"
     stroke-linejoin="bevel"
     points="2782.08,1502.44 2782.08,1651.88"
     id="polyline11866" />
  <polyline
     class="BarLine"
     fill="none"
     stroke="#000000"
     stroke-width="20"
     stroke-linejoin="bevel"
     points="2808.8,1502.44 2808.8,1651.88"
     id="polyline11868" />
  <polyline
     class="BarLine"
     fill="none"
     stroke="#000000"
     stroke-width="6.54"
     stroke-linejoin="bevel"
     points="1207.24,588.603 1207.24,738.043"
     id="polyline11870" />
  <polyline
     class="BarLine"
     fill="none"
     stroke="#000000"
     stroke-width="6.54"
     stroke-linejoin="bevel"
     points="2002.59,588.603 2002.59,738.043"
     id="polyline11872" />
  <polyline
     class="BarLine"
     fill="none"
     stroke="#000000"
     stroke-width="6.54"
     stroke-linejoin="bevel"
     points="2815.53,1045.52 2815.53,1194.96"
     id="polyline11874" />
  <polyline
     class="BarLine"
     fill="none"
     stroke="#000000"
     stroke-width="6.54"
     stroke-linejoin="bevel"
     points="1261.33,1502.44 1261.33,1651.88"
     id="polyline11876" />
  <polyline
     class="BarLine"
     fill="none"
     stroke="#000000"
     stroke-width="6.54"
     stroke-linejoin="bevel"
     points="2815.53,588.603 2815.53,738.043"
     id="polyline11878" />
  <polyline
     class="Stem"
     fill="none"
     stroke="#000000"
     stroke-width="3.64"
     stroke-linejoin="bevel"
     points="619.593,1205.32 619.593,1083.88"
     id="polyline11880" />
  <polyline
     class="Stem"
     fill="none"
     stroke="#000000"
     stroke-width="3.64"
     stroke-linejoin="bevel"
     points="1434.56,1168.96 1434.56,1047.52"
     id="polyline11882" />
  <polyline
     class="Stem"
     fill="none"
     stroke="#000000"
     stroke-width="3.64"
     stroke-linejoin="bevel"
     points="1133.58,712.045 1133.58,599.569"
     id="polyline11884" />
  <polyline
     class="Stem"
     fill="none"
     stroke="#000000"
     stroke-width="3.64"
     stroke-linejoin="bevel"
     points="750.758,1205.32 750.758,1083.88"
     id="polyline11886" />
  <polyline
     class="Stem"
     fill="none"
     stroke="#000000"
     stroke-width="3.64"
     stroke-linejoin="bevel"
     points="2562.38,1589.52 2562.38,1477.17"
     id="polyline11888" />
  <polyline
     class="Stem"
     fill="none"
     stroke="#000000"
     stroke-width="3.64"
     stroke-linejoin="bevel"
     points="1419.07,693.865 1419.07,572.423"
     id="polyline11890" />
  <polyline
     class="Stem"
     fill="none"
     stroke="#000000"
     stroke-width="3.64"
     stroke-linejoin="bevel"
     points="2329.06,1589.52 2329.06,1477.17"
     id="polyline11892" />
  <polyline
     class="Stem"
     fill="none"
     stroke="#000000"
     stroke-width="3.64"
     stroke-linejoin="bevel"
     points="1303.23,693.865 1303.23,572.714"
     id="polyline11894" />
  <polyline
     class="Stem"
     fill="none"
     stroke="#000000"
     stroke-width="3.64"
     stroke-linejoin="bevel"
     points="1813.1,675.685 1813.1,581.513"
     id="polyline11896" />
  <polyline
     class="Stem"
     fill="none"
     stroke="#000000"
     stroke-width="3.64"
     stroke-linejoin="bevel"
     points="1908.29,1132.6 1908.29,1038.55"
     id="polyline11898" />
  <polyline
     class="Stem"
     fill="none"
     stroke="#000000"
     stroke-width="3.64"
     stroke-linejoin="bevel"
     points="2041.94,1607.7 2041.94,1486.26"
     id="polyline11900" />
  <polyline
     class="Stem"
     fill="none"
     stroke="#000000"
     stroke-width="3.64"
     stroke-linejoin="bevel"
     points="1808.63,1644.06 1808.63,1522.62"
     id="polyline11902" />
  <polyline
     class="Stem"
     fill="none"
     stroke="#000000"
     stroke-width="3.64"
     stroke-linejoin="bevel"
     points="1928.93,675.685 1928.93,581.513"
     id="polyline11904" />
  <polyline
     class="Stem"
     fill="none"
     stroke="#000000"
     stroke-width="3.64"
     stroke-linejoin="bevel"
     points="881.922,1187.14 881.922,1065.7"
     id="polyline11906" />
  <polyline
     class="Stem"
     fill="none"
     stroke="#000000"
     stroke-width="3.64"
     stroke-linejoin="bevel"
     points="1512.86,1607.7 1512.86,1486.26"
     id="polyline11908" />
  <polyline
     class="Stem"
     fill="none"
     stroke="#000000"
     stroke-width="3.64"
     stroke-linejoin="bevel"
     points="2703.22,1126.35 2703.22,1220.14"
     id="polyline11910" />
  <polyline
     class="Stem"
     fill="none"
     stroke="#000000"
     stroke-width="3.64"
     stroke-linejoin="bevel"
     points="2532.54,1108.17 2532.54,1211.24"
     id="polyline11912" />
  <polyline
     class="Stem"
     fill="none"
     stroke="#000000"
     stroke-width="3.64"
     stroke-linejoin="bevel"
     points="2098.59,675.685 2098.59,563.333"
     id="polyline11914" />
  <polyline
     class="Stem"
     fill="none"
     stroke="#000000"
     stroke-width="3.64"
     stroke-linejoin="bevel"
     points="2200,1126.35 2200,1229.32"
     id="polyline11916" />
  <polyline
     class="Stem"
     fill="none"
     stroke="#000000"
     stroke-width="3.64"
     stroke-linejoin="bevel"
     points="1357.32,1607.7 1357.32,1486.55"
     id="polyline11918" />
  <polyline
     class="Stem"
     fill="none"
     stroke="#000000"
     stroke-width="3.64"
     stroke-linejoin="bevel"
     points="486.913,1205.32 486.913,1083.88"
     id="polyline11920" />
  <polyline
     class="Stem"
     fill="none"
     stroke="#000000"
     stroke-width="3.64"
     stroke-linejoin="bevel"
     points="1767.11,1150.78 1767.11,1047.41"
     id="polyline11922" />
  <polyline
     class="Stem"
     fill="none"
     stroke="#000000"
     stroke-width="3.64"
     stroke-linejoin="bevel"
     points="870.065,675.685 870.065,581.637"
     id="polyline11924" />
  <polyline
     class="Stem"
     fill="none"
     stroke="#000000"
     stroke-width="3.64"
     stroke-linejoin="bevel"
     points="1268.28,1168.96 1268.28,1047.52"
     id="polyline11926" />
  <polyline
     class="Stem"
     fill="none"
     stroke="#000000"
     stroke-width="3.64"
     stroke-linejoin="bevel"
     points="2272.34,730.225 2272.34,608.783"
     id="polyline11928" />
  <polyline
     class="Stem"
     fill="none"
     stroke="#000000"
     stroke-width="3.64"
     stroke-linejoin="bevel"
     points="1048.2,1187.14 1048.2,1065.7"
     id="polyline11930" />
  <polyline
     class="Stem"
     fill="none"
     stroke="#000000"
     stroke-width="3.64"
     stroke-linejoin="bevel"
     points="720.225,1607.7 720.225,1486.26"
     id="polyline11932" />
  <polyline
     class="Stem"
     fill="none"
     stroke="#000000"
     stroke-width="3.64"
     stroke-linejoin="bevel"
     points="2029.32,1126.35 2029.32,1229.32"
     id="polyline11934" />
  <polyline
     class="Stem"
     fill="none"
     stroke="#000000"
     stroke-width="3.64"
     stroke-linejoin="bevel"
     points="486.913,1589.52 486.913,1477.17"
     id="polyline11936" />
  <polyline
     class="Stem"
     fill="none"
     stroke="#000000"
     stroke-width="3.64"
     stroke-linejoin="bevel"
     points="1017.74,693.865 1017.74,591.686"
     id="polyline11938" />
  <polyline
     class="Stem"
     fill="none"
     stroke="#000000"
     stroke-width="3.64"
     stroke-linejoin="bevel"
     points="2735.69,730.225 2735.69,609.074"
     id="polyline11940" />
  <path
     class="Hook"
     d="m 1355.5,1519.2794 c 0,0.4318 0.1364,1.159 1.159,1.5908 6.2494,2.0452 18.7708,9.9081 28.2244,26.0428 2.6134,4.4996 6.8403,10.7717 6.8403,22.8387 0,10.4762 -2.7725,21.2251 -6.5448,31.7013 -0.2955,0.8863 -0.5909,1.6135 -0.4545,2.1816 0,0.8863 0.5908,1.4544 1.4544,1.4544 1.0226,0 1.7498,-0.5681 2.3406,-1.5907 6.5448,-11.6352 9.0219,-25.1793 9.0219,-38.4053 -0.7272,-18.7708 -11.4989,-32.5876 -11.4989,-32.5876 0.4318,0 -13.385,-17.8846 -17.3164,-23.9976 -5.3631,-8.2946 -7.8402,-16.5665 -8.1356,-17.1574 -0.1363,-0.4318 -1.4544,-5.6812 -1.4544,-5.6812 -0.1363,-0.5682 -0.8635,-1.159 -1.7498,-1.159 -1.0226,0 -1.8862,0.8863 -1.8862,1.8862 v 32.883"
     id="path11942"
     style="stroke-width:1.4544" />
  <path
     class="Hook"
     d="m 2733.88,641.80239 c 0,0.43181 0.1364,1.15901 1.159,1.59082 6.2494,2.04518 18.7708,9.9081 28.2244,26.04278 2.6134,4.49962 6.8403,10.77172 6.8403,22.83873 0,10.47619 -2.7725,21.22508 -6.5448,31.70127 -0.2955,0.88631 -0.5909,1.61351 -0.4545,2.1816 0,0.88631 0.5908,1.4544 1.4544,1.4544 1.0226,0 1.7498,-0.56809 2.3406,-1.59068 6.5448,-11.6352 9.0219,-25.1793 9.0219,-38.40532 -0.7272,-18.77078 -11.4989,-32.58758 -11.4989,-32.58758 0.4318,0 -13.385,-17.88461 -17.3164,-23.9976 -5.3631,-8.29466 -7.8402,-16.56656 -8.1356,-17.15741 -0.1363,-0.43177 -1.4544,-5.68125 -1.4544,-5.68125 -0.1363,-0.56813 -0.8635,-1.15898 -1.7498,-1.15898 -1.0226,0 -1.8862,0.88628 -1.8862,1.88618 v 32.88304"
     id="path11944"
     style="stroke-width:1.4544" />
  <path
     class="Hook"
     d="m 1301.42,605.44239 c 0,0.43181 0.1363,1.15901 1.159,1.59082 6.2493,2.04518 18.7708,9.9081 28.2244,26.04278 2.6134,4.49962 6.8403,10.77172 6.8403,22.83873 0,10.47619 -2.7725,21.22508 -6.5448,31.70127 -0.2955,0.88631 -0.5909,1.61351 -0.4545,2.1816 0,0.88631 0.5908,1.4544 1.4544,1.4544 1.0226,0 1.7498,-0.56809 2.3406,-1.59068 6.5448,-11.6352 9.0219,-25.1793 9.0219,-38.40532 -0.7272,-18.77078 -11.4989,-32.58758 -11.4989,-32.58758 0.4318,0 -13.385,-17.88461 -17.3165,-23.9976 -5.3631,-8.29466 -7.8401,-16.56656 -8.1355,-17.15741 -0.1364,-0.43177 -1.4544,-5.68125 -1.4544,-5.68125 -0.1364,-0.56813 -0.8636,-1.15898 -1.7498,-1.15898 -1.0227,0 -1.8862,0.88628 -1.8862,1.88618 v 32.88304"
     id="path11946"
     style="stroke-width:1.4544" />
  <path
     class="Note"
     d="m 441.463,1601.453 c 0,6.2494 4.49955,13.226 16.29379,13.226 15.11223,0 30.97421,-12.3624 30.97421,-25.1566 0,-8.5901 -7.272,-13.385 -16.29379,-13.385 -14.11219,0 -30.97421,11.9306 -30.97421,25.3156"
     id="path11948"
     style="stroke-width:1.4544" />
  <path
     class="Note"
     d="m 674.775,1619.633 c 0,6.2494 4.49955,13.226 16.29379,13.226 15.11223,0 30.97421,-12.3624 30.97421,-25.1566 0,-8.5901 -7.272,-13.385 -16.29379,-13.385 -14.11219,0 -30.97421,11.9306 -30.97421,25.3156"
     id="path11950"
     style="stroke-width:1.4544" />
  <path
     class="Note"
     d="m 1311.87,1619.633 c 0,6.2494 4.4995,13.226 16.2938,13.226 15.1122,0 30.9742,-12.3624 30.9742,-25.1566 0,-8.5901 -7.272,-13.385 -16.2938,-13.385 -14.1122,0 -30.9742,11.9306 -30.9742,25.3156"
     id="path11952"
     style="stroke-width:1.4544" />
  <path
     class="Note"
     d="m 1467.41,1619.633 c 0,6.2494 4.4995,13.226 16.2938,13.226 15.1122,0 30.9742,-12.3624 30.9742,-25.1566 0,-8.5901 -7.272,-13.385 -16.2938,-13.385 -14.1122,0 -30.9742,11.9306 -30.9742,25.3156"
     id="path11954"
     style="stroke-width:1.4544" />
  <path
     class="Note"
     d="m 1763.18,1655.993 c 0,6.2494 4.4996,13.226 16.2938,13.226 15.1122,0 30.9742,-12.3624 30.9742,-25.1566 0,-8.59 -7.272,-13.385 -16.2938,-13.385 -14.1122,0 -30.9742,11.9306 -30.9742,25.3156"
     id="path11956"
     style="stroke-width:1.4544" />
  <path
     class="Note"
     d="m 824.615,687.61603 c 0,6.24937 4.49955,13.22598 16.29379,13.22598 15.11223,0 30.97421,-12.36243 30.97421,-25.15661 0,-8.59005 -7.272,-13.38499 -16.29379,-13.38499 -14.11219,0 -30.97421,11.93059 -30.97421,25.31562"
     id="path11958"
     style="stroke-width:1.4544" />
  <path
     class="Note"
     d="m 1996.49,1619.633 c 0,6.2494 4.4995,13.226 16.2938,13.226 15.1122,0 30.9742,-12.3624 30.9742,-25.1566 0,-8.5901 -7.272,-13.385 -16.2938,-13.385 -14.1122,0 -30.9742,11.9306 -30.9742,25.3156"
     id="path11960"
     style="stroke-width:1.4544" />
  <path
     class="Note"
     d="m 2283.61,1601.453 c 0,6.2494 4.4996,13.226 16.2938,13.226 15.1122,0 30.9742,-12.3624 30.9742,-25.1566 0,-8.5901 -7.272,-13.385 -16.2938,-13.385 -14.1122,0 -30.9742,11.9306 -30.9742,25.3156"
     id="path11962"
     style="stroke-width:1.4544" />
  <path
     class="Note"
     d="m 972.295,705.79603 c 0,6.24937 4.49955,13.22598 16.29379,13.22598 15.11221,0 30.97421,-12.36243 30.97421,-25.15661 0,-8.59005 -7.272,-13.38499 -16.2938,-13.38499 -14.11218,0 -30.9742,11.93059 -30.9742,25.31562"
     id="path11964"
     style="stroke-width:1.4544" />
  <path
     class="Note"
     d="m 2516.93,1601.453 c 0,6.2494 4.4995,13.226 16.2938,13.226 15.1122,0 30.9742,-12.3624 30.9742,-25.1566 0,-8.5901 -7.272,-13.385 -16.2938,-13.385 -14.1122,0 -30.9742,11.9306 -30.9742,25.3156"
     id="path11966"
     style="stroke-width:1.4544" />
  <path
     class="Note"
     d="m 1088.13,723.97603 c 0,6.24937 4.4996,13.22598 16.2938,13.22598 15.1122,0 30.9742,-12.36243 30.9742,-25.15661 0,-8.59005 -7.272,-13.38499 -16.2938,-13.38499 -14.1122,0 -30.9742,11.93059 -30.9742,25.31562"
     id="path11968"
     style="stroke-width:1.4544" />
  <path
     class="Note"
     d="m 1257.78,705.79603 c 0,6.24937 4.4996,13.22598 16.2938,13.22598 15.1122,0 30.9742,-12.36243 30.9742,-25.15661 0,-8.59005 -7.272,-13.38499 -16.2938,-13.38499 -14.1122,0 -30.9742,11.93059 -30.9742,25.31562"
     id="path11970"
     style="stroke-width:1.4544" />
  <path
     class="Note"
     d="m 1373.62,705.79603 c 0,6.24937 4.4995,13.22598 16.2938,13.22598 15.1122,0 30.9742,-12.36243 30.9742,-25.15661 0,-8.59005 -7.272,-13.38499 -16.2938,-13.38499 -14.1122,0 -30.9742,11.93059 -30.9742,25.31562"
     id="path11972"
     style="stroke-width:1.4544" />
  <path
     class="Note"
     d="m 1767.65,687.61603 c 0,6.24937 4.4996,13.22598 16.2938,13.22598 15.1122,0 30.9742,-12.36243 30.9742,-25.15661 0,-8.59005 -7.272,-13.38499 -16.2938,-13.38499 -14.1122,0 -30.9742,11.93059 -30.9742,25.31562"
     id="path11974"
     style="stroke-width:1.4544" />
  <path
     class="Note"
     d="m 1883.48,687.61603 c 0,6.24937 4.4996,13.22598 16.2938,13.22598 15.1122,0 30.9742,-12.36243 30.9742,-25.15661 0,-8.59005 -7.272,-13.38499 -16.2938,-13.38499 -14.1122,0 -30.9742,11.93059 -30.9742,25.31562"
     id="path11976"
     style="stroke-width:1.4544" />
  <path
     class="Note"
     d="m 2053.14,687.61603 c 0,6.24937 4.4995,13.22598 16.2938,13.22598 15.1122,0 30.9742,-12.36243 30.9742,-25.15661 0,-8.59005 -7.272,-13.38499 -16.2938,-13.38499 -14.1122,0 -30.9742,11.93059 -30.9742,25.31562"
     id="path11978"
     style="stroke-width:1.4544" />
  <path
     class="Note"
     d="m 2226.89,742.15603 c 0,6.24937 4.4995,13.22598 16.2938,13.22598 15.1122,0 30.9742,-12.36243 30.9742,-25.15661 0,-8.59005 -7.272,-13.38499 -16.2938,-13.38499 -14.1122,0 -30.9742,11.93059 -30.9742,25.31562"
     id="path11980"
     style="stroke-width:1.4544" />
  <path
     class="Note"
     d="m 2690.24,742.15603 c 0,6.24937 4.4995,13.22598 16.2938,13.22598 15.1122,0 30.9742,-12.36243 30.9742,-25.15661 0,-8.59005 -7.272,-13.38499 -16.2938,-13.38499 -14.1122,0 -30.9742,11.93059 -30.9742,25.31562"
     id="path11982"
     style="stroke-width:1.4544" />
  <path
     class="Note"
     d="m 441.463,1217.253 c 0,6.2494 4.49955,13.226 16.29379,13.226 15.11223,0 30.97421,-12.3624 30.97421,-25.1566 0,-8.59 -7.272,-13.385 -16.29379,-13.385 -14.11219,0 -30.97421,11.9306 -30.97421,25.3156"
     id="path11984"
     style="stroke-width:1.4544" />
  <path
     class="Note"
     d="m 574.143,1217.253 c 0,6.2494 4.49955,13.226 16.29379,13.226 15.11223,0 30.97421,-12.3624 30.97421,-25.1566 0,-8.59 -7.272,-13.385 -16.29379,-13.385 -14.11219,0 -30.97421,11.9306 -30.97421,25.3156"
     id="path11986"
     style="stroke-width:1.4544" />
  <path
     class="Note"
     d="m 705.308,1217.253 c 0,6.2494 4.49955,13.226 16.29379,13.226 15.11223,0 30.97421,-12.3624 30.97421,-25.1566 0,-8.59 -7.272,-13.385 -16.29379,-13.385 -14.11219,0 -30.97421,11.9306 -30.97421,25.3156"
     id="path11988"
     style="stroke-width:1.4544" />
  <path
     class="Note"
     d="m 836.472,1199.073 c 0,6.2494 4.49955,13.226 16.29379,13.226 15.11223,0 30.97421,-12.3624 30.97421,-25.1566 0,-8.5901 -7.272,-13.385 -16.29379,-13.385 -14.11219,0 -30.97421,11.9306 -30.97421,25.3156"
     id="path11990"
     style="stroke-width:1.4544" />
  <path
     class="Note"
     d="m 1002.75,1199.073 c 0,6.2494 4.4995,13.226 16.2938,13.226 15.1122,0 30.9742,-12.3624 30.9742,-25.1566 0,-8.5901 -7.272,-13.385 -16.2938,-13.385 -14.1122,0 -30.9742,11.9306 -30.9742,25.3156"
     id="path11992"
     style="stroke-width:1.4544" />
  <path
     class="Note"
     d="m 1222.83,1180.893 c 0,6.2494 4.4996,13.226 16.2938,13.226 15.1122,0 30.9742,-12.3624 30.9742,-25.1566 0,-8.5901 -7.272,-13.385 -16.2938,-13.385 -14.1122,0 -30.9742,11.9306 -30.9742,25.3156"
     id="path11994"
     style="stroke-width:1.4544" />
  <path
     class="Note"
     d="m 1389.11,1180.893 c 0,6.2494 4.4995,13.226 16.2938,13.226 15.1122,0 30.9742,-12.3624 30.9742,-25.1566 0,-8.5901 -7.272,-13.385 -16.2938,-13.385 -14.1122,0 -30.9742,11.9306 -30.9742,25.3156"
     id="path11996"
     style="stroke-width:1.4544" />
  <path
     class="Note"
     d="m 1721.66,1162.713 c 0,6.2494 4.4995,13.226 16.2938,13.226 15.1122,0 30.9742,-12.3624 30.9742,-25.1566 0,-8.5901 -7.272,-13.385 -16.2938,-13.385 -14.1122,0 -30.9742,11.9306 -30.9742,25.3156"
     id="path11998"
     style="stroke-width:1.4544" />
  <path
     class="Note"
     d="m 1862.84,1144.533 c 0,6.2494 4.4996,13.226 16.2938,13.226 15.1122,0 30.9742,-12.3624 30.9742,-25.1566 0,-8.59 -7.272,-13.385 -16.2938,-13.385 -14.1122,0 -30.9742,11.9306 -30.9742,25.3156"
     id="path12000"
     style="stroke-width:1.4544" />
  <path
     class="Note"
     d="m 2027.5,1126.353 c 0,6.2494 4.4996,13.226 16.2938,13.226 15.1122,0 30.9742,-12.3624 30.9742,-25.1566 0,-8.59 -7.272,-13.385 -16.2938,-13.385 -14.1122,0 -30.9742,11.9306 -30.9742,25.3156"
     id="path12002"
     style="stroke-width:1.4544" />
  <path
     class="Note"
     d="m 2198.18,1126.353 c 0,6.2494 4.4995,13.226 16.2938,13.226 15.1122,0 30.9742,-12.3624 30.9742,-25.1566 0,-8.59 -7.272,-13.385 -16.2938,-13.385 -14.1122,0 -30.9742,11.9306 -30.9742,25.3156"
     id="path12004"
     style="stroke-width:1.4544" />
  <path
     class="Note"
     d="m 2530.73,1108.173 c 0,6.2494 4.4996,13.226 16.2938,13.226 15.1122,0 30.9742,-12.3624 30.9742,-25.1566 0,-8.5901 -7.272,-13.385 -16.2938,-13.385 -14.1122,0 -30.9742,11.9306 -30.9742,25.3156"
     id="path12006"
     style="stroke-width:1.4544" />
  <path
     class="Note"
     d="m 2701.41,1126.353 c 0,6.2494 4.4995,13.226 16.2938,13.226 15.1122,0 30.9742,-12.3624 30.9742,-25.1566 0,-8.59 -7.272,-13.385 -16.2938,-13.385 -14.1122,0 -30.9742,11.9306 -30.9742,25.3156"
     id="path12008"
     style="stroke-width:1.4544" />
  <path
     class="Clef"
     d="m 428.5548,729.63462 c -2.9088,0.59078 -5.65849,0.88617 -8.43101,0.88617 -20.79327,0 -38.54156,-14.544 -38.54156,-36.51904 0,-17.72557 12.49878,-33.58755 25.31568,-44.65466 2.4543,-2.1816 4.79501,-4.20409 6.97661,-6.38569 1.29529,7.84009 2.31788,14.68028 3.34047,20.65699 -13.24857,3.93139 -22.24767,17.88461 -22.24767,31.56506 0,10.1808 7.9992,24.13395 19.6344,24.13395 1.15887,0 2.47699,-0.59078 2.47699,-1.88621 0,-1.31798 -1.4544,-2.04518 -3.20419,-3.20419 -5.68132,-3.49965 -8.88551,-7.272 -8.88551,-14.40765 0,-8.86275 6.5448,-15.99847 15.13478,-18.02096 l 8.43101,47.83623 M 415.76059,580.12681 c 1.31812,-5.8176 7.9992,-21.0888 15.56673,-21.0888 2.1816,0 5.65849,7.11289 5.65849,17.15727 0,15.13492 -11.1807,26.47473 -21.22522,36.36 -0.86348,-5.8176 -1.59068,-11.47609 -1.59068,-17.58908 0,-5.38579 0.43181,-10.33991 1.59068,-14.83939 m 33.4512,122.60134 c 0,10.33988 -4.22678,20.95245 -14.544,25.17937 -3.04508,-17.45287 -6.97647,-40.58692 -7.9992,-46.99544 13.0896,0 22.5432,8.88554 22.5432,21.81607 m -63.9936,71.56106 c 0,9.61271 7.40842,22.2705 27.04282,22.2705 6.84019,0 12.8169,-1.74979 18.04358,-4.95412 7.86292,-5.52207 9.88541,-15.13478 9.88541,-24.29299 0,-5.65849 -0.86348,-12.20329 -2.31788,-20.49788 -0.43181,-2.9088 -1.31812,-7.272 -2.1816,-12.95332 14.24847,-4.65859 24.86108,-19.49798 24.86108,-34.47383 0,-21.95238 -15.56659,-36.79177 -36.79181,-36.79177 -1.4544,-8.7264 -2.9088,-17.31652 -4.22678,-25.452 15.43031,-16.15751 26.04278,-34.33751 26.04278,-57.4488 0,-13.24871 -4.06767,-23.9976 -6.40838,-29.24653 -3.47689,-7.40871 -7.70381,-12.49911 -10.31722,-12.49911 -1.02259,0 -5.52207,1.74964 -10.31708,7.40871 -9.31732,11.06653 -11.93059,29.67834 -11.93059,41.88163 0,7.86278 0.7272,14.9985 3.20419,31.29229 -0.15911,0.13642 -7.7265,7.84009 -10.77172,10.31722 -13.24857,12.3624 -31.56499,29.95148 -31.56499,59.06224 0,27.17917 23.70221,48.56336 50.76772,48.56336 4.20409,0 8.13548,-0.43181 11.47609,-1.02259 2.77238,13.97577 4.3632,24.15657 4.3632,31.86038 0,15.13492 -7.70381,23.13412 -22.38409,23.13412 -3.49972,0 -6.5448,-0.7272 -6.84033,-0.7272 -0.13628,-0.15911 -0.43167,-0.29553 -0.43167,-0.43181 0,-0.29539 0.29539,-0.4545 0.7272,-0.59092 6.84019,-1.02259 13.65769,-6.84019 13.65769,-16.13468 0,-7.86292 -5.95402,-16.15751 -16.86202,-16.15751 -10.1808,0 -16.7256,8.29459 -16.7256,17.88461"
     id="path12010"
     style="stroke-width:1.4544" />
  <path
     class="Clef"
     d="m 246.7548,1643.4716 c -2.9088,0.5908 -5.65849,0.8862 -8.43101,0.8862 -20.79327,0 -38.54156,-14.544 -38.54156,-36.5191 0,-17.7255 12.49878,-33.5875 25.31568,-44.6546 2.4543,-2.1816 4.79501,-4.2041 6.97661,-6.3857 1.29529,7.8401 2.31788,14.6803 3.34047,20.657 -13.24857,3.9314 -22.24767,17.8846 -22.24767,31.5651 0,10.1808 7.9992,24.1339 19.6344,24.1339 1.15887,0 2.47699,-0.5908 2.47699,-1.8862 0,-1.318 -1.4544,-2.0452 -3.20419,-3.2042 -5.68132,-3.4997 -8.88551,-7.272 -8.88551,-14.4076 0,-8.8628 6.5448,-15.9985 15.13478,-18.021 l 8.43101,47.8362 m -12.79421,-149.5078 c 1.31812,-5.8176 7.9992,-21.0888 15.56673,-21.0888 2.1816,0 5.65849,7.1129 5.65849,17.1573 0,15.1349 -11.1807,26.4747 -21.22522,36.36 -0.86348,-5.8176 -1.59068,-11.4761 -1.59068,-17.5891 0,-5.3858 0.43181,-10.3399 1.59068,-14.8394 m 33.4512,122.6014 c 0,10.3398 -4.22678,20.9524 -14.544,25.1793 -3.04508,-17.4529 -6.97647,-40.5869 -7.9992,-46.9954 13.0896,0 22.5432,8.8855 22.5432,21.8161 m -63.9936,71.561 c 0,9.6127 7.40842,22.2705 27.04282,22.2705 6.84019,0 12.8169,-1.7498 18.04358,-4.9541 7.86292,-5.5221 9.88541,-15.1348 9.88541,-24.293 0,-5.6585 -0.86348,-12.2033 -2.31788,-20.4979 -0.43181,-2.9088 -1.31812,-7.272 -2.1816,-12.9533 14.24847,-4.6586 24.86108,-19.498 24.86108,-34.4738 0,-21.9524 -15.56659,-36.7918 -36.79181,-36.7918 -1.4544,-8.7264 -2.9088,-17.3165 -4.22678,-25.452 15.43031,-16.1575 26.04278,-34.3375 26.04278,-57.4488 0,-13.2487 -4.06767,-23.9976 -6.40838,-29.2465 -3.47689,-7.4087 -7.70381,-12.4991 -10.31722,-12.4991 -1.02259,0 -5.52207,1.7496 -10.31708,7.4087 -9.31732,11.0665 -11.93059,29.6783 -11.93059,41.8816 0,7.8628 0.7272,14.9985 3.20419,31.2923 -0.15911,0.1364 -7.7265,7.8401 -10.77172,10.3172 -13.24857,12.3624 -31.56499,29.9515 -31.56499,59.0623 0,27.1791 23.70221,48.5633 50.76772,48.5633 4.20409,0 8.13548,-0.4318 11.47609,-1.0226 2.77238,13.9758 4.3632,24.1566 4.3632,31.8604 0,15.1349 -7.70381,23.1341 -22.38409,23.1341 -3.49972,0 -6.5448,-0.7272 -6.84033,-0.7272 -0.13628,-0.1591 -0.43167,-0.2955 -0.43167,-0.4318 0,-0.2954 0.29539,-0.4545 0.7272,-0.5909 6.84019,-1.0226 13.65769,-6.8402 13.65769,-16.1347 0,-7.8629 -5.95402,-16.1575 -16.86202,-16.1575 -10.1808,0 -16.7256,8.2946 -16.7256,17.8846"
     id="path12012"
     style="stroke-width:1.4544" />
  <path
     class="Clef"
     d="m 246.7548,1186.5516 c -2.9088,0.5908 -5.65849,0.8862 -8.43101,0.8862 -20.79327,0 -38.54156,-14.544 -38.54156,-36.5191 0,-17.7255 12.49878,-33.5875 25.31568,-44.6546 2.4543,-2.1816 4.79501,-4.2041 6.97661,-6.3857 1.29529,7.8401 2.31788,14.6803 3.34047,20.657 -13.24857,3.9314 -22.24767,17.8846 -22.24767,31.565 0,10.1808 7.9992,24.134 19.6344,24.134 1.15887,0 2.47699,-0.5908 2.47699,-1.8862 0,-1.318 -1.4544,-2.0452 -3.20419,-3.2042 -5.68132,-3.4997 -8.88551,-7.272 -8.88551,-14.4077 0,-8.8627 6.5448,-15.9984 15.13478,-18.0209 l 8.43101,47.8362 m -12.79421,-149.5078 c 1.31812,-5.8176 7.9992,-21.0888 15.56673,-21.0888 2.1816,0 5.65849,7.1129 5.65849,17.1573 0,15.1349 -11.1807,26.4747 -21.22522,36.36 -0.86348,-5.8176 -1.59068,-11.4761 -1.59068,-17.5891 0,-5.3858 0.43181,-10.3399 1.59068,-14.8394 m 33.4512,122.6013 c 0,10.3399 -4.22678,20.9525 -14.544,25.1794 -3.04508,-17.4529 -6.97647,-40.5869 -7.9992,-46.9954 13.0896,0 22.5432,8.8855 22.5432,21.816 m -63.9936,71.5611 c 0,9.6127 7.40842,22.2705 27.04282,22.2705 6.84019,0 12.8169,-1.7498 18.04358,-4.9541 7.86292,-5.5221 9.88541,-15.1348 9.88541,-24.293 0,-5.6585 -0.86348,-12.2033 -2.31788,-20.4979 -0.43181,-2.9088 -1.31812,-7.272 -2.1816,-12.9533 14.24847,-4.6586 24.86108,-19.498 24.86108,-34.4738 0,-21.9524 -15.56659,-36.7918 -36.79181,-36.7918 -1.4544,-8.7264 -2.9088,-17.3165 -4.22678,-25.452 15.43031,-16.1575 26.04278,-34.3375 26.04278,-57.4488 0,-13.2487 -4.06767,-23.9976 -6.40838,-29.2465 -3.47689,-7.40874 -7.70381,-12.49914 -10.31722,-12.49914 -1.02259,0 -5.52207,1.74964 -10.31708,7.40874 -9.31732,11.0665 -11.93059,29.6783 -11.93059,41.8816 0,7.8628 0.7272,14.9985 3.20419,31.2923 -0.15911,0.1364 -7.7265,7.8401 -10.77172,10.3172 -13.24857,12.3624 -31.56499,29.9515 -31.56499,59.0622 0,27.1792 23.70221,48.5634 50.76772,48.5634 4.20409,0 8.13548,-0.4318 11.47609,-1.0226 2.77238,13.9758 4.3632,24.1566 4.3632,31.8604 0,15.1349 -7.70381,23.1341 -22.38409,23.1341 -3.49972,0 -6.5448,-0.7272 -6.84033,-0.7272 -0.13628,-0.1591 -0.43167,-0.2955 -0.43167,-0.4318 0,-0.2954 0.29539,-0.4545 0.7272,-0.5909 6.84019,-1.0226 13.65769,-6.8402 13.65769,-16.1347 0,-7.8629 -5.95402,-16.1575 -16.86202,-16.1575 -10.1808,0 -16.7256,8.2946 -16.7256,17.8846"
     id="path12014"
     style="stroke-width:1.4544" />
  <path
     class="KeySig"
     d="m 508.22878,579.83135 12.95321,-2.61338 v 23.99761 l -12.95321,2.77245 v -24.15668 m 22.54323,-4.49955 c 0.88631,-0.13642 1.61351,-1.15901 1.61351,-2.04532 v -8.56729 c 0,-1.15901 -0.88631,-2.04518 -2.04532,-2.04518 h -0.29539 l -4.79501,1.02259 v -21.67972 h -4.06781 v 22.5432 l -12.95321,2.6361 V 546.67561 H 504.161 v 21.38419 l -5.68125,1.15901 c -0.86355,0.15897 -1.59075,1.15887 -1.59075,2.04518 v 8.43101 c 0,1.15897 0.86355,2.04525 2.04525,2.04525 h 0.43178 l 4.79497,-1.02263 v 23.99761 l -5.68125,1.15897 c -0.86355,0.13642 -1.59075,1.15901 -1.59075,2.04532 v 8.43087 c 0,1.15901 0.86355,2.02263 2.04525,2.02263 h 0.43178 l 4.79497,-0.9999 v 21.65689 h 4.06778 v -22.5432 l 12.95321,-2.61341 v 20.52071 h 4.06781 v -21.38419 l 5.52221,-1.02273 c 0.88631,-0.15897 1.61351,-1.15887 1.61351,-2.04518 v -8.56736 c 0,-1.1817 -0.88631,-2.04525 -2.04532,-2.04525 h -0.29539 l -4.79501,1.02263 v -23.99761 l 5.52221,-1.02262"
     id="path12016"
     style="stroke-width:1.4544" />
  <path
     class="KeySig"
     d="m 326.42878,1036.7483 12.95321,-2.6133 v 23.9976 l -12.95321,2.7724 v -24.1567 m 22.54323,-4.4995 c 0.88631,-0.1364 1.61351,-1.159 1.61351,-2.0453 v -8.5673 c 0,-1.159 -0.88631,-2.0452 -2.04532,-2.0452 h -0.29539 l -4.79501,1.0226 v -21.67972 h -4.06781 v 22.54322 l -12.95321,2.6361 v -20.5206 H 322.361 v 21.3842 l -5.68125,1.159 c -0.86355,0.159 -1.59075,1.1589 -1.59075,2.0452 v 8.431 c 0,1.159 0.86355,2.0452 2.04525,2.0452 h 0.43178 l 4.79497,-1.0226 v 23.9976 l -5.68125,1.159 c -0.86355,0.1364 -1.59075,1.159 -1.59075,2.0453 v 8.4309 c 0,1.159 0.86355,2.0226 2.04525,2.0226 h 0.43178 l 4.79497,-0.9999 v 21.6569 h 4.06778 v -22.5432 l 12.95321,-2.6134 v 20.5207 h 4.06781 v -21.3842 l 5.52221,-1.0227 c 0.88631,-0.159 1.61351,-1.1589 1.61351,-2.0452 v -8.5674 c 0,-1.1817 -0.88631,-2.0452 -2.04532,-2.0452 h -0.29539 l -4.79501,1.0226 v -23.9976 l 5.52221,-1.0226"
     id="path12018"
     style="stroke-width:1.4544" />
  <path
     class="KeySig"
     d="m 326.42878,1493.6684 12.95321,-2.6134 v 23.9976 l -12.95321,2.7724 v -24.1566 m 22.54323,-4.4996 c 0.88631,-0.1364 1.61351,-1.159 1.61351,-2.0453 v -8.5673 c 0,-1.159 -0.88631,-2.0452 -2.04532,-2.0452 h -0.29539 l -4.79501,1.0226 v -21.6797 h -4.06781 v 22.5432 l -12.95321,2.6361 v -20.5206 H 322.361 v 21.3842 l -5.68125,1.159 c -0.86355,0.159 -1.59075,1.1589 -1.59075,2.0452 v 8.431 c 0,1.159 0.86355,2.0453 2.04525,2.0453 h 0.43178 l 4.79497,-1.0227 v 23.9976 l -5.68125,1.159 c -0.86355,0.1364 -1.59075,1.159 -1.59075,2.0453 v 8.4309 c 0,1.159 0.86355,2.0226 2.04525,2.0226 h 0.43178 l 4.79497,-0.9999 v 21.6569 h 4.06778 v -22.5432 l 12.95321,-2.6134 v 20.5207 h 4.06781 v -21.3842 l 5.52221,-1.0227 c 0.88631,-0.159 1.61351,-1.1589 1.61351,-2.0452 v -8.5673 c 0,-1.1817 -0.88631,-2.0453 -2.04532,-2.0453 h -0.29539 l -4.79501,1.0226 v -23.9976 l 5.52221,-1.0226"
     id="path12020"
     style="stroke-width:1.4544" />
  <path
     class="TimeSig"
     d="m 588.49382,648.48361 c 0,-6.84033 2.04518,-14.38503 10.33977,-16.7256 v 62.83459 c -6.97647,-2.47699 -10.33977,-8.7264 -10.33977,-18.31635 v -27.79264 m 41.9049,26.90637 c -0.59092,0 -1.15901,0.59085 -1.15901,1.15897 -0.59092,12.08977 -9.1809,19.36177 -21.97511,19.36177 h -1.29529 v -64.87991 c 5.95388,0.29539 8.7264,2.77238 10.1808,5.0904 0.13628,0.29539 0.13628,0.43167 0.13628,0.59078 0,0.29539 0,0.43181 -0.29539,0.56809 -3.636,2.34071 -6.24941,6.5448 -6.24941,11.20353 0,0.59081 0,1.15894 0.13642,1.74979 0.7272,5.95395 5.68118,10.61257 11.6352,11.33977 h 1.4544 c 7.272,0 13.0896,-5.8176 13.0896,-13.08956 v -0.86362 c 0,-0.59078 -0.13642,-1.61351 -0.2727,-2.1816 -1.31812,-5.97671 -6.70391,-18.9072 -29.8152,-19.49798 v -17.4528 c 0,-0.86362 -0.74989,-1.59082 -1.61351,-1.59082 h -3.93139 c -0.86362,0 -1.59082,0.7272 -1.59082,1.59082 v 17.58908 c -26.90636,2.77252 -30.11059,26.63373 -30.11059,35.49648 0,15.86206 1.74983,35.49642 30.11059,38.54164 v 16.29379 c 0,0.88631 0.7272,1.61351 1.59082,1.61351 h 3.93139 c 0.86362,0 1.61351,-0.7272 1.61351,-1.61351 v -15.83929 h 1.29529 c 14.40772,0 25.61111,-8.4537 26.1792,-24.02036 0,-0.7272 -0.43181,-1.15897 -1.15901,-1.15897 h -1.88607"
     id="path12022"
     style="stroke-width:1.4544" />
  <path
     class="Rest"
     d="m 747.61399,633.80319 c -0.13628,0 -0.43167,-0.15911 -0.59078,-0.15911 -0.86362,0 -1.59082,0.4545 -1.88621,1.1817 -0.59078,0.86362 -5.0904,9.4536 -11.6352,14.24864 -1.88621,1.4544 -4.22678,2.47703 -6.5448,2.9088 1.59082,-1.88617 2.61341,-4.22681 2.61341,-6.97664 0,-5.68118 -4.65859,-10.33977 -10.31718,-10.33977 -5.8176,0 -10.47623,4.65859 -10.47623,10.33977 0,7.84019 7.70378,11.47619 14.544,11.47619 7.70381,0 12.79421,-3.636 17.74819,-9.02189 l -16.58918,51.79031 3.93139,1.15901 20.3616,-64.13002 c 0.15911,-0.15897 0.15911,-0.4545 0.15911,-0.7272 0,-0.7272 -0.4545,-1.31798 -1.31812,-1.74979"
     id="path12024"
     style="stroke-width:1.4544" />
  <path
     class="Rest"
     d="m 2434.1012,687.45702 c -0.1363,-0.13642 -0.4318,-0.43181 -0.8635,-0.9999 l -16.7256,-20.65709 c -0.1591,-0.15908 -0.2955,-0.59085 -0.2955,-0.88628 0,-0.43177 0.1364,-0.9999 0.2955,-1.29533 l 14.8167,-22.40681 c 0.159,-0.29553 0.2954,-0.7272 0.2954,-1.02273 v -1.29529 c 0,-0.43181 -0.1364,-0.88631 -0.4318,-1.15901 l -23.5658,-31.86038 c 0,0 -0.5681,-0.88631 -1.4544,-0.88631 -0.4318,0 -0.7272,0.15911 -1.159,0.4545 -0.5908,0.43181 -0.7272,0.9999 -0.7272,1.4544 0,0.86362 0.4318,1.59082 0.4318,1.59082 l 11.0671,15.13478 c 0.2727,0.43181 0.4317,0.9999 0.4317,1.7271 0,0.59092 -0.159,1.31812 -0.4317,1.74979 l -14.7031,22.40692 c -0.1364,0.29542 -0.2954,0.86355 -0.2954,1.15897 v 1.31805 c 0,0.43178 0.159,0.86355 0.4545,1.15898 l 16.2711,20.22525 c -0.5682,-0.15907 -1.8862,-0.4545 -3.636,-0.4545 -7.4084,0 -13.226,6.11306 -13.226,13.54417 0,2.02249 0.4318,4.06767 1.5908,5.65849 3.0678,4.65859 13.9758,18.47539 13.9758,18.47539 0,0 0.7272,0.88631 1.7499,0.88631 0.2727,0 0.5681,0 0.8635,-0.29539 0.7272,-0.59092 1.0226,-1.15901 1.0226,-1.74993 0,-0.59078 -0.2954,-1.02259 -0.4317,-1.31798 -0.4545,-0.7272 -5.0904,-9.15821 -5.0904,-9.15821 0,0 -1.0227,-2.04518 -1.0227,-4.65859 0,-4.65859 3.477,-8.43101 8.1356,-8.43101 1.8862,0 3.4996,0.59092 4.6586,1.31812 l 5.6813,3.636 c 0,0 0.5681,0.2727 1.1589,0.2727 0.5682,0 1.0227,-0.13642 1.4544,-0.7272 0.2955,-0.56823 0.4318,-0.86362 0.4318,-1.29543 0,-0.43167 -0.1363,-0.7272 -0.4318,-1.15887 l -0.2954,-0.4545"
     id="path12026"
     style="stroke-width:1.4544" />
  <path
     class="Rest"
     d="m 2613.247,633.80319 c -0.1363,0 -0.4317,-0.15911 -0.5908,-0.15911 -0.8636,0 -1.5908,0.4545 -1.8862,1.1817 -0.5908,0.86362 -5.0904,9.4536 -11.6352,14.24864 -1.8862,1.4544 -4.2268,2.47703 -6.5448,2.9088 1.5908,-1.88617 2.6134,-4.22681 2.6134,-6.97664 0,-5.68118 -4.6586,-10.33977 -10.3172,-10.33977 -5.8176,0 -10.4762,4.65859 -10.4762,10.33977 0,7.84019 7.7038,11.47619 14.544,11.47619 7.7038,0 12.7942,-3.636 17.7482,-9.02189 l -16.5892,51.79031 3.9314,1.15901 20.3616,-64.13002 c 0.1591,-0.15897 0.1591,-0.4545 0.1591,-0.7272 0,-0.7272 -0.4545,-1.31798 -1.3181,-1.74979"
     id="path12028"
     style="stroke-width:1.4544" />
  <path
     class="Rest"
     d="m 1588.8312,1144.374 c -0.1363,-0.1364 -0.4318,-0.4318 -0.8635,-0.9999 l -16.7256,-20.6571 c -0.1591,-0.159 -0.2955,-0.5908 -0.2955,-0.8862 0,-0.4318 0.1364,-0.9999 0.2955,-1.2954 l 14.8167,-22.4068 c 0.159,-0.2955 0.2954,-0.7272 0.2954,-1.0227 v -1.2953 c 0,-0.4318 -0.1364,-0.8863 -0.4318,-1.159 l -23.5658,-31.8604 c 0,0 -0.5682,-0.8863 -1.4544,-0.8863 -0.4318,0 -0.7272,0.1591 -1.159,0.4545 -0.5909,0.4318 -0.7272,0.9999 -0.7272,1.4544 0,0.8636 0.4318,1.5908 0.4318,1.5908 l 11.0671,15.1348 c 0.2727,0.4318 0.4317,0.9999 0.4317,1.7271 0,0.5909 -0.159,1.3181 -0.4317,1.7498 l -14.7031,22.4069 c -0.1364,0.2954 -0.2955,0.8636 -0.2955,1.159 v 1.318 c 0,0.4318 0.1591,0.8636 0.4546,1.159 l 16.2711,20.2253 c -0.5682,-0.1591 -1.8862,-0.4545 -3.6361,-0.4545 -7.4083,0 -13.2259,6.113 -13.2259,13.5441 0,2.0225 0.4318,4.0677 1.5908,5.6585 3.0678,4.6586 13.9758,18.4754 13.9758,18.4754 0,0 0.7272,0.8863 1.7499,0.8863 0.2727,0 0.5681,0 0.8635,-0.2954 0.7272,-0.5909 1.0226,-1.159 1.0226,-1.7499 0,-0.5908 -0.2954,-1.0226 -0.4317,-1.318 -0.4545,-0.7272 -5.0904,-9.1582 -5.0904,-9.1582 0,0 -1.0227,-2.0452 -1.0227,-4.6586 0,-4.6586 3.477,-8.431 8.1356,-8.431 1.8862,0 3.4996,0.5909 4.6586,1.3181 l 5.6813,3.636 c 0,0 0.5681,0.2727 1.1589,0.2727 0.5682,0 1.0227,-0.1364 1.4544,-0.7272 0.2955,-0.5682 0.4318,-0.8636 0.4318,-1.2954 0,-0.4317 -0.1363,-0.7272 -0.4318,-1.1589 l -0.2954,-0.4545"
     id="path12030"
     style="stroke-width:1.4544" />
  <path
     class="Rest"
     d="m 2397.9012,1144.374 c -0.1363,-0.1364 -0.4318,-0.4318 -0.8635,-0.9999 l -16.7256,-20.6571 c -0.1591,-0.159 -0.2955,-0.5908 -0.2955,-0.8862 0,-0.4318 0.1364,-0.9999 0.2955,-1.2954 l 14.8167,-22.4068 c 0.159,-0.2955 0.2954,-0.7272 0.2954,-1.0227 v -1.2953 c 0,-0.4318 -0.1364,-0.8863 -0.4318,-1.159 l -23.5658,-31.8604 c 0,0 -0.5682,-0.8863 -1.4544,-0.8863 -0.4318,0 -0.7272,0.1591 -1.159,0.4545 -0.5908,0.4318 -0.7272,0.9999 -0.7272,1.4544 0,0.8636 0.4318,1.5908 0.4318,1.5908 l 11.0671,15.1348 c 0.2727,0.4318 0.4317,0.9999 0.4317,1.7271 0,0.5909 -0.159,1.3181 -0.4317,1.7498 l -14.7031,22.4069 c -0.1364,0.2954 -0.2954,0.8636 -0.2954,1.159 v 1.318 c 0,0.4318 0.159,0.8636 0.4544,1.159 l 16.2712,20.2253 c -0.5682,-0.1591 -1.8862,-0.4545 -3.6361,-0.4545 -7.4083,0 -13.2259,6.113 -13.2259,13.5441 0,2.0225 0.4318,4.0677 1.5907,5.6585 3.0679,4.6586 13.9759,18.4754 13.9759,18.4754 0,0 0.7272,0.8863 1.7499,0.8863 0.2727,0 0.5681,0 0.8635,-0.2954 0.7272,-0.5909 1.0226,-1.159 1.0226,-1.7499 0,-0.5908 -0.2954,-1.0226 -0.4317,-1.318 -0.4545,-0.7272 -5.0905,-9.1582 -5.0905,-9.1582 0,0 -1.0226,-2.0452 -1.0226,-4.6586 0,-4.6586 3.477,-8.431 8.1356,-8.431 1.8862,0 3.4996,0.5909 4.6586,1.3181 l 5.6813,3.636 c 0,0 0.5681,0.2727 1.1589,0.2727 0.5682,0 1.0227,-0.1364 1.4544,-0.7272 0.2955,-0.5682 0.4318,-0.8636 0.4318,-1.2954 0,-0.4317 -0.1363,-0.7272 -0.4318,-1.1589 l -0.2954,-0.4545"
     id="path12032"
     style="stroke-width:1.4544" />
  <path
     class="Rest"
     d="m 908.088,1575.7056 c 0,2.0453 0,2.0453 2.04525,2.0453 h 43.20026 c 2.02249,0 2.02249,0 2.02249,-2.0453 v -15.703 c 0,-2.0452 0,-2.0452 -2.02249,-2.0452 h -43.20026 c -2.04525,0 -2.04525,0 -2.04525,2.0452 v 15.703"
     id="path12034"
     style="stroke-width:1.4544" />
  <path
     class="Rest"
     d="m 1627.3412,687.45702 c -0.1363,-0.13642 -0.4318,-0.43181 -0.8635,-0.9999 l -16.7256,-20.65709 c -0.1591,-0.15908 -0.2955,-0.59085 -0.2955,-0.88628 0,-0.43177 0.1364,-0.9999 0.2955,-1.29533 l 14.8167,-22.40681 c 0.159,-0.29553 0.2954,-0.7272 0.2954,-1.02273 v -1.29529 c 0,-0.43181 -0.1364,-0.88631 -0.4318,-1.15901 l -23.5658,-31.86038 c 0,0 -0.5682,-0.88631 -1.4544,-0.88631 -0.4318,0 -0.7272,0.15911 -1.159,0.4545 -0.5909,0.43181 -0.7272,0.9999 -0.7272,1.4544 0,0.86362 0.4318,1.59082 0.4318,1.59082 l 11.0671,15.13478 c 0.2727,0.43181 0.4317,0.9999 0.4317,1.7271 0,0.59092 -0.159,1.31812 -0.4317,1.74979 l -14.7031,22.40692 c -0.1364,0.29542 -0.2955,0.86355 -0.2955,1.15897 v 1.31805 c 0,0.43178 0.1591,0.86355 0.4546,1.15898 l 16.2711,20.22525 c -0.5682,-0.15907 -1.8862,-0.4545 -3.6361,-0.4545 -7.4083,0 -13.2259,6.11306 -13.2259,13.54417 0,2.02249 0.4318,4.06767 1.5908,5.65849 3.0678,4.65859 13.9758,18.47539 13.9758,18.47539 0,0 0.7272,0.88631 1.7499,0.88631 0.2727,0 0.5681,0 0.8635,-0.29539 0.7272,-0.59092 1.0226,-1.15901 1.0226,-1.74993 0,-0.59078 -0.2954,-1.02259 -0.4317,-1.31798 -0.4545,-0.7272 -5.0904,-9.15821 -5.0904,-9.15821 0,0 -1.0227,-2.04518 -1.0227,-4.65859 0,-4.65859 3.477,-8.43101 8.1356,-8.43101 1.8862,0 3.4996,0.59092 4.6586,1.31812 l 5.6813,3.636 c 0,0 0.5681,0.2727 1.1589,0.2727 0.5682,0 1.0227,-0.13642 1.4544,-0.7272 0.2955,-0.56823 0.4318,-0.86362 0.4318,-1.29543 0,-0.43167 -0.1363,-0.7272 -0.4318,-1.15887 l -0.2954,-0.4545"
     id="path12036"
     style="stroke-width:1.4544" />
  <path
     class="Beam"
     fill-rule="evenodd"
     d="m 2530.73,1202.04 174.31,9.09 v 18.2 l -174.31,-9.09 v -18.2"
     id="path12038" />
  <path
     class="Beam"
     fill-rule="evenodd"
     d="m 868.247,572.402 267.153,18.18 v 18.222 l -267.153,-18.18 v -18.222"
     id="path12040" />
  <path
     class="Beam"
     fill-rule="evenodd"
     d="m 1765.29,1038.41 144.81,-9.09 v 18.22 l -144.81,9.09 v -18.22"
     id="path12042" />
  <path
     class="Beam"
     fill-rule="evenodd"
     d="m 1811.28,572.423 h 119.47 v 18.18 h -119.47 v -18.18"
     id="path12044" />
  <path
     class="Lyrics"
     d="m 799.738,789.693 h -3.219 l -3.469,5.219 c -4.187,-3.906 -9.672,-6 -15.844,-6 -11.484,0 -19.047,7.219 -19.047,18.188 0,9.484 4.688,14.187 17.485,17.484 l 8.265,2.094 c 6.438,1.656 7.047,1.828 8.875,3.219 2.61,2 4,4.875 4,8.265 0,3.485 -1.312,6.344 -3.921,8.781 -2.86,2.438 -5.735,3.391 -10.516,3.391 -13.141,0 -19.672,-9.656 -21.938,-21.391 h -3.734 l 0.344,24.797 h 3.39 l 3.922,-5.922 c 5.828,4.782 10.61,6.532 18.266,6.532 12.797,0 20.969,-7.485 20.969,-19.157 0,-5.468 -1.735,-10 -5.219,-13.296 -2.344,-2.266 -5.734,-3.75 -12.703,-5.485 l -9.313,-2.359 c -7.734,-2 -11.39,-5.391 -11.39,-10.703 0,-6.078 4.953,-10.266 12.359,-10.266 11.219,0 17.391,9.313 19.75,19.234 h 3.734 l -1.046,-22.625 m 23.375,22.797 v -17.218 h -3.563 c -0.875,11.296 -4.703,17.046 -11.75,17.562 v 3.406 h 7.141 v 22.188 c 0,6.078 0.172,8.265 1.047,10.265 1.39,3.641 4.859,5.657 9.906,5.657 7.844,0 12.89,-5.922 12.89,-15.141 0,-0.531 0,-1.141 -0.093,-2 h -3.657 c -0.265,7.828 -2.515,11.828 -6.781,11.828 -2,0 -3.75,-1.047 -4.359,-2.531 -0.516,-1.219 -0.781,-3.391 -0.781,-6.516 v -23.75 h 12.796 v -3.75 h -12.796 m 56.453,12.532 c 0,-5.485 -0.953,-8.266 -3.485,-10.36 -2.875,-2.344 -7.125,-3.469 -12.703,-3.469 -9.828,0 -16.969,4.61 -16.969,10.954 0,3.218 2,5.312 5.047,5.312 2.797,0 4.703,-1.828 4.703,-4.437 0,-1.125 -0.437,-2.344 -1.312,-3.563 -0.516,-0.609 -0.594,-0.797 -0.594,-1.219 0,-1.75 3.469,-3.312 7.656,-3.312 2.782,0 5.829,0.875 7.219,2.172 1.641,1.39 2.25,3.484 2.25,7.406 v 3.391 c -9.047,1.562 -11.906,2.265 -16.172,3.906 -7.578,2.797 -11.14,6.797 -11.14,12.359 0,6.266 4.875,10.188 12.609,10.188 6.016,0 11.406,-2.438 15.141,-6.875 1.39,4.437 3.578,6.172 7.656,6.172 3.922,0 8.016,-2.532 8.016,-5.047 0,-0.61 -0.36,-1.047 -0.875,-1.047 -0.344,0 -0.704,0.094 -1.313,0.344 -1.219,0.531 -1.734,0.609 -2.437,0.609 -2.422,0 -3.297,-1.563 -3.297,-6 v -17.484 m -8.188,10.609 c 0,5.219 -0.25,6.437 -1.734,8.703 -2.172,3.219 -6.094,5.391 -9.922,5.391 -4,0 -6.875,-2.86 -6.875,-6.782 0,-3.656 1.828,-6.265 5.656,-8.093 2.703,-1.219 6.094,-2.078 12.875,-3.219 v 4 m 40.703,-29.141 h 5.485 l 10.875,-14.437 H 925.3 l -10.531,8.781 -10.438,-8.781 h -3.125 l 10.875,14.437 m -6.437,6 -15.063,0.953 v 3.75 h 3.141 c 3.297,0.079 3.734,0.61 3.734,4.344 v 24.891 c -0.078,1.297 -0.172,1.828 -0.515,2.265 -0.61,0.782 -2.266,1.125 -6,1.219 h -0.36 v 3.125 h 22.016 v -3.125 h -0.344 c -5.828,-0.187 -6.609,-0.609 -6.609,-3.75 v -12.875 c 0,-4.265 0.609,-8.172 1.562,-10.187 1.828,-3.907 5.735,-6.61 9.485,-6.61 2.265,0 4.875,1.219 6.172,3.047 1.312,1.922 1.921,4.531 1.921,8.703 v 18.188 c -0.093,1.297 -0.171,1.828 -0.531,2.265 -0.609,0.782 -2.344,1.125 -6.078,1.219 h -0.359 v 3.125 h 22.015 v -3.125 h -0.343 c -5.75,-0.187 -6.532,-0.609 -6.532,-3.75 v -17.484 c 0,-6.266 -0.265,-7.828 -1.828,-10.797 -2.172,-4.172 -6.515,-6.688 -11.75,-6.688 -5.64,0 -9.906,2.61 -13.734,8.344 v -7.047"
     id="path12046" />
  <path
     class="Lyrics"
     d="m 974.293,812.49 v -17.218 h -3.563 c -0.875,11.296 -4.703,17.046 -11.75,17.562 v 3.406 h 7.141 v 22.188 c 0,6.078 0.172,8.265 1.047,10.265 1.39,3.641 4.859,5.657 9.906,5.657 7.844,0 12.89,-5.922 12.89,-15.141 0,-0.531 0,-1.141 -0.093,-2 h -3.657 c -0.265,7.828 -2.515,11.828 -6.781,11.828 -2,0 -3.75,-1.047 -4.359,-2.531 -0.516,-1.219 -0.781,-3.391 -0.781,-6.516 v -23.75 h 12.796 v -3.75 h -12.796 m 58.577,20.969 c 0.09,-13.047 -7.3,-22.266 -17.92,-22.266 -11.14,0 -19.486,9.657 -19.486,22.704 0,12.265 7.926,20.453 19.656,20.453 8.36,0 14.19,-4.094 17.75,-12.36 l -3.05,-1.656 c -3.56,6.703 -7.21,9.313 -13.04,9.313 -4.44,0 -7.66,-1.829 -9.92,-5.75 -1.57,-2.61 -2.25,-5.657 -2.18,-10.438 h 28.19 m -28.09,-3.734 c 0,-6.094 2.78,-14.797 10.09,-14.797 5.22,0 8.69,4.609 8.69,11.656 0,2.438 -0.78,3.141 -3.56,3.141 h -15.22"
     id="path12048" />
  <path
     class="Lyrics"
     d="m 1385.96,1291.59 -15.4,0.95 v 3.75 h 3.56 c 3.31,0.08 3.75,0.61 3.75,4.35 v 24.89 c -0.09,1.29 -0.17,1.82 -0.53,2.26 -0.61,0.78 -2.34,1.13 -6.09,1.22 h -0.35 v 3.13 h 23.24 v -3.13 h -1.57 c -5.82,-0.19 -6.61,-0.61 -6.61,-3.75 v -4.7 c 0.08,-14.61 5.3,-25.75 12.1,-26.1 -1.22,1.39 -1.58,2.27 -1.58,3.91 0,2.8 2,4.8 4.8,4.8 3.22,0 5.29,-2.36 5.29,-5.83 0,-4.27 -2.95,-7.05 -7.56,-7.05 -5.48,0 -10.19,4.35 -13.05,12.1 v -10.8 m 49.88,29.5 -9.58,-22.36 c -0.34,-0.88 -0.51,-1.31 -0.51,-1.75 0,-1.64 1.03,-2.25 4,-2.25 h 1.82 v -3.14 h -20.71 v 3.14 h 0.96 c 2.96,0.08 4.08,0.95 5.91,4.69 l 14.19,32.11 -1.49,3.04 c -3.12,6.61 -7.22,11.22 -10,11.22 -0.78,0 -1.39,-0.34 -1.39,-0.86 0,-0.18 0.08,-0.43 0.17,-0.79 0.27,-0.79 0.44,-1.57 0.44,-2.25 0,-2.27 -1.83,-3.93 -4.44,-3.93 -3.04,0 -5.21,2.27 -5.21,5.39 0,3.93 3.29,6.71 7.9,6.71 4.63,0 8.53,-2.27 12.02,-6.96 2.69,-3.57 4.44,-7.23 8.26,-16.71 l 9.93,-24.61 c 2,-5.05 3.9,-6.97 7.29,-7.05 h 0.53 v -3.14 h -17.4 v 3.14 h 1.39 c 3.31,0 4.7,0.95 4.7,3.22 0,0.95 -0.26,2 -0.87,3.47 l -7.91,19.67 m 22.45,27.06 c 7.85,-5.4 11.41,-10.7 11.41,-16.8 0,-5.21 -2.88,-8.6 -7.14,-8.6 -3.22,0 -5.66,2.25 -5.66,5.21 0,3.13 2.36,5.13 6.02,5.13 0.42,0 1.03,0 1.29,-0.08 h 0.27 c 0.44,0 0.61,0.25 0.61,0.78 0,3.66 -2.97,7.74 -8.8,11.83 l 2,2.53"
     id="path12050" />
  <path
     class="Lyrics"
     d="m 2001.56,1290.64 h -3.05 l -2.53,3.12 c -3.13,-2.44 -6.27,-3.47 -10.61,-3.47 -7.66,0 -12.7,4.96 -12.7,12.61 0,8.17 5.31,10.27 12.26,11.92 l 4.61,1.05 c 6.88,1.66 9.31,3.39 9.31,6.88 0,4.07 -3.56,6.95 -8.6,6.95 -7.41,0 -12.63,-4.7 -14.71,-13.39 h -3.48 v 16.44 h 3.04 l 3.05,-3.57 c 3.56,2.86 7.49,4.27 11.92,4.27 8.52,0 14.18,-5.31 14.18,-13.41 0,-3.83 -1.22,-6.78 -3.66,-8.78 -2.08,-1.83 -3.83,-2.53 -9.13,-3.66 l -4.36,-0.96 c -4.78,-1.04 -4.78,-1.04 -6.34,-1.91 -1.92,-0.88 -3.05,-2.7 -3.05,-4.61 0,-3.56 3.32,-6 8.1,-6 7.12,0 10.61,5.05 12.7,11.13 h 3.05 v -14.61 m 30.73,30.96 -9.92,-22.96 c -0.27,-0.69 -0.44,-1.39 -0.44,-1.91 0,-1.48 1.13,-2 4.71,-2 h 1.21 v -3.14 h -20.53 v 3.14 h 0.69 c 3.31,0 4.53,0.86 5.75,3.73 l 14.95,34.99 h 3.05 l 12.36,-30.55 c 2.44,-5.92 4.53,-7.92 8.09,-8.17 h 0.35 v -3.14 h -17.41 v 3.14 h 1.22 c 3.05,0 4.7,1.03 4.7,3.03 0,1.05 -0.26,2.36 -0.78,3.66 l -8,20.18 m 40.3,-36.01 h 5.56 l 10.88,-14.44 h -3.13 l -10.53,8.78 -10.53,-8.78 h -3.05 l 10.8,14.44 m 21.48,26.97 c 0.1,-13.05 -7.29,-22.27 -17.92,-22.27 -11.14,0 -19.48,9.66 -19.48,22.71 0,12.26 7.92,20.45 19.65,20.45 8.36,0 14.19,-4.1 17.75,-12.36 l -3.04,-1.66 c -3.57,6.71 -7.22,9.32 -13.05,9.32 -4.44,0 -7.66,-1.83 -9.92,-5.75 -1.56,-2.61 -2.25,-5.66 -2.17,-10.44 h 28.18 m -28.09,-3.74 c 0,-6.09 2.78,-14.79 10.09,-14.79 5.22,0 8.69,4.61 8.69,11.65 0,2.44 -0.78,3.14 -3.56,3.14 h -15.22 m 48.52,-17.23 v -17.22 h -3.57 c -0.87,11.3 -4.7,17.05 -11.75,17.56 v 3.41 h 7.14 v 22.19 c 0,6.07 0.18,8.26 1.05,10.26 1.39,3.64 4.86,5.66 9.91,5.66 7.84,0 12.89,-5.92 12.89,-15.14 0,-0.53 0,-1.14 -0.1,-2 h -3.65 c -0.27,7.83 -2.52,11.83 -6.78,11.83 -2,0 -3.75,-1.05 -4.36,-2.54 -0.52,-1.21 -0.78,-3.39 -0.78,-6.51 v -23.75 h 12.79 v -3.75 h -12.79"
     id="path12052" />
  <path
     class="Lyrics"
     d="m 2165.55,1268.01 -16.09,0.95 v 3.75 h 4.26 c 3.22,0.08 3.66,0.61 3.66,4.35 v 48.47 c -0.1,1.29 -0.19,1.82 -0.53,2.26 -0.61,0.78 -2.27,1.13 -6,1.22 h -0.61 v 3.13 h 22.53 v -3.13 h -0.61 c -5.83,-0.19 -6.61,-0.61 -6.61,-3.75 v -57.25 m 49.7,44.55 c 0.1,-13.05 -7.29,-22.27 -17.92,-22.27 -11.14,0 -19.48,9.66 -19.48,22.71 0,12.26 7.92,20.45 19.65,20.45 8.36,0 14.19,-4.1 17.75,-12.36 l -3.04,-1.66 c -3.57,6.71 -7.22,9.32 -13.05,9.32 -4.44,0 -7.66,-1.83 -9.92,-5.75 -1.56,-2.61 -2.25,-5.66 -2.17,-10.44 h 28.18 m -28.09,-3.74 c 0,-6.09 2.78,-14.79 10.09,-14.79 5.22,0 8.69,4.61 8.69,11.65 0,2.44 -0.78,3.14 -3.56,3.14 h -15.22 m 49.12,-17.23 -15.48,0.95 v 3.75 h 3.56 c 3.32,0.08 3.75,0.61 3.75,4.35 v 24.89 c -0.09,1.29 -0.17,1.82 -0.53,2.26 -0.61,0.78 -2.25,1.13 -6,1.22 h -0.34 v 3.13 h 21.92 v -3.13 h -0.34 c -5.75,-0.19 -6.54,-0.61 -6.54,-3.83 v -16.11 c 0,-7.73 4.27,-13.48 9.93,-13.48 4.95,0 7.48,3.58 7.48,10.62 v 19.39 c -0.09,1.15 -0.17,1.75 -0.61,2.19 -0.51,0.78 -2.26,1.13 -6,1.22 h -0.36 v 3.13 h 22.02 v -3.13 h -0.35 c -5.75,-0.19 -6.53,-0.61 -6.53,-3.75 v -15.41 c 0,-8.68 3.92,-14.26 10.02,-14.26 4.95,0 7.39,3.75 7.39,11.58 v 18.36 c -0.09,1.22 -0.17,1.82 -0.61,2.26 -0.52,0.78 -2.27,1.13 -6,1.22 h -0.34 v 3.13 h 22 v -3.13 h -0.35 c -5.73,-0.19 -6.53,-0.61 -6.53,-3.83 v -19.75 c 0,-5.4 -0.51,-7.23 -2.78,-10.18 -2.52,-3.22 -6.09,-4.96 -10.27,-4.96 -5.65,0 -9.82,2.69 -13.56,8.69 -1.48,-5.22 -6.19,-8.69 -12.01,-8.69 -5.32,0 -9.14,2.52 -12.54,8 v -6.7 m 67.08,56.56 c 7.85,-5.4 11.41,-10.7 11.41,-16.8 0,-5.21 -2.88,-8.6 -7.14,-8.6 -3.22,0 -5.66,2.25 -5.66,5.21 0,3.13 2.36,5.13 6.02,5.13 0.42,0 1.03,0 1.29,-0.08 h 0.27 c 0.44,0 0.61,0.25 0.61,0.78 0,3.66 -2.97,7.74 -8.8,11.83 l 2,2.53"
     id="path12054" />
  <path
     class="Lyrics"
     d="m 831.079,1291.59 -15.046,0.95 v 3.75 h 3.125 c 3.312,0.08 3.75,0.61 3.75,4.35 v 42.54 c -0.094,1.22 -0.172,1.75 -0.532,2.17 -0.609,0.8 -2.25,1.15 -6,1.22 h -0.343 v 3.14 h 22.625 v -3.14 h -0.969 c -5.828,-0.17 -6.61,-0.61 -6.61,-3.73 v -16.45 c 2.875,5.04 6.094,7.06 11.485,7.06 11.578,0 17.578,-11.41 17.578,-21.77 0,-9.83 -6,-21.39 -17.047,-21.39 -5.406,0 -8.969,2.25 -12.016,7.47 v -6.17 m 10.438,3.39 c 6.016,0 9.484,6.02 9.484,16.19 0,11.22 -3.468,17.58 -9.734,17.58 -6.266,0 -10.266,-6.44 -10.266,-16.46 0,-10.87 3.907,-17.31 10.516,-17.31 m 44,-4.69 c -10.703,0 -18.969,9.49 -18.969,21.66 0,11.92 8.36,21.5 18.797,21.5 10.438,0 18.797,-9.58 18.797,-21.58 0,-11.92 -8.359,-21.58 -18.625,-21.58 m 0,3.74 c 6.094,0 9.484,6.36 9.484,17.84 0,11.56 -3.39,17.83 -9.656,17.83 -6.266,0 -9.656,-6.27 -9.656,-17.75 0,-11.83 3.312,-17.92 9.828,-17.92"
     id="path12056" />
  <path
     class="Lyrics"
     d="m 1387.99,788.912 -16.09,0.953 v 3.75 h 4.27 c 3.22,0.078 3.65,0.61 3.65,4.344 v 48.469 c -0.09,1.297 -0.18,1.828 -0.53,2.265 -0.61,0.782 -2.26,1.125 -6,1.219 h -0.61 v 3.125 h 22.53 v -3.125 h -0.61 c -5.82,-0.187 -6.61,-0.609 -6.61,-3.75 v -57.25 m 16.4,17.578 h 3.56 l 13.83,-8.437 c 1.31,-0.875 2.17,-2.172 2.17,-3.391 0,-1.75 -1.3,-3.047 -3.03,-3.047 -1.39,0 -2.1,0.438 -4.36,2.688 l -12.17,12.187 m 10.78,6 -16.36,0.953 v 3.75 h 4.43 c 3.32,0.079 3.75,0.61 3.75,4.344 v 24.891 c -0.09,1.219 -0.17,1.828 -0.53,2.265 -0.61,0.782 -2.26,1.125 -6,1.219 h -0.61 v 3.125 h 22.54 v -3.125 h -0.61 c -5.83,-0.187 -6.61,-0.609 -6.61,-3.75 V 812.49 m 16.64,56.563 c 7.84,-5.406 11.4,-10.703 11.4,-16.797 0,-5.219 -2.87,-8.609 -7.14,-8.609 -3.22,0 -5.65,2.25 -5.65,5.218 0,3.125 2.36,5.125 6.01,5.125 0.42,0 1.03,0 1.3,-0.078 h 0.26 c 0.44,0 0.61,0.25 0.61,0.781 0,3.657 -2.96,7.735 -8.79,11.829 l 2,2.531"
     id="path12058" />
  <path
     class="Lyrics"
     d="m 2504.79,1290.64 h -3.05 l -2.53,3.12 c -3.13,-2.44 -6.27,-3.47 -10.61,-3.47 -7.66,0 -12.7,4.96 -12.7,12.61 0,8.17 5.31,10.27 12.26,11.92 l 4.61,1.05 c 6.88,1.66 9.31,3.39 9.31,6.88 0,4.07 -3.56,6.95 -8.61,6.95 -7.4,0 -12.62,-4.7 -14.7,-13.39 h -3.48 v 16.44 h 3.04 l 3.05,-3.57 c 3.56,2.86 7.48,4.27 11.92,4.27 8.52,0 14.17,-5.31 14.17,-13.41 0,-3.83 -1.22,-6.78 -3.65,-8.78 -2.08,-1.83 -3.83,-2.53 -9.13,-3.66 l -4.36,-0.96 c -4.78,-1.04 -4.78,-1.04 -6.34,-1.91 -1.92,-0.88 -3.05,-2.7 -3.05,-4.61 0,-3.56 3.31,-6 8.1,-6 7.12,0 10.61,5.05 12.7,11.13 h 3.05 v -14.61 m 30.73,30.96 -9.92,-22.96 c -0.27,-0.69 -0.44,-1.39 -0.44,-1.91 0,-1.48 1.13,-2 4.7,-2 h 1.22 v -3.14 h -20.53 v 3.14 h 0.69 c 3.31,0 4.53,0.86 5.75,3.73 l 14.95,34.99 h 3.05 l 12.36,-30.55 c 2.44,-5.92 4.53,-7.92 8.09,-8.17 h 0.35 v -3.14 h -17.41 v 3.14 h 1.22 c 3.05,0 4.7,1.03 4.7,3.03 0,1.05 -0.26,2.36 -0.78,3.66 l -8,20.18 m 40.3,-36.01 h 5.56 l 10.87,-14.44 h -3.12 l -10.53,8.78 -10.53,-8.78 h -3.05 l 10.8,14.44 m 21.48,26.97 c 0.1,-13.05 -7.3,-22.27 -17.92,-22.27 -11.14,0 -19.48,9.66 -19.48,22.71 0,12.26 7.92,20.45 19.65,20.45 8.36,0 14.19,-4.1 17.75,-12.36 l -3.05,-1.66 c -3.56,6.71 -7.21,9.32 -13.04,9.32 -4.44,0 -7.66,-1.83 -9.92,-5.75 -1.57,-2.61 -2.25,-5.66 -2.18,-10.44 h 28.19 m -28.09,-3.74 c 0,-6.09 2.78,-14.79 10.09,-14.79 5.22,0 8.69,4.61 8.69,11.65 0,2.44 -0.78,3.14 -3.56,3.14 h -15.22 m 48.51,-17.23 v -17.22 h -3.56 c -0.87,11.3 -4.7,17.05 -11.75,17.56 v 3.41 h 7.14 v 22.19 c 0,6.07 0.17,8.26 1.05,10.26 1.39,3.64 4.86,5.66 9.9,5.66 7.85,0 12.9,-5.92 12.9,-15.14 0,-0.53 0,-1.14 -0.1,-2 h -3.65 c -0.27,7.83 -2.52,11.83 -6.79,11.83 -2,0 -3.75,-1.05 -4.36,-2.54 -0.51,-1.21 -0.78,-3.39 -0.78,-6.51 v -23.75 h 12.8 v -3.75 h -12.8"
     id="path12060" />
  <path
     class="Lyrics"
     d="m 2282.67,1729.37 h -3.04 l -2.53,3.13 c -3.13,-2.44 -6.27,-3.47 -10.61,-3.47 -7.66,0 -12.71,4.95 -12.71,12.61 0,8.17 5.32,10.27 12.27,11.92 l 4.61,1.05 c 6.87,1.66 9.31,3.39 9.31,6.87 0,4.08 -3.56,6.96 -8.61,6.96 -7.41,0 -12.62,-4.71 -14.7,-13.39 h -3.49 v 16.43 h 3.05 l 3.05,-3.56 c 3.56,2.86 7.48,4.27 11.92,4.27 8.51,0 14.17,-5.32 14.17,-13.41 0,-3.83 -1.22,-6.78 -3.66,-8.78 -2.07,-1.83 -3.82,-2.53 -9.12,-3.66 l -4.36,-0.97 c -4.78,-1.03 -4.78,-1.03 -6.34,-1.9 -1.93,-0.88 -3.05,-2.7 -3.05,-4.61 0,-3.56 3.31,-6 8.09,-6 7.13,0 10.61,5.05 12.71,11.12 h 3.04 v -14.61 m 30.74,30.97 -9.92,-22.97 c -0.27,-0.68 -0.44,-1.39 -0.44,-1.9 0,-1.49 1.12,-2 4.7,-2 h 1.22 v -3.14 h -20.53 v 3.14 h 0.69 c 3.31,0 4.53,0.86 5.75,3.73 l 14.95,34.99 h 3.05 l 12.36,-30.55 c 2.43,-5.92 4.53,-7.92 8.09,-8.17 h 0.34 v -3.14 h -17.4 v 3.14 h 1.22 c 3.04,0 4.7,1.03 4.7,3.03 0,1.05 -0.27,2.36 -0.78,3.66 l -8,20.18 m 28.47,-36.01 h 3.56 l 13.83,-8.44 c 1.31,-0.87 2.17,-2.17 2.17,-3.39 0,-1.75 -1.3,-3.05 -3.03,-3.05 -1.39,0 -2.1,0.44 -4.36,2.69 l -12.17,12.19 m 10.78,6 -16.36,0.95 v 3.75 h 4.44 c 3.31,0.08 3.75,0.61 3.75,4.34 v 24.9 c -0.1,1.21 -0.18,1.82 -0.54,2.26 -0.6,0.78 -2.26,1.13 -6,1.22 h -0.6 v 3.12 h 22.53 v -3.12 h -0.61 c -5.83,-0.19 -6.61,-0.61 -6.61,-3.75 v -33.67"
     id="path12062" />
  <path
     class="Lyrics"
     d="m 954.682,1311.07 v -43.06 l -16.094,0.95 v 3.75 h 4.172 c 3.312,0.08 3.75,0.61 3.75,4.35 v 48.54 c -0.094,1.22 -0.172,1.75 -0.531,2.19 -0.61,0.78 -2.266,1.13 -6,1.22 h -0.344 v 3.13 h 22.015 v -3.13 h -0.359 c -5.828,-0.19 -6.609,-0.61 -6.609,-3.75 v -8.78 l 5.312,-5.05 10.344,14.53 c 0.437,0.69 0.609,1.13 0.609,1.47 0,1.22 -0.953,1.58 -3.828,1.58 h -1.64 v 3.13 h 22.968 v -3.13 c -4.875,-0.44 -6.625,-1.48 -10.187,-6.01 l -12.36,-16.88 3.922,-3.83 c 5.141,-4.95 8.782,-6.87 14.703,-7.56 v -3.14 H 961.65 v 3.14 h 2.688 c 2.781,0 4.094,0.52 4.094,1.64 0,0.97 -0.61,2 -2,3.41 l -11.75,11.29 m 53.438,-43.06 -16.095,0.95 v 3.75 h 4.266 c 3.219,0.08 3.656,0.61 3.656,4.35 v 48.47 c -0.093,1.29 -0.187,1.82 -0.531,2.26 -0.609,0.78 -2.266,1.13 -6,1.22 h -0.609 v 3.13 h 22.533 v -3.13 h -0.61 c -5.83,-0.19 -6.61,-0.61 -6.61,-3.75 v -57.25 m 48.58,36.11 c 0,-5.48 -0.96,-8.27 -3.49,-10.36 -2.87,-2.34 -7.12,-3.47 -12.7,-3.47 -9.83,0 -16.97,4.61 -16.97,10.96 0,3.21 2,5.31 5.05,5.31 2.79,0 4.7,-1.83 4.7,-4.44 0,-1.12 -0.44,-2.34 -1.31,-3.56 -0.52,-0.61 -0.6,-0.8 -0.6,-1.22 0,-1.75 3.47,-3.31 7.66,-3.31 2.78,0 5.83,0.87 7.22,2.17 1.64,1.39 2.25,3.48 2.25,7.4 v 3.4 c -9.05,1.56 -11.91,2.26 -16.17,3.9 -7.58,2.8 -11.14,6.8 -11.14,12.36 0,6.27 4.87,10.19 12.61,10.19 6.01,0 11.4,-2.44 15.14,-6.88 1.39,4.44 3.58,6.18 7.65,6.18 3.93,0 8.02,-2.54 8.02,-5.05 0,-0.61 -0.36,-1.05 -0.88,-1.05 -0.34,0 -0.7,0.1 -1.31,0.35 -1.22,0.53 -1.73,0.6 -2.44,0.6 -2.42,0 -3.29,-1.56 -3.29,-6 v -17.48 m -8.19,10.61 c 0,5.22 -0.25,6.44 -1.73,8.7 -2.18,3.22 -6.1,5.39 -9.93,5.39 -4,0 -6.87,-2.86 -6.87,-6.78 0,-3.65 1.83,-6.26 5.65,-8.09 2.71,-1.22 6.1,-2.08 12.88,-3.22 v 4 m 49.92,18.02 15.14,-0.61 v -3.74 h -1.56 c -4.97,-0.26 -5.41,-0.8 -5.41,-6.36 v -54.03 l -17.04,0.95 v 3.75 h 5.14 c 3.29,0.08 3.73,0.61 3.73,4.35 v 19.67 c -3.22,-4.44 -6.95,-6.44 -12,-6.44 -9.84,0 -17.33,9.49 -17.33,22 0,12.36 7.24,21.16 17.33,21.16 5.47,0 9.22,-2.36 12,-7.58 v 6.88 m -10.26,-37.77 c 3.56,0 6.95,2.61 8.53,6.62 1.12,2.61 1.64,6.18 1.64,10.44 0,10.17 -4,16.71 -10.27,16.71 -6.17,0 -9.83,-5.75 -9.83,-15.41 0,-5.22 0.54,-9.13 1.66,-12 1.48,-3.92 4.7,-6.36 8.27,-6.36"
     id="path12064" />
  <path
     class="Lyrics"
     d="m 2668.78,1268.01 -16.1,0.95 v 3.75 h 4.27 c 3.22,0.08 3.66,0.61 3.66,4.35 v 48.47 c -0.1,1.29 -0.19,1.82 -0.53,2.26 -0.61,0.78 -2.27,1.13 -6,1.22 h -0.61 v 3.13 H 2676 v -3.13 h -0.61 c -5.83,-0.19 -6.61,-0.61 -6.61,-3.75 v -57.25 m 49.7,44.55 c 0.1,-13.05 -7.3,-22.27 -17.92,-22.27 -11.14,0 -19.48,9.66 -19.48,22.71 0,12.26 7.92,20.45 19.65,20.45 8.36,0 14.19,-4.1 17.75,-12.36 l -3.05,-1.66 c -3.56,6.71 -7.21,9.32 -13.04,9.32 -4.44,0 -7.66,-1.83 -9.92,-5.75 -1.57,-2.61 -2.25,-5.66 -2.18,-10.44 h 28.19 m -28.09,-3.74 c 0,-6.09 2.78,-14.79 10.09,-14.79 5.22,0 8.69,4.61 8.69,11.65 0,2.44 -0.78,3.14 -3.56,3.14 h -15.22 m 49.12,-17.23 -15.48,0.95 v 3.75 h 3.56 c 3.31,0.08 3.75,0.61 3.75,4.35 v 24.89 c -0.09,1.29 -0.17,1.82 -0.53,2.26 -0.61,0.78 -2.25,1.13 -6,1.22 h -0.34 v 3.13 h 21.92 v -3.13 h -0.35 c -5.75,-0.19 -6.53,-0.61 -6.53,-3.83 v -16.11 c 0,-7.73 4.27,-13.48 9.92,-13.48 4.96,0 7.49,3.58 7.49,10.62 v 19.39 c -0.09,1.15 -0.17,1.75 -0.61,2.19 -0.52,0.78 -2.27,1.13 -6,1.22 h -0.36 v 3.13 h 22.02 v -3.13 h -0.35 c -5.75,-0.19 -6.53,-0.61 -6.53,-3.75 v -15.41 c 0,-8.68 3.92,-14.26 10.02,-14.26 4.95,0 7.39,3.75 7.39,11.58 v 18.36 c -0.1,1.22 -0.17,1.82 -0.61,2.26 -0.52,0.78 -2.27,1.13 -6,1.22 h -0.35 v 3.13 h 22 v -3.13 h -0.34 c -5.73,-0.19 -6.53,-0.61 -6.53,-3.83 v -19.75 c 0,-5.4 -0.52,-7.23 -2.78,-10.18 -2.52,-3.22 -6.1,-4.96 -10.27,-4.96 -5.65,0 -9.83,2.69 -13.56,8.69 -1.48,-5.22 -6.19,-8.69 -12.02,-8.69 -5.31,0 -9.14,2.52 -12.53,8 v -6.7"
     id="path12066" />
  <path
     class="Lyrics"
     d="m 1272.84,811.537 h -3.04 l -2.53,3.125 c -3.13,-2.437 -6.27,-3.469 -10.61,-3.469 -7.66,0 -12.71,4.954 -12.71,12.61 0,8.172 5.32,10.265 12.27,11.922 l 4.61,1.047 c 6.87,1.656 9.31,3.39 9.31,6.875 0,4.078 -3.56,6.953 -8.61,6.953 -7.4,0 -12.62,-4.703 -14.7,-13.391 h -3.49 v 16.438 h 3.05 l 3.05,-3.563 c 3.56,2.859 7.48,4.266 11.92,4.266 8.52,0 14.17,-5.313 14.17,-13.407 0,-3.828 -1.22,-6.781 -3.65,-8.781 -2.08,-1.828 -3.83,-2.531 -9.13,-3.656 l -4.36,-0.969 c -4.78,-1.031 -4.78,-1.031 -6.34,-1.906 -1.92,-0.875 -3.05,-2.703 -3.05,-4.609 0,-3.563 3.31,-6 8.09,-6 7.13,0 10.61,5.046 12.71,11.125 h 3.04 v -14.61 m 27.99,-0.344 c -10.7,0 -18.97,9.485 -18.97,21.657 0,11.922 8.36,21.5 18.8,21.5 10.43,0 18.79,-9.578 18.79,-21.578 0,-11.922 -8.36,-21.579 -18.62,-21.579 m 0,3.735 c 6.09,0 9.48,6.359 9.48,17.844 0,11.562 -3.39,17.828 -9.65,17.828 -6.27,0 -9.66,-6.266 -9.66,-17.75 0,-11.828 3.31,-17.922 9.83,-17.922"
     id="path12068" />
  <path
     class="Lyrics"
     d="m 421.491,1268.01 -16.093,0.95 v 3.75 h 4.172 c 3.296,0.08 3.734,0.61 3.734,4.35 v 48.54 c -0.078,1.22 -0.172,1.75 -0.516,2.19 -0.609,0.78 -2.265,1.13 -6,1.22 h -0.359 v 3.13 h 22.016 v -3.13 h -0.344 c -5.828,-0.19 -6.61,-0.61 -6.61,-3.75 v -12.87 c 0,-4.27 0.61,-8.18 1.563,-10.19 1.906,-3.91 5.734,-6.61 9.484,-6.61 2.266,0 4.875,1.31 6.094,3.05 1.391,1.92 2,4.53 2,8.79 v 18.17 c -0.094,1.22 -0.172,1.75 -0.531,2.19 -0.61,0.78 -2.344,1.13 -6.078,1.22 h -0.36 v 3.13 h 22.016 v -3.13 h -0.344 c -5.75,-0.19 -6.531,-0.61 -6.531,-3.75 v -17.48 c 0,-6.27 -0.266,-7.83 -1.828,-10.8 -2.172,-4.25 -6.516,-6.69 -11.75,-6.69 -5.641,0 -9.828,2.52 -13.735,8.35 v -30.63 m 53.344,0 -16.094,0.95 v 3.75 h 4.266 c 3.219,0.08 3.656,0.61 3.656,4.35 v 48.47 c -0.093,1.29 -0.187,1.82 -0.531,2.26 -0.609,0.78 -2.266,1.13 -6,1.22 h -0.609 v 3.13 h 22.531 v -3.13 h -0.609 c -5.829,-0.19 -6.61,-0.61 -6.61,-3.75 v -57.25 m 49.703,44.55 c 0.094,-13.05 -7.297,-22.27 -17.922,-22.27 -11.14,0 -19.484,9.66 -19.484,22.71 0,12.26 7.922,20.45 19.656,20.45 8.36,0 14.188,-4.1 17.75,-12.36 l -3.047,-1.66 c -3.562,6.71 -7.218,9.32 -13.046,9.32 -4.438,0 -7.657,-1.83 -9.922,-5.75 -1.563,-2.61 -2.25,-5.66 -2.172,-10.44 h 28.187 m -28.093,-3.74 c 0,-6.09 2.781,-14.79 10.093,-14.79 5.219,0 8.688,4.61 8.688,11.65 0,2.44 -0.781,3.14 -3.563,3.14 h -15.218"
     id="path12070" />
  <path
     class="Lyrics"
     d="m 2526.92,1730.33 v -17.22 h -3.56 c -0.87,11.3 -4.7,17.05 -11.75,17.56 v 3.41 h 7.14 v 22.19 c 0,6.07 0.17,8.26 1.05,10.26 1.39,3.64 4.86,5.66 9.9,5.66 7.85,0 12.9,-5.92 12.9,-15.14 0,-0.53 0,-1.14 -0.1,-2 h -3.65 c -0.27,7.82 -2.52,11.82 -6.79,11.82 -2,0 -3.75,-1.04 -4.36,-2.53 -0.51,-1.22 -0.78,-3.39 -0.78,-6.51 v -23.75 h 12.8 v -3.75 h -12.8 m 24.27,-6 h 3.56 l 13.83,-8.44 c 1.31,-0.87 2.17,-2.17 2.17,-3.39 0,-1.75 -1.3,-3.05 -3.03,-3.05 -1.39,0 -2.09,0.44 -4.36,2.69 l -12.17,12.19 m 10.78,6 -16.36,0.95 v 3.75 h 4.44 c 3.31,0.08 3.75,0.61 3.75,4.34 v 24.9 c -0.1,1.21 -0.17,1.82 -0.53,2.26 -0.61,0.78 -2.27,1.13 -6,1.22 h -0.61 v 3.12 h 22.53 v -3.12 h -0.61 c -5.83,-0.19 -6.61,-0.61 -6.61,-3.75 v -33.67 m 21,30.89 c -3.05,0 -5.48,2.44 -5.48,5.39 0,3.05 2.43,5.48 5.39,5.48 3.04,0 5.48,-2.43 5.48,-5.48 0,-2.95 -2.44,-5.39 -5.39,-5.39"
     id="path12072" />
  <path
     class="Lyrics"
     d="m 1103.19,811.537 h -3.04 l -2.54,3.125 c -3.12,-2.437 -6.26,-3.469 -10.6,-3.469 -7.66,0 -12.71,4.954 -12.71,12.61 0,8.172 5.31,10.265 12.27,11.922 l 4.61,1.047 c 6.87,1.656 9.31,3.39 9.31,6.875 0,4.078 -3.56,6.953 -8.61,6.953 -7.41,0 -12.62,-4.703 -14.7,-13.391 h -3.49 v 16.438 h 3.05 l 3.05,-3.563 c 3.56,2.859 7.48,4.266 11.92,4.266 8.51,0 14.17,-5.313 14.17,-13.407 0,-3.828 -1.22,-6.781 -3.66,-8.781 -2.07,-1.828 -3.82,-2.531 -9.12,-3.656 l -4.36,-0.969 c -4.78,-1.031 -4.78,-1.031 -6.34,-1.906 -1.93,-0.875 -3.05,-2.703 -3.05,-4.609 0,-3.563 3.31,-6 8.09,-6 7.13,0 10.61,5.046 12.71,11.125 h 3.04 v -14.61 m 46.52,21.922 c 0.09,-13.047 -7.3,-22.266 -17.92,-22.266 -11.14,0 -19.49,9.657 -19.49,22.704 0,12.265 7.92,20.453 19.66,20.453 8.36,0 14.19,-4.094 17.75,-12.36 l -3.05,-1.656 c -3.56,6.703 -7.22,9.313 -13.05,9.313 -4.43,0 -7.65,-1.829 -9.92,-5.75 -1.56,-2.61 -2.25,-5.657 -2.17,-10.438 h 28.19 m -28.1,-3.734 c 0,-6.094 2.79,-14.797 10.1,-14.797 5.22,0 8.69,4.609 8.69,11.656 0,2.438 -0.79,3.141 -3.57,3.141 h -15.22"
     id="path12074" />
  <path
     class="Lyrics"
     d="m 433.523,1729.37 h -3.047 l -2.531,3.13 c -3.125,-2.44 -6.266,-3.47 -10.61,-3.47 -7.656,0 -12.703,4.95 -12.703,12.61 0,8.17 5.313,10.27 12.266,11.92 l 4.609,1.05 c 6.875,1.66 9.313,3.39 9.313,6.87 0,4.08 -3.563,6.96 -8.61,6.96 -7.406,0 -12.625,-4.71 -14.703,-13.39 h -3.484 v 16.43 h 3.047 l 3.046,-3.56 c 3.563,2.86 7.485,4.27 11.922,4.27 8.516,0 14.172,-5.32 14.172,-13.41 0,-3.83 -1.219,-6.78 -3.656,-8.78 -2.078,-1.83 -3.828,-2.53 -9.125,-3.66 l -4.359,-0.97 c -4.782,-1.03 -4.782,-1.03 -6.344,-1.9 -1.922,-0.88 -3.047,-2.7 -3.047,-4.61 0,-3.56 3.312,-6 8.094,-6 7.125,0 10.609,5.05 12.703,11.12 h 3.047 v -14.61 m 30.734,30.97 -9.922,-22.97 c -0.265,-0.68 -0.437,-1.39 -0.437,-1.9 0,-1.49 1.125,-2 4.703,-2 h 1.219 v -3.14 h -20.532 v 3.14 h 0.688 c 3.312,0 4.531,0.86 5.75,3.73 l 14.953,34.99 h 3.047 l 12.359,-30.55 c 2.438,-5.92 4.531,-7.92 8.094,-8.17 h 0.344 v -3.14 h -17.407 v 3.14 h 1.219 c 3.047,0 4.703,1.03 4.703,3.03 0,1.05 -0.265,2.36 -0.781,3.66 l -8,20.18 m 40.297,-36.01 h 5.562 l 10.875,-14.44 h -3.125 l -10.531,8.78 -10.531,-8.78 h -3.047 l 10.797,14.44 m 21.484,26.97 c 0.094,-13.05 -7.297,-22.27 -17.922,-22.27 -11.14,0 -19.484,9.66 -19.484,22.7 0,12.27 7.922,20.46 19.656,20.46 8.36,0 14.188,-4.1 17.75,-12.36 l -3.047,-1.66 c -3.562,6.7 -7.218,9.31 -13.046,9.31 -4.438,0 -7.657,-1.82 -9.922,-5.75 -1.563,-2.61 -2.25,-5.65 -2.172,-10.43 h 28.187 m -28.093,-3.74 c 0,-6.09 2.781,-14.79 10.093,-14.79 5.219,0 8.688,4.6 8.688,11.65 0,2.44 -0.781,3.14 -3.563,3.14 h -15.218"
     id="path12076" />
  <path
     class="Lyrics"
     d="m 2071.49,812.49 h -31.4 l -0.79,14.703 h 3.49 c 0.69,-7.734 4.08,-11.046 11.05,-10.953 h 7.56 l -23.75,33.672 v 3.125 h 33.84 l 0.61,-15.578 h -3.47 c -0.87,8.531 -4.26,11.922 -12.01,11.844 h -8.88 l 23.75,-33.672 v -3.141 m 44.22,20.969 c 0.09,-13.047 -7.3,-22.266 -17.92,-22.266 -11.14,0 -19.49,9.657 -19.49,22.704 0,12.265 7.93,20.453 19.66,20.453 8.36,0 14.19,-4.094 17.75,-12.36 l -3.05,-1.656 c -3.56,6.703 -7.21,9.313 -13.04,9.313 -4.44,0 -7.66,-1.829 -9.92,-5.75 -1.57,-2.61 -2.25,-5.657 -2.18,-10.438 h 28.19 m -28.09,-3.734 c 0,-6.094 2.78,-14.797 10.09,-14.797 5.22,0 8.69,4.609 8.69,11.656 0,2.438 -0.78,3.141 -3.56,3.141 h -15.22"
     id="path12078" />
  <path
     class="Lyrics"
     d="m 2727.7,825.022 c 0,-5.485 -0.96,-8.266 -3.49,-10.36 -2.87,-2.344 -7.12,-3.469 -12.7,-3.469 -9.83,0 -16.97,4.61 -16.97,10.954 0,3.218 2,5.312 5.05,5.312 2.79,0 4.7,-1.828 4.7,-4.437 0,-1.125 -0.44,-2.344 -1.31,-3.563 -0.52,-0.609 -0.6,-0.797 -0.6,-1.219 0,-1.75 3.47,-3.312 7.66,-3.312 2.78,0 5.83,0.875 7.22,2.172 1.64,1.39 2.25,3.484 2.25,7.406 v 3.391 c -9.05,1.562 -11.91,2.265 -16.17,3.906 -7.58,2.797 -11.14,6.797 -11.14,12.359 0,6.266 4.87,10.188 12.6,10.188 6.02,0 11.41,-2.438 15.15,-6.875 1.39,4.437 3.57,6.172 7.65,6.172 3.92,0 8.02,-2.532 8.02,-5.047 0,-0.61 -0.36,-1.047 -0.88,-1.047 -0.34,0 -0.7,0.094 -1.31,0.344 -1.22,0.531 -1.73,0.609 -2.44,0.609 -2.42,0 -3.29,-1.563 -3.29,-6 v -17.484 m -8.19,10.609 c 0,5.219 -0.25,6.437 -1.74,8.703 -2.17,3.219 -6.09,5.391 -9.92,5.391 -4,0 -6.87,-2.86 -6.87,-6.782 0,-3.656 1.82,-6.265 5.65,-8.093 2.71,-1.219 6.1,-2.078 12.88,-3.219 v 4"
     id="path12080" />
  <path
     class="Lyrics"
     d="m 1660.39,1269.32 v 4.08 h 1.56 c 4.97,0.1 6.61,0.36 7.31,1.22 0.52,0.78 0.52,0.97 0.52,5.41 v 41.4 c 0,4.44 0,4.61 -0.52,5.39 -0.7,0.88 -2.34,1.22 -7.31,1.22 h -1.56 v 4.1 h 31.58 c 15.06,0 24.11,-6.35 24.11,-17.05 0,-8.7 -5.49,-13.67 -17.41,-15.75 4.17,-0.88 6.09,-1.66 8.36,-3.31 3.56,-2.69 5.73,-6.96 5.73,-11.32 0,-5.65 -3.48,-11.14 -8.51,-13.31 -3.14,-1.39 -7.49,-2.08 -12.63,-2.08 h -31.23 m 19.14,28.27 v -19.83 c 0,-3.39 1.12,-4.26 5.75,-4.36 h 3.47 c 8.53,0 13.92,2.8 13.92,12.27 0,8.62 -4.17,11.92 -15.39,11.92 h -7.75 m 0,4.09 h 7.65 c 13.32,0 18.19,3.57 18.19,13.14 0,11.66 -7.31,13.22 -17.14,13.22 h -3.65 c -4.35,0 -5.22,-0.86 -5.05,-5.48 v -20.88 m 77.09,31.07 15.85,-0.61 v -3.74 h -2.19 c -5.05,-0.19 -5.47,-0.7 -5.47,-6.36 v -30.45 l -16.36,0.95 v 3.75 h 4.44 c 3.29,0.08 3.73,0.61 3.73,4.35 v 10.7 c 0,7.58 -1.83,16.8 -11.39,16.8 -2.7,0 -4.97,-0.96 -6.09,-2.71 -1.13,-1.65 -1.31,-2.51 -1.31,-7.31 v -26.53 l -15.22,0.95 v 3.75 h 3.31 c 3.3,0.08 3.73,0.61 3.73,4.35 v 18.79 c 0,4.44 0.35,6.44 1.66,8.44 2.34,3.56 6.52,5.58 11.75,5.58 5.73,0 9.73,-2.36 13.56,-7.92 v 7.22 m 63.88,-42.21 c 2.78,-2.08 4.61,-3.39 5.22,-3.9 3.04,-2.79 5.04,-7.22 5.04,-11.41 0,-4.44 -2.68,-7.48 -6.43,-7.48 -2.96,0 -5.13,2 -5.13,4.7 0,2.87 2.08,4.61 5.47,4.61 0.36,0 0.8,0 1.14,-0.08 h 0.27 c 0.34,0 0.51,0.25 0.51,0.69 0,3.75 -2.7,7.48 -7.92,10.7 l 1.83,2.17 m -13.75,42.21 15.14,-0.61 v -3.74 h -1.56 c -4.96,-0.26 -5.4,-0.8 -5.4,-6.36 v -54.03 l -17.06,0.95 v 3.75 h 5.14 c 3.32,0.08 3.74,0.61 3.74,4.35 v 19.67 c -3.22,-4.44 -6.96,-6.44 -12,-6.44 -9.83,0 -17.32,9.49 -17.32,22 0,12.36 7.22,21.16 17.32,21.16 5.48,0 9.22,-2.36 12,-7.58 v 6.88 m -10.27,-37.77 c 3.58,0 6.97,2.61 8.53,6.62 1.13,2.61 1.66,6.18 1.66,10.44 0,10.17 -4,16.71 -10.27,16.71 -6.18,0 -9.82,-5.75 -9.82,-15.41 0,-5.22 0.51,-9.13 1.64,-12 1.48,-3.92 4.7,-6.36 8.26,-6.36"
     id="path12082" />
  <path
     class="Lyrics"
     d="m 674.273,1730.33 v -17.22 h -3.563 c -0.875,11.3 -4.703,17.05 -11.75,17.56 v 3.41 h 7.141 v 22.19 c 0,6.07 0.172,8.26 1.047,10.26 1.391,3.64 4.859,5.66 9.906,5.66 7.844,0 12.891,-5.92 12.891,-15.14 0,-0.53 0,-1.14 -0.094,-2 h -3.656 c -0.266,7.82 -2.516,11.82 -6.781,11.82 -2,0 -3.75,-1.04 -4.36,-2.53 -0.515,-1.22 -0.781,-3.39 -0.781,-6.51 v -23.75 h 12.797 v -3.75 h -12.797 m 56.453,12.53 c 0,-5.49 -0.953,-8.27 -3.484,-10.36 -2.875,-2.34 -7.125,-3.47 -12.703,-3.47 -9.829,0 -16.969,4.61 -16.969,10.95 0,3.22 2,5.32 5.047,5.32 2.797,0 4.703,-1.83 4.703,-4.44 0,-1.13 -0.438,-2.34 -1.313,-3.56 -0.515,-0.61 -0.593,-0.8 -0.593,-1.22 0,-1.75 3.468,-3.31 7.656,-3.31 2.781,0 5.828,0.87 7.219,2.17 1.64,1.39 2.25,3.48 2.25,7.4 v 3.39 c -9.047,1.57 -11.907,2.27 -16.172,3.91 -7.578,2.8 -11.141,6.8 -11.141,12.36 0,6.27 4.875,10.19 12.609,10.19 6.016,0 11.407,-2.44 15.141,-6.88 1.391,4.44 3.578,6.17 7.656,6.17 3.922,0 8.016,-2.53 8.016,-5.04 0,-0.61 -0.359,-1.05 -0.875,-1.05 -0.344,0 -0.703,0.09 -1.313,0.34 -1.218,0.54 -1.734,0.61 -2.437,0.61 -2.422,0 -3.297,-1.56 -3.297,-6 v -17.48 m -8.187,10.61 c 0,5.22 -0.25,6.44 -1.735,8.7 -2.172,3.22 -6.094,5.39 -9.922,5.39 -4,0 -6.875,-2.86 -6.875,-6.78 0,-3.66 1.828,-6.26 5.657,-8.09 2.703,-1.22 6.093,-2.08 12.875,-3.22 v 4 m 24.421,33.42 c 7.844,-5.41 11.407,-10.7 11.407,-16.8 0,-5.22 -2.875,-8.61 -7.141,-8.61 -3.219,0 -5.656,2.25 -5.656,5.22 0,3.13 2.359,5.13 6.015,5.13 0.422,0 1.032,0 1.297,-0.08 h 0.266 c 0.437,0 0.609,0.25 0.609,0.78 0,3.66 -2.968,7.74 -8.797,11.83 l 2,2.53"
     id="path12084" />
  <path
     class="Lyrics"
     d="m 2207.5,812.49 -15.49,0.953 v 3.75 h 3.57 c 3.31,0.079 3.75,0.61 3.75,4.344 v 24.891 c -0.1,1.297 -0.17,1.828 -0.53,2.265 -0.61,0.782 -2.25,1.125 -6,1.219 h -0.35 v 3.125 h 21.92 v -3.125 h -0.34 c -5.75,-0.187 -6.53,-0.609 -6.53,-3.828 v -16.109 c 0,-7.735 4.26,-13.485 9.92,-13.485 4.95,0 7.49,3.578 7.49,10.625 v 19.391 c -0.1,1.141 -0.18,1.75 -0.61,2.187 -0.52,0.782 -2.27,1.125 -6,1.219 h -0.36 v 3.125 h 22.01 v -3.125 h -0.34 c -5.75,-0.187 -6.53,-0.609 -6.53,-3.75 v -15.406 c 0,-8.688 3.92,-14.266 10.01,-14.266 4.96,0 7.39,3.75 7.39,11.578 v 18.36 c -0.09,1.219 -0.17,1.828 -0.61,2.265 -0.51,0.782 -2.26,1.125 -6,1.219 h -0.34 v 3.125 h 22 v -3.125 h -0.34 c -5.74,-0.187 -6.53,-0.609 -6.53,-3.828 v -19.75 c 0,-5.406 -0.52,-7.234 -2.79,-10.187 -2.51,-3.219 -6.09,-4.954 -10.26,-4.954 -5.66,0 -9.83,2.688 -13.56,8.688 -1.49,-5.219 -6.19,-8.688 -12.02,-8.688 -5.31,0 -9.14,2.516 -12.53,8 v -6.703 m 78.48,-6 h 5.57 l 10.87,-14.437 h -3.12 l -10.54,8.781 -10.53,-8.781 h -3.04 l 10.79,14.437 m 21.49,26.969 c 0.09,-13.047 -7.3,-22.266 -17.92,-22.266 -11.14,0 -19.49,9.657 -19.49,22.704 0,12.265 7.92,20.453 19.66,20.453 8.36,0 14.19,-4.094 17.75,-12.36 l -3.05,-1.656 c -3.56,6.703 -7.22,9.313 -13.05,9.313 -4.43,0 -7.65,-1.829 -9.92,-5.75 -1.56,-2.61 -2.25,-5.657 -2.17,-10.438 h 28.19 m -28.1,-3.734 c 0,-6.094 2.79,-14.797 10.1,-14.797 5.22,0 8.69,4.609 8.69,11.656 0,2.438 -0.79,3.141 -3.57,3.141 h -15.22 m 39.21,39.328 c 7.84,-5.406 11.4,-10.703 11.4,-16.797 0,-5.219 -2.87,-8.609 -7.14,-8.609 -3.22,0 -5.65,2.25 -5.65,5.218 0,3.125 2.36,5.125 6.01,5.125 0.42,0 1.03,0 1.3,-0.078 h 0.26 c 0.44,0 0.61,0.25 0.61,0.781 0,3.657 -2.96,7.735 -8.79,11.829 l 2,2.531"
     id="path12086" />
  <path
     class="Lyrics"
     d="m 707.305,1291.59 v -17.22 h -3.562 c -0.875,11.3 -4.703,17.05 -11.75,17.56 v 3.41 h 7.14 v 22.19 c 0,6.07 0.172,8.26 1.047,10.26 1.391,3.64 4.86,5.66 9.906,5.66 7.844,0 12.891,-5.92 12.891,-15.14 0,-0.53 0,-1.14 -0.094,-2 h -3.656 c -0.266,7.83 -2.516,11.83 -6.781,11.83 -2,0 -3.75,-1.05 -4.36,-2.54 -0.515,-1.21 -0.781,-3.39 -0.781,-6.51 v -23.75 h 12.797 v -3.75 h -12.797 m 58.578,20.97 c 0.094,-13.05 -7.297,-22.27 -17.922,-22.27 -11.14,0 -19.484,9.66 -19.484,22.71 0,12.26 7.922,20.45 19.656,20.45 8.36,0 14.188,-4.1 17.75,-12.36 l -3.047,-1.66 c -3.562,6.71 -7.218,9.32 -13.046,9.32 -4.438,0 -7.657,-1.83 -9.922,-5.75 -1.563,-2.61 -2.25,-5.66 -2.172,-10.44 h 28.187 m -28.093,-3.74 c 0,-6.09 2.781,-14.79 10.093,-14.79 5.219,0 8.688,4.61 8.688,11.65 0,2.44 -0.781,3.14 -3.563,3.14 H 737.79"
     id="path12088" />
  <path
     class="Lyrics"
     d="m 1288.3,1749.81 v -43.06 l -16.09,0.95 v 3.75 h 4.17 c 3.32,0.08 3.75,0.61 3.75,4.35 v 48.54 c -0.09,1.22 -0.17,1.75 -0.53,2.19 -0.61,0.78 -2.26,1.13 -6,1.22 h -0.34 v 3.12 h 22.01 v -3.12 h -0.36 c -5.82,-0.19 -6.61,-0.61 -6.61,-3.75 v -8.78 l 5.32,-5.05 10.34,14.53 c 0.44,0.69 0.61,1.13 0.61,1.47 0,1.22 -0.95,1.58 -3.83,1.58 h -1.64 v 3.12 h 22.97 v -3.12 c -4.87,-0.44 -6.62,-1.48 -10.19,-6.02 l -12.36,-16.87 3.93,-3.83 c 5.14,-4.95 8.78,-6.87 14.7,-7.56 v -3.14 h -22.88 v 3.14 h 2.69 c 2.78,0 4.09,0.51 4.09,1.64 0,0.97 -0.6,2 -2,3.41 l -11.75,11.29 m 51.57,-19.48 v -17.22 h -3.57 c -0.87,11.3 -4.7,17.05 -11.75,17.56 v 3.41 h 7.15 v 22.19 c 0,6.07 0.17,8.26 1.04,10.26 1.39,3.64 4.86,5.66 9.91,5.66 7.84,0 12.89,-5.92 12.89,-15.14 0,-0.53 0,-1.14 -0.09,-2 h -3.66 c -0.27,7.82 -2.52,11.82 -6.78,11.82 -2,0 -3.75,-1.04 -4.36,-2.53 -0.52,-1.22 -0.78,-3.39 -0.78,-6.51 v -23.75 h 12.79 v -3.75 h -12.79 m 58.58,20.97 c 0.09,-13.05 -7.3,-22.27 -17.93,-22.27 -11.14,0 -19.48,9.66 -19.48,22.7 0,12.27 7.92,20.46 19.66,20.46 8.35,0 14.18,-4.1 17.75,-12.36 l -3.05,-1.66 c -3.56,6.7 -7.22,9.31 -13.05,9.31 -4.44,0 -7.65,-1.82 -9.92,-5.75 -1.56,-2.61 -2.25,-5.65 -2.17,-10.43 h 28.19 m -28.1,-3.74 c 0,-6.09 2.78,-14.79 10.1,-14.79 5.21,0 8.68,4.6 8.68,11.65 0,2.44 -0.78,3.14 -3.56,3.14 h -15.22"
     id="path12090" />
  <path
     class="Lyrics"
     d="m 1897.36,788.912 -16.1,0.953 v 3.75 h 4.27 c 3.22,0.078 3.65,0.61 3.65,4.344 v 48.469 c -0.09,1.297 -0.18,1.828 -0.53,2.265 -0.61,0.782 -2.26,1.125 -6,1.219 h -0.61 v 3.125 h 22.54 v -3.125 h -0.61 c -5.83,-0.187 -6.61,-0.609 -6.61,-3.75 v -57.25 m 16.39,17.578 h 3.56 l 13.83,-8.437 c 1.31,-0.875 2.17,-2.172 2.17,-3.391 0,-1.75 -1.3,-3.047 -3.03,-3.047 -1.39,0 -2.1,0.438 -4.36,2.688 l -12.17,12.187 m 10.78,6 -16.36,0.953 v 3.75 h 4.44 c 3.31,0.079 3.75,0.61 3.75,4.344 v 24.891 c -0.1,1.219 -0.18,1.828 -0.53,2.265 -0.61,0.782 -2.27,1.125 -6,1.219 h -0.61 v 3.125 h 22.53 v -3.125 h -0.61 c -5.83,-0.187 -6.61,-0.609 -6.61,-3.75 V 812.49"
     id="path12092" />
  <path
     class="Lyrics"
     d="m 1235.13,1321.6 -9.92,-22.96 c -0.27,-0.69 -0.44,-1.39 -0.44,-1.91 0,-1.48 1.12,-2 4.7,-2 h 1.22 v -3.14 h -20.53 v 3.14 h 0.69 c 3.31,0 4.53,0.86 5.75,3.73 l 14.95,34.99 h 3.05 l 12.36,-30.55 c 2.43,-5.92 4.53,-7.92 8.09,-8.17 h 0.34 v -3.14 h -17.4 v 3.14 h 1.22 c 3.04,0 4.7,1.03 4.7,3.03 0,1.05 -0.27,2.36 -0.78,3.66 l -8,20.18 m 28.47,-36.01 h 3.56 l 13.83,-8.44 c 1.31,-0.87 2.17,-2.17 2.17,-3.39 0,-1.75 -1.3,-3.05 -3.03,-3.05 -1.39,0 -2.1,0.44 -4.36,2.69 l -12.17,12.19 m 10.78,6 -16.36,0.95 v 3.75 h 4.44 c 3.31,0.08 3.75,0.61 3.75,4.35 v 24.89 c -0.1,1.22 -0.18,1.82 -0.54,2.26 -0.6,0.78 -2.26,1.13 -6,1.22 h -0.6 v 3.13 h 22.53 v -3.13 h -0.61 c -5.83,-0.19 -6.61,-0.61 -6.61,-3.75 v -33.67"
     id="path12094" />
  <path
     class="Lyrics"
     d="m 1468.27,1730.33 -15.41,0.95 v 3.75 h 3.56 c 3.32,0.08 3.75,0.61 3.75,4.34 v 24.9 c -0.09,1.29 -0.17,1.82 -0.53,2.26 -0.61,0.78 -2.34,1.13 -6.09,1.22 h -0.34 v 3.12 h 23.23 v -3.12 h -1.56 c -5.83,-0.19 -6.61,-0.61 -6.61,-3.75 v -4.7 c 0.08,-14.61 5.3,-25.75 12.09,-26.1 -1.22,1.39 -1.58,2.27 -1.58,3.91 0,2.8 2,4.8 4.8,4.8 3.22,0 5.3,-2.36 5.3,-5.83 0,-4.27 -2.96,-7.05 -7.56,-7.05 -5.49,0 -10.19,4.34 -13.05,12.09 v -10.79 m 36.78,-6 h 3.56 l 13.83,-8.44 c 1.39,-0.87 2.27,-2.17 2.27,-3.39 0,-1.75 -1.3,-3.05 -3.05,-3.05 -1.39,0 -2.27,0.52 -4.34,2.69 l -12.27,12.19 m 24.44,26.97 c 0.09,-13.05 -7.3,-22.27 -17.92,-22.27 -11.15,0 -19.49,9.66 -19.49,22.7 0,12.27 7.92,20.46 19.66,20.46 8.36,0 14.18,-4.1 17.75,-12.36 l -3.05,-1.66 c -3.56,6.7 -7.22,9.31 -13.05,9.31 -4.43,0 -7.65,-1.82 -9.92,-5.75 -1.56,-2.61 -2.25,-5.65 -2.17,-10.43 h 28.19 m -28.1,-3.74 c 0,-6.09 2.78,-14.79 10.1,-14.79 5.22,0 8.68,4.6 8.68,11.65 0,2.44 -0.78,3.14 -3.56,3.14 h -15.22"
     id="path12096" />
  <path
     class="Lyrics"
     d="m 1782.71,811.537 h -3.05 l -2.53,3.125 c -3.13,-2.437 -6.27,-3.469 -10.61,-3.469 -7.66,0 -12.7,4.954 -12.7,12.61 0,8.172 5.31,10.265 12.26,11.922 l 4.61,1.047 c 6.88,1.656 9.31,3.39 9.31,6.875 0,4.078 -3.56,6.953 -8.61,6.953 -7.4,0 -12.62,-4.703 -14.7,-13.391 h -3.48 v 16.438 h 3.04 l 3.05,-3.563 c 3.56,2.859 7.48,4.266 11.92,4.266 8.52,0 14.17,-5.313 14.17,-13.407 0,-3.828 -1.21,-6.781 -3.65,-8.781 -2.08,-1.828 -3.83,-2.531 -9.13,-3.656 l -4.36,-0.969 c -4.78,-1.031 -4.78,-1.031 -6.34,-1.906 -1.92,-0.875 -3.05,-2.703 -3.05,-4.609 0,-3.563 3.32,-6 8.1,-6 7.12,0 10.61,5.046 12.7,11.125 h 3.05 v -14.61 m 27.98,-0.344 c -10.7,0 -18.97,9.485 -18.97,21.657 0,11.922 8.36,21.5 18.8,21.5 10.44,0 18.8,-9.578 18.8,-21.578 0,-11.922 -8.36,-21.579 -18.63,-21.579 m 0,3.735 c 6.09,0 9.49,6.359 9.49,17.844 0,11.562 -3.4,17.828 -9.66,17.828 -6.27,0 -9.66,-6.266 -9.66,-17.75 0,-11.828 3.32,-17.922 9.83,-17.922"
     id="path12098" />
  <path
     class="Lyrics"
     d="m 1864.83,1291.59 v -17.22 h -3.56 c -0.87,11.3 -4.7,17.05 -11.75,17.56 v 3.41 h 7.14 v 22.19 c 0,6.07 0.17,8.26 1.05,10.26 1.39,3.64 4.86,5.66 9.9,5.66 7.85,0 12.9,-5.92 12.9,-15.14 0,-0.53 0,-1.14 -0.1,-2 h -3.65 c -0.27,7.83 -2.52,11.83 -6.79,11.83 -2,0 -3.75,-1.05 -4.36,-2.54 -0.51,-1.21 -0.78,-3.39 -0.78,-6.51 v -23.75 h 12.8 v -3.75 h -12.8 m 58.58,20.97 c 0.1,-13.05 -7.3,-22.27 -17.92,-22.27 -11.14,0 -19.48,9.66 -19.48,22.71 0,12.26 7.92,20.45 19.65,20.45 8.36,0 14.19,-4.1 17.75,-12.36 l -3.05,-1.66 c -3.56,6.71 -7.21,9.32 -13.04,9.32 -4.44,0 -7.66,-1.83 -9.92,-5.75 -1.57,-2.61 -2.25,-5.66 -2.18,-10.44 h 28.19 m -28.09,-3.74 c 0,-6.09 2.78,-14.79 10.09,-14.79 5.22,0 8.69,4.61 8.69,11.65 0,2.44 -0.78,3.14 -3.56,3.14 h -15.22"
     id="path12100" />
  <path
     class="Lyrics"
     d="m 1772.86,1771.48 15.14,-0.61 v -3.73 h -1.56 c -4.97,-0.27 -5.41,-0.8 -5.41,-6.36 v -54.03 l -17.04,0.95 v 3.75 h 5.14 c 3.29,0.08 3.73,0.61 3.73,4.35 v 19.67 c -3.22,-4.44 -6.95,-6.44 -12,-6.44 -9.84,0 -17.33,9.49 -17.33,22 0,12.36 7.24,21.16 17.33,21.16 5.47,0 9.22,-2.36 12,-7.58 v 6.87 m -10.27,-37.76 c 3.57,0 6.96,2.61 8.54,6.62 1.12,2.61 1.64,6.18 1.64,10.44 0,10.17 -4,16.7 -10.27,16.7 -6.17,0 -9.83,-5.75 -9.83,-15.4 0,-5.22 0.53,-9.13 1.66,-12 1.48,-3.92 4.7,-6.36 8.26,-6.36 m 49.13,-4.69 c -10.7,0 -18.97,9.49 -18.97,21.66 0,11.92 8.36,21.5 18.8,21.5 10.44,0 18.79,-9.58 18.79,-21.58 0,-11.92 -8.35,-21.58 -18.62,-21.58 m 0,3.74 c 6.09,0 9.48,6.35 9.48,17.84 0,11.56 -3.39,17.83 -9.65,17.83 -6.27,0 -9.66,-6.27 -9.66,-17.75 0,-11.83 3.31,-17.92 9.83,-17.92"
     id="path12102" />
  <path
     class="Lyrics"
     d="m 573.328,1332.75 15.14,-0.61 v -3.74 h -1.562 c -4.969,-0.26 -5.406,-0.8 -5.406,-6.36 v -54.03 l -17.047,0.95 v 3.75 h 5.14 c 3.297,0.08 3.735,0.61 3.735,4.35 v 19.67 c -3.219,-4.44 -6.953,-6.44 -12,-6.44 -9.844,0 -17.328,9.49 -17.328,22 0,12.36 7.234,21.16 17.328,21.16 5.468,0 9.218,-2.36 12,-7.58 v 6.88 m -10.266,-37.77 c 3.563,0 6.953,2.61 8.531,6.62 1.125,2.61 1.641,6.18 1.641,10.44 0,10.17 -4,16.71 -10.266,16.71 -6.172,0 -9.828,-5.75 -9.828,-15.41 0,-5.22 0.531,-9.13 1.656,-12 1.485,-3.92 4.704,-6.36 8.266,-6.36 m 67.656,17.58 c 0.094,-13.05 -7.297,-22.27 -17.922,-22.27 -11.14,0 -19.484,9.66 -19.484,22.71 0,12.26 7.922,20.45 19.656,20.45 8.36,0 14.188,-4.1 17.75,-12.36 l -3.047,-1.66 c -3.562,6.71 -7.218,9.32 -13.046,9.32 -4.438,0 -7.657,-1.83 -9.922,-5.75 -1.563,-2.61 -2.25,-5.66 -2.172,-10.44 h 28.187 m -28.093,-3.74 c 0,-6.09 2.781,-14.79 10.093,-14.79 5.219,0 8.688,4.61 8.688,11.65 0,2.44 -0.781,3.14 -3.563,3.14 h -15.218 m 44.562,-38.89 c -2.781,0 -5.047,2.25 -5.047,5.05 0,2.78 2.266,5.05 4.953,5.05 2.875,0 5.141,-2.27 5.141,-5.05 0,-2.8 -2.266,-5.05 -5.047,-5.05 m 4.094,21.66 -16.969,0.95 v 3.75 h 5.047 c 3.297,0.08 3.734,0.61 3.734,4.35 v 29.5 c 0,7.04 -0.437,10.36 -1.656,12.87 -0.859,1.74 -2.859,3.05 -4.781,3.05 -1.219,0 -2.172,-0.52 -2.172,-1.13 0,-0.36 0.094,-0.53 0.437,-1.4 0.438,-0.86 0.61,-1.47 0.61,-2.08 0,-2.17 -2.094,-4.1 -4.531,-4.1 -2.782,0 -4.875,2.18 -4.875,5.22 0,4.27 3.921,7.14 9.75,7.14 4.875,0 9.312,-2.09 11.828,-5.65 2.703,-3.83 3.578,-8.27 3.578,-18.1 v -34.37"
     id="path12104" />
  <path
     class="Lyrics"
     d="m 1959.49,1730.33 v -17.22 h -3.57 c -0.87,11.3 -4.7,17.05 -11.75,17.56 v 3.41 h 7.14 v 22.19 c 0,6.07 0.18,8.26 1.05,10.26 1.39,3.64 4.86,5.66 9.91,5.66 7.84,0 12.89,-5.92 12.89,-15.14 0,-0.53 0,-1.14 -0.1,-2 h -3.65 c -0.27,7.82 -2.52,11.82 -6.78,11.82 -2,0 -3.75,-1.04 -4.36,-2.53 -0.52,-1.22 -0.78,-3.39 -0.78,-6.51 v -23.75 h 12.79 v -3.75 h -12.79 m 34.6,0 -15.48,0.95 v 3.75 h 3.56 c 3.32,0.08 3.75,0.61 3.75,4.34 v 24.9 c -0.09,1.29 -0.17,1.82 -0.53,2.26 -0.61,0.78 -2.25,1.13 -6,1.22 h -0.34 v 3.12 h 21.92 v -3.12 h -0.34 c -5.75,-0.19 -6.54,-0.61 -6.54,-3.83 v -16.11 c 0,-7.73 4.27,-13.48 9.93,-13.48 4.95,0 7.48,3.58 7.48,10.62 v 19.39 c -0.09,1.14 -0.17,1.75 -0.61,2.19 -0.51,0.78 -2.26,1.13 -6,1.22 h -0.36 v 3.12 h 22.02 v -3.12 h -0.35 c -5.75,-0.19 -6.53,-0.61 -6.53,-3.75 v -15.41 c 0,-8.68 3.92,-14.26 10.02,-14.26 4.95,0 7.39,3.75 7.39,11.58 v 18.36 c -0.09,1.21 -0.17,1.82 -0.61,2.26 -0.52,0.78 -2.27,1.13 -6,1.22 h -0.34 v 3.12 h 22 v -3.12 h -0.35 c -5.73,-0.19 -6.53,-0.61 -6.53,-3.83 v -19.75 c 0,-5.4 -0.51,-7.23 -2.78,-10.19 -2.52,-3.21 -6.09,-4.95 -10.27,-4.95 -5.65,0 -9.82,2.69 -13.56,8.69 -1.48,-5.22 -6.19,-8.69 -12.01,-8.69 -5.32,0 -9.14,2.52 -12.54,8 v -6.7 m 81.63,29.5 -9.58,-22.36 c -0.34,-0.88 -0.51,-1.31 -0.51,-1.75 0,-1.64 1.03,-2.25 4,-2.25 h 1.82 v -3.14 h -20.71 v 3.14 h 0.96 c 2.96,0.08 4.08,0.95 5.91,4.69 l 14.19,32.11 -1.49,3.04 c -3.12,6.61 -7.22,11.22 -10,11.22 -0.78,0 -1.39,-0.34 -1.39,-0.86 0,-0.19 0.08,-0.44 0.17,-0.8 0.27,-0.78 0.44,-1.56 0.44,-2.25 0,-2.26 -1.83,-3.92 -4.44,-3.92 -3.04,0 -5.21,2.27 -5.21,5.39 0,3.93 3.29,6.71 7.9,6.71 4.63,0 8.53,-2.27 12.02,-6.96 2.69,-3.57 4.44,-7.23 8.26,-16.72 l 9.93,-24.6 c 2,-5.05 3.9,-6.97 7.29,-7.05 h 0.53 v -3.14 h -17.4 v 3.14 h 1.39 c 3.31,0 4.7,0.95 4.7,3.22 0,0.95 -0.26,2 -0.87,3.47 l -7.91,19.67"
     id="path12106" />
  <path
     class="Tuplet"
     d="m 624.929,998.915 c 3.062,-0.984 4.297,-1.5 5.859,-2.547 3.047,-2.015 4.938,-5.578 4.938,-9.218 0,-6.188 -4.938,-10.344 -12.219,-10.344 -7.094,0 -13.063,4.422 -13.063,9.75 0,2.672 1.625,4.484 4.094,4.484 2.141,0 3.703,-1.562 3.703,-3.703 0,-1.109 -0.328,-1.875 -1.359,-2.922 -0.656,-0.578 -0.922,-1.047 -0.922,-1.5 0,-1.562 3.25,-3.187 6.313,-3.187 4.359,0 6.953,2.406 6.953,6.437 0,5.797 -4.094,11.25 -8.453,11.25 -0.188,0 -0.782,-0.062 -1.485,-0.125 -1.89,-0.14 -1.89,-0.14 -2.281,-0.14 -1.438,0 -2.219,0.656 -2.219,1.828 0,1.032 0.719,1.692 1.891,1.692 0.328,0 0.781,-0.07 1.297,-0.13 0.922,-0.2 1.89,-0.27 2.468,-0.27 3.063,0 5.141,2.74 5.141,6.77 0,7.02 -3.437,13.78 -11.312,13.78 -3.641,0 -6.75,-1.83 -6.75,-3.9 0,-0.72 0.25,-0.97 1.296,-1.43 1.875,-0.86 2.657,-2.01 2.657,-3.78 0,-2.26 -1.813,-4.03 -4.157,-4.03 -2.796,0 -4.609,2.22 -4.609,5.59 0,6.32 4.813,10.27 12.609,10.27 9.813,0 17.282,-6.56 17.282,-15.27 0,-5.07 -3.11,-7.93 -7.672,-9.355"
     id="path12108" />
  <polyline
     class="Tuplet"
     fill="none"
     stroke="#000000"
     stroke-width="3.64"
     stroke-linejoin="miter"
     stroke-miterlimit="2"
     points="468.733,1027.34 468.733,1000.07 589.109,1000.07"
     id="polyline12110" />
  <polyline
     class="Tuplet"
     fill="none"
     stroke="#000000"
     stroke-width="3.64"
     stroke-linejoin="miter"
     stroke-miterlimit="2"
     points="648.561,1000.07 768.938,1000.07 768.938,1027.34"
     id="polyline12112" />
  <polyline
     class="LyricsLineSegment"
     fill="none"
     stroke="#000000"
     stroke-width="3.64"
     stroke-linejoin="bevel"
     points="942.056,828.711 956.6,828.711"
     id="polyline12114" />
  <polyline
     class="LyricsLineSegment"
     fill="none"
     stroke="#000000"
     stroke-width="3.64"
     stroke-linejoin="bevel"
     points="1840.64,828.711 1869.73,828.711"
     id="polyline12116" />
  <polyline
     class="LyricsLineSegment"
     fill="none"
     stroke="#000000"
     stroke-width="3.64"
     stroke-linejoin="bevel"
     points="2132.44,1307.81 2146.98,1307.81"
     id="polyline12118" />
  <polyline
     class="LyricsLineSegment"
     fill="none"
     stroke="#000000"
     stroke-width="3.64"
     stroke-linejoin="bevel"
     points="526.903,1307.81 541.447,1307.81"
     id="polyline12120" />
  <polyline
     class="LyricsLineSegment"
     fill="none"
     stroke="#000000"
     stroke-width="3.64"
     stroke-linejoin="bevel"
     points="1832.6,1307.81 1847.14,1307.81"
     id="polyline12122" />
  <polyline
     class="LyricsLineSegment"
     fill="none"
     stroke="#000000"
     stroke-width="3.64"
     stroke-linejoin="bevel"
     points="2635.67,1307.81 2650.21,1307.81"
     id="polyline12124" />
  <polyline
     class="LyricsLineSegment"
     fill="none"
     stroke="#000000"
     stroke-width="3.64"
     stroke-linejoin="bevel"
     points="1312.05,1307.81 1341.14,1307.81"
     id="polyline12126" />
  <polyline
     class="LyricsLineSegment"
     fill="none"
     stroke="#000000"
     stroke-width="3.64"
     stroke-linejoin="bevel"
     points="1331.03,828.711 1360.12,828.711"
     id="polyline12128" />
  <polyline
     class="LyricsLineSegment"
     fill="none"
     stroke="#000000"
     stroke-width="3.64"
     stroke-linejoin="bevel"
     points="906.938,1307.81 936.026,1307.81"
     id="polyline12130" />
  <polyline
     class="LyricsLineSegment"
     fill="none"
     stroke="#000000"
     stroke-width="3.64"
     stroke-linejoin="bevel"
     points="657.304,1307.81 686.392,1307.81"
     id="polyline12132" />
  <polyline
     class="LyricsLineSegment"
     fill="none"
     stroke="#000000"
     stroke-width="3.64"
     stroke-linejoin="bevel"
     points="2139.59,828.711 2168.68,828.711"
     id="polyline12134" />
  <polyline
     class="LyricsLineSegment"
     fill="none"
     stroke="#000000"
     stroke-width="3.64"
     stroke-linejoin="bevel"
     points="577.948,1746.55 607.036,1746.55"
     id="polyline12136" />
  <polyline
     class="LyricsLineSegment"
     fill="none"
     stroke="#000000"
     stroke-width="3.64"
     stroke-linejoin="bevel"
     points="1410.97,1746.55 1440.06,1746.55"
     id="polyline12138" />
  <polyline
     class="LyricsLineSegment"
     fill="none"
     stroke="#000000"
     stroke-width="3.64"
     stroke-linejoin="bevel"
     points="2421.85,1746.55 2450.94,1746.55"
     id="polyline12140" />
  <path
     class="NoteDot"
     d="m 1439.05,681.503 c 0,4.06778 3.2042,7.272 7.272,7.272 4.0678,0 7.272,-3.20422 7.272,-7.272 0,-4.06778 -3.2042,-7.272 -7.272,-7.272 -4.0678,0 -7.272,3.20422 -7.272,7.272"
     id="path12142"
     style="stroke-width:1.4544" />
  <path
     class="NoteDot"
     d="m 1532.84,1595.34 c 0,4.0678 3.2042,7.272 7.272,7.272 4.0678,0 7.272,-3.2042 7.272,-7.272 0,-4.0678 -3.2042,-7.272 -7.272,-7.272 -4.0678,0 -7.272,3.2042 -7.272,7.272"
     id="path12144"
     style="stroke-width:1.4544" />
</svg>
