<?xml version="1.0" encoding="UTF-8" standalone="no"?>
<svg
   width="210.058mm"
   height="96.327492mm"
   viewBox="0 0 2977.2 1365.2716"
   version="1.2"
   id="svg14123"
   sodipodi:docname="Toto je den.svg"
   inkscape:version="1.2.2 (b0a8486541, 2022-12-01)"
   xmlns:inkscape="http://www.inkscape.org/namespaces/inkscape"
   xmlns:sodipodi="http://sodipodi.sourceforge.net/DTD/sodipodi-0.dtd"
   xmlns="http://www.w3.org/2000/svg"
   xmlns:svg="http://www.w3.org/2000/svg">
  <defs
     id="defs14127" />
  <sodipodi:namedview
     id="namedview14125"
     pagecolor="#ffffff"
     bordercolor="#000000"
     borderopacity="0.25"
     inkscape:showpageshadow="2"
     inkscape:pageopacity="0.0"
     inkscape:pagecheckerboard="0"
     inkscape:deskcolor="#d1d1d1"
     inkscape:document-units="mm"
     showgrid="false"
     inkscape:zoom="0.59480041"
     inkscape:cx="395.09051"
     inkscape:cy="622.89802"
     inkscape:window-width="1920"
     inkscape:window-height="1178"
     inkscape:window-x="0"
     inkscape:window-y="22"
     inkscape:window-maximized="1"
     inkscape:current-layer="svg14123" />
  <title
     id="title13903">Toto je den</title>
  <desc
     id="desc13905">Generated by MuseScore Studio 4.6.3</desc>
  <polyline
     class="StaffLines"
     fill="none"
     stroke="#000000"
     stroke-width="4"
     stroke-linejoin="bevel"
     points="340.2,448.655 2818.8,448.655"
     id="polyline13907" />
  <polyline
     class="StaffLines"
     fill="none"
     stroke="#000000"
     stroke-width="4"
     stroke-linejoin="bevel"
     points="340.2,485.015 2818.8,485.015"
     id="polyline13909" />
  <polyline
     class="StaffLines"
     fill="none"
     stroke="#000000"
     stroke-width="4"
     stroke-linejoin="bevel"
     points="340.2,521.375 2818.8,521.375"
     id="polyline13911" />
  <polyline
     class="StaffLines"
     fill="none"
     stroke="#000000"
     stroke-width="4"
     stroke-linejoin="bevel"
     points="340.2,557.735 2818.8,557.735"
     id="polyline13913" />
  <polyline
     class="StaffLines"
     fill="none"
     stroke="#000000"
     stroke-width="4"
     stroke-linejoin="bevel"
     points="340.2,594.095 2818.8,594.095"
     id="polyline13915" />
  <polyline
     class="StaffLines"
     fill="none"
     stroke="#000000"
     stroke-width="4"
     stroke-linejoin="bevel"
     points="158.4,910.44 2818.8,910.44"
     id="polyline13917" />
  <polyline
     class="StaffLines"
     fill="none"
     stroke="#000000"
     stroke-width="4"
     stroke-linejoin="bevel"
     points="158.4,946.8 2818.8,946.8"
     id="polyline13919" />
  <polyline
     class="StaffLines"
     fill="none"
     stroke="#000000"
     stroke-width="4"
     stroke-linejoin="bevel"
     points="158.4,983.16 2818.8,983.16"
     id="polyline13921" />
  <polyline
     class="StaffLines"
     fill="none"
     stroke="#000000"
     stroke-width="4"
     stroke-linejoin="bevel"
     points="158.4,1019.52 2818.8,1019.52"
     id="polyline13923" />
  <polyline
     class="StaffLines"
     fill="none"
     stroke="#000000"
     stroke-width="4"
     stroke-linejoin="bevel"
     points="158.4,1055.88 2818.8,1055.88"
     id="polyline13925" />
  <path
     class="Text"
     d="m 1279.21,160.978 h -65.89 l -1.64,30.578 h 4.72 c 1.55,-11.109 4.52,-25.406 18.59,-25.406 3.64,0 5.18,1.203 5.18,3.953 v 56.766 c 0,5.609 0,5.828 -0.66,6.828 -0.88,1.094 -2.97,1.531 -9.23,1.531 h -2.88 v 5.172 h 37.73 v -5.172 h -2.85 c -6.16,0 -8.25,-0.437 -9.13,-1.531 -0.66,-1 -0.66,-1.219 -0.66,-6.828 v -56.766 c 0,-2.75 1.54,-3.953 5.16,-3.953 14.09,0 16.95,14.406 18.48,25.406 h 4.74 l -1.66,-30.578 m 28.1,26.516 c -13.53,0 -23.99,11.984 -23.99,27.39 0,15.063 10.56,27.172 23.77,27.172 13.2,0 23.76,-12.109 23.76,-27.281 0,-15.078 -10.56,-27.281 -23.54,-27.281 m 0,4.718 c 7.7,0 11.98,8.032 11.98,22.563 0,14.625 -4.28,22.547 -12.2,22.547 -7.92,0 -12.21,-7.922 -12.21,-22.438 0,-14.968 4.18,-22.672 12.43,-22.672 m 46.62,-3.078 v -21.781 h -4.51 c -1.1,14.313 -5.94,21.563 -14.85,22.234 v 4.282 h 9.02 v 28.047 c 0,7.703 0.22,10.453 1.31,12.984 1.77,4.625 6.17,7.156 12.55,7.156 9.9,0 16.28,-7.484 16.28,-19.14 0,-0.672 0,-1.438 -0.11,-2.532 h -4.63 c -0.32,9.891 -3.18,14.953 -8.57,14.953 -2.54,0 -4.74,-1.312 -5.5,-3.187 -0.66,-1.547 -0.99,-4.297 -0.99,-8.25 v -30.031 h 16.17 v -4.735 h -16.17 m 50.38,-1.64 c -13.53,0 -23.99,11.984 -23.99,27.39 0,15.063 10.56,27.172 23.77,27.172 13.2,0 23.76,-12.109 23.76,-27.281 0,-15.078 -10.56,-27.281 -23.54,-27.281 m 0,4.718 c 7.7,0 11.98,8.032 11.98,22.563 0,14.625 -4.28,22.547 -12.2,22.547 -7.92,0 -12.21,-7.922 -12.21,-22.438 0,-14.968 4.18,-22.672 12.43,-22.672 m 75.87,-30.468 c -3.51,0 -6.37,2.859 -6.37,6.39 0,3.516 2.86,6.375 6.26,6.375 3.64,0 6.5,-2.859 6.5,-6.375 0,-3.531 -2.86,-6.39 -6.39,-6.39 m 5.17,27.39 -21.45,1.219 v 4.734 h 6.39 c 4.17,0.11 4.74,0.766 4.74,5.5 v 37.282 c 0,8.906 -0.57,13.093 -2.1,16.281 -1.11,2.203 -3.64,3.844 -6.05,3.844 -1.54,0 -2.75,-0.657 -2.75,-1.422 0,-0.438 0.11,-0.656 0.55,-1.766 0.55,-1.094 0.77,-1.859 0.77,-2.64 0,-2.75 -2.64,-5.172 -5.72,-5.172 -3.52,0 -6.16,2.75 -6.16,6.609 0,5.391 4.96,9.016 12.31,9.016 6.16,0 11.77,-2.641 14.97,-7.157 3.41,-4.828 4.5,-10.437 4.5,-22.875 v -43.453 m 61.39,26.516 c 0.11,-16.5 -9.25,-28.156 -22.67,-28.156 -14.08,0 -24.64,12.203 -24.64,28.703 0,15.515 10.02,25.859 24.86,25.859 10.56,0 17.94,-5.172 22.45,-15.625 l -3.86,-2.094 c -4.5,8.469 -9.12,11.766 -16.5,11.766 -5.6,0 -9.67,-2.297 -12.53,-7.25 -1.98,-3.297 -2.86,-7.156 -2.75,-13.203 h 35.64 m -35.53,-4.734 c 0,-7.704 3.52,-18.704 12.75,-18.704 6.61,0 11,5.844 11,14.75 0,3.079 -0.98,3.954 -4.5,3.954 h -19.25 m 112.17,30.25 19.15,-0.766 v -4.734 h -1.99 c -6.26,-0.329 -6.81,-0.985 -6.81,-8.032 v -68.312 l -21.56,1.219 v 4.734 h 6.48 c 4.19,0.109 4.73,0.766 4.73,5.5 v 24.859 c -4.06,-5.609 -8.79,-8.14 -15.17,-8.14 -12.43,0 -21.89,11.984 -21.89,27.828 0,15.625 9.13,26.734 21.89,26.734 6.92,0 11.66,-2.969 15.17,-9.578 v 8.688 m -12.98,-47.735 c 4.52,0 8.81,3.297 10.78,8.36 1.44,3.296 2.1,7.812 2.1,13.203 0,12.859 -5.07,21.109 -12.99,21.109 -7.8,0 -12.42,-7.25 -12.42,-19.469 0,-6.593 0.66,-11.547 2.09,-15.172 1.86,-4.953 5.94,-8.031 10.44,-8.031 m 85.34,22.219 c 0.11,-16.5 -9.25,-28.156 -22.67,-28.156 -14.08,0 -24.64,12.203 -24.64,28.703 0,15.515 10.02,25.859 24.86,25.859 10.56,0 17.94,-5.172 22.45,-15.625 l -3.86,-2.094 c -4.5,8.469 -9.12,11.766 -16.5,11.766 -5.6,0 -9.67,-2.297 -12.53,-7.25 -1.98,-3.297 -2.86,-7.156 -2.75,-13.203 h 35.64 m -35.53,-4.734 c 0,-7.704 3.52,-18.704 12.75,-18.704 6.61,0 11,5.844 11,14.75 0,3.079 -0.98,3.954 -4.5,3.954 h -19.25 m 61.38,-21.782 -19.03,1.219 v 4.734 h 3.97 c 4.17,0.11 4.71,0.766 4.71,5.5 v 31.454 c -0.11,1.656 -0.21,2.312 -0.65,2.859 -0.77,0.984 -2.86,1.437 -7.6,1.547 h -0.43 v 3.953 h 27.82 v -3.953 h -0.43 c -7.38,-0.235 -8.36,-0.781 -8.36,-4.735 v -16.281 c 0,-5.39 0.76,-10.344 1.98,-12.875 2.31,-4.953 7.25,-8.359 11.99,-8.359 2.86,0 6.15,1.547 7.81,3.859 1.66,2.406 2.42,5.719 2.42,11 v 22.985 c -0.11,1.656 -0.22,2.312 -0.66,2.859 -0.78,0.984 -2.98,1.437 -7.7,1.547 h -0.44 v 3.953 h 27.83 v -3.953 h -0.44 c -7.26,-0.235 -8.25,-0.781 -8.25,-4.735 v -22.109 c 0,-7.922 -0.34,-9.906 -2.31,-13.641 -2.75,-5.281 -8.25,-8.468 -14.86,-8.468 -7.14,0 -12.53,3.297 -17.37,10.562 v -8.922"
     id="path13927" />
  <polyline
     class="BarLine"
     fill="none"
     stroke="#000000"
     stroke-width="6.54"
     stroke-linejoin="bevel"
     points="1745.48,908.44 1745.48,1057.88"
     id="polyline13929" />
  <polyline
     class="BarLine"
     fill="none"
     stroke="#000000"
     stroke-width="6.54"
     stroke-linejoin="bevel"
     points="2368.28,908.44 2368.28,1057.88"
     id="polyline13931" />
  <polyline
     class="BarLine"
     fill="none"
     stroke="#000000"
     stroke-width="6.54"
     stroke-linejoin="bevel"
     points="2415.56,446.655 2415.56,596.095"
     id="polyline13933" />
  <polyline
     class="BarLine"
     fill="none"
     stroke="#000000"
     stroke-width="6.54"
     stroke-linejoin="bevel"
     points="1051.43,908.44 1051.43,1057.88"
     id="polyline13935" />
  <polyline
     class="BarLine"
     fill="none"
     stroke="#000000"
     stroke-width="6.54"
     stroke-linejoin="bevel"
     points="1814.58,446.655 1814.58,596.095"
     id="polyline13937" />
  <polyline
     class="BarLine"
     fill="none"
     stroke="#000000"
     stroke-width="6.54"
     stroke-linejoin="bevel"
     points="2782.08,908.44 2782.08,1057.88"
     id="polyline13939" />
  <polyline
     class="BarLine"
     fill="none"
     stroke="#000000"
     stroke-width="20"
     stroke-linejoin="bevel"
     points="2808.8,908.44 2808.8,1057.88"
     id="polyline13941" />
  <polyline
     class="BarLine"
     fill="none"
     stroke="#000000"
     stroke-width="6.54"
     stroke-linejoin="bevel"
     points="1240.91,446.655 1240.91,596.095"
     id="polyline13943" />
  <polyline
     class="BarLine"
     fill="none"
     stroke="#000000"
     stroke-width="6.54"
     stroke-linejoin="bevel"
     points="2815.53,446.655 2815.53,596.095"
     id="polyline13945" />
  <path
     class="SlurSegment"
     stroke="#000000"
     stroke-width="1.82"
     stroke-linecap="round"
     stroke-linejoin="round"
     fill-rule="evenodd"
     d="m 1817.83,1064.24 c 72.72,57.82 301.04,72.44 380.54,24.36 -80.24,59.69 -308.57,45.07 -380.54,-24.36"
     id="path13947" />
  <polyline
     class="LedgerLine"
     fill="none"
     stroke="#000000"
     stroke-width="5.82"
     stroke-linejoin="bevel"
     points="859.641,630.455 930.884,630.455"
     id="polyline13949" />
  <polyline
     class="Stem"
     fill="none"
     stroke="#000000"
     stroke-width="3.64"
     stroke-linejoin="bevel"
     points="1228.81,989.268 1228.81,1083.02"
     id="polyline13951" />
  <polyline
     class="Stem"
     fill="none"
     stroke="#000000"
     stroke-width="3.64"
     stroke-linejoin="bevel"
     points="1908.75,533.738 1908.75,421.385"
     id="polyline13953" />
  <polyline
     class="Stem"
     fill="none"
     stroke="#000000"
     stroke-width="3.64"
     stroke-linejoin="bevel"
     points="1407.12,995.522 1407.12,883.17"
     id="polyline13955" />
  <polyline
     class="Stem"
     fill="none"
     stroke="#000000"
     stroke-width="3.64"
     stroke-linejoin="bevel"
     points="1597.39,995.522 1597.39,883.17"
     id="polyline13957" />
  <polyline
     class="Stem"
     fill="none"
     stroke="#000000"
     stroke-width="3.64"
     stroke-linejoin="bevel"
     points="734.092,570.098 734.092,448.655"
     id="polyline13959" />
  <polyline
     class="Stem"
     fill="none"
     stroke="#000000"
     stroke-width="3.64"
     stroke-linejoin="bevel"
     points="2048.11,527.484 2048.11,630.455"
     id="polyline13961" />
  <polyline
     class="Stem"
     fill="none"
     stroke="#000000"
     stroke-width="3.64"
     stroke-linejoin="bevel"
     points="1839.66,1013.7 1839.66,892.26"
     id="polyline13963" />
  <polyline
     class="Stem"
     fill="none"
     stroke="#000000"
     stroke-width="3.64"
     stroke-linejoin="bevel"
     points="917.09,624.638 917.09,503.195"
     id="polyline13965" />
  <polyline
     class="Stem"
     fill="none"
     stroke="#000000"
     stroke-width="3.64"
     stroke-linejoin="bevel"
     points="2029.92,1031.88 2029.92,910.44"
     id="polyline13967" />
  <polyline
     class="Stem"
     fill="none"
     stroke="#000000"
     stroke-width="3.64"
     stroke-linejoin="bevel"
     points="2231.11,509.304 2231.11,621.365"
     id="polyline13969" />
  <polyline
     class="Stem"
     fill="none"
     stroke="#000000"
     stroke-width="3.64"
     stroke-linejoin="bevel"
     points="1100.09,570.098 1100.09,448.655"
     id="polyline13971" />
  <polyline
     class="Stem"
     fill="none"
     stroke="#000000"
     stroke-width="3.64"
     stroke-linejoin="bevel"
     points="2220.19,1050.06 2220.19,928.62"
     id="polyline13973" />
  <polyline
     class="Stem"
     fill="none"
     stroke="#000000"
     stroke-width="3.64"
     stroke-linejoin="bevel"
     points="2462.46,1031.88 2462.46,910.44"
     id="polyline13975" />
  <polyline
     class="Stem"
     fill="none"
     stroke="#000000"
     stroke-width="3.64"
     stroke-linejoin="bevel"
     points="1335.08,551.918 1335.08,430.475"
     id="polyline13977" />
  <polyline
     class="Stem"
     fill="none"
     stroke="#000000"
     stroke-width="3.64"
     stroke-linejoin="bevel"
     points="2509.73,551.918 2509.73,430.475"
     id="polyline13979" />
  <polyline
     class="Stem"
     fill="none"
     stroke="#000000"
     stroke-width="3.64"
     stroke-linejoin="bevel"
     points="923.126,952.908 923.126,1055.88"
     id="polyline13981" />
  <polyline
     class="Stem"
     fill="none"
     stroke="#000000"
     stroke-width="3.64"
     stroke-linejoin="bevel"
     points="1609.57,570.098 1609.57,457.617"
     id="polyline13983" />
  <polyline
     class="Stem"
     fill="none"
     stroke="#000000"
     stroke-width="3.64"
     stroke-linejoin="bevel"
     points="428.237,971.088 428.237,1083.15"
     id="polyline13985" />
  <polyline
     class="Stem"
     fill="none"
     stroke="#000000"
     stroke-width="3.64"
     stroke-linejoin="bevel"
     points="669.435,971.088 669.435,1083"
     id="polyline13987" />
  <polyline
     class="Stem"
     fill="none"
     stroke="#000000"
     stroke-width="3.64"
     stroke-linejoin="bevel"
     points="796.28,952.908 796.28,1055.88"
     id="polyline13989" />
  <polyline
     class="Stem"
     fill="none"
     stroke="#000000"
     stroke-width="3.64"
     stroke-linejoin="bevel"
     points="1734.75,551.918 1734.75,448.783"
     id="polyline13991" />
  <polyline
     class="Stem"
     fill="none"
     stroke="#000000"
     stroke-width="3.64"
     stroke-linejoin="bevel"
     points="1101.97,971.088 1101.97,1074.19"
     id="polyline13993" />
  <path
     class="Hook"
     d="m 667.617,1083.0137 c 0,0.9999 0.86355,1.8861 1.88618,1.8861 0.7272,0 1.61347,-0.5908 1.74982,-1.1589 0,-0.1591 1.31805,-5.2495 1.4544,-5.6813 0.13635,-0.5908 1.4544,-6.113 6.68115,-14.6804 5.68125,-9.4536 14.40765,-16.2938 21.67965,-26.4746 7.13572,-10.1808 11.49892,-19.7935 11.49892,-32.5876 0,-13.22601 -3.06791,-24.29312 -10.77172,-38.40531 -0.43181,-1.02259 -1.31798,-1.59068 -2.1816,-1.59068 -0.29539,0 -0.59078,0 -0.7272,0.13628 -0.7272,0.29539 -1.02259,0.88631 -1.02259,1.74979 0,0.43181 0.15911,1.15901 0.43181,1.74993 5.8176,13.52127 8.15817,21.22508 8.15817,31.70127 0,12.06702 -4.22678,18.33912 -6.84019,22.83872 -9.4536,16.1347 -24.7248,23.9976 -30.83782,26.0428 -1.02263,0.4318 -1.15898,1.159 -1.15898,1.5908 v 32.8831"
     id="path13995"
     style="stroke-width:1.4544" />
  <path
     class="Note"
     d="m 1054.64,582.02803 c 0,6.24937 4.4996,13.22598 16.2938,13.22598 15.1122,0 30.9742,-12.36243 30.9742,-25.15661 0,-8.59005 -7.272,-13.38499 -16.2938,-13.38499 -14.1122,0 -30.9742,11.93059 -30.9742,25.31562"
     id="path13997"
     style="stroke-width:1.4544" />
  <path
     class="Note"
     d="m 2229.29,509.30803 c 0,6.24937 4.4996,13.22598 16.2938,13.22598 15.1122,0 30.9742,-12.36243 30.9742,-25.15661 0,-8.59005 -7.272,-13.38499 -16.2938,-13.38499 -14.1122,0 -30.9742,11.93059 -30.9742,25.31562"
     id="path13999"
     style="stroke-width:1.4544" />
  <path
     class="Note"
     d="m 871.64,636.56803 c 0,6.24937 4.49955,13.22598 16.29379,13.22598 15.11223,0 30.97421,-12.36243 30.97421,-25.15661 0,-8.59005 -7.272,-13.38499 -16.29379,-13.38499 -14.11219,0 -30.97421,11.93059 -30.97421,25.31562"
     id="path14001"
     style="stroke-width:1.4544" />
  <path
     class="Note"
     d="m 1300.538,570.23375 c -4.795,0 -5.8176,-3.9087 -5.8176,-5.22675 0,-7.13565 24.4294,-19.6344 31.2696,-19.6344 3.4997,0 5.8176,2.04525 5.8176,5.22675 0,7.272 -24.5884,19.6344 -31.2696,19.6344 m 20.0662,-31.70134 c -14.1122,0 -30.9742,11.79424 -30.9742,25.31562 0,6.24937 4.4996,13.22598 16.2938,13.22598 15.1122,0 30.9742,-12.36243 30.9742,-25.15661 0,-8.59005 -7.272,-13.38499 -16.2938,-13.38499"
     id="path14003"
     style="stroke-width:1.4544" />
  <path
     class="Note"
     d="m 1551.94,1007.453 c 0,6.2494 4.4996,13.226 16.2938,13.226 15.1122,0 30.9742,-12.3624 30.9742,-25.1566 0,-8.59005 -7.272,-13.38499 -16.2938,-13.38499 -14.1122,0 -30.9742,11.93059 -30.9742,25.31559"
     id="path14005"
     style="stroke-width:1.4544" />
  <path
     class="Note"
     d="m 1564.12,582.02803 c 0,6.24937 4.4995,13.22598 16.2938,13.22598 15.1122,0 30.9742,-12.36243 30.9742,-25.15661 0,-8.59005 -7.272,-13.38499 -16.2938,-13.38499 -14.1122,0 -30.9742,11.93059 -30.9742,25.31562"
     id="path14007"
     style="stroke-width:1.4544" />
  <path
     class="Note"
     d="m 921.308,952.91303 c 0,6.24937 4.49955,13.22598 16.29379,13.22598 15.11223,0 30.97421,-12.36243 30.97421,-25.15661 0,-8.59005 -7.272,-13.38499 -16.29379,-13.38499 -14.11219,0 -30.97421,11.93059 -30.97421,25.31562"
     id="path14009"
     style="stroke-width:1.4544" />
  <path
     class="Note"
     d="m 1689.3,563.84803 c 0,6.24937 4.4996,13.22598 16.2938,13.22598 15.1122,0 30.9742,-12.36243 30.9742,-25.15661 0,-8.59005 -7.272,-13.38499 -16.2938,-13.38499 -14.1122,0 -30.9742,11.93059 -30.9742,25.31562"
     id="path14011"
     style="stroke-width:1.4544" />
  <path
     class="Note"
     d="m 1226.99,989.27303 c 0,6.24937 4.4995,13.22597 16.2938,13.22597 15.1122,0 30.9742,-12.36242 30.9742,-25.1566 0,-8.59005 -7.272,-13.38499 -16.2938,-13.38499 -14.1122,0 -30.9742,11.93059 -30.9742,25.31562"
     id="path14013"
     style="stroke-width:1.4544" />
  <path
     class="Note"
     d="m 1863.3,545.66803 c 0,6.24937 4.4996,13.22598 16.2938,13.22598 15.1122,0 30.9742,-12.36243 30.9742,-25.15661 0,-8.59005 -7.272,-13.38499 -16.2938,-13.38499 -14.1122,0 -30.9742,11.93059 -30.9742,25.31562"
     id="path14015"
     style="stroke-width:1.4544" />
  <path
     class="Note"
     d="m 1100.15,971.09303 c 0,6.24937 4.4996,13.22598 16.2938,13.22598 15.1122,0 30.9742,-12.36243 30.9742,-25.15661 0,-8.59005 -7.272,-13.38499 -16.2938,-13.38499 -14.1122,0 -30.9742,11.93059 -30.9742,25.31562"
     id="path14017"
     style="stroke-width:1.4544" />
  <path
     class="Note"
     d="m 2046.3,527.48803 c 0,6.24937 4.4996,13.22598 16.2938,13.22598 15.1122,0 30.9742,-12.36243 30.9742,-25.15661 0,-8.59005 -7.272,-13.38499 -16.2938,-13.38499 -14.1122,0 -30.9742,11.93059 -30.9742,25.31562"
     id="path14019"
     style="stroke-width:1.4544" />
  <path
     class="Note"
     d="m 426.419,971.09303 c 0,6.24937 4.49955,13.22598 16.29379,13.22598 15.11223,0 30.97421,-12.36243 30.97421,-25.15661 0,-8.59005 -7.272,-13.38499 -16.29379,-13.38499 -14.11219,0 -30.97421,11.93059 -30.97421,25.31562"
     id="path14021"
     style="stroke-width:1.4544" />
  <path
     class="Note"
     d="m 1361.67,1007.453 c 0,6.2494 4.4995,13.226 16.2938,13.226 15.1122,0 30.9742,-12.3624 30.9742,-25.1566 0,-8.59005 -7.272,-13.38499 -16.2938,-13.38499 -14.1122,0 -30.9742,11.93059 -30.9742,25.31559"
     id="path14023"
     style="stroke-width:1.4544" />
  <path
     class="Note"
     d="m 667.617,971.09303 c 0,6.24937 4.49955,13.22598 16.29379,13.22598 15.11223,0 30.97421,-12.36243 30.97421,-25.15661 0,-8.59005 -7.272,-13.38499 -16.29379,-13.38499 -14.11219,0 -30.97421,11.93059 -30.97421,25.31562"
     id="path14025"
     style="stroke-width:1.4544" />
  <path
     class="Note"
     d="m 1794.21,1025.633 c 0,6.2494 4.4995,13.226 16.2938,13.226 15.1122,0 30.9742,-12.3624 30.9742,-25.1566 0,-8.5901 -7.272,-13.385 -16.2938,-13.385 -14.1122,0 -30.9742,11.9306 -30.9742,25.3156"
     id="path14027"
     style="stroke-width:1.4544" />
  <path
     class="Note"
     d="m 1984.47,1043.813 c 0,6.2494 4.4996,13.226 16.2938,13.226 15.1122,0 30.9742,-12.3624 30.9742,-25.1566 0,-8.5901 -7.272,-13.385 -16.2938,-13.385 -14.1122,0 -30.9742,11.9306 -30.9742,25.3156"
     id="path14029"
     style="stroke-width:1.4544" />
  <path
     class="Note"
     d="m 794.462,952.91303 c 0,6.24937 4.49955,13.22598 16.29379,13.22598 15.11223,0 30.97421,-12.36243 30.97421,-25.15661 0,-8.59005 -7.272,-13.38499 -16.29379,-13.38499 -14.11219,0 -30.97421,11.93059 -30.97421,25.31562"
     id="path14031"
     style="stroke-width:1.4544" />
  <path
     class="Note"
     d="m 2174.74,1061.993 c 0,6.2494 4.4995,13.226 16.2938,13.226 15.1122,0 30.9742,-12.3624 30.9742,-25.1566 0,-8.59 -7.272,-13.385 -16.2938,-13.385 -14.1122,0 -30.9742,11.9306 -30.9742,25.3156"
     id="path14033"
     style="stroke-width:1.4544" />
  <path
     class="Note"
     d="m 2427.918,1050.1987 c -4.795,0 -5.8176,-3.9087 -5.8176,-5.2267 0,-7.1357 24.4294,-19.6344 31.2696,-19.6344 3.4997,0 5.8176,2.0452 5.8176,5.2267 0,7.272 -24.5884,19.6344 -31.2696,19.6344 m 20.0662,-31.7013 c -14.1122,0 -30.9742,11.7942 -30.9742,25.3156 0,6.2494 4.4996,13.226 16.2938,13.226 15.1122,0 30.9742,-12.3624 30.9742,-25.1566 0,-8.5901 -7.272,-13.385 -16.2938,-13.385"
     id="path14035"
     style="stroke-width:1.4544" />
  <path
     class="Note"
     d="m 2475.188,570.23375 c -4.795,0 -5.8176,-3.9087 -5.8176,-5.22675 0,-7.13565 24.4294,-19.6344 31.2696,-19.6344 3.4997,0 5.8176,2.04525 5.8176,5.22675 0,7.272 -24.5884,19.6344 -31.2696,19.6344 m 20.0662,-31.70134 c -14.1122,0 -30.9742,11.79424 -30.9742,25.31562 0,6.24937 4.4996,13.22598 16.2938,13.22598 15.1122,0 30.9742,-12.36243 30.9742,-25.15661 0,-8.59005 -7.272,-13.38499 -16.2938,-13.38499"
     id="path14037"
     style="stroke-width:1.4544" />
  <path
     class="Note"
     d="m 688.642,582.02803 c 0,6.24937 4.49955,13.22598 16.29379,13.22598 15.11223,0 30.97421,-12.36243 30.97421,-25.15661 0,-8.59005 -7.272,-13.38499 -16.29379,-13.38499 -14.11219,0 -30.97421,11.93059 -30.97421,25.31562"
     id="path14039"
     style="stroke-width:1.4544" />
  <path
     class="Clef"
     d="m 428.5548,587.68662 c -2.9088,0.59078 -5.65849,0.88617 -8.43101,0.88617 -20.79327,0 -38.54156,-14.544 -38.54156,-36.51904 0,-17.72557 12.49878,-33.58755 25.31568,-44.65466 2.4543,-2.1816 4.79501,-4.20409 6.97661,-6.38569 1.29529,7.84009 2.31788,14.68028 3.34047,20.65699 -13.24857,3.93139 -22.24767,17.88461 -22.24767,31.56506 0,10.1808 7.9992,24.13395 19.6344,24.13395 1.15887,0 2.47699,-0.59078 2.47699,-1.88621 0,-1.31798 -1.4544,-2.04518 -3.20419,-3.20419 -5.68132,-3.49965 -8.88551,-7.272 -8.88551,-14.40765 0,-8.86275 6.5448,-15.99847 15.13478,-18.02096 l 8.43101,47.83623 M 415.76059,438.17881 c 1.31812,-5.8176 7.9992,-21.0888 15.56673,-21.0888 2.1816,0 5.65849,7.11289 5.65849,17.15727 0,15.13492 -11.1807,26.47473 -21.22522,36.36 -0.86348,-5.8176 -1.59068,-11.47609 -1.59068,-17.58908 0,-5.38579 0.43181,-10.33991 1.59068,-14.83939 m 33.4512,122.60134 c 0,10.33988 -4.22678,20.95245 -14.544,25.17937 -3.04508,-17.45287 -6.97647,-40.58692 -7.9992,-46.99544 13.0896,0 22.5432,8.88554 22.5432,21.81607 m -63.9936,71.56106 c 0,9.61271 7.40842,22.2705 27.04282,22.2705 6.84019,0 12.8169,-1.74979 18.04358,-4.95412 7.86292,-5.52207 9.88541,-15.13478 9.88541,-24.29299 0,-5.65849 -0.86348,-12.20329 -2.31788,-20.49788 -0.43181,-2.9088 -1.31812,-7.272 -2.1816,-12.95332 14.24847,-4.65859 24.86108,-19.49798 24.86108,-34.47383 0,-21.95238 -15.56659,-36.79177 -36.79181,-36.79177 -1.4544,-8.7264 -2.9088,-17.31652 -4.22678,-25.452 15.43031,-16.15751 26.04278,-34.33751 26.04278,-57.4488 0,-13.24871 -4.06767,-23.9976 -6.40838,-29.24653 -3.47689,-7.40871 -7.70381,-12.49911 -10.31722,-12.49911 -1.02259,0 -5.52207,1.74964 -10.31708,7.40871 -9.31732,11.06653 -11.93059,29.67834 -11.93059,41.88163 0,7.86278 0.7272,14.9985 3.20419,31.29229 -0.15911,0.13642 -7.7265,7.84009 -10.77172,10.31722 -13.24857,12.3624 -31.56499,29.95148 -31.56499,59.06224 0,27.17917 23.70221,48.56336 50.76772,48.56336 4.20409,0 8.13548,-0.43181 11.47609,-1.02259 2.77238,13.97577 4.3632,24.15657 4.3632,31.86038 0,15.13492 -7.70381,23.13412 -22.38409,23.13412 -3.49972,0 -6.5448,-0.7272 -6.84033,-0.7272 -0.13628,-0.15911 -0.43167,-0.29553 -0.43167,-0.43181 0,-0.29539 0.29539,-0.4545 0.7272,-0.59092 6.84019,-1.02259 13.65769,-6.84019 13.65769,-16.13468 0,-7.86292 -5.95402,-16.15751 -16.86202,-16.15751 -10.1808,0 -16.7256,8.29459 -16.7256,17.88461"
     id="path14041"
     style="stroke-width:1.4544" />
  <path
     class="Clef"
     d="m 246.7548,1049.4716 c -2.9088,0.5908 -5.65849,0.8862 -8.43101,0.8862 -20.79327,0 -38.54156,-14.544 -38.54156,-36.5191 0,-17.72552 12.49878,-33.5875 25.31568,-44.65461 2.4543,-2.1816 4.79501,-4.20409 6.97661,-6.38569 1.29529,7.84009 2.31788,14.68028 3.34047,20.65699 -13.24857,3.93139 -22.24767,17.88461 -22.24767,31.56501 0,10.1808 7.9992,24.134 19.6344,24.134 1.15887,0 2.47699,-0.5908 2.47699,-1.8862 0,-1.318 -1.4544,-2.0452 -3.20419,-3.2042 -5.68132,-3.4997 -8.88551,-7.272 -8.88551,-14.4077 0,-8.8627 6.5448,-15.9984 15.13478,-18.0209 l 8.43101,47.8362 M 233.96059,899.96381 c 1.31812,-5.8176 7.9992,-21.0888 15.56673,-21.0888 2.1816,0 5.65849,7.11289 5.65849,17.15727 0,15.13492 -11.1807,26.47473 -21.22522,36.36 -0.86348,-5.8176 -1.59068,-11.47609 -1.59068,-17.58908 0,-5.38579 0.43181,-10.33991 1.59068,-14.83939 m 33.4512,122.60129 c 0,10.3399 -4.22678,20.9525 -14.544,25.1794 -3.04508,-17.4529 -6.97647,-40.5869 -7.9992,-46.9954 13.0896,0 22.5432,8.8855 22.5432,21.816 m -63.9936,71.5611 c 0,9.6127 7.40842,22.2705 27.04282,22.2705 6.84019,0 12.8169,-1.7498 18.04358,-4.9541 7.86292,-5.5221 9.88541,-15.1348 9.88541,-24.293 0,-5.6585 -0.86348,-12.2033 -2.31788,-20.4979 -0.43181,-2.9088 -1.31812,-7.272 -2.1816,-12.9533 14.24847,-4.6586 24.86108,-19.498 24.86108,-34.4738 0,-21.95241 -15.56659,-36.7918 -36.79181,-36.7918 -1.4544,-8.7264 -2.9088,-17.31652 -4.22678,-25.452 15.43031,-16.15751 26.04278,-34.33751 26.04278,-57.4488 0,-13.24871 -4.06767,-23.9976 -6.40838,-29.24653 -3.47689,-7.40871 -7.70381,-12.49911 -10.31722,-12.49911 -1.02259,0 -5.52207,1.74964 -10.31708,7.40871 -9.31732,11.06653 -11.93059,29.67834 -11.93059,41.88163 0,7.86278 0.7272,14.9985 3.20419,31.29229 -0.15911,0.13642 -7.7265,7.84009 -10.77172,10.31722 -13.24857,12.3624 -31.56499,29.95148 -31.56499,59.06219 0,27.1792 23.70221,48.5634 50.76772,48.5634 4.20409,0 8.13548,-0.4318 11.47609,-1.0226 2.77238,13.9758 4.3632,24.1566 4.3632,31.8604 0,15.1349 -7.70381,23.1341 -22.38409,23.1341 -3.49972,0 -6.5448,-0.7272 -6.84033,-0.7272 -0.13628,-0.1591 -0.43167,-0.2955 -0.43167,-0.4318 0,-0.2954 0.29539,-0.4545 0.7272,-0.5909 6.84019,-1.0226 13.65769,-6.8402 13.65769,-16.1347 0,-7.8629 -5.95402,-16.1575 -16.86202,-16.1575 -10.1808,0 -16.7256,8.2946 -16.7256,17.8846"
     id="path14043"
     style="stroke-width:1.4544" />
  <path
     class="KeySig"
     d="m 507.00159,515.5574 c 0,11.49885 -5.97664,17.58915 -14.40761,24.29299 l 0.43177,-28.36077 c 0.29543,-1.31805 2.47703,-5.52224 8.29463,-5.52224 5.24954,0 5.68121,4.93139 5.68121,7.99927 v 1.59075 m -1.74979,-16.7256 c -7.272,0 -11.49885,4.49948 -12.22605,5.38579 l 0.59085,-46.69991 c 0,-1.15887 -0.86355,-2.02249 -2.04525,-2.02249 h -1.7271 c -1.1817,0 -2.04525,0.86362 -2.04525,2.02249 l 0.7272,87.42311 c 0,1.15901 0.86355,2.02263 2.04525,2.02263 0.2727,0 0.86355,-0.13642 1.15898,-0.2727 12.49878,-6.2721 25.58838,-18.18007 25.58838,-33.17857 0,-7.54477 -3.47689,-14.68035 -12.06701,-14.68035"
     id="path14045"
     style="stroke-width:1.4544" />
  <path
     class="KeySig"
     d="m 325.20159,977.3424 c 0,11.49885 -5.97664,17.58915 -14.40761,24.293 l 0.43177,-28.36078 c 0.29543,-1.31805 2.47703,-5.52224 8.29463,-5.52224 5.24954,0 5.68121,4.93139 5.68121,7.99927 v 1.59075 m -1.74979,-16.7256 c -7.272,0 -11.49885,4.49948 -12.22605,5.38579 l 0.59085,-46.69991 c 0,-1.15887 -0.86355,-2.02249 -2.04525,-2.02249 h -1.7271 c -1.1817,0 -2.04525,0.86362 -2.04525,2.02249 l 0.7272,87.42312 c 0,1.159 0.86355,2.0226 2.04525,2.0226 0.2727,0 0.86355,-0.1364 1.15898,-0.2727 12.49878,-6.2721 25.58838,-18.18005 25.58838,-33.17855 0,-7.54477 -3.47689,-14.68035 -12.06701,-14.68035"
     id="path14047"
     style="stroke-width:1.4544" />
  <path
     class="TimeSig"
     d="m 596.94719,483.42405 c 11.6352,-4.52228 12.3624,-12.0897 12.3624,-14.70304 v -0.7272 c 0,-1.29543 -0.43167,-17.74833 -25.452,-17.74833 -25.02019,0 -24.29299,17.74833 -24.29299,17.74833 h 0.13635 l -0.13635,0.29539 c 0,5.22675 4.22685,9.31725 9.4536,9.31725 5.22682,0 9.31732,-4.0905 9.31732,-9.31725 0,-4.22692 -3.20433,-8.29459 -7.27207,-9.15821 l 0.43178,-0.43181 c 2.02259,-1.4544 4.79497,-2.1816 7.56749,-2.1816 6.0903,0 12.6351,3.636 12.6351,11.47623 0,9.15814 -6.8175,10.47619 -8.56743,10.77161 -1.74979,0.29543 -9.88527,0.86355 -11.63516,0.86355 -1.74983,0 -1.88618,2.04525 -1.88618,2.04525 v 2.9088 c 0,0 0.2727,1.59075 1.88618,1.74983 2.47709,0.13635 5.81756,0.13635 10.47629,0.86355 6.38569,0.86355 9.7263,5.22675 9.7263,15.40762 0,9.74899 -6.5448,12.3624 -12.6351,12.3624 -4.0905,0 -7.86292,-1.15901 -9.45367,-2.31802 4.79494,-0.29539 8.72647,-4.49948 8.72647,-9.31718 0,-5.22682 -4.0905,-9.45367 -9.31732,-9.45367 -5.22675,0 -9.4536,4.22685 -9.4536,9.45367 0,11.93059 10.908,17.9073 21.67972,17.9073 13.95308,0 29.088,-4.8177 29.088,-20.65713 0,-10.61254 -7.272,-15.13482 -13.68052,-17.15734 h 0.29539"
     id="path14049"
     style="stroke-width:1.4544" />
  <path
     class="TimeSig"
     d="m 581.90301,576.21039 v 10.74903 H 569.836 c -1.02259,0 -2.04518,0.88617 -2.04518,2.04518 v 2.77252 c 0,1.15887 1.02259,2.02249 2.04518,2.02249 h 44.06381 c 1.1817,0 2.04518,-0.86362 2.04518,-2.02249 v -2.77252 c 0,-1.15901 -0.86348,-2.04518 -2.04518,-2.04518 h -13.0896 v -10.74903 h 13.0896 c 1.1817,0 2.04518,-1.02259 2.04518,-2.1816 v -2.77241 c 0,-1.02263 -0.86348,-2.02253 -2.04518,-2.02253 h -13.0896 V 546.0998 c 0,-0.86355 -0.43181,-1.59075 -0.9999,-1.88618 l -1.74979,-0.88627 c -0.29553,-0.13635 -0.43181,-0.13635 -0.7272,-0.13635 -0.59092,0 -1.15901,0 -1.61351,0.43177 l -13.22602,12.06698 c -0.43167,0.4545 -0.59078,1.02262 -0.59078,1.61347 v 11.93063 h -16.86198 c 0,0 16.29389,-17.4528 33.45116,-40.45057 0.59092,-0.7272 0.7272,-1.4544 0.7272,-2.02249 0,-0.7272 -0.29539,-1.31798 -0.43167,-1.4544 l -3.20433,-3.20419 c -0.43167,-0.29539 -0.86348,-0.59092 -1.4544,-0.59092 -0.86348,0 -20.52057,0 -21.67958,0 -1.02259,0 -1.74979,0.88631 -1.88621,1.74993 0,0 -0.7272,10.77158 -4.49955,22.54316 -3.79507,11.79428 -8.15827,19.06628 -11.93062,24.42938 0,0 -0.43178,0.7272 -0.43178,1.61348 0,0.29542 0,0.56819 0.13635,0.86358 0.43178,1.02259 1.4544,2.61341 1.4544,2.61341 0,0 0.29543,0.88617 1.59075,0.88617 h 25.02026"
     id="path14051"
     style="stroke-width:1.4544" />
  <path
     class="Beam"
     fill-rule="evenodd"
     d="m 1100.15,1064.95 130.48,9.09 v 18.22 l -130.48,-9.09 v -18.22"
     id="path14053" />
  <path
     class="Beam"
     fill-rule="evenodd"
     d="m 1607.76,448.632 128.81,-9.09 v 18.226 l -128.81,9.09 v -18.226"
     id="path14055" />
  <path
     class="Beam"
     fill-rule="evenodd"
     d="m 794.462,1046.79 h 130.482 v 18.18 H 794.462 v -18.18"
     id="path14057" />
  <path
     class="Lyrics"
     d="m 430.963,1155.08 c -2.781,0 -5.047,2.25 -5.047,5.04 0,2.78 2.266,5.05 4.953,5.05 2.875,0 5.141,-2.27 5.141,-5.05 0,-2.79 -2.266,-5.04 -5.047,-5.04 m 4.094,21.65 -16.969,0.96 v 3.75 h 5.047 c 3.297,0.07 3.734,0.61 3.734,4.34 v 29.5 c 0,7.05 -0.437,10.36 -1.656,12.87 -0.859,1.74 -2.859,3.05 -4.781,3.05 -1.219,0 -2.172,-0.51 -2.172,-1.12 0,-0.36 0.094,-0.53 0.438,-1.41 0.437,-0.86 0.609,-1.47 0.609,-2.08 0,-2.17 -2.094,-4.09 -4.531,-4.09 -2.782,0 -4.875,2.17 -4.875,5.22 0,4.26 3.922,7.14 9.75,7.14 4.875,0 9.312,-2.1 11.828,-5.66 2.703,-3.83 3.578,-8.26 3.578,-18.09 v -34.38 m 25.469,-6 h 3.578 l 13.828,-8.43 c 1.297,-0.88 2.172,-2.18 2.172,-3.4 0,-1.75 -1.297,-3.04 -3.047,-3.04 -1.297,0 -2.078,0.44 -4.266,2.69 l -12.265,12.18 m 21.843,18.53 c 0,-5.48 -0.953,-8.26 -3.484,-10.36 -2.875,-2.34 -7.125,-3.46 -12.703,-3.46 -9.828,0 -16.969,4.61 -16.969,10.95 0,3.22 2,5.31 5.047,5.31 2.797,0 4.703,-1.83 4.703,-4.44 0,-1.12 -0.437,-2.34 -1.312,-3.56 -0.516,-0.61 -0.594,-0.8 -0.594,-1.22 0,-1.75 3.469,-3.31 7.656,-3.31 2.781,0 5.828,0.88 7.219,2.17 1.641,1.39 2.25,3.49 2.25,7.41 v 3.39 c -9.047,1.56 -11.906,2.26 -16.172,3.91 -7.578,2.79 -11.141,6.79 -11.141,12.35 0,6.27 4.875,10.19 12.61,10.19 6.015,0 11.406,-2.44 15.14,-6.87 1.391,4.43 3.579,6.17 7.657,6.17 3.922,0 8.015,-2.53 8.015,-5.05 0,-0.61 -0.359,-1.04 -0.875,-1.04 -0.343,0 -0.703,0.09 -1.312,0.34 -1.219,0.53 -1.735,0.61 -2.438,0.61 -2.422,0 -3.297,-1.56 -3.297,-6 v -17.49 m -8.187,10.61 c 0,5.22 -0.25,6.44 -1.734,8.71 -2.172,3.22 -6.094,5.39 -9.922,5.39 -4,0 -6.875,-2.86 -6.875,-6.78 0,-3.66 1.828,-6.27 5.656,-8.1 2.703,-1.22 6.094,-2.08 12.875,-3.22 v 4"
     id="path14059" />
  <path
     class="Lyrics"
     d="m 1685.66,703.903 -15.4,0.953 v 3.75 h 3.56 c 3.31,0.078 3.75,0.609 3.75,4.344 v 24.89 c -0.1,1.297 -0.17,1.828 -0.53,2.266 -0.61,0.781 -2.35,1.125 -6.1,1.219 h -0.34 v 3.125 h 23.23 v -3.125 h -1.56 c -5.83,-0.188 -6.61,-0.61 -6.61,-3.75 v -4.704 c 0.08,-14.609 5.3,-25.75 12.1,-26.093 -1.22,1.39 -1.58,2.265 -1.58,3.906 0,2.797 2,4.797 4.79,4.797 3.22,0 5.3,-2.36 5.3,-5.828 0,-4.266 -2.95,-7.047 -7.56,-7.047 -5.49,0 -10.19,4.344 -13.05,12.094 v -10.797 m 40.56,-6 h 3.57 l 13.83,-8.438 c 1.31,-0.875 2.18,-2.172 2.18,-3.39 0,-1.75 -1.31,-3.047 -3.04,-3.047 -1.39,0 -2.19,0.515 -4.36,2.687 l -12.18,12.188 m 9.32,35.5 -9.58,-22.36 c -0.34,-0.875 -0.52,-1.312 -0.52,-1.75 0,-1.64 1.03,-2.25 4,-2.25 h 1.83 v -3.14 h -20.72 v 3.14 h 0.97 c 2.95,0.078 4.08,0.953 5.91,4.688 l 14.19,32.109 -1.49,3.047 c -3.12,6.609 -7.22,11.219 -10,11.219 -0.78,0 -1.39,-0.344 -1.39,-0.86 0,-0.187 0.08,-0.437 0.17,-0.796 0.27,-0.782 0.44,-1.563 0.44,-2.25 0,-2.266 -1.83,-3.922 -4.44,-3.922 -3.04,0 -5.22,2.265 -5.22,5.39 0,3.922 3.3,6.703 7.91,6.703 4.62,0 8.53,-2.265 12.02,-6.953 2.68,-3.578 4.43,-7.234 8.26,-16.718 l 9.92,-24.61 c 2,-5.047 3.91,-6.969 7.3,-7.047 h 0.53 v -3.14 h -17.41 v 3.14 h 1.4 c 3.31,0 4.7,0.953 4.7,3.219 0,0.953 -0.27,2 -0.88,3.469 l -7.9,19.672"
     id="path14061" />
  <path
     class="Lyrics"
     d="m 1222.18,1217.89 15.14,-0.61 v -3.73 h -1.56 c -4.97,-0.27 -5.41,-0.8 -5.41,-6.36 v -54.04 l -17.05,0.96 v 3.75 h 5.15 c 3.29,0.08 3.73,0.61 3.73,4.34 v 19.67 c -3.22,-4.43 -6.95,-6.43 -12,-6.43 -9.84,0 -17.33,9.48 -17.33,22 0,12.36 7.24,21.15 17.33,21.15 5.47,0 9.22,-2.36 12,-7.58 v 6.88 m -10.27,-37.77 c 3.57,0 6.96,2.61 8.54,6.63 1.12,2.61 1.64,6.17 1.64,10.44 0,10.17 -4,16.7 -10.27,16.7 -6.17,0 -9.83,-5.75 -9.83,-15.41 0,-5.22 0.53,-9.12 1.66,-12 1.48,-3.92 4.7,-6.36 8.26,-6.36 m 63.05,37.77 15.84,-0.61 v -3.73 h -2.18 c -5.05,-0.19 -5.47,-0.71 -5.47,-6.36 v -30.46 l -16.36,0.96 v 3.75 h 4.44 c 3.29,0.07 3.73,0.61 3.73,4.34 v 10.7 c 0,7.58 -1.83,16.8 -11.39,16.8 -2.7,0 -4.97,-0.95 -6.09,-2.7 -1.13,-1.66 -1.32,-2.52 -1.32,-7.32 v -26.53 l -15.21,0.96 v 3.75 h 3.31 c 3.29,0.07 3.73,0.61 3.73,4.34 v 18.8 c 0,4.43 0.35,6.43 1.66,8.43 2.34,3.57 6.51,5.58 11.75,5.58 5.73,0 9.73,-2.36 13.56,-7.92 v 7.22 m 29.08,-62.81 c -2.78,0 -5.05,2.25 -5.05,5.04 0,2.78 2.27,5.05 4.96,5.05 2.87,0 5.14,-2.27 5.14,-5.05 0,-2.79 -2.27,-5.04 -5.05,-5.04 m 4.09,21.65 -16.97,0.96 v 3.75 h 5.05 c 3.3,0.07 3.74,0.61 3.74,4.34 v 29.5 c 0,7.05 -0.44,10.36 -1.66,12.87 -0.86,1.74 -2.86,3.05 -4.78,3.05 -1.22,0 -2.17,-0.51 -2.17,-1.12 0,-0.36 0.09,-0.53 0.43,-1.41 0.44,-0.86 0.61,-1.47 0.61,-2.08 0,-2.17 -2.09,-4.09 -4.53,-4.09 -2.78,0 -4.87,2.17 -4.87,5.22 0,4.26 3.92,7.14 9.75,7.14 4.87,0 9.31,-2.1 11.82,-5.66 2.71,-3.83 3.58,-8.26 3.58,-18.09 v -34.38"
     id="path14063" />
  <path
     class="Lyrics"
     d="m 718.343,681.637 h -52.125 l -1.297,24.188 h 3.735 c 1.218,-8.797 3.578,-20.11 14.703,-20.11 2.875,0 4.094,0.969 4.094,3.141 v 44.89 c 0,4.438 0,4.61 -0.516,5.391 -0.703,0.875 -2.359,1.219 -7.313,1.219 h -2.265 v 4.094 h 29.844 v -4.094 h -2.266 c -4.875,0 -6.516,-0.344 -7.219,-1.219 -0.515,-0.781 -0.515,-0.953 -0.515,-5.391 v -44.89 c 0,-2.172 1.218,-3.141 4.078,-3.141 11.14,0 13.406,11.406 14.625,20.11 h 3.734 l -1.297,-24.188 m 22.844,20.969 c -10.703,0 -18.969,9.484 -18.969,21.656 0,11.922 8.36,21.5 18.797,21.5 10.438,0 18.797,-9.578 18.797,-21.578 0,-11.922 -8.359,-21.578 -18.625,-21.578 m 0,3.734 c 6.094,0 9.484,6.36 9.484,17.844 0,11.562 -3.39,17.828 -9.656,17.828 -6.266,0 -9.656,-6.266 -9.656,-17.75 0,-11.828 3.312,-17.922 9.828,-17.922"
     id="path14065" />
  <path
     class="Lyrics"
     d="m 873.637,703.903 v -17.219 h -3.562 c -0.875,11.297 -4.703,17.047 -11.75,17.562 v 3.407 h 7.14 v 22.187 c 0,6.078 0.172,8.266 1.047,10.266 1.391,3.64 4.86,5.656 9.907,5.656 7.843,0 12.89,-5.922 12.89,-15.141 0,-0.531 0,-1.14 -0.094,-2 h -3.656 c -0.265,7.829 -2.515,11.829 -6.781,11.829 -2,0 -3.75,-1.047 -4.359,-2.532 -0.516,-1.218 -0.782,-3.39 -0.782,-6.515 v -23.75 h 12.797 v -3.75 h -12.797 m 40.047,-1.297 c -10.703,0 -18.969,9.484 -18.969,21.656 0,11.922 8.36,21.5 18.797,21.5 10.438,0 18.797,-9.578 18.797,-21.578 0,-11.922 -8.359,-21.578 -18.625,-21.578 m 0,3.734 c 6.094,0 9.485,6.36 9.485,17.844 0,11.562 -3.391,17.828 -9.657,17.828 -6.265,0 -9.656,-6.266 -9.656,-17.75 0,-11.828 3.313,-17.922 9.828,-17.922"
     id="path14067" />
  <path
     class="Lyrics"
     d="m 1062.68,682.246 c -2.78,0 -5.05,2.25 -5.05,5.047 0,2.782 2.27,5.047 4.96,5.047 2.87,0 5.14,-2.265 5.14,-5.047 0,-2.797 -2.27,-5.047 -5.05,-5.047 m 4.1,21.657 -16.97,0.953 v 3.75 h 5.04 c 3.3,0.078 3.74,0.609 3.74,4.344 v 29.5 c 0,7.046 -0.44,10.359 -1.66,12.875 -0.86,1.734 -2.86,3.046 -4.78,3.046 -1.22,0 -2.17,-0.515 -2.17,-1.125 0,-0.359 0.09,-0.531 0.44,-1.406 0.43,-0.859 0.61,-1.469 0.61,-2.078 0,-2.172 -2.1,-4.094 -4.54,-4.094 -2.78,0 -4.87,2.172 -4.87,5.219 0,4.266 3.92,7.141 9.75,7.141 4.87,0 9.31,-2.094 11.83,-5.657 2.7,-3.828 3.58,-8.265 3.58,-18.093 v -34.375 m 48.43,20.968 c 0.1,-13.046 -7.29,-22.265 -17.92,-22.265 -11.14,0 -19.48,9.656 -19.48,22.703 0,12.266 7.92,20.453 19.65,20.453 8.36,0 14.19,-4.094 17.75,-12.359 l -3.04,-1.657 c -3.57,6.704 -7.22,9.313 -13.05,9.313 -4.44,0 -7.66,-1.828 -9.92,-5.75 -1.57,-2.609 -2.25,-5.656 -2.17,-10.438 h 28.18 m -28.09,-3.734 c 0,-6.094 2.78,-14.797 10.09,-14.797 5.22,0 8.69,4.61 8.69,11.656 0,2.438 -0.78,3.141 -3.56,3.141 h -15.22"
     id="path14069" />
  <path
     class="Lyrics"
     d="m 1097.51,1176.73 -15.41,0.96 v 3.75 h 3.56 c 3.31,0.07 3.75,0.61 3.75,4.34 v 24.89 c -0.09,1.3 -0.17,1.83 -0.53,2.27 -0.61,0.78 -2.34,1.12 -6.09,1.21 h -0.35 v 3.13 h 23.24 v -3.13 h -1.56 c -5.83,-0.18 -6.61,-0.6 -6.61,-3.75 v -4.7 c 0.07,-14.61 5.29,-25.75 12.09,-26.09 -1.22,1.39 -1.58,2.26 -1.58,3.9 0,2.8 2,4.8 4.8,4.8 3.22,0 5.3,-2.36 5.3,-5.83 0,-4.26 -2.96,-7.04 -7.57,-7.04 -5.48,0 -10.18,4.34 -13.04,12.09 v -10.8 m 60.09,12.53 c 0,-5.48 -0.95,-8.26 -3.48,-10.36 -2.88,-2.34 -7.13,-3.46 -12.71,-3.46 -9.83,0 -16.97,4.61 -16.97,10.95 0,3.22 2,5.31 5.05,5.31 2.8,0 4.7,-1.83 4.7,-4.44 0,-1.12 -0.43,-2.34 -1.31,-3.56 -0.51,-0.61 -0.59,-0.8 -0.59,-1.22 0,-1.75 3.47,-3.31 7.65,-3.31 2.78,0 5.83,0.88 7.22,2.17 1.64,1.39 2.25,3.49 2.25,7.41 v 3.39 c -9.04,1.56 -11.9,2.26 -16.17,3.91 -7.58,2.79 -11.14,6.79 -11.14,12.35 0,6.27 4.87,10.19 12.61,10.19 6.01,0 11.41,-2.44 15.14,-6.87 1.39,4.43 3.58,6.17 7.66,6.17 3.92,0 8.01,-2.53 8.01,-5.05 0,-0.61 -0.36,-1.04 -0.87,-1.04 -0.35,0 -0.71,0.09 -1.32,0.34 -1.21,0.53 -1.73,0.61 -2.43,0.61 -2.43,0 -3.3,-1.56 -3.3,-6 v -17.49 m -8.19,10.61 c 0,5.22 -0.25,6.44 -1.73,8.71 -2.17,3.22 -6.1,5.39 -9.92,5.39 -4,0 -6.88,-2.86 -6.88,-6.78 0,-3.66 1.83,-6.27 5.66,-8.1 2.7,-1.22 6.09,-2.08 12.87,-3.22 v 4"
     id="path14071" />
  <path
     class="Lyrics"
     d="m 1567,1175.78 h -3.04 l -2.54,3.12 c -3.12,-2.43 -6.26,-3.46 -10.6,-3.46 -7.66,0 -12.71,4.95 -12.71,12.61 0,8.17 5.31,10.26 12.27,11.92 l 4.61,1.04 c 6.87,1.66 9.31,3.39 9.31,6.88 0,4.08 -3.56,6.95 -8.61,6.95 -7.41,0 -12.62,-4.7 -14.7,-13.39 h -3.49 v 16.44 h 3.05 l 3.05,-3.56 c 3.56,2.86 7.48,4.26 11.92,4.26 8.51,0 14.17,-5.31 14.17,-13.4 0,-3.83 -1.22,-6.79 -3.66,-8.79 -2.07,-1.82 -3.82,-2.53 -9.12,-3.65 l -4.36,-0.97 c -4.78,-1.03 -4.78,-1.03 -6.34,-1.91 -1.93,-0.87 -3.05,-2.7 -3.05,-4.61 0,-3.56 3.31,-6 8.09,-6 7.13,0 10.61,5.05 12.71,11.13 h 3.04 v -14.61 m 46.52,21.92 c 0.09,-13.05 -7.3,-22.26 -17.92,-22.26 -11.14,0 -19.49,9.65 -19.49,22.7 0,12.26 7.92,20.45 19.66,20.45 8.36,0 14.19,-4.09 17.75,-12.36 l -3.05,-1.65 c -3.56,6.7 -7.22,9.31 -13.05,9.31 -4.43,0 -7.65,-1.83 -9.92,-5.75 -1.56,-2.61 -2.25,-5.66 -2.17,-10.44 h 28.19 m -28.1,-3.73 c 0,-6.1 2.79,-14.8 10.1,-14.8 5.22,0 8.69,4.61 8.69,11.66 0,2.43 -0.79,3.14 -3.57,3.14 h -15.22"
     id="path14073" />
  <path
     class="Lyrics"
     d="m 672.177,1175.78 h -3.047 l -2.531,3.12 c -3.125,-2.43 -6.266,-3.46 -10.61,-3.46 -7.656,0 -12.703,4.95 -12.703,12.61 0,8.17 5.313,10.26 12.266,11.92 l 4.609,1.04 c 6.875,1.66 9.313,3.39 9.313,6.88 0,4.08 -3.563,6.95 -8.61,6.95 -7.406,0 -12.625,-4.7 -14.703,-13.39 h -3.484 v 16.44 h 3.047 l 3.047,-3.56 c 3.562,2.86 7.484,4.26 11.921,4.26 8.516,0 14.172,-5.31 14.172,-13.4 0,-3.83 -1.218,-6.79 -3.656,-8.79 -2.078,-1.82 -3.828,-2.53 -9.125,-3.65 l -4.359,-0.97 c -4.782,-1.03 -4.782,-1.03 -6.344,-1.91 -1.922,-0.87 -3.047,-2.7 -3.047,-4.61 0,-3.56 3.313,-6 8.094,-6 7.125,0 10.609,5.05 12.703,11.13 h 3.047 v -14.61 m 46.515,21.92 c 0.094,-13.05 -7.296,-22.26 -17.921,-22.26 -11.141,0 -19.485,9.65 -19.485,22.7 0,12.26 7.922,20.45 19.656,20.45 8.36,0 14.188,-4.09 17.75,-12.36 l -3.046,-1.65 c -3.563,6.7 -7.219,9.31 -13.047,9.31 -4.438,0 -7.657,-1.83 -9.922,-5.75 -1.563,-2.61 -2.25,-5.66 -2.172,-10.44 h 28.187 m -28.093,-3.73 c 0,-6.1 2.781,-14.8 10.093,-14.8 5.219,0 8.688,4.61 8.688,11.66 0,2.43 -0.781,3.14 -3.563,3.14 h -15.218 m 44.562,-38.89 c -2.781,0 -5.047,2.25 -5.047,5.04 0,2.78 2.266,5.05 4.953,5.05 2.875,0 5.141,-2.27 5.141,-5.05 0,-2.79 -2.266,-5.04 -5.047,-5.04 m 4.094,21.65 -16.969,0.96 v 3.75 h 5.047 c 3.297,0.07 3.734,0.61 3.734,4.34 v 29.5 c 0,7.05 -0.437,10.36 -1.656,12.87 -0.859,1.74 -2.859,3.05 -4.781,3.05 -1.219,0 -2.172,-0.51 -2.172,-1.12 0,-0.36 0.094,-0.53 0.438,-1.41 0.437,-0.86 0.609,-1.47 0.609,-2.08 0,-2.17 -2.094,-4.09 -4.531,-4.09 -2.782,0 -4.875,2.17 -4.875,5.22 0,4.26 3.922,7.14 9.75,7.14 4.875,0 9.312,-2.1 11.828,-5.66 2.703,-3.83 3.578,-8.26 3.578,-18.09 v -34.38"
     id="path14075" />
  <path
     class="Lyrics"
     d="m 1272.81,745.059 15.14,-0.609 v -3.735 h -1.56 c -4.97,-0.265 -5.4,-0.797 -5.4,-6.359 v -54.031 l -17.05,0.953 v 3.75 h 5.14 c 3.3,0.078 3.73,0.609 3.73,4.343 v 19.672 c -3.21,-4.437 -6.95,-6.437 -12,-6.437 -9.84,0 -17.32,9.484 -17.32,22 0,12.359 7.23,21.156 17.32,21.156 5.47,0 9.22,-2.359 12,-7.578 v 6.875 m -10.26,-37.766 c 3.56,0 6.95,2.61 8.53,6.625 1.12,2.61 1.64,6.172 1.64,10.438 0,10.172 -4,16.703 -10.27,16.703 -6.17,0 -9.82,-5.75 -9.82,-15.406 0,-5.219 0.53,-9.125 1.65,-12 1.49,-3.922 4.71,-6.36 8.27,-6.36 m 67.65,17.578 c 0.1,-13.046 -7.29,-22.265 -17.92,-22.265 -11.14,0 -19.48,9.656 -19.48,22.703 0,12.266 7.92,20.453 19.65,20.453 8.36,0 14.19,-4.094 17.75,-12.359 l -3.04,-1.657 c -3.56,6.704 -7.22,9.313 -13.05,9.313 -4.44,0 -7.66,-1.828 -9.92,-5.75 -1.56,-2.609 -2.25,-5.656 -2.17,-10.438 h 28.18 m -28.09,-3.734 c 0,-6.094 2.78,-14.797 10.09,-14.797 5.22,0 8.69,4.61 8.69,11.656 0,2.438 -0.78,3.141 -3.56,3.141 h -15.22 m 49.05,-17.234 -15.06,0.953 v 3.75 h 3.14 c 3.29,0.078 3.73,0.609 3.73,4.344 v 24.89 c -0.08,1.297 -0.17,1.828 -0.52,2.266 -0.6,0.781 -2.26,1.125 -6,1.219 h -0.35 v 3.125 h 22.01 v -3.125 h -0.34 c -5.83,-0.188 -6.61,-0.61 -6.61,-3.75 V 724.7 c 0,-4.266 0.61,-8.172 1.56,-10.188 1.83,-3.906 5.73,-6.609 9.48,-6.609 2.27,0 4.88,1.218 6.18,3.047 1.31,1.921 1.92,4.531 1.92,8.703 v 18.187 c -0.1,1.297 -0.17,1.828 -0.53,2.266 -0.61,0.781 -2.35,1.125 -6.08,1.219 h -0.36 v 3.125 h 22.02 v -3.125 H 1385 c -5.75,-0.188 -6.53,-0.61 -6.53,-3.75 V 720.09 c 0,-6.265 -0.27,-7.828 -1.83,-10.797 -2.17,-4.172 -6.51,-6.687 -11.75,-6.687 -5.64,0 -9.9,2.609 -13.73,8.344 v -7.047 m 43.15,56.562 c 7.85,-5.406 11.41,-10.703 11.41,-16.797 0,-5.218 -2.87,-8.609 -7.14,-8.609 -3.22,0 -5.66,2.25 -5.66,5.219 0,3.125 2.36,5.125 6.02,5.125 0.42,0 1.03,0 1.3,-0.078 h 0.26 c 0.44,0 0.61,0.25 0.61,0.781 0,3.656 -2.97,7.734 -8.8,11.828 l 2,2.531"
     id="path14077" />
  <path
     class="Lyrics"
     d="m 1828.44,1176.73 h -31.41 l -0.78,14.71 h 3.49 c 0.69,-7.74 4.08,-11.05 11.04,-10.96 h 7.57 l -23.75,33.67 v 3.13 h 33.84 l 0.61,-15.58 h -3.47 c -0.87,8.53 -4.26,11.92 -12.01,11.85 h -8.88 l 23.75,-33.68 v -3.14 m 46.17,0 -15.06,0.96 v 3.75 h 3.14 c 3.3,0.07 3.74,0.61 3.74,4.34 v 24.89 c -0.08,1.3 -0.18,1.83 -0.52,2.27 -0.61,0.78 -2.27,1.12 -6,1.21 h -0.36 v 3.13 h 22.02 v -3.13 h -0.35 c -5.83,-0.18 -6.61,-0.6 -6.61,-3.75 v -12.87 c 0,-4.27 0.61,-8.17 1.57,-10.19 1.82,-3.9 5.73,-6.61 9.48,-6.61 2.27,0 4.87,1.22 6.17,3.05 1.31,1.92 1.92,4.53 1.92,8.7 v 18.19 c -0.09,1.3 -0.17,1.83 -0.53,2.27 -0.61,0.78 -2.34,1.12 -6.08,1.21 h -0.36 v 3.13 h 22.02 v -3.13 h -0.34 c -5.75,-0.18 -6.53,-0.6 -6.53,-3.75 v -17.48 c 0,-6.27 -0.27,-7.83 -1.83,-10.8 -2.17,-4.17 -6.52,-6.68 -11.75,-6.68 -5.64,0 -9.91,2.61 -13.74,8.34 v -7.05 m 54.57,-6 h 5.56 l 10.87,-14.43 h -3.12 l -10.53,8.78 -10.53,-8.78 h -3.05 l 10.8,14.43 m 21.48,26.97 c 0.09,-13.05 -7.3,-22.26 -17.92,-22.26 -11.14,0 -19.49,9.65 -19.49,22.7 0,12.26 7.93,20.45 19.66,20.45 8.36,0 14.19,-4.09 17.75,-12.36 l -3.05,-1.65 c -3.56,6.7 -7.22,9.31 -13.04,9.31 -4.44,0 -7.66,-1.83 -9.93,-5.75 -1.56,-2.61 -2.25,-5.66 -2.17,-10.44 h 28.19 m -28.09,-3.73 c 0,-6.1 2.78,-14.8 10.09,-14.8 5.22,0 8.69,4.61 8.69,11.66 0,2.43 -0.78,3.14 -3.57,3.14 h -15.21"
     id="path14079" />
  <path
     class="Lyrics"
     d="m 1540.56,723.387 v -43.062 l -16.09,0.953 v 3.75 h 4.17 c 3.31,0.078 3.75,0.609 3.75,4.343 v 48.547 c -0.1,1.219 -0.17,1.75 -0.53,2.188 -0.61,0.781 -2.27,1.125 -6,1.219 h -0.35 v 3.125 h 22.02 v -3.125 h -0.36 c -5.83,-0.188 -6.61,-0.61 -6.61,-3.75 v -8.782 l 5.31,-5.047 10.35,14.532 c 0.43,0.687 0.61,1.125 0.61,1.468 0,1.219 -0.96,1.579 -3.83,1.579 h -1.64 v 3.125 h 22.97 v -3.125 c -4.88,-0.438 -6.63,-1.485 -10.19,-6.016 l -12.36,-16.875 3.92,-3.828 c 5.14,-4.953 8.78,-6.875 14.7,-7.563 v -3.14 h -22.87 v 3.14 h 2.69 c 2.78,0 4.09,0.516 4.09,1.641 0,0.969 -0.61,2 -2,3.406 l -11.75,11.297 m 51.56,-19.484 v -17.219 h -3.56 c -0.87,11.297 -4.7,17.047 -11.75,17.562 v 3.407 h 7.14 v 22.187 c 0,6.078 0.17,8.266 1.05,10.266 1.39,3.64 4.86,5.656 9.9,5.656 7.85,0 12.89,-5.922 12.89,-15.141 0,-0.531 0,-1.14 -0.09,-2 h -3.66 c -0.26,7.829 -2.51,11.829 -6.78,11.829 -2,0 -3.75,-1.047 -4.36,-2.532 -0.51,-1.218 -0.78,-3.39 -0.78,-6.515 v -23.75 h 12.8 v -3.75 h -12.8 m 58.58,20.968 c 0.09,-13.046 -7.3,-22.265 -17.92,-22.265 -11.14,0 -19.49,9.656 -19.49,22.703 0,12.266 7.93,20.453 19.66,20.453 8.36,0 14.19,-4.094 17.75,-12.359 l -3.05,-1.657 c -3.56,6.704 -7.21,9.313 -13.04,9.313 -4.44,0 -7.66,-1.828 -9.92,-5.75 -1.57,-2.609 -2.25,-5.656 -2.18,-10.438 h 28.19 m -28.09,-3.734 c 0,-6.094 2.78,-14.797 10.09,-14.797 5.22,0 8.69,4.61 8.69,11.656 0,2.438 -0.78,3.141 -3.56,3.141 h -15.22"
     id="path14081" />
  <path
     class="Lyrics"
     d="m 1896.26,745.059 15.85,-0.609 v -3.735 h -2.19 c -5.05,-0.187 -5.47,-0.703 -5.47,-6.359 v -30.453 l -16.36,0.953 v 3.75 h 4.44 c 3.3,0.078 3.73,0.609 3.73,4.344 v 10.703 c 0,7.578 -1.82,16.797 -11.39,16.797 -2.7,0 -4.97,-0.954 -6.09,-2.704 -1.13,-1.656 -1.31,-2.515 -1.31,-7.312 v -26.531 l -15.22,0.953 v 3.75 h 3.31 c 3.3,0.078 3.74,0.609 3.74,4.344 v 18.796 c 0,4.438 0.34,6.438 1.65,8.438 2.35,3.562 6.52,5.578 11.75,5.578 5.74,0 9.74,-2.359 13.56,-7.922 v 7.219"
     id="path14083" />
  <path
     class="Lyrics"
     d="m 2055.65,697.903 h 5.56 l 10.88,-14.438 h -3.13 l -10.53,8.781 -10.53,-8.781 h -3.04 l 10.79,14.438 m 14.44,33.75 c -2.78,6.265 -5.75,8.797 -10.27,8.797 -6.96,0 -11.31,-6.36 -11.31,-16.532 0,-10.609 4.27,-17.578 10.7,-17.578 2.61,0 4.88,1.219 4.88,2.61 0,0.265 -0.09,0.531 -0.53,1.046 -1.39,1.657 -1.74,2.516 -1.74,4 0,2.875 2.18,4.875 5.22,4.875 3.14,0 5.32,-2.437 5.32,-5.921 0,-5.907 -5.83,-10.344 -13.58,-10.344 -11.32,0 -19.41,9.219 -19.41,22.265 0,12.36 7.41,20.891 18.19,20.891 7.75,0 12.19,-3.578 15.92,-12.797 l -3.39,-1.312 m 19.16,-49.407 c -2.79,0 -5.05,2.25 -5.05,5.047 0,2.782 2.26,5.047 4.97,5.047 2.87,0 5.12,-2.265 5.12,-5.047 0,-2.797 -2.25,-5.047 -5.04,-5.047 m 4.09,21.657 -16.36,0.953 v 3.75 h 4.44 c 3.31,0.078 3.75,0.609 3.75,4.344 v 24.89 c -0.1,1.297 -0.17,1.828 -0.53,2.266 -0.61,0.781 -2.27,1.125 -6,1.219 h -0.61 v 3.125 h 22.53 v -3.125 h -0.61 c -5.83,-0.188 -6.61,-0.61 -6.61,-3.75 v -33.672"
     id="path14085" />
  <path
     class="Lyrics"
     d="m 1342.78,1176.73 -15.48,0.96 v 3.75 h 3.56 c 3.31,0.07 3.75,0.61 3.75,4.34 v 24.89 c -0.09,1.3 -0.17,1.83 -0.53,2.27 -0.61,0.78 -2.25,1.12 -6,1.21 h -0.35 v 3.13 h 21.93 v -3.13 h -0.35 c -5.75,-0.18 -6.53,-0.6 -6.53,-3.82 v -16.11 c 0,-7.74 4.27,-13.49 9.92,-13.49 4.96,0 7.49,3.58 7.49,10.63 v 19.39 c -0.1,1.14 -0.17,1.75 -0.61,2.19 -0.52,0.78 -2.27,1.12 -6,1.21 h -0.36 v 3.13 h 22.01 v -3.13 h -0.34 c -5.75,-0.18 -6.53,-0.6 -6.53,-3.75 V 1195 c 0,-8.69 3.92,-14.27 10.02,-14.27 4.95,0 7.39,3.75 7.39,11.58 v 18.36 c -0.1,1.22 -0.18,1.83 -0.61,2.27 -0.52,0.78 -2.27,1.12 -6,1.21 h -0.35 v 3.13 h 22 v -3.13 h -0.34 c -5.74,-0.18 -6.53,-0.6 -6.53,-3.82 v -19.75 c 0,-5.41 -0.52,-7.24 -2.78,-10.19 -2.52,-3.22 -6.1,-4.95 -10.27,-4.95 -5.66,0 -9.83,2.68 -13.56,8.68 -1.49,-5.22 -6.19,-8.68 -12.02,-8.68 -5.31,0 -9.14,2.51 -12.53,8 v -6.71 m 99.97,20.97 c 0.09,-13.05 -7.3,-22.26 -17.92,-22.26 -11.14,0 -19.49,9.65 -19.49,22.7 0,12.26 7.93,20.45 19.66,20.45 8.36,0 14.19,-4.09 17.75,-12.36 l -3.05,-1.65 c -3.56,6.7 -7.22,9.31 -13.04,9.31 -4.44,0 -7.66,-1.83 -9.93,-5.75 -1.56,-2.61 -2.25,-5.66 -2.17,-10.44 h 28.19 m -28.09,-3.73 c 0,-6.1 2.78,-14.8 10.09,-14.8 5.22,0 8.69,4.61 8.69,11.66 0,2.43 -0.78,3.14 -3.56,3.14 h -15.22"
     id="path14087" />
  <path
     class="Lyrics"
     d="m 2430.99,716.528 h 9.82 c 7.83,0 11.93,-0.61 15.49,-2.266 6.09,-2.969 9.58,-8.531 9.58,-15.406 0,-13.828 -12.19,-17.219 -23.58,-17.219 h -30.46 v 4.078 h 1.57 c 4.97,0.094 6.61,0.36 7.31,1.219 0.52,0.781 0.52,0.969 0.52,5.406 v 41.406 c 0,4.438 0,4.61 -0.52,5.391 -0.7,0.875 -2.34,1.219 -7.31,1.219 h -1.57 v 4.094 h 29.24 v -4.094 h -2.27 c -4.95,0 -6.61,-0.344 -7.31,-1.219 -0.51,-0.781 -0.51,-0.953 -0.51,-5.391 v -17.218 m 0,-4.094 v -22.281 c 0,-4 0.43,-4.438 5.31,-4.438 h 5.56 c 9.05,0 13.31,4.266 13.31,13.485 0,8.968 -4.43,13.234 -13.65,13.234 h -10.53 m 51.9,-14.531 h 3.58 l 13.83,-8.438 c 1.29,-0.875 2.17,-2.172 2.17,-3.39 0,-1.75 -1.3,-3.047 -3.05,-3.047 -1.29,0 -2.08,0.437 -4.26,2.687 l -12.27,12.188 m 21.85,18.531 c 0,-5.484 -0.96,-8.266 -3.49,-10.359 -2.87,-2.344 -7.12,-3.469 -12.7,-3.469 -9.83,0 -16.97,4.609 -16.97,10.953 0,3.219 2,5.312 5.05,5.312 2.79,0 4.7,-1.828 4.7,-4.437 0,-1.125 -0.44,-2.344 -1.31,-3.563 -0.52,-0.609 -0.6,-0.796 -0.6,-1.218 0,-1.75 3.47,-3.313 7.66,-3.313 2.78,0 5.83,0.875 7.22,2.172 1.64,1.391 2.25,3.484 2.25,7.406 v 3.391 c -9.05,1.562 -11.91,2.266 -16.17,3.906 -7.58,2.797 -11.14,6.797 -11.14,12.36 0,6.265 4.87,10.187 12.6,10.187 6.02,0 11.41,-2.437 15.15,-6.875 1.39,4.438 3.57,6.172 7.65,6.172 3.92,0 8.02,-2.531 8.02,-5.047 0,-0.609 -0.36,-1.047 -0.88,-1.047 -0.34,0 -0.7,0.094 -1.31,0.344 -1.22,0.531 -1.73,0.609 -2.44,0.609 -2.42,0 -3.29,-1.562 -3.29,-6 v -17.484 m -8.19,10.609 c 0,5.219 -0.25,6.438 -1.74,8.703 -2.17,3.219 -6.09,5.391 -9.92,5.391 -4,0 -6.87,-2.859 -6.87,-6.781 0,-3.656 1.82,-6.266 5.65,-8.094 2.71,-1.219 6.1,-2.078 12.88,-3.219 v 4 m 34.26,-23.14 -15.06,0.953 v 3.75 h 3.14 c 3.3,0.078 3.74,0.609 3.74,4.344 v 24.89 c -0.08,1.297 -0.18,1.828 -0.52,2.266 -0.61,0.781 -2.27,1.125 -6,1.219 h -0.36 v 3.125 h 22.02 v -3.125 h -0.35 c -5.83,-0.188 -6.61,-0.61 -6.61,-3.75 V 724.7 c 0,-4.266 0.61,-8.172 1.57,-10.188 1.82,-3.906 5.73,-6.609 9.48,-6.609 2.27,0 4.88,1.218 6.17,3.047 1.31,1.921 1.92,4.531 1.92,8.703 v 18.187 c -0.09,1.297 -0.17,1.828 -0.53,2.266 -0.61,0.781 -2.34,1.125 -6.08,1.219 h -0.35 v 3.125 H 2565 v -3.125 h -0.34 c -5.75,-0.188 -6.53,-0.61 -6.53,-3.75 V 720.09 c 0,-6.265 -0.27,-7.828 -1.83,-10.797 -2.17,-4.172 -6.52,-6.687 -11.75,-6.687 -5.64,0 -9.91,2.609 -13.74,8.344 v -7.047 m 43.16,56.562 c 7.84,-5.406 11.41,-10.703 11.41,-16.797 0,-5.218 -2.88,-8.609 -7.14,-8.609 -3.22,0 -5.66,2.25 -5.66,5.219 0,3.125 2.36,5.125 6.01,5.125 0.43,0 1.04,0 1.3,-0.078 h 0.27 c 0.43,0 0.61,0.25 0.61,0.781 0,3.656 -2.97,7.734 -8.8,11.828 l 2,2.531"
     id="path14089" />
  <path
     class="Lyrics"
     d="m 2216.82,703.903 -15.06,0.953 v 3.75 h 3.14 c 3.3,0.078 3.73,0.609 3.73,4.344 v 24.89 c -0.07,1.297 -0.17,1.828 -0.51,2.266 -0.61,0.781 -2.27,1.125 -6,1.219 h -0.36 v 3.125 h 22.01 v -3.125 h -0.34 c -5.83,-0.188 -6.61,-0.61 -6.61,-3.75 V 724.7 c 0,-4.266 0.61,-8.172 1.56,-10.188 1.83,-3.906 5.74,-6.609 9.49,-6.609 2.26,0 4.87,1.218 6.17,3.047 1.31,1.921 1.92,4.531 1.92,8.703 v 18.187 c -0.09,1.297 -0.17,1.828 -0.53,2.266 -0.61,0.781 -2.34,1.125 -6.08,1.219 h -0.36 v 3.125 h 22.02 v -3.125 h -0.34 c -5.75,-0.188 -6.54,-0.61 -6.54,-3.75 V 720.09 c 0,-6.265 -0.26,-7.828 -1.82,-10.797 -2.18,-4.172 -6.52,-6.687 -11.75,-6.687 -5.64,0 -9.91,2.609 -13.74,8.344 v -7.047 m 49.42,-21.657 c -2.78,0 -5.04,2.25 -5.04,5.047 0,2.782 2.26,5.047 4.97,5.047 2.87,0 5.12,-2.265 5.12,-5.047 0,-2.797 -2.25,-5.047 -5.05,-5.047 m 4.1,21.657 -16.36,0.953 v 3.75 h 4.44 c 3.31,0.078 3.75,0.609 3.75,4.344 v 24.89 c -0.1,1.297 -0.18,1.828 -0.54,2.266 -0.61,0.781 -2.26,1.125 -6,1.219 h -0.61 v 3.125 h 22.54 v -3.125 h -0.61 c -5.83,-0.188 -6.61,-0.61 -6.61,-3.75 v -33.672 m 26.83,-23.578 -16.1,0.953 v 3.75 h 4.27 c 3.22,0.078 3.65,0.609 3.65,4.343 v 48.469 c -0.09,1.297 -0.18,1.828 -0.53,2.266 -0.61,0.781 -2.26,1.125 -6,1.219 h -0.61 v 3.125 h 22.53 v -3.125 h -0.61 c -5.82,-0.188 -6.6,-0.61 -6.6,-3.75 v -57.25"
     id="path14091" />
  <path
     class="Lyrics"
     d="m 775.569,1176.73 -15.484,0.96 v 3.75 h 3.563 c 3.312,0.07 3.75,0.61 3.75,4.34 v 24.89 c -0.094,1.3 -0.172,1.83 -0.532,2.27 -0.609,0.78 -2.25,1.12 -6,1.21 h -0.343 v 3.13 h 21.921 v -3.13 h -0.343 c -5.75,-0.18 -6.532,-0.6 -6.532,-3.82 v -16.11 c 0,-7.74 4.266,-13.49 9.922,-13.49 4.953,0 7.485,3.58 7.485,10.63 v 19.39 c -0.094,1.14 -0.172,1.75 -0.61,2.19 -0.515,0.78 -2.265,1.12 -6,1.21 h -0.359 v 3.13 h 22.016 v -3.13 h -0.344 c -5.75,-0.18 -6.531,-0.6 -6.531,-3.75 V 1195 c 0,-8.69 3.921,-14.27 10.015,-14.27 4.953,0 7.391,3.75 7.391,11.58 v 18.36 c -0.094,1.22 -0.172,1.83 -0.61,2.27 -0.515,0.78 -2.265,1.12 -6,1.21 h -0.343 v 3.13 h 22 v -3.13 h -0.344 c -5.734,-0.18 -6.531,-0.6 -6.531,-3.82 v -19.75 c 0,-5.41 -0.516,-7.24 -2.782,-10.19 -2.515,-3.22 -6.093,-4.95 -10.265,-4.95 -5.656,0 -9.828,2.68 -13.563,8.68 -1.484,-5.22 -6.187,-8.68 -12.015,-8.68 -5.313,0 -9.141,2.51 -12.532,8 v -6.71 m 99.969,20.97 c 0.094,-13.05 -7.297,-22.26 -17.922,-22.26 -11.14,0 -19.484,9.65 -19.484,22.7 0,12.26 7.922,20.45 19.656,20.45 8.36,0 14.188,-4.09 17.75,-12.36 l -3.047,-1.65 c -3.562,6.7 -7.218,9.31 -13.047,9.31 -4.437,0 -7.656,-1.83 -9.921,-5.75 -1.563,-2.61 -2.25,-5.66 -2.172,-10.44 h 28.187 m -28.094,-3.73 c 0,-6.1 2.782,-14.8 10.094,-14.8 5.219,0 8.688,4.61 8.688,11.66 0,2.43 -0.782,3.14 -3.563,3.14 h -15.219"
     id="path14093" />
  <path
     class="Lyrics"
     d="m 2409.54,1153.15 -16.1,0.96 v 3.75 h 4.17 c 3.3,0.08 3.74,0.61 3.74,4.34 v 48.55 c -0.08,1.22 -0.17,1.75 -0.52,2.19 -0.61,0.78 -2.26,1.12 -6,1.21 h -0.36 v 3.13 h 22.02 v -3.13 h -0.34 c -5.83,-0.18 -6.61,-0.6 -6.61,-3.75 v -12.87 c 0,-4.27 0.61,-8.17 1.56,-10.19 1.9,-3.9 5.73,-6.61 9.48,-6.61 2.27,0 4.88,1.32 6.1,3.05 1.39,1.92 2,4.53 2,8.8 v 18.17 c -0.1,1.22 -0.18,1.75 -0.53,2.19 -0.61,0.78 -2.35,1.12 -6.08,1.21 h -0.36 v 3.13 h 22.01 v -3.13 h -0.34 c -5.75,-0.18 -6.53,-0.6 -6.53,-3.75 v -17.48 c 0,-6.27 -0.27,-7.83 -1.83,-10.8 -2.17,-4.25 -6.52,-6.68 -11.75,-6.68 -5.64,0 -9.83,2.51 -13.73,8.34 v -30.63 m 57.51,22.29 c -10.7,0 -18.97,9.48 -18.97,21.65 0,11.92 8.36,21.5 18.8,21.5 10.44,0 18.8,-9.58 18.8,-21.58 0,-11.92 -8.36,-21.57 -18.63,-21.57 m 0,3.73 c 6.1,0 9.49,6.36 9.49,17.84 0,11.57 -3.39,17.83 -9.66,17.83 -6.27,0 -9.66,-6.26 -9.66,-17.75 0,-11.83 3.32,-17.92 9.83,-17.92 m 33,28.45 c -3.05,0 -5.48,2.44 -5.48,5.39 0,3.05 2.43,5.49 5.39,5.49 3.04,0 5.48,-2.44 5.48,-5.49 0,-2.95 -2.44,-5.39 -5.39,-5.39"
     id="path14095" />
  <path
     class="Lyrics"
     d="m 958.759,1189.26 c 0,-5.48 -0.953,-8.26 -3.484,-10.36 -2.875,-2.34 -7.125,-3.46 -12.704,-3.46 -9.828,0 -16.968,4.61 -16.968,10.95 0,3.22 2,5.31 5.047,5.31 2.796,0 4.703,-1.83 4.703,-4.44 0,-1.12 -0.438,-2.34 -1.313,-3.56 -0.515,-0.61 -0.594,-0.8 -0.594,-1.22 0,-1.75 3.469,-3.31 7.657,-3.31 2.781,0 5.828,0.88 7.218,2.17 1.641,1.39 2.25,3.49 2.25,7.41 v 3.39 c -9.046,1.56 -11.906,2.26 -16.171,3.91 -7.579,2.79 -11.141,6.79 -11.141,12.35 0,6.27 4.875,10.19 12.609,10.19 6.016,0 11.407,-2.44 15.141,-6.87 1.391,4.43 3.578,6.17 7.656,6.17 3.922,0 8.016,-2.53 8.016,-5.05 0,-0.61 -0.36,-1.04 -0.875,-1.04 -0.344,0 -0.703,0.09 -1.313,0.34 -1.218,0.53 -1.734,0.61 -2.437,0.61 -2.422,0 -3.297,-1.56 -3.297,-6 v -17.49 m -8.188,10.61 c 0,5.22 -0.25,6.44 -1.734,8.71 -2.172,3.22 -6.094,5.39 -9.922,5.39 -4,0 -6.875,-2.86 -6.875,-6.78 0,-3.66 1.828,-6.27 5.656,-8.1 2.704,-1.22 6.094,-2.08 12.875,-3.22 v 4"
     id="path14097" />
  <polyline
     class="LyricsLineSegment"
     fill="none"
     stroke="#000000"
     stroke-width="3.64"
     stroke-linejoin="bevel"
     points="1964.51,724.178 1986.33,724.178"
     id="polyline14099" />
  <polyline
     class="LyricsLineSegment"
     fill="none"
     stroke="#000000"
     stroke-width="3.64"
     stroke-linejoin="bevel"
     points="1653.07,724.178 1667.61,724.178"
     id="polyline14101" />
  <polyline
     class="LyricsLineSegment"
     fill="none"
     stroke="#000000"
     stroke-width="3.64"
     stroke-linejoin="bevel"
     points="2140.51,724.178 2162.32,724.178"
     id="polyline14103" />
  <polyline
     class="LyricsLineSegment"
     fill="none"
     stroke="#000000"
     stroke-width="3.64"
     stroke-linejoin="bevel"
     points="798.106,724.178 819.922,724.178"
     id="polyline14105" />
  <polyline
     class="LyricsLineSegment"
     fill="none"
     stroke="#000000"
     stroke-width="3.64"
     stroke-linejoin="bevel"
     points="742.057,1197.01 758.267,1197.01"
     id="polyline14107" />
  <polyline
     class="LyricsLineSegment"
     fill="none"
     stroke="#000000"
     stroke-width="3.64"
     stroke-linejoin="bevel"
     points="555.732,1197.01 577.548,1197.01"
     id="polyline14109" />
  <polyline
     class="LyricsLineSegment"
     fill="none"
     stroke="#000000"
     stroke-width="3.64"
     stroke-linejoin="bevel"
     points="1310.94,1197.01 1325.48,1197.01"
     id="polyline14111" />
  <polyline
     class="LyricsLineSegment"
     fill="none"
     stroke="#000000"
     stroke-width="3.64"
     stroke-linejoin="bevel"
     points="2161.26,1197.01 2183.08,1197.01"
     id="polyline14113" />
  <polyline
     class="LyricsLineSegment"
     fill="none"
     stroke="#000000"
     stroke-width="3.64"
     stroke-linejoin="bevel"
     points="1168.29,1197.01 1190.1,1197.01"
     id="polyline14115" />
  <path
     class="NoteDot"
     d="m 491.844,964.98 c 0,4.06778 3.20423,7.272 7.272,7.272 4.06778,0 7.272,-3.20422 7.272,-7.272 0,-4.06778 -3.20422,-7.272 -7.272,-7.272 -4.06777,0 -7.272,3.20422 -7.272,7.272"
     id="path14117"
     style="stroke-width:1.4544" />
  <path
     class="NoteDot"
     d="m 2482.43,1037.7 c 0,4.0678 3.2042,7.272 7.272,7.272 4.0678,0 7.272,-3.2042 7.272,-7.272 0,-4.0678 -3.2042,-7.272 -7.272,-7.272 -4.0678,0 -7.272,3.2042 -7.272,7.272"
     id="path14119"
     style="stroke-width:1.4544" />
  <path
     class="NoteDot"
     d="m 2529.71,539.555 c 0,4.06778 3.2042,7.272 7.272,7.272 4.0678,0 7.272,-3.20422 7.272,-7.272 0,-4.06778 -3.2042,-7.272 -7.272,-7.272 -4.0678,0 -7.272,3.20422 -7.272,7.272"
     id="path14121"
     style="stroke-width:1.4544" />
</svg>
