<?xml version="1.0" encoding="UTF-8" standalone="no"?>
<svg
   width="210.058mm"
   height="129.20117mm"
   viewBox="0 0 2977.2 1831.1977"
   version="1.2"
   id="svg15521"
   sodipodi:docname="velikonocni_obeti.svg"
   inkscape:version="1.2.2 (b0a8486541, 2022-12-01)"
   xmlns:inkscape="http://www.inkscape.org/namespaces/inkscape"
   xmlns:sodipodi="http://sodipodi.sourceforge.net/DTD/sodipodi-0.dtd"
   xmlns="http://www.w3.org/2000/svg"
   xmlns:svg="http://www.w3.org/2000/svg">
  <defs
     id="defs15525" />
  <sodipodi:namedview
     id="namedview15523"
     pagecolor="#ffffff"
     bordercolor="#000000"
     borderopacity="0.25"
     inkscape:showpageshadow="2"
     inkscape:pageopacity="0.0"
     inkscape:pagecheckerboard="0"
     inkscape:deskcolor="#d1d1d1"
     inkscape:document-units="mm"
     showgrid="false"
     inkscape:zoom="0.59480041"
     inkscape:cx="548.08301"
     inkscape:cy="656.52275"
     inkscape:window-width="1920"
     inkscape:window-height="1178"
     inkscape:window-x="0"
     inkscape:window-y="22"
     inkscape:window-maximized="1"
     inkscape:current-layer="svg15521" />
  <title
     id="title15155">Velikonoční oběti</title>
  <desc
     id="desc15157">Generated by MuseScore Studio 4.6.3</desc>
  <polyline
     class="StaffLines"
     fill="none"
     stroke="#000000"
     stroke-width="4"
     stroke-linejoin="bevel"
     points="340.2,462.95 2818.8,462.95"
     id="polyline15159" />
  <polyline
     class="StaffLines"
     fill="none"
     stroke="#000000"
     stroke-width="4"
     stroke-linejoin="bevel"
     points="340.2,499.31 2818.8,499.31"
     id="polyline15161" />
  <polyline
     class="StaffLines"
     fill="none"
     stroke="#000000"
     stroke-width="4"
     stroke-linejoin="bevel"
     points="340.2,535.67 2818.8,535.67"
     id="polyline15163" />
  <polyline
     class="StaffLines"
     fill="none"
     stroke="#000000"
     stroke-width="4"
     stroke-linejoin="bevel"
     points="340.2,572.03 2818.8,572.03"
     id="polyline15165" />
  <polyline
     class="StaffLines"
     fill="none"
     stroke="#000000"
     stroke-width="4"
     stroke-linejoin="bevel"
     points="340.2,608.39 2818.8,608.39"
     id="polyline15167" />
  <polyline
     class="StaffLines"
     fill="none"
     stroke="#000000"
     stroke-width="4"
     stroke-linejoin="bevel"
     points="158.4,920.695 2818.8,920.695"
     id="polyline15169" />
  <polyline
     class="StaffLines"
     fill="none"
     stroke="#000000"
     stroke-width="4"
     stroke-linejoin="bevel"
     points="158.4,957.055 2818.8,957.055"
     id="polyline15171" />
  <polyline
     class="StaffLines"
     fill="none"
     stroke="#000000"
     stroke-width="4"
     stroke-linejoin="bevel"
     points="158.4,993.415 2818.8,993.415"
     id="polyline15173" />
  <polyline
     class="StaffLines"
     fill="none"
     stroke="#000000"
     stroke-width="4"
     stroke-linejoin="bevel"
     points="158.4,1029.78 2818.8,1029.78"
     id="polyline15175" />
  <polyline
     class="StaffLines"
     fill="none"
     stroke="#000000"
     stroke-width="4"
     stroke-linejoin="bevel"
     points="158.4,1066.14 2818.8,1066.14"
     id="polyline15177" />
  <polyline
     class="StaffLines"
     fill="none"
     stroke="#000000"
     stroke-width="4"
     stroke-linejoin="bevel"
     points="158.4,1378.44 2818.8,1378.44"
     id="polyline15179" />
  <polyline
     class="StaffLines"
     fill="none"
     stroke="#000000"
     stroke-width="4"
     stroke-linejoin="bevel"
     points="158.4,1414.8 2818.8,1414.8"
     id="polyline15181" />
  <polyline
     class="StaffLines"
     fill="none"
     stroke="#000000"
     stroke-width="4"
     stroke-linejoin="bevel"
     points="158.4,1451.16 2818.8,1451.16"
     id="polyline15183" />
  <polyline
     class="StaffLines"
     fill="none"
     stroke="#000000"
     stroke-width="4"
     stroke-linejoin="bevel"
     points="158.4,1487.52 2818.8,1487.52"
     id="polyline15185" />
  <polyline
     class="StaffLines"
     fill="none"
     stroke="#000000"
     stroke-width="4"
     stroke-linejoin="bevel"
     points="158.4,1523.88 2818.8,1523.88"
     id="polyline15187" />
  <path
     class="Text"
     d="m 1102.32,223.353 -20.14,-51.047 c -0.55,-1.422 -0.87,-2.859 -0.87,-3.406 0,-1.984 1.87,-2.75 6.82,-2.75 h 4.4 v -5.172 h -34.32 v 5.172 h 2.19 c 5.06,0.109 6.72,1.312 8.48,6.156 l 27.83,69.75 h 4.39 l 25.32,-65.125 c 3.29,-8.578 5.61,-10.562 11.98,-10.781 h 1.09 v -5.172 h -29.81 v 5.172 h 2.1 c 5.6,0 8.9,2.203 8.9,5.719 0,1.547 -0.55,3.953 -1.31,6.156 l -17.05,45.328 m 77.92,-7.703 c 0.11,-16.5 -9.25,-28.156 -22.67,-28.156 -14.08,0 -24.64,12.203 -24.64,28.703 0,15.515 10.02,25.859 24.86,25.859 10.56,0 17.94,-5.172 22.45,-15.625 l -3.86,-2.094 c -4.5,8.469 -9.12,11.766 -16.5,11.766 -5.6,0 -9.67,-2.297 -12.53,-7.25 -1.98,-3.297 -2.86,-7.156 -2.75,-13.203 h 35.64 m -35.53,-4.734 c 0,-7.704 3.52,-18.704 12.75,-18.704 6.61,0 11,5.844 11,14.75 0,3.079 -0.98,3.954 -4.5,3.954 h -19.25 m 58.82,-51.594 -20.35,1.219 v 4.734 h 5.39 c 4.06,0.109 4.61,0.766 4.61,5.5 v 61.266 c -0.11,1.656 -0.22,2.312 -0.65,2.859 -0.77,0.984 -2.86,1.437 -7.6,1.547 h -0.76 v 3.953 h 28.48 v -3.953 h -0.77 c -7.35,-0.235 -8.35,-0.781 -8.35,-4.735 v -72.39 m 30.04,2.422 c -3.51,0 -6.37,2.859 -6.37,6.39 0,3.516 2.86,6.375 6.26,6.375 3.64,0 6.5,-2.859 6.5,-6.375 0,-3.531 -2.86,-6.39 -6.39,-6.39 m 5.17,27.39 -20.67,1.219 v 4.734 h 5.61 c 4.17,0.11 4.72,0.766 4.72,5.5 v 31.454 c -0.11,1.656 -0.22,2.312 -0.66,2.859 -0.76,0.984 -2.86,1.437 -7.59,1.547 h -0.77 v 3.953 h 28.5 v -3.953 h -0.78 c -7.36,-0.235 -8.36,-0.781 -8.36,-4.735 v -42.578 m 34.24,24.641 v -54.453 l -20.35,1.219 v 4.734 h 5.27 c 4.19,0.109 4.73,0.766 4.73,5.5 v 61.375 c -0.1,1.547 -0.21,2.203 -0.65,2.75 -0.77,0.984 -2.86,1.437 -7.6,1.547 h -0.43 v 3.953 h 27.83 v -3.953 h -0.44 c -7.38,-0.235 -8.36,-0.781 -8.36,-4.735 v -11.109 l 6.7,-6.391 13.1,18.375 c 0.54,0.875 0.76,1.438 0.76,1.875 0,1.532 -1.2,1.985 -4.83,1.985 h -2.09 v 3.953 h 29.05 v -3.953 c -6.18,-0.563 -8.38,-1.875 -12.88,-7.594 l -15.62,-21.344 4.95,-4.843 c 6.48,-6.266 11.11,-8.688 18.59,-9.563 v -3.969 h -28.93 v 3.969 h 3.4 c 3.53,0 5.17,0.656 5.17,2.094 0,1.203 -0.76,2.515 -2.53,4.281 l -14.84,14.297 m 68.83,-26.281 c -13.53,0 -23.99,11.984 -23.99,27.39 0,15.063 10.56,27.172 23.77,27.172 13.2,0 23.76,-12.109 23.76,-27.281 0,-15.078 -10.56,-27.281 -23.54,-27.281 m 0,4.718 c 7.7,0 11.98,8.032 11.98,22.563 0,14.625 -4.28,22.547 -12.2,22.547 -7.92,0 -12.21,-7.922 -12.21,-22.438 0,-14.968 4.18,-22.672 12.43,-22.672 m 49.28,-3.078 -19.03,1.219 v 4.734 h 3.97 c 4.17,0.11 4.71,0.766 4.71,5.5 v 31.454 c -0.11,1.656 -0.21,2.312 -0.65,2.859 -0.77,0.984 -2.86,1.437 -7.6,1.547 h -0.43 v 3.953 h 27.82 v -3.953 h -0.43 c -7.38,-0.235 -8.36,-0.781 -8.36,-4.735 v -16.281 c 0,-5.39 0.76,-10.344 1.98,-12.875 2.31,-4.953 7.25,-8.359 11.99,-8.359 2.86,0 6.15,1.547 7.81,3.859 1.66,2.406 2.42,5.719 2.42,11 v 22.985 c -0.11,1.656 -0.22,2.312 -0.66,2.859 -0.78,0.984 -2.98,1.437 -7.7,1.547 h -0.44 v 3.953 h 27.83 v -3.953 h -0.44 c -7.26,-0.235 -8.25,-0.781 -8.25,-4.735 v -22.109 c 0,-7.922 -0.34,-9.906 -2.31,-13.641 -2.75,-5.281 -8.25,-8.468 -14.86,-8.468 -7.14,0 -12.53,3.297 -17.37,10.562 v -8.922 m 72.72,-1.64 c -13.53,0 -23.99,11.984 -23.99,27.39 0,15.063 10.56,27.172 23.77,27.172 13.2,0 23.76,-12.109 23.76,-27.281 0,-15.078 -10.56,-27.281 -23.54,-27.281 m 0,4.718 c 7.7,0 11.98,8.032 11.98,22.563 0,14.625 -4.28,22.547 -12.2,22.547 -7.92,0 -12.21,-7.922 -12.21,-22.438 0,-14.968 4.18,-22.672 12.43,-22.672 m 51.59,-10.656 h 7.03 l 13.75,-18.265 h -3.95 l -13.31,11.109 -13.32,-11.109 h -3.84 l 13.64,18.265 m 18.25,42.672 c -3.52,7.922 -7.25,11.109 -12.97,11.109 -8.8,0 -14.3,-8.031 -14.3,-20.89 0,-13.422 5.4,-22.235 13.52,-22.235 3.31,0 6.17,1.547 6.17,3.313 0,0.328 -0.11,0.656 -0.67,1.312 -1.75,2.094 -2.19,3.188 -2.19,5.063 0,3.625 2.75,6.156 6.6,6.156 3.97,0 6.72,-3.078 6.72,-7.469 0,-7.484 -7.38,-13.093 -17.18,-13.093 -14.29,0 -24.53,11.656 -24.53,28.156 0,15.625 9.36,26.406 23,26.406 9.78,0 15.39,-4.515 20.13,-16.172 l -4.3,-1.656 m 28.44,-35.094 -19.03,1.219 v 4.734 h 3.97 c 4.17,0.11 4.71,0.766 4.71,5.5 v 31.454 c -0.11,1.656 -0.21,2.312 -0.65,2.859 -0.77,0.984 -2.86,1.437 -7.6,1.547 h -0.43 v 3.953 h 27.82 v -3.953 h -0.43 c -7.38,-0.235 -8.36,-0.781 -8.36,-4.735 v -16.281 c 0,-5.39 0.76,-10.344 1.98,-12.875 2.31,-4.953 7.25,-8.359 11.99,-8.359 2.86,0 6.15,1.547 7.81,3.859 1.66,2.406 2.42,5.719 2.42,11 v 22.985 c -0.11,1.656 -0.22,2.312 -0.66,2.859 -0.78,0.984 -2.98,1.437 -7.7,1.547 h -0.44 v 3.953 h 27.83 v -3.953 h -0.44 c -7.26,-0.235 -8.25,-0.781 -8.25,-4.735 v -22.109 c 0,-7.922 -0.34,-9.906 -2.31,-13.641 -2.75,-5.281 -8.25,-8.468 -14.86,-8.468 -7.14,0 -12.53,3.297 -17.37,10.562 v -8.922 m 54.01,-7.578 h 4.52 l 17.48,-10.672 c 1.66,-1.109 2.75,-2.75 2.75,-4.297 0,-2.203 -1.64,-3.843 -3.84,-3.843 -1.77,0 -2.64,0.547 -5.5,3.406 l -15.41,15.406 m 13.64,7.578 -20.67,1.219 v 4.734 h 5.61 c 4.17,0.11 4.72,0.766 4.72,5.5 v 31.454 c -0.11,1.546 -0.22,2.312 -0.66,2.859 -0.76,0.984 -2.86,1.437 -7.59,1.547 h -0.77 v 3.953 h 28.5 v -3.953 h -0.78 c -7.36,-0.235 -8.36,-0.781 -8.36,-4.735 v -42.578 m 71.07,-1.64 c -13.53,0 -23.99,11.984 -23.99,27.39 0,15.063 10.56,27.172 23.77,27.172 13.2,0 23.76,-12.109 23.76,-27.281 0,-15.078 -10.56,-27.281 -23.54,-27.281 m 0,4.718 c 7.7,0 11.98,8.032 11.98,22.563 0,14.625 -4.28,22.547 -12.2,22.547 -7.92,0 -12.21,-7.922 -12.21,-22.438 0,-14.968 4.18,-22.672 12.43,-22.672 m 47.07,-32.89 -18.92,1.219 v 4.734 h 3.86 c 4.17,0.109 4.72,0.766 4.72,5.5 v 42.781 c 0,15.297 -0.66,23.656 -1.97,28.391 h 4.17 l 5.39,-8.594 c 4.52,5.953 9.69,8.703 16.5,8.703 13.65,0 23.66,-11.672 23.66,-27.609 0,-15.844 -9.25,-26.953 -22.44,-26.953 -6.72,0 -10.78,2.312 -14.97,8.578 v -36.75 m 12.99,33.781 c 8.25,0 12.87,8.031 12.87,22.438 0,13.968 -4.51,21.781 -12.54,21.781 -8.69,0 -13.86,-8.031 -13.86,-21.563 0,-14.734 4.73,-22.656 13.53,-22.656 m 52.2,-11.547 h 7.03 l 13.75,-18.265 h -3.95 l -13.31,11.109 -13.31,-11.109 h -3.85 l 13.64,18.265 m 27.17,34.094 c 0.11,-16.5 -9.25,-28.156 -22.67,-28.156 -14.08,0 -24.64,12.203 -24.64,28.703 0,15.515 10.02,25.859 24.86,25.859 10.56,0 17.94,-5.172 22.45,-15.625 l -3.86,-2.094 c -4.5,8.469 -9.12,11.766 -16.5,11.766 -5.6,0 -9.67,-2.297 -12.53,-7.25 -1.98,-3.297 -2.86,-7.156 -2.75,-13.203 h 35.64 m -35.53,-4.734 c 0,-7.704 3.52,-18.704 12.75,-18.704 6.61,0 11,5.844 11,14.75 0,3.079 -0.98,3.954 -4.5,3.954 h -19.25 m 60.72,-21.782 v -21.781 h -4.51 c -1.1,14.313 -5.94,21.563 -14.85,22.234 v 4.282 h 9.02 v 28.047 c 0,7.703 0.22,10.453 1.31,12.984 1.77,4.625 6.17,7.156 12.55,7.156 9.9,0 16.28,-7.484 16.28,-19.14 0,-0.672 0,-1.438 -0.11,-2.532 h -4.63 c -0.32,9.891 -3.18,14.953 -8.57,14.953 -2.54,0 -4.74,-1.312 -5.5,-3.187 -0.66,-1.547 -0.99,-4.297 -0.99,-8.25 v -30.031 h 16.17 v -4.735 h -16.17 m 39.14,-27.39 c -3.51,0 -6.37,2.859 -6.37,6.39 0,3.516 2.86,6.375 6.26,6.375 3.64,0 6.5,-2.859 6.5,-6.375 0,-3.531 -2.86,-6.39 -6.39,-6.39 m 5.17,27.39 -20.67,1.219 v 4.734 h 5.61 c 4.17,0.11 4.72,0.766 4.72,5.5 v 31.454 c -0.11,1.656 -0.22,2.312 -0.66,2.859 -0.76,0.984 -2.86,1.437 -7.59,1.547 h -0.77 v 3.953 h 28.5 v -3.953 h -0.78 c -7.36,-0.235 -8.36,-0.781 -8.36,-4.735 v -42.578"
     id="path15189" />
  <polyline
     class="BarLine"
     fill="none"
     stroke="#000000"
     stroke-width="6.54"
     stroke-linejoin="bevel"
     points="2782.08,1376.44 2782.08,1525.88"
     id="polyline15191" />
  <polyline
     class="BarLine"
     fill="none"
     stroke="#000000"
     stroke-width="20"
     stroke-linejoin="bevel"
     points="2808.8,1376.44 2808.8,1525.88"
     id="polyline15193" />
  <polyline
     class="BarLine"
     fill="none"
     stroke="#000000"
     stroke-width="6.54"
     stroke-linejoin="bevel"
     points="870.059,918.695 870.059,1068.13"
     id="polyline15195" />
  <polyline
     class="BarLine"
     fill="none"
     stroke="#000000"
     stroke-width="6.54"
     stroke-linejoin="bevel"
     points="2368.96,918.695 2368.96,1068.13"
     id="polyline15197" />
  <polyline
     class="BarLine"
     fill="none"
     stroke="#000000"
     stroke-width="6.54"
     stroke-linejoin="bevel"
     points="807.693,1376.44 807.693,1525.88"
     id="polyline15199" />
  <polyline
     class="BarLine"
     fill="none"
     stroke="#000000"
     stroke-width="6.54"
     stroke-linejoin="bevel"
     points="2477.4,1376.44 2477.4,1525.88"
     id="polyline15201" />
  <polyline
     class="BarLine"
     fill="none"
     stroke="#000000"
     stroke-width="6.54"
     stroke-linejoin="bevel"
     points="1138.98,460.95 1138.98,610.39"
     id="polyline15203" />
  <polyline
     class="BarLine"
     fill="none"
     stroke="#000000"
     stroke-width="6.54"
     stroke-linejoin="bevel"
     points="2815.53,918.695 2815.53,1068.13"
     id="polyline15205" />
  <polyline
     class="BarLine"
     fill="none"
     stroke="#000000"
     stroke-width="6.54"
     stroke-linejoin="bevel"
     points="2026.75,1376.44 2026.75,1525.88"
     id="polyline15207" />
  <polyline
     class="BarLine"
     fill="none"
     stroke="#000000"
     stroke-width="6.54"
     stroke-linejoin="bevel"
     points="1191.9,1376.44 1191.9,1525.88"
     id="polyline15209" />
  <polyline
     class="BarLine"
     fill="none"
     stroke="#000000"
     stroke-width="6.54"
     stroke-linejoin="bevel"
     points="2815.53,460.95 2815.53,610.39"
     id="polyline15211" />
  <polyline
     class="BarLine"
     fill="none"
     stroke="#000000"
     stroke-width="6.54"
     stroke-linejoin="bevel"
     points="1525.36,460.95 1525.36,610.39"
     id="polyline15213" />
  <polyline
     class="BarLine"
     fill="none"
     stroke="#000000"
     stroke-width="6.54"
     stroke-linejoin="bevel"
     points="1842.12,918.695 1842.12,1068.13"
     id="polyline15215" />
  <polyline
     class="BarLine"
     fill="none"
     stroke="#000000"
     stroke-width="6.54"
     stroke-linejoin="bevel"
     points="1642.55,1376.44 1642.55,1525.88"
     id="polyline15217" />
  <polyline
     class="BarLine"
     fill="none"
     stroke="#000000"
     stroke-width="6.54"
     stroke-linejoin="bevel"
     points="1395.55,918.695 1395.55,1068.13"
     id="polyline15219" />
  <polyline
     class="BarLine"
     fill="none"
     stroke="#000000"
     stroke-width="6.54"
     stroke-linejoin="bevel"
     points="2362.26,460.95 2362.26,610.39"
     id="polyline15221" />
  <polyline
     class="BarLine"
     fill="none"
     stroke="#000000"
     stroke-width="6.54"
     stroke-linejoin="bevel"
     points="1911.75,460.95 1911.75,610.39"
     id="polyline15223" />
  <path
     class="SlurSegment"
     stroke="#000000"
     stroke-width="1.82"
     stroke-linecap="round"
     stroke-linejoin="round"
     fill-rule="evenodd"
     d="m 2434.61,484.766 c 24.42,-47.496 91.3,-62.585 133.75,-30.179 -39.96,-21.381 -106.84,-6.292 -133.75,30.179"
     id="path15225" />
  <path
     class="SlurSegment"
     stroke="#000000"
     stroke-width="1.82"
     stroke-linecap="round"
     stroke-linejoin="round"
     fill-rule="evenodd"
     d="m 942.404,942.511 c 31.188,-50.797 110.106,-65.887 157.836,-30.179 -45.55,-24.28 -124.463,-9.19 -157.836,30.179"
     id="path15227" />
  <path
     class="SlurSegment"
     stroke="#000000"
     stroke-width="1.82"
     stroke-linecap="round"
     stroke-linejoin="round"
     fill-rule="evenodd"
     d="m 1264.24,1538.42 c 34.58,27.63 101.02,24.54 132.89,-6.18 -31.35,41.85 -97.79,44.94 -132.89,6.18"
     id="path15229" />
  <path
     class="SlurSegment"
     stroke="#000000"
     stroke-width="1.82"
     stroke-linecap="round"
     stroke-linejoin="round"
     fill-rule="evenodd"
     d="m 2099.1,1538.42 c 34.58,27.63 101.02,24.54 132.88,-6.18 -31.34,41.85 -97.79,44.94 -132.88,6.18"
     id="path15231" />
  <polyline
     class="Stem"
     fill="none"
     stroke="#000000"
     stroke-width="3.64"
     stroke-linejoin="bevel"
     points="2571.57,1536.24 2571.57,1414.8"
     id="polyline15233" />
  <polyline
     class="Stem"
     fill="none"
     stroke="#000000"
     stroke-width="3.64"
     stroke-linejoin="bevel"
     points="779.883,548.033 779.883,435.68"
     id="polyline15235" />
  <polyline
     class="Stem"
     fill="none"
     stroke="#000000"
     stroke-width="3.64"
     stroke-linejoin="bevel"
     points="2386.69,1518.06 2386.69,1396.62"
     id="polyline15237" />
  <polyline
     class="Stem"
     fill="none"
     stroke="#000000"
     stroke-width="3.64"
     stroke-linejoin="bevel"
     points="1736.72,1536.24 1736.72,1414.8"
     id="polyline15239" />
  <polyline
     class="Stem"
     fill="none"
     stroke="#000000"
     stroke-width="3.64"
     stroke-linejoin="bevel"
     points="1236.26,999.524 1236.26,1102.5"
     id="polyline15241" />
  <polyline
     class="Stem"
     fill="none"
     stroke="#000000"
     stroke-width="3.64"
     stroke-linejoin="bevel"
     points="2412.8,523.599 2412.8,635.66"
     id="polyline15243" />
  <polyline
     class="Stem"
     fill="none"
     stroke="#000000"
     stroke-width="3.64"
     stroke-linejoin="bevel"
     points="1820.17,602.573 1820.17,481.13"
     id="polyline15245" />
  <polyline
     class="Stem"
     fill="none"
     stroke="#000000"
     stroke-width="3.64"
     stroke-linejoin="bevel"
     points="1418.96,1481.7 1418.96,1360.26"
     id="polyline15247" />
  <polyline
     class="Stem"
     fill="none"
     stroke="#000000"
     stroke-width="3.64"
     stroke-linejoin="bevel"
     points="2546.56,505.419 2546.56,626.57"
     id="polyline15249" />
  <polyline
     class="Stem"
     fill="none"
     stroke="#000000"
     stroke-width="3.64"
     stroke-linejoin="bevel"
     points="1619.53,584.393 1619.53,462.95"
     id="polyline15251" />
  <polyline
     class="Stem"
     fill="none"
     stroke="#000000"
     stroke-width="3.64"
     stroke-linejoin="bevel"
     points="2680.32,541.779 2680.32,644.75"
     id="polyline15253" />
  <polyline
     class="Stem"
     fill="none"
     stroke="#000000"
     stroke-width="3.64"
     stroke-linejoin="bevel"
     points="1489.72,1005.78 1489.72,893.425"
     id="polyline15255" />
  <polyline
     class="Stem"
     fill="none"
     stroke="#000000"
     stroke-width="3.64"
     stroke-linejoin="bevel"
     points="1286.07,1499.88 1286.07,1378.44"
     id="polyline15257" />
  <polyline
     class="Stem"
     fill="none"
     stroke="#000000"
     stroke-width="3.64"
     stroke-linejoin="bevel"
     points="2253.81,1481.7 2253.81,1360.26"
     id="polyline15259" />
  <polyline
     class="Stem"
     fill="none"
     stroke="#000000"
     stroke-width="3.64"
     stroke-linejoin="bevel"
     points="2227.05,505.419 2227.05,626.57"
     id="polyline15261" />
  <polyline
     class="Stem"
     fill="none"
     stroke="#000000"
     stroke-width="3.64"
     stroke-linejoin="bevel"
     points="1078.43,963.164 1078.43,1084.32"
     id="polyline15263" />
  <polyline
     class="Stem"
     fill="none"
     stroke="#000000"
     stroke-width="3.64"
     stroke-linejoin="bevel"
     points="1433.78,566.213 1433.78,444.77"
     id="polyline15265" />
  <polyline
     class="Stem"
     fill="none"
     stroke="#000000"
     stroke-width="3.64"
     stroke-linejoin="bevel"
     points="913.64,548.033 913.64,435.68"
     id="polyline15267" />
  <polyline
     class="Stem"
     fill="none"
     stroke="#000000"
     stroke-width="3.64"
     stroke-linejoin="bevel"
     points="901.865,1518.06 901.865,1396.62"
     id="polyline15269" />
  <polyline
     class="Stem"
     fill="none"
     stroke="#000000"
     stroke-width="3.64"
     stroke-linejoin="bevel"
     points="1233.15,548.033 1233.15,435.68"
     id="polyline15271" />
  <polyline
     class="Stem"
     fill="none"
     stroke="#000000"
     stroke-width="3.64"
     stroke-linejoin="bevel"
     points="2094.12,1005.78 2094.12,893.425"
     id="polyline15273" />
  <polyline
     class="Stem"
     fill="none"
     stroke="#000000"
     stroke-width="3.64"
     stroke-linejoin="bevel"
     points="716.986,1499.88 716.986,1378.44"
     id="polyline15275" />
  <polyline
     class="Stem"
     fill="none"
     stroke="#000000"
     stroke-width="3.64"
     stroke-linejoin="bevel"
     points="517.66,1463.52 517.66,1351.17"
     id="polyline15277" />
  <polyline
     class="Stem"
     fill="none"
     stroke="#000000"
     stroke-width="3.64"
     stroke-linejoin="bevel"
     points="1003.76,541.779 1003.76,644.75"
     id="polyline15279" />
  <polyline
     class="Stem"
     fill="none"
     stroke="#000000"
     stroke-width="3.64"
     stroke-linejoin="bevel"
     points="2120.93,1499.88 2120.93,1378.44"
     id="polyline15281" />
  <polyline
     class="Stem"
     fill="none"
     stroke="#000000"
     stroke-width="3.64"
     stroke-linejoin="bevel"
     points="2005.92,620.753 2005.92,499.31"
     id="polyline15283" />
  <polyline
     class="Stem"
     fill="none"
     stroke="#000000"
     stroke-width="3.64"
     stroke-linejoin="bevel"
     points="1936.05,1463.52 1936.05,1351.17"
     id="polyline15285" />
  <polyline
     class="Stem"
     fill="none"
     stroke="#000000"
     stroke-width="3.64"
     stroke-linejoin="bevel"
     points="517.66,1005.78 517.66,893.425"
     id="polyline15287" />
  <polyline
     class="Stem"
     fill="none"
     stroke="#000000"
     stroke-width="3.64"
     stroke-linejoin="bevel"
     points="1936.29,1005.78 1936.29,893.425"
     id="polyline15289" />
  <polyline
     class="Stem"
     fill="none"
     stroke="#000000"
     stroke-width="3.64"
     stroke-linejoin="bevel"
     points="2699.87,1042.14 2699.87,920.695"
     id="polyline15291" />
  <polyline
     class="Stem"
     fill="none"
     stroke="#000000"
     stroke-width="3.64"
     stroke-linejoin="bevel"
     points="710.774,963.164 710.774,1084.32"
     id="polyline15293" />
  <polyline
     class="Stem"
     fill="none"
     stroke="#000000"
     stroke-width="3.64"
     stroke-linejoin="bevel"
     points="2209.67,999.524 2209.67,1102.5"
     id="polyline15295" />
  <polyline
     class="Stem"
     fill="none"
     stroke="#000000"
     stroke-width="3.64"
     stroke-linejoin="bevel"
     points="2463.13,1005.78 2463.13,893.425"
     id="polyline15297" />
  <polyline
     class="Stem"
     fill="none"
     stroke="#000000"
     stroke-width="3.64"
     stroke-linejoin="bevel"
     points="920.6,981.344 920.6,1093.41"
     id="polyline15299" />
  <polyline
     class="Stem"
     fill="none"
     stroke="#000000"
     stroke-width="3.64"
     stroke-linejoin="bevel"
     points="1551.84,1518.06 1551.84,1396.62"
     id="polyline15301" />
  <polyline
     class="Stem"
     fill="none"
     stroke="#000000"
     stroke-width="3.64"
     stroke-linejoin="bevel"
     points="1101.19,1463.52 1101.19,1351.17"
     id="polyline15303" />
  <path
     class="Note"
     d="m 1001.95,541.78303 c 0,6.24937 4.4995,13.22598 16.2938,13.22598 15.1122,0 30.9742,-12.36243 30.9742,-25.15661 0,-8.59005 -7.272,-13.38499 -16.2938,-13.38499 -14.1122,0 -30.9742,11.93059 -30.9742,25.31562"
     id="path15305"
     style="stroke-width:1.4544" />
  <path
     class="Note"
     d="m 1198.608,566.34875 c -4.795,0 -5.8176,-3.9087 -5.8176,-5.22675 0,-7.13565 24.4294,-19.6344 31.2696,-19.6344 3.4997,0 5.8176,2.04525 5.8176,5.22675 0,7.272 -24.5884,19.6344 -31.2696,19.6344 m 20.0662,-31.70134 c -14.1122,0 -30.9742,11.79424 -30.9742,25.31562 0,6.24937 4.4996,13.22598 16.2938,13.22598 15.1122,0 30.9742,-12.36243 30.9742,-25.15661 0,-8.59005 -7.272,-13.38499 -16.2938,-13.38499"
     id="path15307"
     style="stroke-width:1.4544" />
  <path
     class="Note"
     d="m 1388.33,578.14303 c 0,6.24937 4.4995,13.22598 16.2938,13.22598 15.1122,0 30.9742,-12.36243 30.9742,-25.15661 0,-8.59005 -7.272,-13.38499 -16.2938,-13.38499 -14.1122,0 -30.9742,11.93059 -30.9742,25.31562"
     id="path15309"
     style="stroke-width:1.4544" />
  <path
     class="Note"
     d="m 1584.988,602.70875 c -4.795,0 -5.8176,-3.9087 -5.8176,-5.22675 0,-7.13565 24.4294,-19.6344 31.2696,-19.6344 3.4997,0 5.8176,2.04525 5.8176,5.22675 0,7.272 -24.5884,19.6344 -31.2696,19.6344 m 20.0662,-31.70134 c -14.1122,0 -30.9742,11.79424 -30.9742,25.31562 0,6.24937 4.4996,13.22598 16.2938,13.22598 15.1122,0 30.9742,-12.36243 30.9742,-25.15661 0,-8.59005 -7.272,-13.38499 -16.2938,-13.38499"
     id="path15311"
     style="stroke-width:1.4544" />
  <path
     class="Note"
     d="m 1774.72,614.50303 c 0,6.24937 4.4996,13.22598 16.2938,13.22598 15.1122,0 30.9742,-12.36243 30.9742,-25.15661 0,-8.59005 -7.272,-13.38499 -16.2938,-13.38499 -14.1122,0 -30.9742,11.93059 -30.9742,25.31562"
     id="path15313"
     style="stroke-width:1.4544" />
  <path
     class="Note"
     d="m 1971.378,639.06875 c -4.795,0 -5.8176,-3.9087 -5.8176,-5.22675 0,-7.13565 24.4294,-19.6344 31.2696,-19.6344 3.4997,0 5.8176,2.04525 5.8176,5.22675 0,7.272 -24.5884,19.6344 -31.2696,19.6344 m 20.0662,-31.70134 c -14.1122,0 -30.9742,11.79424 -30.9742,25.31562 0,6.24937 4.4996,13.22598 16.2938,13.22598 15.1122,0 30.9742,-12.36243 30.9742,-25.15661 0,-8.59005 -7.272,-13.38499 -16.2938,-13.38499"
     id="path15315"
     style="stroke-width:1.4544" />
  <path
     class="Note"
     d="m 2225.23,505.42303 c 0,6.24937 4.4995,13.22598 16.2938,13.22598 15.1122,0 30.9742,-12.36243 30.9742,-25.15661 0,-8.59005 -7.272,-13.38499 -16.2938,-13.38499 -14.1122,0 -30.9742,11.93059 -30.9742,25.31562"
     id="path15317"
     style="stroke-width:1.4544" />
  <path
     class="Note"
     d="m 2410.99,523.60303 c 0,6.24937 4.4995,13.22598 16.2938,13.22598 15.1122,0 30.9742,-12.36243 30.9742,-25.15661 0,-8.59005 -7.272,-13.38499 -16.2938,-13.38499 -14.1122,0 -30.9742,11.93059 -30.9742,25.31562"
     id="path15319"
     style="stroke-width:1.4544" />
  <path
     class="Note"
     d="m 2544.74,505.42303 c 0,6.24937 4.4995,13.22598 16.2938,13.22598 15.1122,0 30.9742,-12.36243 30.9742,-25.15661 0,-8.59005 -7.272,-13.38499 -16.2938,-13.38499 -14.1122,0 -30.9742,11.93059 -30.9742,25.31562"
     id="path15321"
     style="stroke-width:1.4544" />
  <path
     class="Note"
     d="m 2678.5,541.78303 c 0,6.24937 4.4996,13.22598 16.2938,13.22598 15.1122,0 30.9742,-12.36243 30.9742,-25.15661 0,-8.59005 -7.272,-13.38499 -16.2938,-13.38499 -14.1122,0 -30.9742,11.93059 -30.9742,25.31562"
     id="path15323"
     style="stroke-width:1.4544" />
  <path
     class="Note"
     d="m 483.118,1024.0988 c -4.79497,0 -5.8176,-3.9087 -5.8176,-5.2268 0,-7.1356 24.42941,-19.6344 31.2696,-19.6344 3.49972,0 5.8176,2.0453 5.8176,5.2267 0,7.2721 -24.58838,19.6345 -31.2696,19.6345 m 20.06621,-31.70139 c -14.11219,0 -30.97421,11.79419 -30.97421,25.31559 0,6.2494 4.49955,13.226 16.29379,13.226 15.11223,0 30.97421,-12.3624 30.97421,-25.1566 0,-8.59005 -7.272,-13.38499 -16.29379,-13.38499"
     id="path15325"
     style="stroke-width:1.4544" />
  <path
     class="Note"
     d="m 708.956,963.16803 c 0,6.24937 4.49955,13.22598 16.29379,13.22598 15.11223,0 30.97421,-12.36243 30.97421,-25.15661 0,-8.59005 -7.272,-13.38499 -16.29379,-13.38499 -14.11219,0 -30.97421,11.93059 -30.97421,25.31562"
     id="path15327"
     style="stroke-width:1.4544" />
  <path
     class="Note"
     d="m 918.782,981.34803 c 0,6.24937 4.49955,13.22598 16.29379,13.22598 15.11223,0 30.97421,-12.36243 30.97421,-25.15661 0,-8.59005 -7.272,-13.38499 -16.29379,-13.38499 -14.11219,0 -30.97421,11.93059 -30.97421,25.31562"
     id="path15329"
     style="stroke-width:1.4544" />
  <path
     class="Note"
     d="m 1076.61,963.16803 c 0,6.24937 4.4996,13.22598 16.2938,13.22598 15.1122,0 30.9742,-12.36243 30.9742,-25.15661 0,-8.59005 -7.272,-13.38499 -16.2938,-13.38499 -14.1122,0 -30.9742,11.93059 -30.9742,25.31562"
     id="path15331"
     style="stroke-width:1.4544" />
  <path
     class="Note"
     d="m 1234.44,999.52803 c 0,6.24937 4.4995,13.22597 16.2938,13.22597 15.1122,0 30.9742,-12.3624 30.9742,-25.1566 0,-8.59005 -7.272,-13.38499 -16.2938,-13.38499 -14.1122,0 -30.9742,11.93059 -30.9742,25.31562"
     id="path15333"
     style="stroke-width:1.4544" />
  <path
     class="Note"
     d="m 1455.178,1024.0988 c -4.795,0 -5.8176,-3.9087 -5.8176,-5.2268 0,-7.1356 24.4294,-19.6344 31.2696,-19.6344 3.4997,0 5.8176,2.0453 5.8176,5.2267 0,7.2721 -24.5884,19.6345 -31.2696,19.6345 m 20.0662,-31.70139 c -14.1122,0 -30.9742,11.79419 -30.9742,25.31559 0,6.2494 4.4996,13.226 16.2938,13.226 15.1122,0 30.9742,-12.3624 30.9742,-25.1566 0,-8.59005 -7.272,-13.38499 -16.2938,-13.38499"
     id="path15335"
     style="stroke-width:1.4544" />
  <path
     class="Note"
     d="m 1890.84,1017.713 c 0,6.2494 4.4995,13.226 16.2938,13.226 15.1122,0 30.9742,-12.3624 30.9742,-25.1566 0,-8.59005 -7.272,-13.38499 -16.2938,-13.38499 -14.1122,0 -30.9742,11.93059 -30.9742,25.31559"
     id="path15337"
     style="stroke-width:1.4544" />
  <path
     class="Note"
     d="m 2048.67,1017.713 c 0,6.2494 4.4995,13.226 16.2938,13.226 15.1122,0 30.9742,-12.3624 30.9742,-25.1566 0,-8.59005 -7.272,-13.38499 -16.2938,-13.38499 -14.1122,0 -30.9742,11.93059 -30.9742,25.31559"
     id="path15339"
     style="stroke-width:1.4544" />
  <path
     class="Note"
     d="m 2207.85,999.52803 c 0,6.24937 4.4995,13.22597 16.2938,13.22597 15.1122,0 30.9742,-12.3624 30.9742,-25.1566 0,-8.59005 -7.272,-13.38499 -16.2938,-13.38499 -14.1122,0 -30.9742,11.93059 -30.9742,25.31562"
     id="path15341"
     style="stroke-width:1.4544" />
  <path
     class="Note"
     d="m 2428.588,1024.0988 c -4.795,0 -5.8176,-3.9087 -5.8176,-5.2268 0,-7.1356 24.4294,-19.6344 31.2696,-19.6344 3.4997,0 5.8176,2.0453 5.8176,5.2267 0,7.2721 -24.5884,19.6345 -31.2696,19.6345 m 20.0662,-31.70139 c -14.1122,0 -30.9742,11.79419 -30.9742,25.31559 0,6.2494 4.4995,13.226 16.2938,13.226 15.1122,0 30.9742,-12.3624 30.9742,-25.1566 0,-8.59005 -7.272,-13.38499 -16.2938,-13.38499"
     id="path15343"
     style="stroke-width:1.4544" />
  <path
     class="Note"
     d="m 2654.42,1054.073 c 0,6.2494 4.4996,13.226 16.2938,13.226 15.1122,0 30.9742,-12.3624 30.9742,-25.1566 0,-8.59 -7.272,-13.385 -16.2938,-13.385 -14.1122,0 -30.9742,11.9306 -30.9742,25.3156"
     id="path15345"
     style="stroke-width:1.4544" />
  <path
     class="Note"
     d="m 483.118,1481.8387 c -4.79497,0 -5.8176,-3.9086 -5.8176,-5.2267 0,-7.1356 24.42941,-19.6344 31.2696,-19.6344 3.49972,0 5.8176,2.0452 5.8176,5.2268 0,7.272 -24.58838,19.6343 -31.2696,19.6343 m 20.06621,-31.7013 c -14.11219,0 -30.97421,11.7943 -30.97421,25.3156 0,6.2494 4.49955,13.226 16.29379,13.226 15.11223,0 30.97421,-12.3624 30.97421,-25.1566 0,-8.5901 -7.272,-13.385 -16.29379,-13.385"
     id="path15347"
     style="stroke-width:1.4544" />
  <path
     class="Note"
     d="m 671.536,1511.813 c 0,6.2494 4.49955,13.226 16.29379,13.226 15.11223,0 30.97421,-12.3624 30.97421,-25.1566 0,-8.59 -7.272,-13.385 -16.29379,-13.385 -14.11219,0 -30.97421,11.9306 -30.97421,25.3156"
     id="path15349"
     style="stroke-width:1.4544" />
  <path
     class="Note"
     d="m 867.323,1536.3787 c -4.79497,0 -5.8176,-3.9086 -5.8176,-5.2267 0,-7.1357 24.42941,-19.6344 31.2696,-19.6344 3.49972,0 5.8176,2.0452 5.8176,5.2268 0,7.2719 -24.58838,19.6343 -31.2696,19.6343 m 20.06621,-31.7013 c -14.11219,0 -30.97421,11.7943 -30.97421,25.3156 0,6.2494 4.49955,13.226 16.29379,13.226 15.11223,0 30.97421,-12.3624 30.97421,-25.1566 0,-8.5901 -7.272,-13.385 -16.29379,-13.385"
     id="path15351"
     style="stroke-width:1.4544" />
  <path
     class="Note"
     d="m 1055.74,1475.453 c 0,6.2494 4.4996,13.226 16.2938,13.226 15.1122,0 30.9742,-12.3624 30.9742,-25.1566 0,-8.5901 -7.272,-13.385 -16.2938,-13.385 -14.1122,0 -30.9742,11.9306 -30.9742,25.3156"
     id="path15353"
     style="stroke-width:1.4544" />
  <path
     class="Note"
     d="m 1240.62,1511.813 c 0,6.2494 4.4995,13.226 16.2938,13.226 15.1122,0 30.9742,-12.3624 30.9742,-25.1566 0,-8.59 -7.272,-13.385 -16.2938,-13.385 -14.1122,0 -30.9742,11.9306 -30.9742,25.3156"
     id="path15355"
     style="stroke-width:1.4544" />
  <path
     class="Note"
     d="m 1373.51,1493.633 c 0,6.2494 4.4995,13.226 16.2938,13.226 15.1122,0 30.9742,-12.3624 30.9742,-25.1566 0,-8.5901 -7.272,-13.385 -16.2938,-13.385 -14.1122,0 -30.9742,11.9306 -30.9742,25.3156"
     id="path15357"
     style="stroke-width:1.4544" />
  <path
     class="Note"
     d="m 1506.39,1529.993 c 0,6.2494 4.4995,13.226 16.2938,13.226 15.1122,0 30.9742,-12.3624 30.9742,-25.1566 0,-8.5901 -7.272,-13.385 -16.2938,-13.385 -14.1122,0 -30.9742,11.9306 -30.9742,25.3156"
     id="path15359"
     style="stroke-width:1.4544" />
  <path
     class="Note"
     d="m 1702.178,1554.5587 c -4.795,0 -5.8176,-3.9087 -5.8176,-5.2267 0,-7.1357 24.4294,-19.6344 31.2696,-19.6344 3.4997,0 5.8176,2.0452 5.8176,5.2267 0,7.272 -24.5884,19.6344 -31.2696,19.6344 m 20.0662,-31.7013 c -14.1122,0 -30.9742,11.7942 -30.9742,25.3156 0,6.2494 4.4995,13.226 16.2938,13.226 15.1122,0 30.9742,-12.3624 30.9742,-25.1566 0,-8.5901 -7.272,-13.385 -16.2938,-13.385"
     id="path15361"
     style="stroke-width:1.4544" />
  <path
     class="Note"
     d="m 1890.6,1475.453 c 0,6.2494 4.4996,13.226 16.2938,13.226 15.1122,0 30.9742,-12.3624 30.9742,-25.1566 0,-8.5901 -7.272,-13.385 -16.2938,-13.385 -14.1122,0 -30.9742,11.9306 -30.9742,25.3156"
     id="path15363"
     style="stroke-width:1.4544" />
  <path
     class="Note"
     d="m 2075.48,1511.813 c 0,6.2494 4.4996,13.226 16.2938,13.226 15.1122,0 30.9742,-12.3624 30.9742,-25.1566 0,-8.59 -7.272,-13.385 -16.2938,-13.385 -14.1122,0 -30.9742,11.9306 -30.9742,25.3156"
     id="path15365"
     style="stroke-width:1.4544" />
  <path
     class="Note"
     d="m 2208.36,1493.633 c 0,6.2494 4.4996,13.226 16.2938,13.226 15.1122,0 30.9742,-12.3624 30.9742,-25.1566 0,-8.5901 -7.272,-13.385 -16.2938,-13.385 -14.1122,0 -30.9742,11.9306 -30.9742,25.3156"
     id="path15367"
     style="stroke-width:1.4544" />
  <path
     class="Note"
     d="m 2341.24,1529.993 c 0,6.2494 4.4995,13.226 16.2938,13.226 15.1122,0 30.9742,-12.3624 30.9742,-25.1566 0,-8.5901 -7.272,-13.385 -16.2938,-13.385 -14.1122,0 -30.9742,11.9306 -30.9742,25.3156"
     id="path15369"
     style="stroke-width:1.4544" />
  <path
     class="Note"
     d="m 2537.028,1554.5587 c -4.795,0 -5.8176,-3.9087 -5.8176,-5.2267 0,-7.1357 24.4294,-19.6344 31.2696,-19.6344 3.4997,0 5.8176,2.0452 5.8176,5.2267 0,7.272 -24.5884,19.6344 -31.2696,19.6344 m 20.0662,-31.7013 c -14.1122,0 -30.9742,11.7942 -30.9742,25.3156 0,6.2494 4.4995,13.226 16.2938,13.226 15.1122,0 30.9742,-12.3624 30.9742,-25.1566 0,-8.5901 -7.272,-13.385 -16.2938,-13.385"
     id="path15371"
     style="stroke-width:1.4544" />
  <path
     class="Note"
     d="m 734.433,559.96303 c 0,6.24937 4.49955,13.22598 16.29379,13.22598 15.11223,0 30.97421,-12.36243 30.97421,-25.15661 0,-8.59005 -7.272,-13.38499 -16.29379,-13.38499 -14.11219,0 -30.97421,11.93059 -30.97421,25.31562"
     id="path15373"
     style="stroke-width:1.4544" />
  <path
     class="Note"
     d="m 868.19,559.96303 c 0,6.24937 4.49955,13.22598 16.29379,13.22598 15.11223,0 30.97421,-12.36243 30.97421,-25.15661 0,-8.59005 -7.272,-13.38499 -16.29379,-13.38499 -14.11219,0 -30.97421,11.93059 -30.97421,25.31562"
     id="path15375"
     style="stroke-width:1.4544" />
  <path
     class="Clef"
     d="m 246.7548,1517.4716 c -2.9088,0.5908 -5.65849,0.8862 -8.43101,0.8862 -20.79327,0 -38.54156,-14.544 -38.54156,-36.5191 0,-17.7255 12.49878,-33.5875 25.31568,-44.6546 2.4543,-2.1816 4.79501,-4.2041 6.97661,-6.3857 1.29529,7.8401 2.31788,14.6803 3.34047,20.657 -13.24857,3.9314 -22.24767,17.8846 -22.24767,31.5651 0,10.1808 7.9992,24.1339 19.6344,24.1339 1.15887,0 2.47699,-0.5908 2.47699,-1.8862 0,-1.318 -1.4544,-2.0452 -3.20419,-3.2042 -5.68132,-3.4997 -8.88551,-7.272 -8.88551,-14.4076 0,-8.8628 6.5448,-15.9985 15.13478,-18.021 l 8.43101,47.8362 m -12.79421,-149.5078 c 1.31812,-5.8176 7.9992,-21.0888 15.56673,-21.0888 2.1816,0 5.65849,7.1129 5.65849,17.1573 0,15.1349 -11.1807,26.4747 -21.22522,36.36 -0.86348,-5.8176 -1.59068,-11.4761 -1.59068,-17.5891 0,-5.3858 0.43181,-10.3399 1.59068,-14.8394 m 33.4512,122.6014 c 0,10.3398 -4.22678,20.9524 -14.544,25.1793 -3.04508,-17.4529 -6.97647,-40.5869 -7.9992,-46.9954 13.0896,0 22.5432,8.8855 22.5432,21.8161 m -63.9936,71.561 c 0,9.6127 7.40842,22.2705 27.04282,22.2705 6.84019,0 12.8169,-1.7498 18.04358,-4.9541 7.86292,-5.5221 9.88541,-15.1348 9.88541,-24.293 0,-5.6585 -0.86348,-12.2033 -2.31788,-20.4979 -0.43181,-2.9088 -1.31812,-7.272 -2.1816,-12.9533 14.24847,-4.6586 24.86108,-19.498 24.86108,-34.4738 0,-21.9524 -15.56659,-36.7918 -36.79181,-36.7918 -1.4544,-8.7264 -2.9088,-17.3165 -4.22678,-25.452 15.43031,-16.1575 26.04278,-34.3375 26.04278,-57.4488 0,-13.2487 -4.06767,-23.9976 -6.40838,-29.2465 -3.47689,-7.4087 -7.70381,-12.4991 -10.31722,-12.4991 -1.02259,0 -5.52207,1.7496 -10.31708,7.4087 -9.31732,11.0665 -11.93059,29.6783 -11.93059,41.8816 0,7.8628 0.7272,14.9985 3.20419,31.2923 -0.15911,0.1364 -7.7265,7.8401 -10.77172,10.3172 -13.24857,12.3624 -31.56499,29.9515 -31.56499,59.0623 0,27.1791 23.70221,48.5633 50.76772,48.5633 4.20409,0 8.13548,-0.4318 11.47609,-1.0226 2.77238,13.9758 4.3632,24.1566 4.3632,31.8604 0,15.1349 -7.70381,23.1341 -22.38409,23.1341 -3.49972,0 -6.5448,-0.7272 -6.84033,-0.7272 -0.13628,-0.1591 -0.43167,-0.2955 -0.43167,-0.4318 0,-0.2954 0.29539,-0.4545 0.7272,-0.5909 6.84019,-1.0226 13.65769,-6.8402 13.65769,-16.1347 0,-7.8629 -5.95402,-16.1575 -16.86202,-16.1575 -10.1808,0 -16.7256,8.2946 -16.7256,17.8846"
     id="path15377"
     style="stroke-width:1.4544" />
  <path
     class="Clef"
     d="m 428.5548,601.98162 c -2.9088,0.59078 -5.65849,0.88617 -8.43101,0.88617 -20.79327,0 -38.54156,-14.544 -38.54156,-36.51904 0,-17.72557 12.49878,-33.58755 25.31568,-44.65466 2.4543,-2.1816 4.79501,-4.20409 6.97661,-6.38569 1.29529,7.84009 2.31788,14.68028 3.34047,20.65699 -13.24857,3.93139 -22.24767,17.88461 -22.24767,31.56506 0,10.1808 7.9992,24.13395 19.6344,24.13395 1.15887,0 2.47699,-0.59078 2.47699,-1.88621 0,-1.31798 -1.4544,-2.04518 -3.20419,-3.20419 -5.68132,-3.49965 -8.88551,-7.272 -8.88551,-14.40765 0,-8.86275 6.5448,-15.99847 15.13478,-18.02096 l 8.43101,47.83623 M 415.76059,452.47381 c 1.31812,-5.8176 7.9992,-21.0888 15.56673,-21.0888 2.1816,0 5.65849,7.11289 5.65849,17.15727 0,15.13492 -11.1807,26.47473 -21.22522,36.36 -0.86348,-5.8176 -1.59068,-11.47609 -1.59068,-17.58908 0,-5.38579 0.43181,-10.33991 1.59068,-14.83939 m 33.4512,122.60134 c 0,10.33988 -4.22678,20.95245 -14.544,25.17937 -3.04508,-17.45287 -6.97647,-40.58692 -7.9992,-46.99544 13.0896,0 22.5432,8.88554 22.5432,21.81607 m -63.9936,71.56106 c 0,9.61271 7.40842,22.2705 27.04282,22.2705 6.84019,0 12.8169,-1.74979 18.04358,-4.95412 7.86292,-5.52207 9.88541,-15.13478 9.88541,-24.29299 0,-5.65849 -0.86348,-12.20329 -2.31788,-20.49788 -0.43181,-2.9088 -1.31812,-7.272 -2.1816,-12.95332 14.24847,-4.65859 24.86108,-19.49798 24.86108,-34.47383 0,-21.95238 -15.56659,-36.79177 -36.79181,-36.79177 -1.4544,-8.7264 -2.9088,-17.31652 -4.22678,-25.452 15.43031,-16.15751 26.04278,-34.33751 26.04278,-57.4488 0,-13.24871 -4.06767,-23.9976 -6.40838,-29.24653 -3.47689,-7.40871 -7.70381,-12.49911 -10.31722,-12.49911 -1.02259,0 -5.52207,1.74964 -10.31708,7.40871 -9.31732,11.06653 -11.93059,29.67834 -11.93059,41.88163 0,7.86278 0.7272,14.9985 3.20419,31.29229 -0.15911,0.13642 -7.7265,7.84009 -10.77172,10.31722 -13.24857,12.3624 -31.56499,29.95148 -31.56499,59.06224 0,27.17917 23.70221,48.56336 50.76772,48.56336 4.20409,0 8.13548,-0.43181 11.47609,-1.02259 2.77238,13.97577 4.3632,24.15657 4.3632,31.86038 0,15.13492 -7.70381,23.13412 -22.38409,23.13412 -3.49972,0 -6.5448,-0.7272 -6.84033,-0.7272 -0.13628,-0.15911 -0.43167,-0.29553 -0.43167,-0.43181 0,-0.29539 0.29539,-0.4545 0.7272,-0.59092 6.84019,-1.02259 13.65769,-6.84019 13.65769,-16.13468 0,-7.86292 -5.95402,-16.15751 -16.86202,-16.15751 -10.1808,0 -16.7256,8.29459 -16.7256,17.88461"
     id="path15379"
     style="stroke-width:1.4544" />
  <path
     class="Clef"
     d="m 246.7548,1059.7316 c -2.9088,0.5908 -5.65849,0.8862 -8.43101,0.8862 -20.79327,0 -38.54156,-14.544 -38.54156,-36.5191 0,-17.7255 12.49878,-33.5875 25.31568,-44.65461 2.4543,-2.1816 4.79501,-4.20409 6.97661,-6.38569 1.29529,7.84009 2.31788,14.68028 3.34047,20.65699 -13.24857,3.93139 -22.24767,17.88461 -22.24767,31.56511 0,10.1808 7.9992,24.1339 19.6344,24.1339 1.15887,0 2.47699,-0.5908 2.47699,-1.8862 0,-1.318 -1.4544,-2.0452 -3.20419,-3.2042 -5.68132,-3.4997 -8.88551,-7.272 -8.88551,-14.4076 0,-8.8628 6.5448,-15.9985 15.13478,-18.021 l 8.43101,47.8362 M 233.96059,910.22381 c 1.31812,-5.8176 7.9992,-21.0888 15.56673,-21.0888 2.1816,0 5.65849,7.11289 5.65849,17.15727 0,15.13492 -11.1807,26.47473 -21.22522,36.36 -0.86348,-5.8176 -1.59068,-11.47609 -1.59068,-17.58908 0,-5.38579 0.43181,-10.33991 1.59068,-14.83939 m 33.4512,122.60129 c 0,10.3399 -4.22678,20.9525 -14.544,25.1794 -3.04508,-17.4529 -6.97647,-40.5869 -7.9992,-46.9954 13.0896,0 22.5432,8.8855 22.5432,21.816 m -63.9936,71.5611 c 0,9.6127 7.40842,22.2705 27.04282,22.2705 6.84019,0 12.8169,-1.7498 18.04358,-4.9541 7.86292,-5.5221 9.88541,-15.1348 9.88541,-24.293 0,-5.6585 -0.86348,-12.2033 -2.31788,-20.4979 -0.43181,-2.9088 -1.31812,-7.272 -2.1816,-12.9533 14.24847,-4.6586 24.86108,-19.498 24.86108,-34.4738 0,-21.9524 -15.56659,-36.7918 -36.79181,-36.7918 -1.4544,-8.7264 -2.9088,-17.31652 -4.22678,-25.452 15.43031,-16.15751 26.04278,-34.33751 26.04278,-57.4488 0,-13.24871 -4.06767,-23.9976 -6.40838,-29.24653 -3.47689,-7.40871 -7.70381,-12.49911 -10.31722,-12.49911 -1.02259,0 -5.52207,1.74964 -10.31708,7.40871 -9.31732,11.06653 -11.93059,29.67834 -11.93059,41.88163 0,7.86278 0.7272,14.9985 3.20419,31.29229 -0.15911,0.13642 -7.7265,7.84009 -10.77172,10.31722 -13.24857,12.3624 -31.56499,29.95148 -31.56499,59.06219 0,27.1792 23.70221,48.5634 50.76772,48.5634 4.20409,0 8.13548,-0.4318 11.47609,-1.0226 2.77238,13.9758 4.3632,24.1566 4.3632,31.8604 0,15.1349 -7.70381,23.1341 -22.38409,23.1341 -3.49972,0 -6.5448,-0.7272 -6.84033,-0.7272 -0.13628,-0.1591 -0.43167,-0.2955 -0.43167,-0.4318 0,-0.2954 0.29539,-0.4545 0.7272,-0.5909 6.84019,-1.0226 13.65769,-6.8402 13.65769,-16.1347 0,-7.8629 -5.95402,-16.1575 -16.86202,-16.1575 -10.1808,0 -16.7256,8.2946 -16.7256,17.8846"
     id="path15381"
     style="stroke-width:1.4544" />
  <path
     class="KeySig"
     d="m 317.33878,1367.6684 12.95321,-2.6134 v 23.9976 l -12.95321,2.7724 v -24.1566 m 22.54323,-4.4996 c 0.88631,-0.1364 1.61351,-1.159 1.61351,-2.0453 v -8.5673 c 0,-1.159 -0.88631,-2.0452 -2.04532,-2.0452 h -0.29539 l -4.79501,1.0226 v -21.6797 h -4.06781 v 22.5432 l -12.95321,2.6361 v -20.5206 H 313.271 v 21.3842 l -5.68125,1.159 c -0.86355,0.159 -1.59075,1.1589 -1.59075,2.0452 v 8.431 c 0,1.159 0.86355,2.0453 2.04525,2.0453 h 0.43178 l 4.79497,-1.0227 v 23.9976 l -5.68125,1.159 c -0.86355,0.1364 -1.59075,1.159 -1.59075,2.0453 v 8.4309 c 0,1.159 0.86355,2.0226 2.04525,2.0226 h 0.43178 l 4.79497,-0.9999 v 21.6569 h 4.06778 v -22.5432 l 12.95321,-2.6134 v 20.5207 h 4.06781 v -21.3842 l 5.52221,-1.0227 c 0.88631,-0.159 1.61351,-1.1589 1.61351,-2.0452 v -8.5673 c 0,-1.1817 -0.88631,-2.0453 -2.04532,-2.0453 h -0.29539 l -4.79501,1.0226 v -23.9976 l 5.52221,-1.0226"
     id="path15383"
     style="stroke-width:1.4544" />
  <path
     class="KeySig"
     d="m 357.17578,1422.2083 12.95321,-2.6133 v 23.9976 l -12.95321,2.7724 v -24.1567 m 22.54323,-4.4995 c 0.88631,-0.1364 1.61351,-1.159 1.61351,-2.0453 v -8.5673 c 0,-1.159 -0.88631,-2.0452 -2.04532,-2.0452 h -0.29539 l -4.79501,1.0226 v -21.6797 h -4.06781 v 22.5432 l -12.95321,2.6361 v -20.5206 H 353.108 v 21.3842 l -5.68125,1.159 c -0.86355,0.159 -1.59075,1.1589 -1.59075,2.0452 v 8.431 c 0,1.159 0.86355,2.0452 2.04525,2.0452 h 0.43178 l 4.79497,-1.0226 v 23.9976 l -5.68125,1.159 c -0.86355,0.1364 -1.59075,1.159 -1.59075,2.0453 v 8.4309 c 0,1.159 0.86355,2.0226 2.04525,2.0226 h 0.43178 l 4.79497,-0.9999 v 21.6569 h 4.06778 v -22.5432 l 12.95321,-2.6134 v 20.5207 h 4.06781 v -21.3842 l 5.52221,-1.0227 c 0.88631,-0.159 1.61351,-1.1589 1.61351,-2.0452 v -8.5674 c 0,-1.1817 -0.88631,-2.0452 -2.04532,-2.0452 h -0.29539 l -4.79501,1.0226 v -23.9976 l 5.52221,-1.0226"
     id="path15385"
     style="stroke-width:1.4544" />
  <path
     class="KeySig"
     d="m 317.33878,909.92335 12.95321,-2.61338 v 23.99761 l -12.95321,2.77245 v -24.15668 m 22.54323,-4.49955 c 0.88631,-0.13642 1.61351,-1.15901 1.61351,-2.04532 v -8.56729 c 0,-1.15901 -0.88631,-2.04518 -2.04532,-2.04518 h -0.29539 l -4.79501,1.02259 v -21.67972 h -4.06781 v 22.5432 l -12.95321,2.6361 V 876.76761 H 313.271 v 21.38419 l -5.68125,1.15901 c -0.86355,0.15897 -1.59075,1.15887 -1.59075,2.04518 v 8.43101 c 0,1.15897 0.86355,2.04525 2.04525,2.04525 h 0.43178 l 4.79497,-1.02263 v 23.99761 l -5.68125,1.15897 c -0.86355,0.13642 -1.59075,1.15901 -1.59075,2.04532 v 8.43087 c 0,1.15901 0.86355,2.02263 2.04525,2.02263 h 0.43178 l 4.79497,-0.9999 v 21.65689 h 4.06778 v -22.5432 l 12.95321,-2.61341 v 20.52071 h 4.06781 v -21.38419 l 5.52221,-1.02273 c 0.88631,-0.15897 1.61351,-1.15887 1.61351,-2.04518 v -8.56736 c 0,-1.1817 -0.88631,-2.04525 -2.04532,-2.04525 h -0.29539 l -4.79501,1.02263 v -23.99761 l 5.52221,-1.02262"
     id="path15387"
     style="stroke-width:1.4544" />
  <path
     class="KeySig"
     d="m 357.17578,964.46335 12.95321,-2.61338 v 23.99761 l -12.95321,2.77245 v -24.15668 m 22.54323,-4.49955 c 0.88631,-0.13642 1.61351,-1.15901 1.61351,-2.04532 v -8.56729 c 0,-1.15901 -0.88631,-2.04518 -2.04532,-2.04518 h -0.29539 l -4.79501,1.02259 v -21.67972 h -4.06781 v 22.5432 l -12.95321,2.6361 V 931.30761 H 353.108 v 21.38419 l -5.68125,1.15901 c -0.86355,0.15897 -1.59075,1.15887 -1.59075,2.04518 v 8.43101 c 0,1.15897 0.86355,2.04525 2.04525,2.04525 h 0.43178 l 4.79497,-1.02263 v 23.99761 l -5.68125,1.15897 c -0.86355,0.13642 -1.59075,1.15901 -1.59075,2.04532 v 8.43088 c 0,1.159 0.86355,2.0226 2.04525,2.0226 h 0.43178 l 4.79497,-0.9999 v 21.6569 h 4.06778 v -22.5432 l 12.95321,-2.6134 v 20.5207 h 4.06781 v -21.38418 l 5.52221,-1.02273 c 0.88631,-0.15897 1.61351,-1.15887 1.61351,-2.04518 v -8.56736 c 0,-1.1817 -0.88631,-2.04525 -2.04532,-2.04525 h -0.29539 l -4.79501,1.02263 v -23.99761 l 5.52221,-1.02262"
     id="path15389"
     style="stroke-width:1.4544" />
  <path
     class="KeySig"
     d="m 499.13878,452.17835 12.95321,-2.61338 v 23.99761 l -12.95321,2.77245 v -24.15668 m 22.54323,-4.49955 c 0.88631,-0.13642 1.61351,-1.15901 1.61351,-2.04532 v -8.56729 c 0,-1.15901 -0.88631,-2.04518 -2.04532,-2.04518 h -0.29539 l -4.79501,1.02259 v -21.67972 h -4.06781 v 22.5432 l -12.95321,2.6361 V 419.02261 H 495.071 v 21.38419 l -5.68125,1.15901 c -0.86355,0.15897 -1.59075,1.15887 -1.59075,2.04518 v 8.43101 c 0,1.15897 0.86355,2.04525 2.04525,2.04525 h 0.43178 l 4.79497,-1.02263 v 23.99761 l -5.68125,1.15897 c -0.86355,0.13642 -1.59075,1.15901 -1.59075,2.04532 v 8.43087 c 0,1.15901 0.86355,2.02263 2.04525,2.02263 h 0.43178 l 4.79497,-0.9999 v 21.65689 h 4.06778 v -22.5432 l 12.95321,-2.61341 v 20.52071 h 4.06781 v -21.38419 l 5.52221,-1.02273 c 0.88631,-0.15897 1.61351,-1.15887 1.61351,-2.04518 v -8.56736 c 0,-1.1817 -0.88631,-2.04525 -2.04532,-2.04525 h -0.29539 l -4.79501,1.02263 v -23.99761 l 5.52221,-1.02262"
     id="path15391"
     style="stroke-width:1.4544" />
  <path
     class="KeySig"
     d="m 538.97578,506.71835 12.95321,-2.61338 v 23.99761 l -12.95321,2.77245 v -24.15668 m 22.54323,-4.49955 c 0.88631,-0.13642 1.61351,-1.15901 1.61351,-2.04532 v -8.56729 c 0,-1.15901 -0.88631,-2.04518 -2.04532,-2.04518 h -0.29539 l -4.79501,1.02259 v -21.67972 h -4.06781 v 22.5432 l -12.95321,2.6361 V 473.56261 H 534.908 v 21.38419 l -5.68125,1.15901 c -0.86355,0.15897 -1.59075,1.15887 -1.59075,2.04518 v 8.43101 c 0,1.15897 0.86355,2.04525 2.04525,2.04525 h 0.43178 l 4.79497,-1.02263 v 23.99761 l -5.68125,1.15897 c -0.86355,0.13642 -1.59075,1.15901 -1.59075,2.04532 v 8.43087 c 0,1.15901 0.86355,2.02263 2.04525,2.02263 h 0.43178 l 4.79497,-0.9999 v 21.65689 h 4.06778 v -22.5432 l 12.95321,-2.61341 v 20.52071 h 4.06781 v -21.38419 l 5.52221,-1.02273 c 0.88631,-0.15897 1.61351,-1.15887 1.61351,-2.04518 v -8.56736 c 0,-1.1817 -0.88631,-2.04525 -2.04532,-2.04525 h -0.29539 l -4.79501,1.02263 v -23.99761 l 5.52221,-1.02262"
     id="path15393"
     style="stroke-width:1.4544" />
  <path
     class="TimeSig"
     d="m 642.73819,497.71905 c 11.6352,-4.52228 12.3624,-12.0897 12.3624,-14.70304 v -0.7272 c 0,-1.29543 -0.43167,-17.74833 -25.452,-17.74833 -25.02019,0 -24.29299,17.74833 -24.29299,17.74833 h 0.13635 l -0.13635,0.29539 c 0,5.22675 4.22685,9.31725 9.4536,9.31725 5.22682,0 9.31732,-4.0905 9.31732,-9.31725 0,-4.22692 -3.20433,-8.29459 -7.27207,-9.15821 l 0.43178,-0.43181 c 2.02259,-1.4544 4.79497,-2.1816 7.56749,-2.1816 6.0903,0 12.6351,3.636 12.6351,11.47623 0,9.15814 -6.8175,10.47619 -8.56743,10.77161 -1.74979,0.29543 -9.88527,0.86355 -11.63516,0.86355 -1.74983,0 -1.88618,2.04525 -1.88618,2.04525 v 2.9088 c 0,0 0.2727,1.59075 1.88618,1.74983 2.47709,0.13635 5.81756,0.13635 10.47629,0.86355 6.38569,0.86355 9.7263,5.22675 9.7263,15.40762 0,9.74899 -6.5448,12.3624 -12.6351,12.3624 -4.0905,0 -7.86292,-1.15901 -9.45367,-2.31802 4.79494,-0.29539 8.72647,-4.49948 8.72647,-9.31718 0,-5.22682 -4.0905,-9.45367 -9.31732,-9.45367 -5.22675,0 -9.4536,4.22685 -9.4536,9.45367 0,11.93059 10.908,17.9073 21.67972,17.9073 13.95308,0 29.088,-4.8177 29.088,-20.65713 0,-10.61254 -7.272,-15.13482 -13.68052,-17.15734 h 0.29539"
     id="path15395"
     style="stroke-width:1.4544" />
  <path
     class="TimeSig"
     d="m 627.69401,590.50539 v 10.74903 H 615.627 c -1.02259,0 -2.04518,0.88617 -2.04518,2.04518 v 2.77252 c 0,1.15887 1.02259,2.02249 2.04518,2.02249 h 44.06381 c 1.1817,0 2.04518,-0.86362 2.04518,-2.02249 v -2.77252 c 0,-1.15901 -0.86348,-2.04518 -2.04518,-2.04518 h -13.0896 v -10.74903 h 13.0896 c 1.1817,0 2.04518,-1.02259 2.04518,-2.1816 v -2.77241 c 0,-1.02263 -0.86348,-2.02253 -2.04518,-2.02253 h -13.0896 V 560.3948 c 0,-0.86355 -0.43181,-1.59075 -0.9999,-1.88618 l -1.74979,-0.88627 c -0.29553,-0.13635 -0.43181,-0.13635 -0.7272,-0.13635 -0.59092,0 -1.15901,0 -1.61351,0.43177 l -13.22602,12.06698 c -0.43167,0.4545 -0.59078,1.02262 -0.59078,1.61347 v 11.93063 h -16.86198 c 0,0 16.29389,-17.4528 33.45116,-40.45057 0.59092,-0.7272 0.7272,-1.4544 0.7272,-2.02249 0,-0.7272 -0.29539,-1.31798 -0.43167,-1.4544 l -3.20433,-3.20419 c -0.43167,-0.29539 -0.86348,-0.59092 -1.4544,-0.59092 -0.86348,0 -20.52057,0 -21.67958,0 -1.02259,0 -1.74979,0.88631 -1.88621,1.74993 0,0 -0.7272,10.77158 -4.49955,22.54316 -3.79507,11.79428 -8.15827,19.06628 -11.93062,24.42938 0,0 -0.43178,0.7272 -0.43178,1.61348 0,0.29542 0,0.56819 0.13635,0.86358 0.43178,1.02259 1.4544,2.61341 1.4544,2.61341 0,0 0.29543,0.88617 1.59075,0.88617 h 25.02026"
     id="path15397"
     style="stroke-width:1.4544" />
  <path
     class="Rest"
     d="m 1714.4712,1017.549 c -0.1363,-0.1364 -0.4318,-0.4318 -0.8635,-0.9999 l -16.7256,-20.65707 c -0.1591,-0.15908 -0.2955,-0.59085 -0.2955,-0.88628 0,-0.43177 0.1364,-0.9999 0.2955,-1.29533 l 14.8167,-22.40681 c 0.159,-0.29553 0.2954,-0.7272 0.2954,-1.02273 v -1.29529 c 0,-0.43181 -0.1364,-0.88631 -0.4318,-1.15901 l -23.5658,-31.86038 c 0,0 -0.5682,-0.88631 -1.4544,-0.88631 -0.4318,0 -0.7272,0.15911 -1.159,0.4545 -0.5909,0.43181 -0.7272,0.9999 -0.7272,1.4544 0,0.86362 0.4318,1.59082 0.4318,1.59082 l 11.0671,15.13478 c 0.2727,0.43181 0.4317,0.9999 0.4317,1.7271 0,0.59092 -0.159,1.31812 -0.4317,1.74979 l -14.7031,22.40692 c -0.1364,0.29542 -0.2955,0.86355 -0.2955,1.15897 v 1.31805 c 0,0.43178 0.1591,0.86355 0.4545,1.15898 l 16.2712,20.2252 c -0.5682,-0.159 -1.8862,-0.4545 -3.6361,-0.4545 -7.4083,0 -13.2259,6.1131 -13.2259,13.5442 0,2.0225 0.4318,4.0677 1.5907,5.6585 3.0679,4.6586 13.9759,18.4754 13.9759,18.4754 0,0 0.7272,0.8863 1.7499,0.8863 0.2727,0 0.5681,0 0.8635,-0.2954 0.7272,-0.5909 1.0226,-1.159 1.0226,-1.7499 0,-0.5908 -0.2954,-1.0226 -0.4317,-1.318 -0.4545,-0.7272 -5.0905,-9.1582 -5.0905,-9.1582 0,0 -1.0226,-2.0452 -1.0226,-4.6586 0,-4.6586 3.477,-8.431 8.1356,-8.431 1.8862,0 3.4996,0.5909 4.6586,1.3181 l 5.6813,3.636 c 0,0 0.5681,0.2727 1.1589,0.2727 0.5682,0 1.0227,-0.1364 1.4544,-0.7272 0.2955,-0.5682 0.4318,-0.8636 0.4318,-1.2954 0,-0.4317 -0.1363,-0.7272 -0.4318,-1.1589 l -0.2954,-0.4545"
     id="path15399"
     style="stroke-width:1.4544" />
  <path
     class="Breath"
     d="m 999.90663,1360.26 c 13.38507,-9.3172 19.47537,-18.4754 19.47537,-28.7926 0,-11.2034 -6.3858,-17.9073 -16.1348,-17.9073 -6.97657,0 -11.6352,4.9541 -11.6352,10.7717 0,6.2493 5.38583,11.067 11.6352,11.067 4.2269,0 6.2494,-1.0226 6.6812,-1.1817 0.2954,-0.1363 0.7272,-0.2727 1.0226,-0.2727 1.0226,0 1.159,0.5682 1.159,1.5908 0,6.2494 -5.6586,13.385 -15.70302,20.3616 l 3.49965,4.3632"
     id="path15401"
     style="stroke-width:1.4544" />
  <path
     class="Breath"
     d="m 2169.3946,444.77 c 13.3851,-9.31725 19.4754,-18.47539 19.4754,-28.79261 0,-11.20339 -6.3858,-17.9073 -16.1348,-17.9073 -6.9766,0 -11.6352,4.95412 -11.6352,10.77172 0,6.24927 5.3858,11.06697 11.6352,11.06697 4.2269,0 6.2494,-1.02259 6.6812,-1.1817 0.2954,-0.13628 0.7272,-0.2727 1.0226,-0.2727 1.0226,0 1.159,0.56823 1.159,1.59082 0,6.24941 -5.6586,13.38502 -15.703,20.3616 l 3.4996,4.3632"
     id="path15403"
     style="stroke-width:1.4544" />
  <path
     class="Lyrics"
     d="m 1970.47,705.563 v -17.218 h -3.57 c -0.87,11.296 -4.7,17.046 -11.75,17.562 v 3.406 h 7.15 v 22.188 c 0,6.078 0.17,8.265 1.04,10.265 1.39,3.641 4.86,5.657 9.91,5.657 7.84,0 12.89,-5.922 12.89,-15.141 0,-0.531 0,-1.141 -0.09,-2 h -3.66 c -0.27,7.828 -2.52,11.828 -6.78,11.828 -2,0 -3.75,-1.047 -4.36,-2.531 -0.52,-1.219 -0.78,-3.391 -0.78,-6.516 v -23.75 h 12.79 v -3.75 h -12.79 m 30.95,-21.656 c -2.78,0 -5.05,2.25 -5.05,5.047 0,2.781 2.27,5.047 4.97,5.047 2.88,0 5.13,-2.266 5.13,-5.047 0,-2.797 -2.25,-5.047 -5.05,-5.047 m 4.09,21.656 -16.36,0.953 v 3.75 h 4.44 c 3.31,0.079 3.75,0.61 3.75,4.344 v 24.891 c -0.09,1.297 -0.17,1.828 -0.53,2.265 -0.61,0.782 -2.26,1.125 -6,1.219 h -0.61 v 3.125 h 22.53 v -3.125 h -0.61 c -5.82,-0.187 -6.61,-0.609 -6.61,-3.75 v -33.672 m 16.64,56.563 c 7.85,-5.406 11.41,-10.703 11.41,-16.797 0,-5.219 -2.87,-8.609 -7.14,-8.609 -3.22,0 -5.66,2.25 -5.66,5.218 0,3.125 2.36,5.125 6.02,5.125 0.42,0 1.03,0 1.3,-0.078 h 0.26 c 0.44,0 0.61,0.25 0.61,0.781 0,3.657 -2.97,7.735 -8.8,11.829 l 2,2.531"
     id="path15405" />
  <path
     class="Lyrics"
     d="m 1444.81,1141.65 c -2.78,0 -5.04,2.25 -5.04,5.05 0,2.78 2.26,5.05 4.95,5.05 2.87,0 5.14,-2.27 5.14,-5.05 0,-2.8 -2.27,-5.05 -5.05,-5.05 m 4.1,21.66 -16.97,0.95 v 3.75 h 5.05 c 3.29,0.08 3.73,0.61 3.73,4.35 v 29.5 c 0,7.04 -0.44,10.35 -1.66,12.87 -0.86,1.73 -2.86,3.05 -4.78,3.05 -1.22,0 -2.17,-0.52 -2.17,-1.13 0,-0.36 0.09,-0.53 0.44,-1.4 0.44,-0.86 0.61,-1.47 0.61,-2.08 0,-2.17 -2.1,-4.1 -4.53,-4.1 -2.79,0 -4.88,2.18 -4.88,5.22 0,4.27 3.92,7.14 9.75,7.14 4.88,0 9.31,-2.09 11.83,-5.65 2.7,-3.83 3.58,-8.27 3.58,-18.1 v -34.37 m 47.31,12.53 c 0,-5.48 -0.95,-8.27 -3.48,-10.36 -2.88,-2.34 -7.13,-3.47 -12.71,-3.47 -9.83,0 -16.97,4.61 -16.97,10.95 0,3.22 2,5.32 5.05,5.32 2.8,0 4.7,-1.83 4.7,-4.44 0,-1.13 -0.43,-2.34 -1.31,-3.56 -0.51,-0.61 -0.59,-0.8 -0.59,-1.22 0,-1.75 3.47,-3.31 7.65,-3.31 2.78,0 5.83,0.87 7.22,2.17 1.64,1.39 2.25,3.48 2.25,7.4 v 3.39 c -9.04,1.57 -11.9,2.27 -16.17,3.91 -7.58,2.8 -11.14,6.8 -11.14,12.36 0,6.27 4.87,10.19 12.61,10.19 6.01,0 11.41,-2.44 15.14,-6.88 1.39,4.44 3.58,6.17 7.66,6.17 3.92,0 8.01,-2.53 8.01,-5.04 0,-0.61 -0.36,-1.05 -0.87,-1.05 -0.35,0 -0.71,0.09 -1.32,0.34 -1.21,0.54 -1.73,0.61 -2.43,0.61 -2.43,0 -3.3,-1.56 -3.3,-6 v -17.48 m -8.19,10.61 c 0,5.22 -0.25,6.44 -1.73,8.7 -2.17,3.22 -6.1,5.39 -9.92,5.39 -4,0 -6.88,-2.86 -6.88,-6.78 0,-3.65 1.83,-6.26 5.66,-8.09 2.7,-1.22 6.09,-2.08 12.87,-3.22 v 4 m 24.42,33.42 c 7.85,-5.41 11.41,-10.7 11.41,-16.8 0,-5.21 -2.87,-8.61 -7.14,-8.61 -3.22,0 -5.66,2.25 -5.66,5.22 0,3.13 2.36,5.13 6.02,5.13 0.42,0 1.03,0 1.3,-0.08 h 0.26 c 0.44,0 0.61,0.25 0.61,0.78 0,3.66 -2.97,7.74 -8.8,11.83 l 2,2.53"
     id="path15407" />
  <path
     class="Lyrics"
     d="M 487.067,1620.51 H 455.66 l -0.781,14.7 h 3.484 c 0.688,-7.73 4.079,-11.05 11.047,-10.95 h 7.563 l -23.75,33.67 v 3.12 h 33.844 l 0.609,-15.57 h -3.469 c -0.875,8.53 -4.265,11.92 -12.015,11.84 h -8.875 l 23.75,-33.67 v -3.14 m 43.093,12.53 c 0,-5.49 -0.953,-8.27 -3.484,-10.36 -2.875,-2.34 -7.125,-3.47 -12.703,-3.47 -9.828,0 -16.969,4.61 -16.969,10.95 0,3.22 2,5.32 5.047,5.32 2.797,0 4.703,-1.83 4.703,-4.44 0,-1.13 -0.437,-2.34 -1.312,-3.56 -0.516,-0.61 -0.594,-0.8 -0.594,-1.22 0,-1.75 3.469,-3.31 7.656,-3.31 2.781,0 5.828,0.87 7.219,2.17 1.64,1.39 2.25,3.48 2.25,7.4 v 3.39 c -9.047,1.57 -11.906,2.27 -16.172,3.91 -7.578,2.8 -11.141,6.8 -11.141,12.36 0,6.27 4.875,10.19 12.61,10.19 6.015,0 11.406,-2.44 15.14,-6.88 1.391,4.44 3.578,6.17 7.657,6.17 3.921,0 8.015,-2.53 8.015,-5.04 0,-0.61 -0.359,-1.05 -0.875,-1.05 -0.344,0 -0.703,0.09 -1.312,0.34 -1.219,0.54 -1.735,0.61 -2.438,0.61 -2.422,0 -3.297,-1.56 -3.297,-6 v -17.48 m -8.187,10.61 c 0,5.22 -0.25,6.44 -1.735,8.7 -2.171,3.22 -6.093,5.39 -9.921,5.39 -4,0 -6.875,-2.86 -6.875,-6.78 0,-3.66 1.828,-6.26 5.656,-8.09 2.703,-1.22 6.094,-2.08 12.875,-3.22 v 4"
     id="path15409" />
  <path
     class="Lyrics"
     d="m 1257.37,1596.93 -16.09,0.95 v 3.75 h 4.26 c 3.22,0.08 3.66,0.61 3.66,4.35 v 48.47 c -0.09,1.29 -0.19,1.82 -0.53,2.26 -0.61,0.78 -2.27,1.13 -6,1.22 h -0.61 v 3.12 h 22.53 v -3.12 h -0.61 c -5.83,-0.19 -6.61,-0.61 -6.61,-3.75 v -57.25 m 49.7,44.55 c 0.1,-13.05 -7.29,-22.27 -17.92,-22.27 -11.14,0 -19.48,9.66 -19.48,22.7 0,12.27 7.92,20.46 19.65,20.46 8.36,0 14.19,-4.1 17.75,-12.36 l -3.04,-1.66 c -3.56,6.7 -7.22,9.31 -13.05,9.31 -4.44,0 -7.66,-1.82 -9.92,-5.75 -1.56,-2.61 -2.25,-5.65 -2.17,-10.43 h 28.18 m -28.09,-3.74 c 0,-6.09 2.78,-14.79 10.09,-14.79 5.22,0 8.69,4.6 8.69,11.65 0,2.44 -0.78,3.14 -3.56,3.14 h -15.22"
     id="path15411" />
  <path
     class="Lyrics"
     d="m 666.143,1620.51 -15.047,0.95 v 3.75 h 3.125 c 3.313,0.08 3.75,0.61 3.75,4.34 v 42.55 c -0.093,1.22 -0.172,1.75 -0.531,2.17 -0.609,0.8 -2.25,1.14 -6,1.22 h -0.344 v 3.14 h 22.625 v -3.14 h -0.968 c -5.829,-0.17 -6.61,-0.61 -6.61,-3.73 v -16.46 c 2.875,5.05 6.094,7.07 11.485,7.07 11.578,0 17.578,-11.41 17.578,-21.77 0,-9.83 -6,-21.39 -17.047,-21.39 -5.406,0 -8.969,2.25 -12.016,7.47 v -6.17 m 10.438,3.39 c 6.015,0 9.484,6.01 9.484,16.19 0,11.21 -3.469,17.57 -9.734,17.57 -6.266,0 -10.266,-6.43 -10.266,-16.45 0,-10.87 3.906,-17.31 10.516,-17.31 m 41.047,-9.39 h 5.562 l 10.875,-14.44 h -3.125 l -10.531,8.78 -10.531,-8.78 h -3.047 l 10.797,14.44 m 21.484,26.97 c 0.094,-13.05 -7.297,-22.27 -17.922,-22.27 -11.141,0 -19.484,9.66 -19.484,22.7 0,12.27 7.922,20.46 19.656,20.46 8.359,0 14.187,-4.1 17.75,-12.36 l -3.047,-1.66 c -3.562,6.7 -7.219,9.31 -13.047,9.31 -4.437,0 -7.656,-1.82 -9.922,-5.75 -1.562,-2.61 -2.25,-5.65 -2.172,-10.43 h 28.188 m -28.094,-3.74 c 0,-6.09 2.781,-14.79 10.094,-14.79 5.219,0 8.687,4.6 8.687,11.65 0,2.44 -0.781,3.14 -3.562,3.14 h -15.219"
     id="path15413" />
  <path
     class="Lyrics"
     d="m 2427.74,681.985 -16.1,0.953 v 3.75 h 4.27 c 3.22,0.078 3.65,0.61 3.65,4.344 v 48.469 c -0.09,1.297 -0.18,1.828 -0.53,2.265 -0.61,0.782 -2.26,1.125 -6,1.219 h -0.61 v 3.125 h 22.53 v -3.125 h -0.6 c -5.83,-0.187 -6.61,-0.609 -6.61,-3.75 v -57.25 m 49.7,44.547 c 0.09,-13.047 -7.3,-22.266 -17.92,-22.266 -11.14,0 -19.49,9.657 -19.49,22.704 0,12.265 7.92,20.453 19.66,20.453 8.36,0 14.19,-4.094 17.75,-12.36 l -3.05,-1.656 c -3.56,6.703 -7.22,9.313 -13.04,9.313 -4.44,0 -7.66,-1.829 -9.93,-5.75 -1.56,-2.61 -2.25,-5.657 -2.17,-10.438 h 28.19 m -28.09,-3.734 c 0,-6.094 2.78,-14.797 10.09,-14.797 5.22,0 8.69,4.609 8.69,11.656 0,2.438 -0.78,3.141 -3.57,3.141 h -15.21"
     id="path15415" />
  <path
     class="Lyrics"
     d="m 746.407,1175.84 c 0,-5.48 -0.953,-8.27 -3.485,-10.36 -2.875,-2.34 -7.125,-3.47 -12.703,-3.47 -9.828,0 -16.969,4.61 -16.969,10.95 0,3.22 2,5.32 5.047,5.32 2.797,0 4.703,-1.83 4.703,-4.44 0,-1.13 -0.437,-2.34 -1.312,-3.56 -0.516,-0.61 -0.594,-0.8 -0.594,-1.22 0,-1.75 3.469,-3.31 7.656,-3.31 2.782,0 5.829,0.87 7.219,2.17 1.641,1.39 2.25,3.48 2.25,7.4 v 3.39 c -9.047,1.57 -11.906,2.27 -16.172,3.91 -7.578,2.8 -11.14,6.8 -11.14,12.36 0,6.27 4.875,10.19 12.609,10.19 6.016,0 11.406,-2.44 15.141,-6.88 1.39,4.44 3.578,6.17 7.656,6.17 3.922,0 8.016,-2.53 8.016,-5.04 0,-0.61 -0.36,-1.05 -0.875,-1.05 -0.344,0 -0.704,0.09 -1.313,0.34 -1.219,0.54 -1.734,0.61 -2.437,0.61 -2.422,0 -3.297,-1.56 -3.297,-6 v -17.48 m -8.188,10.61 c 0,5.22 -0.25,6.44 -1.734,8.7 -2.172,3.22 -6.094,5.39 -9.922,5.39 -4,0 -6.875,-2.86 -6.875,-6.78 0,-3.65 1.828,-6.26 5.656,-8.09 2.703,-1.22 6.094,-2.08 12.875,-3.22 v 4"
     id="path15417" />
  <path
     class="Lyrics"
     d="m 2262.69,718.095 c 0,-5.485 -0.96,-8.266 -3.49,-10.36 -2.87,-2.344 -7.12,-3.469 -12.7,-3.469 -9.83,0 -16.97,4.61 -16.97,10.954 0,3.218 2,5.312 5.05,5.312 2.79,0 4.7,-1.828 4.7,-4.437 0,-1.125 -0.44,-2.344 -1.31,-3.563 -0.52,-0.609 -0.6,-0.797 -0.6,-1.219 0,-1.75 3.47,-3.312 7.66,-3.312 2.78,0 5.83,0.875 7.22,2.172 1.64,1.39 2.25,3.484 2.25,7.406 v 3.391 c -9.05,1.562 -11.91,2.265 -16.17,3.906 -7.58,2.797 -11.14,6.797 -11.14,12.359 0,6.266 4.87,10.188 12.6,10.188 6.02,0 11.41,-2.438 15.15,-6.875 1.39,4.437 3.57,6.172 7.65,6.172 3.92,0 8.02,-2.532 8.02,-5.047 0,-0.61 -0.36,-1.047 -0.88,-1.047 -0.34,0 -0.7,0.094 -1.31,0.344 -1.22,0.531 -1.73,0.609 -2.44,0.609 -2.42,0 -3.29,-1.563 -3.29,-6 v -17.484 m -8.19,10.609 c 0,5.219 -0.25,6.437 -1.74,8.703 -2.17,3.219 -6.09,5.391 -9.92,5.391 -4,0 -6.87,-2.86 -6.87,-6.782 0,-3.656 1.82,-6.265 5.65,-8.093 2.71,-1.219 6.1,-2.078 12.88,-3.219 v 4"
     id="path15419" />
  <path
     class="Lyrics"
     d="m 2188.96,1163.31 -15.49,0.95 v 3.75 h 3.57 c 3.31,0.08 3.75,0.61 3.75,4.35 v 24.89 c -0.1,1.29 -0.17,1.82 -0.53,2.26 -0.61,0.78 -2.25,1.13 -6,1.22 h -0.35 v 3.13 h 21.92 v -3.13 h -0.34 c -5.75,-0.19 -6.53,-0.61 -6.53,-3.83 v -16.11 c 0,-7.73 4.26,-13.48 9.92,-13.48 4.95,0 7.49,3.58 7.49,10.62 v 19.39 c -0.1,1.14 -0.18,1.75 -0.61,2.19 -0.52,0.78 -2.27,1.13 -6,1.22 h -0.36 v 3.13 h 22.01 v -3.13 h -0.34 c -5.75,-0.19 -6.53,-0.61 -6.53,-3.75 v -15.41 c 0,-8.68 3.92,-14.26 10.01,-14.26 4.96,0 7.39,3.75 7.39,11.58 v 18.36 c -0.09,1.21 -0.17,1.82 -0.61,2.26 -0.51,0.78 -2.26,1.13 -6,1.22 h -0.34 v 3.13 h 22 v -3.13 h -0.34 c -5.74,-0.19 -6.53,-0.61 -6.53,-3.83 v -19.75 c 0,-5.4 -0.52,-7.23 -2.79,-10.19 -2.51,-3.21 -6.09,-4.95 -10.26,-4.95 -5.66,0 -9.83,2.69 -13.56,8.69 -1.49,-5.22 -6.19,-8.69 -12.02,-8.69 -5.31,0 -9.14,2.52 -12.53,8 v -6.7 m 99.97,20.97 c 0.09,-13.05 -7.3,-22.27 -17.92,-22.27 -11.14,0 -19.49,9.66 -19.49,22.7 0,12.27 7.92,20.46 19.66,20.46 8.36,0 14.19,-4.1 17.75,-12.36 l -3.05,-1.66 c -3.56,6.71 -7.22,9.31 -13.05,9.31 -4.43,0 -7.65,-1.82 -9.92,-5.75 -1.56,-2.6 -2.25,-5.65 -2.17,-10.43 h 28.19 m -28.1,-3.74 c 0,-6.09 2.79,-14.79 10.1,-14.79 5.22,0 8.69,4.61 8.69,11.65 0,2.44 -0.79,3.14 -3.57,3.14 h -15.22"
     id="path15421" />
  <path
     class="Lyrics"
     d="m 866.413,1620.51 v -17.22 h -3.562 c -0.875,11.3 -4.704,17.05 -11.75,17.56 v 3.41 h 7.14 v 22.19 c 0,6.07 0.172,8.26 1.047,10.26 1.391,3.64 4.859,5.66 9.906,5.66 7.844,0 12.891,-5.92 12.891,-15.14 0,-0.53 0,-1.14 -0.094,-2 h -3.656 c -0.266,7.82 -2.516,11.82 -6.781,11.82 -2,0 -3.75,-1.04 -4.36,-2.53 -0.515,-1.22 -0.781,-3.39 -0.781,-6.51 v -23.75 h 12.797 v -3.75 h -12.797 m 30.953,-21.66 c -2.781,0 -5.047,2.25 -5.047,5.05 0,2.78 2.266,5.05 4.969,5.05 2.875,0 5.125,-2.27 5.125,-5.05 0,-2.8 -2.25,-5.05 -5.047,-5.05 m 4.094,21.66 -16.359,0.95 v 3.75 h 4.437 c 3.313,0.08 3.75,0.61 3.75,4.34 v 24.9 c -0.094,1.29 -0.172,1.82 -0.531,2.26 -0.61,0.78 -2.266,1.13 -6,1.22 h -0.61 v 3.12 h 22.532 v -3.12 h -0.61 c -5.828,-0.19 -6.609,-0.61 -6.609,-3.75 v -33.67 m 16.641,56.56 c 7.843,-5.41 11.406,-10.7 11.406,-16.8 0,-5.22 -2.875,-8.61 -7.141,-8.61 -3.219,0 -5.656,2.25 -5.656,5.22 0,3.13 2.359,5.13 6.016,5.13 0.421,0 1.031,0 1.296,-0.08 h 0.266 c 0.438,0 0.609,0.25 0.609,0.78 0,3.66 -2.968,7.74 -8.796,11.83 l 2,2.53"
     id="path15423" />
  <path
     class="Lyrics"
     d="m 1885.45,1163.31 -15.05,0.95 v 3.75 h 3.13 c 3.31,0.08 3.75,0.61 3.75,4.35 v 42.54 c -0.1,1.22 -0.18,1.75 -0.53,2.17 -0.61,0.8 -2.25,1.14 -6,1.22 h -0.35 v 3.14 h 22.63 v -3.14 h -0.97 c -5.83,-0.17 -6.61,-0.61 -6.61,-3.73 v -16.45 c 2.87,5.04 6.09,7.06 11.48,7.06 11.58,0 17.58,-11.41 17.58,-21.77 0,-9.83 -6,-21.39 -17.05,-21.39 -5.4,0 -8.96,2.25 -12.01,7.47 v -6.17 m 10.44,3.39 c 6.01,0 9.48,6.01 9.48,16.19 0,11.22 -3.47,17.57 -9.73,17.57 -6.27,0 -10.27,-6.43 -10.27,-16.45 0,-10.87 3.91,-17.31 10.52,-17.31 m 44,-4.69 c -10.71,0 -18.97,9.49 -18.97,21.66 0,11.92 8.36,21.5 18.79,21.5 10.44,0 18.8,-9.58 18.8,-21.58 0,-11.92 -8.36,-21.58 -18.62,-21.58 m 0,3.74 c 6.09,0 9.48,6.36 9.48,17.84 0,11.56 -3.39,17.83 -9.66,17.83 -6.26,0 -9.65,-6.27 -9.65,-17.75 0,-11.83 3.31,-17.92 9.83,-17.92"
     id="path15425" />
  <path
     class="Lyrics"
     d="m 1769.5,681.985 -14.96,0.953 v 3.75 h 3.04 c 3.31,0.078 3.75,0.61 3.75,4.344 v 33.844 c 0,12.094 -0.54,18.719 -1.57,22.453 h 3.3 l 4.27,-6.781 c 3.56,4.687 7.65,6.875 13.04,6.875 10.8,0 18.72,-9.235 18.72,-21.844 0,-12.531 -7.31,-21.313 -17.75,-21.313 -5.31,0 -8.53,1.829 -11.84,6.782 v -29.063 m 10.26,26.719 c 6.53,0 10.19,6.344 10.19,17.75 0,11.047 -3.56,17.219 -9.92,17.219 -6.88,0 -10.97,-6.344 -10.97,-17.047 0,-11.656 3.75,-17.922 10.7,-17.922 m 41.05,-9.141 h 5.56 l 10.88,-14.437 h -3.13 l -10.53,8.781 -10.53,-8.781 h -3.05 l 10.8,14.437 m 21.48,26.969 c 0.1,-13.047 -7.29,-22.266 -17.92,-22.266 -11.14,0 -19.48,9.657 -19.48,22.704 0,12.265 7.92,20.453 19.65,20.453 8.36,0 14.19,-4.094 17.75,-12.36 l -3.04,-1.656 c -3.57,6.703 -7.22,9.313 -13.05,9.313 -4.44,0 -7.66,-1.829 -9.92,-5.75 -1.56,-2.61 -2.25,-5.657 -2.17,-10.438 h 28.18 m -28.09,-3.734 c 0,-6.094 2.78,-14.797 10.09,-14.797 5.22,0 8.69,4.609 8.69,11.656 0,2.438 -0.78,3.141 -3.56,3.141 h -15.22"
     id="path15427" />
  <path
     class="Lyrics"
     d="m 2382.97,1191.06 c -2.78,6.26 -5.75,8.8 -10.26,8.8 -6.97,0 -11.32,-6.36 -11.32,-16.54 0,-10.61 4.27,-17.57 10.71,-17.57 2.61,0 4.87,1.21 4.87,2.61 0,0.26 -0.09,0.53 -0.53,1.04 -1.39,1.66 -1.73,2.52 -1.73,4 0,2.88 2.17,4.88 5.22,4.88 3.14,0 5.31,-2.44 5.31,-5.92 0,-5.91 -5.83,-10.35 -13.58,-10.35 -11.31,0 -19.41,9.22 -19.41,22.27 0,12.36 7.41,20.89 18.19,20.89 7.75,0 12.19,-3.58 15.92,-12.8 l -3.39,-1.31 m 21.74,-51.33 -16.1,0.95 v 3.75 h 4.17 c 3.3,0.08 3.74,0.61 3.74,4.35 v 48.54 c -0.08,1.22 -0.17,1.75 -0.52,2.19 -0.61,0.78 -2.26,1.13 -6,1.22 h -0.36 v 3.13 h 22.02 v -3.13 h -0.34 c -5.83,-0.19 -6.61,-0.61 -6.61,-3.75 v -12.87 c 0,-4.27 0.61,-8.18 1.56,-10.19 1.91,-3.91 5.73,-6.61 9.48,-6.61 2.27,0 4.88,1.31 6.1,3.05 1.39,1.92 2,4.53 2,8.79 v 18.17 c -0.1,1.22 -0.17,1.75 -0.53,2.19 -0.61,0.78 -2.35,1.13 -6.08,1.22 h -0.36 v 3.13 h 22.01 v -3.13 h -0.34 c -5.75,-0.19 -6.53,-0.61 -6.53,-3.75 v -17.48 c 0,-6.27 -0.27,-7.83 -1.83,-10.8 -2.17,-4.25 -6.51,-6.69 -11.75,-6.69 -5.64,0 -9.83,2.52 -13.73,8.35 v -30.63 m 58.26,53.59 -9.92,-22.96 c -0.27,-0.69 -0.44,-1.4 -0.44,-1.91 0,-1.49 1.13,-2 4.71,-2 h 1.21 v -3.14 H 2438 v 3.14 h 0.69 c 3.31,0 4.53,0.86 5.75,3.73 l 14.95,34.99 h 3.05 l 12.36,-30.55 c 2.44,-5.92 4.53,-7.92 8.09,-8.17 h 0.35 v -3.14 h -17.41 v 3.14 h 1.22 c 3.05,0 4.7,1.03 4.7,3.03 0,1.05 -0.26,2.36 -0.78,3.66 l -8,20.18 m 37.81,-36.01 h 3.58 l 13.83,-8.44 c 1.3,-0.87 2.17,-2.17 2.17,-3.39 0,-1.75 -1.29,-3.05 -3.04,-3.05 -1.3,0 -2.08,0.44 -4.27,2.69 l -12.27,12.19 m 21.85,18.53 c 0,-5.48 -0.95,-8.27 -3.49,-10.36 -2.87,-2.34 -7.12,-3.47 -12.7,-3.47 -9.83,0 -16.97,4.61 -16.97,10.95 0,3.22 2,5.32 5.05,5.32 2.8,0 4.7,-1.83 4.7,-4.44 0,-1.13 -0.44,-2.34 -1.31,-3.56 -0.52,-0.61 -0.59,-0.8 -0.59,-1.22 0,-1.75 3.46,-3.31 7.65,-3.31 2.78,0 5.83,0.87 7.22,2.17 1.64,1.39 2.25,3.48 2.25,7.4 v 3.39 c -9.05,1.57 -11.91,2.27 -16.17,3.91 -7.58,2.8 -11.14,6.8 -11.14,12.36 0,6.27 4.87,10.19 12.61,10.19 6.01,0 11.4,-2.44 15.14,-6.88 1.39,4.44 3.58,6.17 7.65,6.17 3.93,0 8.02,-2.53 8.02,-5.04 0,-0.61 -0.36,-1.05 -0.87,-1.05 -0.35,0 -0.71,0.09 -1.32,0.34 -1.22,0.54 -1.73,0.61 -2.43,0.61 -2.43,0 -3.3,-1.56 -3.3,-6 v -17.48 m -8.19,10.61 c 0,5.22 -0.25,6.44 -1.73,8.7 -2.18,3.22 -6.1,5.39 -9.93,5.39 -4,0 -6.87,-2.86 -6.87,-6.78 0,-3.65 1.83,-6.26 5.66,-8.09 2.7,-1.22 6.09,-2.08 12.87,-3.22 v 4"
     id="path15429" />
  <path
     class="Lyrics"
     d="m 1691.81,1598.85 c -2.78,0 -5.04,2.25 -5.04,5.05 0,2.78 2.26,5.05 4.95,5.05 2.88,0 5.14,-2.27 5.14,-5.05 0,-2.8 -2.26,-5.05 -5.05,-5.05 m 4.1,21.66 -16.97,0.95 v 3.75 h 5.05 c 3.29,0.08 3.73,0.61 3.73,4.34 v 29.5 c 0,7.05 -0.44,10.36 -1.66,12.88 -0.86,1.73 -2.86,3.05 -4.78,3.05 -1.22,0 -2.17,-0.52 -2.17,-1.13 0,-0.36 0.09,-0.53 0.44,-1.4 0.44,-0.86 0.61,-1.47 0.61,-2.08 0,-2.17 -2.1,-4.1 -4.53,-4.1 -2.78,0 -4.88,2.18 -4.88,5.22 0,4.27 3.92,7.14 9.75,7.14 4.88,0 9.31,-2.09 11.83,-5.65 2.7,-3.83 3.58,-8.27 3.58,-18.1 v -34.37 m 47.31,12.53 c 0,-5.49 -0.95,-8.27 -3.48,-10.36 -2.88,-2.34 -7.13,-3.47 -12.71,-3.47 -9.83,0 -16.97,4.61 -16.97,10.95 0,3.22 2,5.32 5.05,5.32 2.8,0 4.7,-1.83 4.7,-4.44 0,-1.13 -0.43,-2.34 -1.31,-3.56 -0.51,-0.61 -0.59,-0.8 -0.59,-1.22 0,-1.75 3.47,-3.31 7.65,-3.31 2.79,0 5.83,0.87 7.22,2.17 1.64,1.39 2.25,3.48 2.25,7.4 v 3.39 c -9.04,1.57 -11.9,2.27 -16.17,3.91 -7.58,2.8 -11.14,6.8 -11.14,12.36 0,6.27 4.88,10.19 12.61,10.19 6.02,0 11.41,-2.44 15.14,-6.88 1.39,4.44 3.58,6.17 7.66,6.17 3.92,0 8.01,-2.53 8.01,-5.04 0,-0.61 -0.36,-1.05 -0.87,-1.05 -0.35,0 -0.71,0.09 -1.32,0.34 -1.21,0.54 -1.73,0.61 -2.43,0.61 -2.42,0 -3.3,-1.56 -3.3,-6 v -17.48 m -8.19,10.61 c 0,5.22 -0.25,6.44 -1.73,8.7 -2.17,3.22 -6.1,5.39 -9.92,5.39 -4,0 -6.88,-2.86 -6.88,-6.78 0,-3.66 1.83,-6.26 5.66,-8.09 2.7,-1.22 6.09,-2.08 12.87,-3.22 v 4 m 24.42,33.42 c 7.85,-5.41 11.41,-10.7 11.41,-16.8 0,-5.22 -2.87,-8.61 -7.14,-8.61 -3.22,0 -5.66,2.25 -5.66,5.22 0,3.13 2.36,5.13 6.02,5.13 0.42,0 1.03,0 1.3,-0.08 h 0.26 c 0.44,0 0.61,0.25 0.61,0.78 0,3.66 -2.97,7.74 -8.8,11.83 l 2,2.53"
     id="path15431" />
  <path
     class="Lyrics"
     d="m 1598.13,704.266 c -10.7,0 -18.97,9.485 -18.97,21.657 0,11.922 8.36,21.5 18.8,21.5 10.43,0 18.79,-9.578 18.79,-21.578 0,-11.922 -8.36,-21.579 -18.62,-21.579 m 0,3.735 c 6.09,0 9.48,6.359 9.48,17.844 0,11.562 -3.39,17.828 -9.65,17.828 -6.27,0 -9.66,-6.266 -9.66,-17.75 0,-11.828 3.31,-17.922 9.83,-17.922"
     id="path15433" />
  <path
     class="Lyrics"
     d="m 472.754,1141.65 c -2.781,0 -5.047,2.25 -5.047,5.05 0,2.78 2.266,5.05 4.953,5.05 2.875,0 5.141,-2.27 5.141,-5.05 0,-2.8 -2.266,-5.05 -5.047,-5.05 m 4.094,21.66 -16.969,0.95 v 3.75 h 5.047 c 3.297,0.08 3.734,0.61 3.734,4.35 v 29.5 c 0,7.04 -0.437,10.35 -1.656,12.87 -0.859,1.73 -2.859,3.05 -4.781,3.05 -1.219,0 -2.172,-0.52 -2.172,-1.13 0,-0.36 0.094,-0.53 0.437,-1.4 0.438,-0.86 0.61,-1.47 0.61,-2.08 0,-2.17 -2.094,-4.1 -4.531,-4.1 -2.782,0 -4.875,2.18 -4.875,5.22 0,4.27 3.921,7.14 9.75,7.14 4.875,0 9.312,-2.09 11.828,-5.65 2.703,-3.83 3.578,-8.27 3.578,-18.1 v -34.37 m 47.312,12.53 c 0,-5.48 -0.953,-8.27 -3.484,-10.36 -2.875,-2.34 -7.125,-3.47 -12.703,-3.47 -9.828,0 -16.969,4.61 -16.969,10.95 0,3.22 2,5.32 5.047,5.32 2.797,0 4.703,-1.83 4.703,-4.44 0,-1.13 -0.437,-2.34 -1.312,-3.56 -0.516,-0.61 -0.594,-0.8 -0.594,-1.22 0,-1.75 3.469,-3.31 7.656,-3.31 2.781,0 5.828,0.87 7.219,2.17 1.64,1.39 2.25,3.48 2.25,7.4 v 3.39 c -9.047,1.57 -11.906,2.27 -16.172,3.91 -7.578,2.8 -11.141,6.8 -11.141,12.36 0,6.27 4.875,10.19 12.61,10.19 6.015,0 11.406,-2.44 15.14,-6.88 1.391,4.44 3.578,6.17 7.657,6.17 3.921,0 8.015,-2.53 8.015,-5.04 0,-0.61 -0.359,-1.05 -0.875,-1.05 -0.344,0 -0.703,0.09 -1.312,0.34 -1.219,0.54 -1.735,0.61 -2.438,0.61 -2.422,0 -3.297,-1.56 -3.297,-6 v -17.48 m -8.187,10.61 c 0,5.22 -0.25,6.44 -1.735,8.7 -2.171,3.22 -6.093,5.39 -9.921,5.39 -4,0 -6.875,-2.86 -6.875,-6.78 0,-3.65 1.828,-6.26 5.656,-8.09 2.703,-1.22 6.094,-2.08 12.875,-3.22 v 4 m 24.422,33.42 c 7.843,-5.41 11.406,-10.7 11.406,-16.8 0,-5.21 -2.875,-8.61 -7.141,-8.61 -3.218,0 -5.656,2.25 -5.656,5.22 0,3.13 2.359,5.13 6.016,5.13 0.422,0 1.031,0 1.297,-0.08 h 0.265 c 0.438,0 0.61,0.25 0.61,0.78 0,3.66 -2.969,7.74 -8.797,11.83 l 2,2.53"
     id="path15435" />
  <path
     class="Lyrics"
     d="m 1928.05,1633.04 c 0,-5.49 -0.96,-8.27 -3.49,-10.36 -2.87,-2.34 -7.12,-3.47 -12.7,-3.47 -9.83,0 -16.97,4.61 -16.97,10.95 0,3.22 2,5.32 5.05,5.32 2.79,0 4.7,-1.83 4.7,-4.44 0,-1.13 -0.44,-2.34 -1.31,-3.56 -0.52,-0.61 -0.6,-0.8 -0.6,-1.22 0,-1.75 3.47,-3.31 7.66,-3.31 2.78,0 5.83,0.87 7.22,2.17 1.64,1.39 2.25,3.48 2.25,7.4 v 3.39 c -9.05,1.57 -11.91,2.27 -16.17,3.91 -7.58,2.8 -11.14,6.8 -11.14,12.36 0,6.27 4.87,10.19 12.61,10.19 6.01,0 11.4,-2.44 15.14,-6.88 1.39,4.44 3.57,6.17 7.65,6.17 3.92,0 8.02,-2.53 8.02,-5.04 0,-0.61 -0.36,-1.05 -0.88,-1.05 -0.34,0 -0.7,0.09 -1.31,0.34 -1.22,0.54 -1.73,0.61 -2.44,0.61 -2.42,0 -3.29,-1.56 -3.29,-6 v -17.48 m -8.19,10.61 c 0,5.22 -0.25,6.44 -1.74,8.7 -2.17,3.22 -6.09,5.39 -9.92,5.39 -4,0 -6.87,-2.86 -6.87,-6.78 0,-3.66 1.83,-6.26 5.65,-8.09 2.71,-1.22 6.1,-2.08 12.88,-3.22 v 4"
     id="path15437" />
  <path
     class="Lyrics"
     d="m 1160.23,705.563 -15.07,0.953 v 3.75 h 3.14 c 3.3,0.079 3.74,0.61 3.74,4.344 v 24.891 c -0.08,1.297 -0.17,1.828 -0.52,2.265 -0.61,0.782 -2.26,1.125 -6,1.219 h -0.36 v 3.125 h 22.02 v -3.125 h -0.34 c -5.83,-0.187 -6.61,-0.609 -6.61,-3.75 V 726.36 c 0,-4.265 0.61,-8.172 1.56,-10.187 1.83,-3.907 5.73,-6.61 9.48,-6.61 2.27,0 4.88,1.219 6.18,3.047 1.31,1.922 1.92,4.531 1.92,8.703 v 18.188 c -0.1,1.297 -0.17,1.828 -0.53,2.265 -0.61,0.782 -2.35,1.125 -6.08,1.219 h -0.36 v 3.125 h 22.01 v -3.125 h -0.34 c -5.75,-0.187 -6.53,-0.609 -6.53,-3.75 v -17.484 c 0,-6.266 -0.27,-7.828 -1.83,-10.797 -2.17,-4.172 -6.51,-6.688 -11.75,-6.688 -5.64,0 -9.91,2.61 -13.73,8.344 v -7.047 m 57.51,-1.297 c -10.7,0 -18.97,9.485 -18.97,21.657 0,11.922 8.36,21.5 18.8,21.5 10.44,0 18.8,-9.578 18.8,-21.578 0,-11.922 -8.36,-21.579 -18.63,-21.579 m 0,3.735 c 6.1,0 9.49,6.359 9.49,17.844 0,11.562 -3.39,17.828 -9.66,17.828 -6.27,0 -9.66,-6.266 -9.66,-17.75 0,-11.828 3.32,-17.922 9.83,-17.922 m 41.31,-8.438 h 5.57 l 10.87,-14.437 h -3.12 l -10.53,8.781 -10.54,-8.781 h -3.04 l 10.79,14.437 m 14.44,33.75 c -2.78,6.266 -5.75,8.797 -10.26,8.797 -6.97,0 -11.32,-6.359 -11.32,-16.531 0,-10.609 4.27,-17.578 10.71,-17.578 2.61,0 4.87,1.219 4.87,2.609 0,0.266 -0.09,0.531 -0.53,1.047 -1.39,1.656 -1.73,2.516 -1.73,4 0,2.875 2.17,4.875 5.22,4.875 3.14,0 5.31,-2.437 5.31,-5.922 0,-5.906 -5.83,-10.344 -13.58,-10.344 -11.31,0 -19.41,9.219 -19.41,22.266 0,12.359 7.41,20.891 18.19,20.891 7.75,0 12.19,-3.578 15.92,-12.797 l -3.39,-1.313"
     id="path15439" />
  <path
     class="Lyrics"
     d="m 996.881,725.048 v -43.063 l -16.093,0.953 v 3.75 h 4.172 c 3.312,0.078 3.75,0.61 3.75,4.344 v 48.547 c -0.094,1.219 -0.172,1.75 -0.532,2.187 -0.609,0.782 -2.265,1.125 -6,1.219 h -0.343 v 3.125 h 22.015 v -3.125 h -0.36 c -5.827,-0.187 -6.609,-0.609 -6.609,-3.75 v -8.781 l 5.309,-5.047 10.35,14.531 c 0.44,0.688 0.61,1.125 0.61,1.469 0,1.219 -0.96,1.578 -3.83,1.578 h -1.64 v 3.125 h 22.97 v -3.125 c -4.88,-0.437 -6.63,-1.484 -10.19,-6.015 l -12.36,-16.875 3.92,-3.829 c 5.14,-4.953 8.78,-6.875 14.71,-7.562 v -3.141 h -22.88 v 3.141 h 2.69 c 2.78,0 4.09,0.516 4.09,1.641 0,0.968 -0.61,2 -2,3.406 l -11.749,11.297 m 54.609,-20.782 c -10.7,0 -18.97,9.485 -18.97,21.657 0,11.922 8.36,21.5 18.8,21.5 10.44,0 18.8,-9.578 18.8,-21.578 0,-11.922 -8.36,-21.579 -18.63,-21.579 m 0,3.735 c 6.09,0 9.49,6.359 9.49,17.844 0,11.562 -3.4,17.828 -9.66,17.828 -6.27,0 -9.66,-6.266 -9.66,-17.75 0,-11.828 3.32,-17.922 9.83,-17.922"
     id="path15441" />
  <path
     class="Lyrics"
     d="m 882.562,681.985 -16.093,0.953 v 3.75 h 4.265 c 3.219,0.078 3.657,0.61 3.657,4.344 v 48.469 c -0.094,1.297 -0.188,1.828 -0.532,2.265 -0.609,0.782 -2.265,1.125 -6,1.219 h -0.609 v 3.125 h 22.531 v -3.125 h -0.609 c -5.828,-0.187 -6.61,-0.609 -6.61,-3.75 v -57.25 m 23.079,1.922 c -2.782,0 -5.047,2.25 -5.047,5.047 0,2.781 2.265,5.047 4.968,5.047 2.875,0 5.125,-2.266 5.125,-5.047 0,-2.797 -2.25,-5.047 -5.046,-5.047 m 4.093,21.656 -16.359,0.953 v 3.75 h 4.437 c 3.313,0.079 3.75,0.61 3.75,4.344 v 24.891 c -0.093,1.297 -0.171,1.828 -0.531,2.265 -0.609,0.782 -2.265,1.125 -6,1.219 h -0.609 v 3.125 h 22.531 v -3.125 h -0.609 c -5.828,-0.187 -6.61,-0.609 -6.61,-3.75 v -33.672"
     id="path15443" />
  <path
     class="Lyrics"
     d="m 2019.23,1162.36 h -3.04 l -2.54,3.12 c -3.12,-2.44 -6.26,-3.47 -10.61,-3.47 -7.65,0 -12.7,4.95 -12.7,12.61 0,8.17 5.31,10.27 12.27,11.92 l 4.61,1.05 c 6.87,1.66 9.31,3.39 9.31,6.87 0,4.08 -3.56,6.96 -8.61,6.96 -7.41,0 -12.63,-4.71 -14.7,-13.39 h -3.49 v 16.43 h 3.05 l 3.05,-3.56 c 3.56,2.86 7.48,4.27 11.92,4.27 8.51,0 14.17,-5.31 14.17,-13.41 0,-3.83 -1.22,-6.78 -3.66,-8.78 -2.07,-1.83 -3.82,-2.53 -9.12,-3.66 l -4.36,-0.96 c -4.78,-1.04 -4.78,-1.04 -6.34,-1.91 -1.93,-0.88 -3.05,-2.7 -3.05,-4.61 0,-3.56 3.31,-6 8.09,-6 7.13,0 10.61,5.05 12.71,11.12 h 3.04 v -14.6 m 22.55,0.95 -15.05,0.95 v 3.75 h 3.13 c 3.31,0.08 3.75,0.61 3.75,4.35 v 42.54 c -0.1,1.22 -0.17,1.75 -0.53,2.17 -0.61,0.8 -2.25,1.14 -6,1.22 h -0.35 v 3.14 h 22.63 v -3.14 h -0.97 c -5.83,-0.17 -6.61,-0.61 -6.61,-3.73 v -16.45 c 2.87,5.04 6.09,7.06 11.48,7.06 11.58,0 17.58,-11.41 17.58,-21.77 0,-9.83 -6,-21.39 -17.05,-21.39 -5.4,0 -8.96,2.25 -12.01,7.47 v -6.17 m 10.44,3.39 c 6.01,0 9.48,6.01 9.48,16.19 0,11.22 -3.47,17.57 -9.73,17.57 -6.27,0 -10.27,-6.43 -10.27,-16.45 0,-10.87 3.91,-17.31 10.52,-17.31 m 41.04,-9.39 h 5.57 l 10.87,-14.44 h -3.12 l -10.54,8.78 -10.53,-8.78 h -3.04 l 10.79,14.44 m 21.49,26.97 c 0.09,-13.05 -7.3,-22.27 -17.92,-22.27 -11.14,0 -19.49,9.66 -19.49,22.7 0,12.27 7.92,20.46 19.66,20.46 8.36,0 14.19,-4.1 17.75,-12.36 l -3.05,-1.66 c -3.56,6.71 -7.22,9.31 -13.05,9.31 -4.43,0 -7.65,-1.82 -9.92,-5.75 -1.56,-2.6 -2.25,-5.65 -2.17,-10.43 h 28.19 m -28.1,-3.74 c 0,-6.09 2.79,-14.79 10.1,-14.79 5.22,0 8.69,4.61 8.69,11.65 0,2.44 -0.79,3.14 -3.57,3.14 h -15.22 m 49.05,-23.23 h 5.47 l 10.89,-14.44 h -3.14 l -10.53,8.78 -10.44,-8.78 h -3.12 l 10.87,14.44 m 16.53,5.05 h -3.04 l -2.54,3.12 c -3.12,-2.44 -6.26,-3.47 -10.61,-3.47 -7.65,0 -12.7,4.95 -12.7,12.61 0,8.17 5.31,10.27 12.27,11.92 l 4.61,1.05 c 6.87,1.66 9.31,3.39 9.31,6.87 0,4.08 -3.56,6.96 -8.61,6.96 -7.41,0 -12.63,-4.71 -14.7,-13.39 h -3.49 v 16.43 h 3.05 l 3.05,-3.56 c 3.56,2.86 7.48,4.27 11.92,4.27 8.51,0 14.17,-5.31 14.17,-13.41 0,-3.83 -1.22,-6.78 -3.66,-8.78 -2.07,-1.83 -3.82,-2.53 -9.12,-3.66 l -4.36,-0.96 c -4.78,-1.04 -4.78,-1.04 -6.34,-1.91 -1.93,-0.88 -3.05,-2.7 -3.05,-4.61 0,-3.56 3.31,-6 8.09,-6 7.13,0 10.61,5.05 12.71,11.12 h 3.04 v -14.6"
     id="path15445" />
  <path
     class="Lyrics"
     d="m 2092.23,1596.93 -16.1,0.95 v 3.75 h 4.27 c 3.22,0.08 3.65,0.61 3.65,4.35 v 48.47 c -0.09,1.29 -0.18,1.82 -0.53,2.26 -0.61,0.78 -2.26,1.13 -6,1.22 h -0.61 v 3.12 h 22.53 v -3.12 h -0.61 c -5.82,-0.19 -6.6,-0.61 -6.6,-3.75 v -57.25 m 49.7,44.55 c 0.09,-13.05 -7.3,-22.27 -17.92,-22.27 -11.14,0 -19.49,9.66 -19.49,22.7 0,12.27 7.92,20.46 19.66,20.46 8.36,0 14.19,-4.1 17.75,-12.36 l -3.05,-1.66 c -3.56,6.7 -7.22,9.31 -13.05,9.31 -4.43,0 -7.65,-1.82 -9.92,-5.75 -1.56,-2.61 -2.25,-5.65 -2.17,-10.43 h 28.19 m -28.1,-3.74 c 0,-6.09 2.79,-14.79 10.1,-14.79 5.22,0 8.69,4.6 8.69,11.65 0,2.44 -0.79,3.14 -3.57,3.14 h -15.22"
     id="path15447" />
  <path
     class="Lyrics"
     d="m 1388.36,705.563 -15.06,0.953 v 3.75 h 3.14 c 3.3,0.079 3.73,0.61 3.73,4.344 v 24.891 c -0.07,1.297 -0.17,1.828 -0.51,2.265 -0.61,0.782 -2.27,1.125 -6,1.219 h -0.36 v 3.125 h 22.01 v -3.125 h -0.34 c -5.83,-0.187 -6.61,-0.609 -6.61,-3.75 V 726.36 c 0,-4.265 0.61,-8.172 1.56,-10.187 1.83,-3.907 5.74,-6.61 9.49,-6.61 2.26,0 4.87,1.219 6.17,3.047 1.31,1.922 1.92,4.531 1.92,8.703 v 18.188 c -0.09,1.297 -0.17,1.828 -0.53,2.265 -0.61,0.782 -2.34,1.125 -6.08,1.219 h -0.36 v 3.125 h 22.02 v -3.125 h -0.35 c -5.75,-0.187 -6.53,-0.609 -6.53,-3.75 v -17.484 c 0,-6.266 -0.26,-7.828 -1.82,-10.797 -2.18,-4.172 -6.52,-6.688 -11.75,-6.688 -5.65,0 -9.91,2.61 -13.74,8.344 v -7.047 m 42.74,-6 h 3.56 l 13.83,-8.437 c 1.31,-0.875 2.17,-2.172 2.17,-3.391 0,-1.75 -1.3,-3.047 -3.03,-3.047 -1.39,0 -2.1,0.438 -4.36,2.688 l -12.17,12.187 m 10.78,6 -16.36,0.953 v 3.75 h 4.43 c 3.32,0.079 3.75,0.61 3.75,4.344 v 24.891 c -0.09,1.219 -0.17,1.828 -0.53,2.265 -0.61,0.782 -2.26,1.125 -6,1.219 h -0.61 v 3.125 h 22.54 v -3.125 h -0.61 c -5.83,-0.187 -6.61,-0.609 -6.61,-3.75 v -33.672"
     id="path15449" />
  <path
     class="Lyrics"
     d="m 2655.8,1139.73 -16.1,0.95 v 3.75 h 4.27 c 3.22,0.08 3.66,0.61 3.66,4.35 v 48.47 c -0.1,1.29 -0.19,1.82 -0.54,2.26 -0.61,0.78 -2.26,1.13 -6,1.22 h -0.61 v 3.13 h 22.54 v -3.13 h -0.61 c -5.83,-0.19 -6.61,-0.61 -6.61,-3.75 v -57.25 m 45.09,64.73 15.84,-0.6 v -3.74 h -2.18 c -5.05,-0.19 -5.47,-0.7 -5.47,-6.36 v -30.45 l -16.36,0.95 v 3.75 h 4.44 c 3.29,0.08 3.73,0.61 3.73,4.35 v 10.7 c 0,7.58 -1.83,16.8 -11.39,16.8 -2.7,0 -4.97,-0.96 -6.09,-2.71 -1.13,-1.65 -1.32,-2.51 -1.32,-7.31 v -26.53 l -15.21,0.95 v 3.75 h 3.31 c 3.29,0.08 3.73,0.61 3.73,4.35 v 18.79 c 0,4.44 0.35,6.44 1.66,8.44 2.34,3.56 6.51,5.58 11.75,5.58 5.73,0 9.73,-2.36 13.56,-7.92 v 7.21"
     id="path15451" />
  <path
     class="Lyrics"
     d="m 667.715,684.516 h -3.047 c -5.485,4.079 -11.657,5.829 -22.016,6 v 4.875 h 3.656 c 7.75,0 7.828,0.172 7.75,7.297 v 30.891 c 0,5.391 0,5.656 -0.609,6.531 -0.781,0.953 -2.531,1.297 -7.234,1.297 h -2.782 v 4.703 h 34.719 v -4.703 h -2.781 c -4.61,0 -6.266,-0.344 -7.047,-1.297 -0.609,-0.875 -0.609,-1.219 -0.609,-6.531 v -49.063 m 29.812,46.547 c -4.531,0 -8.172,3.657 -8.172,8.172 0,4.438 3.641,8.188 8.078,8.188 4.625,0 8.266,-3.657 8.266,-8.188 0,-4.515 -3.641,-8.172 -8.172,-8.172"
     id="path15453" />
  <path
     class="Lyrics"
     d="m 768.621,732.626 -15.922,-40.375 c -0.422,-1.125 -0.688,-2.266 -0.688,-2.688 0,-1.578 1.469,-2.187 5.391,-2.187 h 3.484 v -4.078 H 733.73 v 4.078 h 1.75 c 4,0.094 5.297,1.047 6.703,4.875 l 22,55.172 h 3.485 l 20.015,-51.516 c 2.61,-6.781 4.438,-8.359 9.485,-8.531 h 0.859 v -4.078 h -23.578 v 4.078 h 1.656 c 4.438,0 7.047,1.75 7.047,4.531 0,1.219 -0.437,3.125 -1.047,4.875 l -13.484,35.844 m 62.265,-6.094 c 0.094,-13.047 -7.296,-22.266 -17.921,-22.266 -11.141,0 -19.485,9.657 -19.485,22.704 0,12.265 7.922,20.453 19.656,20.453 8.36,0 14.188,-4.094 17.75,-12.36 l -3.046,-1.656 c -3.563,6.703 -7.219,9.313 -13.047,9.313 -4.438,0 -7.657,-1.829 -9.922,-5.75 -1.563,-2.61 -2.25,-5.657 -2.172,-10.438 h 28.187 m -28.093,-3.734 c 0,-6.094 2.781,-14.797 10.093,-14.797 5.219,0 8.688,4.609 8.688,11.656 0,2.438 -0.781,3.141 -3.563,3.141 h -15.218"
     id="path15455" />
  <path
     class="Lyrics"
     d="m 1235.82,1139.73 -16.1,0.95 v 3.75 h 4.27 c 3.22,0.08 3.65,0.61 3.65,4.35 v 48.47 c -0.09,1.29 -0.18,1.82 -0.53,2.26 -0.61,0.78 -2.26,1.13 -6,1.22 h -0.61 v 3.13 h 22.53 v -3.13 h -0.6 c -5.83,-0.19 -6.61,-0.61 -6.61,-3.75 v -57.25 m 45.09,64.73 15.84,-0.6 v -3.74 h -2.18 c -5.05,-0.19 -5.47,-0.7 -5.47,-6.36 v -30.45 l -16.36,0.95 v 3.75 h 4.44 c 3.29,0.08 3.73,0.61 3.73,4.35 v 10.7 c 0,7.58 -1.83,16.8 -11.39,16.8 -2.7,0 -4.97,-0.96 -6.09,-2.71 -1.13,-1.65 -1.32,-2.51 -1.32,-7.31 v -26.53 l -15.22,0.95 v 3.75 h 3.32 c 3.29,0.08 3.73,0.61 3.73,4.35 v 18.79 c 0,4.44 0.34,6.44 1.66,8.44 2.34,3.56 6.51,5.58 11.75,5.58 5.73,0 9.73,-2.36 13.56,-7.92 v 7.21"
     id="path15457" />
  <path
     class="Lyrics"
     d="m 2342.62,1596.93 -16.1,0.95 v 3.75 h 4.27 c 3.22,0.08 3.65,0.61 3.65,4.35 v 48.47 c -0.09,1.29 -0.18,1.82 -0.53,2.26 -0.61,0.78 -2.26,1.13 -6,1.22 h -0.61 v 3.12 h 22.54 v -3.12 h -0.61 c -5.83,-0.19 -6.61,-0.61 -6.61,-3.75 v -57.25 m 45.09,64.73 15.84,-0.61 v -3.73 h -2.18 c -5.05,-0.19 -5.47,-0.7 -5.47,-6.36 v -30.45 l -16.36,0.95 v 3.75 h 4.44 c 3.29,0.08 3.73,0.61 3.73,4.34 v 10.71 c 0,7.58 -1.83,16.79 -11.39,16.79 -2.7,0 -4.97,-0.95 -6.09,-2.7 -1.13,-1.65 -1.32,-2.51 -1.32,-7.31 v -26.53 l -15.22,0.95 v 3.75 h 3.32 c 3.29,0.08 3.73,0.61 3.73,4.34 v 18.8 c 0,4.44 0.35,6.44 1.66,8.44 2.34,3.56 6.51,5.58 11.75,5.58 5.73,0 9.73,-2.36 13.56,-7.92 v 7.21"
     id="path15459" />
  <path
     class="Lyrics"
     d="m 1093.19,1633.04 c 0,-5.49 -0.95,-8.27 -3.48,-10.36 -2.88,-2.34 -7.13,-3.47 -12.7,-3.47 -9.83,0 -16.97,4.61 -16.97,10.95 0,3.22 2,5.32 5.04,5.32 2.8,0 4.71,-1.83 4.71,-4.44 0,-1.13 -0.44,-2.34 -1.32,-3.56 -0.51,-0.61 -0.59,-0.8 -0.59,-1.22 0,-1.75 3.47,-3.31 7.66,-3.31 2.78,0 5.82,0.87 7.22,2.17 1.64,1.39 2.25,3.48 2.25,7.4 v 3.39 c -9.05,1.57 -11.91,2.27 -16.18,3.91 -7.57,2.8 -11.14,6.8 -11.14,12.36 0,6.27 4.88,10.19 12.61,10.19 6.02,0 11.41,-2.44 15.14,-6.88 1.39,4.44 3.58,6.17 7.66,6.17 3.92,0 8.01,-2.53 8.01,-5.04 0,-0.61 -0.35,-1.05 -0.87,-1.05 -0.34,0 -0.7,0.09 -1.31,0.34 -1.22,0.54 -1.74,0.61 -2.44,0.61 -2.42,0 -3.3,-1.56 -3.3,-6 v -17.48 m -8.18,10.61 c 0,5.22 -0.25,6.44 -1.74,8.7 -2.17,3.22 -6.09,5.39 -9.92,5.39 -4,0 -6.88,-2.86 -6.88,-6.78 0,-3.66 1.83,-6.26 5.66,-8.09 2.7,-1.22 6.09,-2.08 12.88,-3.22 v 4"
     id="path15461" />
  <path
     class="Lyrics"
     d="m 1507.76,1596.93 -16.09,0.95 v 3.75 h 4.26 c 3.22,0.08 3.66,0.61 3.66,4.35 v 48.47 c -0.09,1.29 -0.19,1.82 -0.53,2.26 -0.61,0.78 -2.27,1.13 -6,1.22 h -0.61 v 3.12 h 22.53 v -3.12 h -0.61 c -5.83,-0.19 -6.61,-0.61 -6.61,-3.75 v -57.25 m 45.1,64.73 15.84,-0.61 v -3.73 h -2.19 c -5.04,-0.19 -5.47,-0.7 -5.47,-6.36 v -30.45 l -16.36,0.95 v 3.75 h 4.44 c 3.3,0.08 3.74,0.61 3.74,4.34 v 10.71 c 0,7.58 -1.83,16.79 -11.39,16.79 -2.71,0 -4.97,-0.95 -6.1,-2.7 -1.12,-1.65 -1.31,-2.51 -1.31,-7.31 v -26.53 l -15.22,0.95 v 3.75 h 3.31 c 3.3,0.08 3.74,0.61 3.74,4.34 v 18.8 c 0,4.44 0.34,6.44 1.65,8.44 2.35,3.56 6.52,5.58 11.75,5.58 5.74,0 9.74,-2.36 13.57,-7.92 v 7.21"
     id="path15463" />
  <path
     class="Lyrics"
     d="m 2679.87,681.985 -16.09,0.953 v 3.75 h 4.26 c 3.22,0.078 3.66,0.61 3.66,4.344 v 48.469 c -0.09,1.297 -0.19,1.828 -0.53,2.265 -0.61,0.782 -2.27,1.125 -6,1.219 h -0.61 v 3.125 h 22.53 v -3.125 h -0.61 c -5.83,-0.187 -6.61,-0.609 -6.61,-3.75 v -57.25 m 45.1,64.735 15.84,-0.61 v -3.734 h -2.19 c -5.05,-0.188 -5.47,-0.703 -5.47,-6.36 v -30.453 l -16.36,0.953 v 3.75 h 4.44 c 3.3,0.079 3.74,0.61 3.74,4.344 v 10.703 c 0,7.578 -1.83,16.797 -11.4,16.797 -2.7,0 -4.96,-0.953 -6.09,-2.703 -1.12,-1.656 -1.31,-2.516 -1.31,-7.312 v -26.532 l -15.22,0.953 v 3.75 h 3.31 c 3.3,0.079 3.74,0.61 3.74,4.344 v 18.797 c 0,4.438 0.34,6.438 1.65,8.438 2.35,3.562 6.52,5.578 11.75,5.578 5.74,0 9.74,-2.36 13.57,-7.922 v 7.219"
     id="path15465" />
  <path
     class="Lyrics"
     d="m 935.532,1139.73 -16.094,0.95 v 3.75 h 4.265 c 3.219,0.08 3.657,0.61 3.657,4.35 v 48.47 c -0.094,1.29 -0.188,1.82 -0.532,2.26 -0.609,0.78 -2.265,1.13 -6,1.22 h -0.609 v 3.13 h 22.531 v -3.13 h -0.609 c -5.828,-0.19 -6.609,-0.61 -6.609,-3.75 v -57.25 m 49.703,44.55 c 0.093,-13.05 -7.297,-22.27 -17.922,-22.27 -11.141,0 -19.485,9.66 -19.485,22.7 0,12.27 7.922,20.46 19.657,20.46 8.359,0 14.187,-4.1 17.75,-12.36 l -3.047,-1.66 c -3.563,6.71 -7.219,9.31 -13.047,9.31 -4.438,0 -7.656,-1.82 -9.922,-5.75 -1.562,-2.6 -2.25,-5.65 -2.172,-10.43 h 28.188 m -28.094,-3.74 c 0,-6.09 2.781,-14.79 10.094,-14.79 5.218,0 8.687,4.61 8.687,11.65 0,2.44 -0.781,3.14 -3.562,3.14 h -15.219"
     id="path15467" />
  <path
     class="Lyrics"
     d="m 2526.67,1598.85 c -2.78,0 -5.05,2.25 -5.05,5.05 0,2.78 2.27,5.05 4.95,5.05 2.88,0 5.14,-2.27 5.14,-5.05 0,-2.8 -2.26,-5.05 -5.04,-5.05 m 4.09,21.66 -16.97,0.95 v 3.75 h 5.05 c 3.3,0.08 3.73,0.61 3.73,4.34 v 29.5 c 0,7.05 -0.43,10.36 -1.65,12.88 -0.86,1.73 -2.86,3.05 -4.78,3.05 -1.22,0 -2.18,-0.52 -2.18,-1.13 0,-0.36 0.1,-0.53 0.44,-1.4 0.44,-0.86 0.61,-1.47 0.61,-2.08 0,-2.17 -2.09,-4.1 -4.53,-4.1 -2.78,0 -4.87,2.18 -4.87,5.22 0,4.27 3.92,7.14 9.75,7.14 4.87,0 9.31,-2.09 11.82,-5.65 2.71,-3.83 3.58,-8.27 3.58,-18.1 v -34.37 m 47.31,12.53 c 0,-5.49 -0.95,-8.27 -3.48,-10.36 -2.88,-2.34 -7.13,-3.47 -12.7,-3.47 -9.83,0 -16.97,4.61 -16.97,10.95 0,3.22 2,5.32 5.04,5.32 2.8,0 4.71,-1.83 4.71,-4.44 0,-1.13 -0.44,-2.34 -1.31,-3.56 -0.52,-0.61 -0.6,-0.8 -0.6,-1.22 0,-1.75 3.47,-3.31 7.66,-3.31 2.78,0 5.83,0.87 7.22,2.17 1.64,1.39 2.25,3.48 2.25,7.4 v 3.39 c -9.05,1.57 -11.91,2.27 -16.18,3.91 -7.57,2.8 -11.14,6.8 -11.14,12.36 0,6.27 4.88,10.19 12.61,10.19 6.02,0 11.41,-2.44 15.14,-6.88 1.39,4.44 3.58,6.17 7.66,6.17 3.92,0 8.02,-2.53 8.02,-5.04 0,-0.61 -0.36,-1.05 -0.88,-1.05 -0.34,0 -0.7,0.09 -1.31,0.34 -1.22,0.54 -1.74,0.61 -2.44,0.61 -2.42,0 -3.3,-1.56 -3.3,-6 v -17.48 m -8.18,10.61 c 0,5.22 -0.25,6.44 -1.74,8.7 -2.17,3.22 -6.09,5.39 -9.92,5.39 -4,0 -6.87,-2.86 -6.87,-6.78 0,-3.66 1.82,-6.26 5.65,-8.09 2.7,-1.22 6.1,-2.08 12.88,-3.22 v 4 m 28.78,7.75 c -3.05,0 -5.49,2.44 -5.49,5.39 0,3.05 2.44,5.48 5.39,5.48 3.05,0 5.49,-2.43 5.49,-5.48 0,-2.95 -2.44,-5.39 -5.39,-5.39"
     id="path15469" />
  <polyline
     class="LyricsLineSegment"
     fill="none"
     stroke="#000000"
     stroke-width="3.64"
     stroke-linejoin="bevel"
     points="1887.81,725.839 1909.62,725.839"
     id="polyline15471" />
  <polyline
     class="LyricsLineSegment"
     fill="none"
     stroke="#000000"
     stroke-width="3.64"
     stroke-linejoin="bevel"
     points="2330.26,725.839 2352.08,725.839"
     id="polyline15473" />
  <polyline
     class="LyricsLineSegment"
     fill="none"
     stroke="#000000"
     stroke-width="3.64"
     stroke-linejoin="bevel"
     points="2559.65,725.839 2581.46,725.839"
     id="polyline15475" />
  <polyline
     class="LyricsLineSegment"
     fill="none"
     stroke="#000000"
     stroke-width="3.64"
     stroke-linejoin="bevel"
     points="1314.48,725.839 1336.3,725.839"
     id="polyline15477" />
  <polyline
     class="LyricsLineSegment"
     fill="none"
     stroke="#000000"
     stroke-width="3.64"
     stroke-linejoin="bevel"
     points="837.715,725.839 859.531,725.839"
     id="polyline15479" />
  <polyline
     class="LyricsLineSegment"
     fill="none"
     stroke="#000000"
     stroke-width="3.64"
     stroke-linejoin="bevel"
     points="2762.14,725.839 2783.96,725.839"
     id="polyline15481" />
  <polyline
     class="LyricsLineSegment"
     fill="none"
     stroke="#000000"
     stroke-width="3.64"
     stroke-linejoin="bevel"
     points="1674.62,725.839 1696.43,725.839"
     id="polyline15483" />
  <polyline
     class="LyricsLineSegment"
     fill="none"
     stroke="#000000"
     stroke-width="3.64"
     stroke-linejoin="bevel"
     points="1091.52,1183.58 1113.33,1183.58"
     id="polyline15485" />
  <polyline
     class="LyricsLineSegment"
     fill="none"
     stroke="#000000"
     stroke-width="3.64"
     stroke-linejoin="bevel"
     points="2157.11,1183.58 2171.66,1183.58"
     id="polyline15487" />
  <polyline
     class="LyricsLineSegment"
     fill="none"
     stroke="#000000"
     stroke-width="3.64"
     stroke-linejoin="bevel"
     points="2574.27,1183.58 2596.08,1183.58"
     id="polyline15489" />
  <polyline
     class="LyricsLineSegment"
     fill="none"
     stroke="#000000"
     stroke-width="3.64"
     stroke-linejoin="bevel"
     points="1963.22,1183.58 1985.04,1183.58"
     id="polyline15491" />
  <polyline
     class="LyricsLineSegment"
     fill="none"
     stroke="#000000"
     stroke-width="3.64"
     stroke-linejoin="bevel"
     points="826.022,1183.58 847.838,1183.58"
     id="polyline15493" />
  <polyline
     class="LyricsLineSegment"
     fill="none"
     stroke="#000000"
     stroke-width="3.64"
     stroke-linejoin="bevel"
     points="938.283,725.839 960.099,725.839"
     id="polyline15495" />
  <polyline
     class="LyricsLineSegment"
     fill="none"
     stroke="#000000"
     stroke-width="3.64"
     stroke-linejoin="bevel"
     points="1096.79,725.839 1118.6,725.839"
     id="polyline15497" />
  <polyline
     class="LyricsLineSegment"
     fill="none"
     stroke="#000000"
     stroke-width="3.64"
     stroke-linejoin="bevel"
     points="1349.07,1183.58 1370.89,1183.58"
     id="polyline15499" />
  <polyline
     class="LyricsLineSegment"
     fill="none"
     stroke="#000000"
     stroke-width="3.64"
     stroke-linejoin="bevel"
     points="422.434,1183.58 444.25,1183.58"
     id="polyline15501" />
  <polyline
     class="LyricsLineSegment"
     fill="none"
     stroke="#000000"
     stroke-width="3.64"
     stroke-linejoin="bevel"
     points="1995.19,1640.78 2017,1640.78"
     id="polyline15503" />
  <polyline
     class="LyricsLineSegment"
     fill="none"
     stroke="#000000"
     stroke-width="3.64"
     stroke-linejoin="bevel"
     points="1608.54,1640.78 1630.36,1640.78"
     id="polyline15505" />
  <polyline
     class="LyricsLineSegment"
     fill="none"
     stroke="#000000"
     stroke-width="3.64"
     stroke-linejoin="bevel"
     points="2223.26,1640.78 2245.08,1640.78"
     id="polyline15507" />
  <polyline
     class="LyricsLineSegment"
     fill="none"
     stroke="#000000"
     stroke-width="3.64"
     stroke-linejoin="bevel"
     points="784.19,1640.78 806.006,1640.78"
     id="polyline15509" />
  <polyline
     class="LyricsLineSegment"
     fill="none"
     stroke="#000000"
     stroke-width="3.64"
     stroke-linejoin="bevel"
     points="583.837,1640.78 605.653,1640.78"
     id="polyline15511" />
  <polyline
     class="LyricsLineSegment"
     fill="none"
     stroke="#000000"
     stroke-width="3.64"
     stroke-linejoin="bevel"
     points="1160.33,1640.78 1182.15,1640.78"
     id="polyline15513" />
  <polyline
     class="LyricsLineSegment"
     fill="none"
     stroke="#000000"
     stroke-width="3.64"
     stroke-linejoin="bevel"
     points="1388.41,1640.78 1410.22,1640.78"
     id="polyline15515" />
  <polyline
     class="LyricsLineSegment"
     fill="none"
     stroke="#000000"
     stroke-width="3.64"
     stroke-linejoin="bevel"
     points="2443.4,1640.78 2465.21,1640.78"
     id="polyline15517" />
  <path
     class="NoteDot"
     d="m 2591.55,1542.06 c 0,4.0678 3.2042,7.272 7.272,7.272 4.0678,0 7.272,-3.2042 7.272,-7.272 0,-4.0678 -3.2042,-7.272 -7.272,-7.272 -4.0678,0 -7.272,3.2042 -7.272,7.272"
     id="path15519"
     style="stroke-width:1.4544" />
</svg>
